<svg xmlns="http://www.w3.org/2000/svg" viewBox="0 0 88.54 101.17"><defs><style>.cls-1{fill:#f4c215;}</style></defs><title>Asset 1</title><g id="Layer_2" data-name="Layer 2"><g id="Layer_4" data-name="Layer 4"><polygon class="cls-1" points="55.84 94.31 55.74 94.31 55.74 94.32 55.84 94.31"/><path class="cls-1" d="M47.52,0,0,84.79l31.74,6.79V77.06l6.07-6,2.65-2.58,5.27-5.2V90.87L56,94.31l.12-10.38,10.59,3.54V97.82L76.26,101l.54.14L86,77.88l2.49-6.73ZM34.74,59.29V52.35l20.57,6.94,0-5.16-20.8-6.88,0-15.61L65.54,42,65,48.94,43.74,42v3.54L65,52.33l.42,17.31ZM66.2,82.23,55.74,78.84V73.61l10.44,3.46Z"/></g></g></svg>