<?xml version="1.0" encoding="utf-8"?>
<!-- Generator: Adobe Illustrator 16.0.0, SVG Export Plug-In . SVG Version: 6.00 Build 0)  -->
<!DOCTYPE svg PUBLIC "-//W3C//DTD SVG 1.1//EN" "http://www.w3.org/Graphics/SVG/1.1/DTD/svg11.dtd">
<svg version="1.1" xmlns="http://www.w3.org/2000/svg" xmlns:xlink="http://www.w3.org/1999/xlink" x="0px" y="0px" width="1280px"
	 height="800px" viewBox="0 0 1280 800" enable-background="new 0 0 1280 800" xml:space="preserve">
<g id="Triangles">
	<rect x="18.5" y="141.5" fill="#225270" stroke="#FFFFFF" stroke-miterlimit="10" width="1261" height="122"/>
	<polygon fill="#214471" points="583.551,740 653.667,618.556 723.783,740 	"/>
	<polygon stroke="#FFFFFF" stroke-miterlimit="10" points="782.083,583.922 804.497,667.573 835.116,636.955 876.532,648.052 
		865.435,606.636 865.734,606.336 	"/>
	<polygon fill="#FFFFFF" points="865.029,605 821.728,680 778.426,605 	"/>
	<polygon fill="#214471" points="339.667,457.556 339.379,458.055 382.657,533.149 360.787,570.133 345.319,543.341 
		299.444,555.863 305.57,533 296.109,533 269.551,579 409.783,579 	"/>
	<polygon fill="#214471" points="430.551,739 500.667,617.556 570.783,739 	"/>
	<polygon fill="#F4C215" points="500.348,618.001 457.047,693 500.349,693 521.787,730.133 543.657,693.149 543.657,693.149 	"/>
	<g>
		<polygon fill="#F4C215" points="313.817,502.221 296.047,533 305.57,533 		"/>
		<polygon fill="#F4C215" points="327.74,478.106 382.657,533.149 339.348,458.001 		"/>
		<polygon fill="#F4C215" points="345.319,543.341 360.787,570.133 382.657,533.149 		"/>
	</g>
	<polygon stroke="#FFFFFF" stroke-miterlimit="10" points="481.728,233.5 438.426,308.5 481.728,308.5 503.167,345.633 
		524.605,308.5 525.029,308.5 	"/>
	<polygon fill="#FFFFFF" points="525.029,271 481.728,346 438.426,271 	"/>
	<polygon stroke="#FFFFFF" stroke-miterlimit="10" points="780.083,459.922 802.497,543.573 833.116,512.955 874.532,524.052 
		863.435,482.636 863.734,482.336 	"/>
	<polygon fill="#FFFFFF" points="818.789,459.469 842.415,517.308 780.512,508.85 	"/>
	<polygon fill="#FFFFFF" stroke="#000000" stroke-miterlimit="10" points="194.029,653 216.443,736.652 132.791,714.237 	"/>
</g>
<g id="SUCCESS" display="none">
	<path display="inline" stroke="#FFFFFF" stroke-miterlimit="10" d="M452.581,653.215c1.824,1.551,3.994,2.336,6.509,2.357
		c2.977-0.044,4.486-1.142,4.527-3.295c0.022-1.764-0.973-2.824-2.984-3.182c-0.922-0.13-1.934-0.276-3.032-0.438
		c-1.971-0.335-3.468-1.087-4.494-2.256c-1.058-1.202-1.588-2.663-1.588-4.384c0-2.066,0.665-3.733,1.994-4.998
		c1.286-1.256,3.112-1.896,5.478-1.916c2.846,0.064,5.321,0.879,7.424,2.442l-1.933,2.943c-1.72-1.17-3.61-1.776-5.675-1.819
		c-1.069,0-1.96,0.275-2.672,0.827c-0.744,0.574-1.127,1.429-1.147,2.564c0,0.683,0.257,1.3,0.77,1.851
		c0.514,0.563,1.336,0.952,2.467,1.169c0.629,0.109,1.487,0.233,2.577,0.373c2.147,0.304,3.734,1.1,4.761,2.387
		c1.016,1.266,1.524,2.737,1.524,4.415c-0.115,4.524-2.794,6.819-8.037,6.884c-3.391,0-6.306-1.076-8.744-3.228L452.581,653.215z"/>
	<path display="inline" stroke="#FFFFFF" stroke-miterlimit="10" d="M471.28,635.297h3.468v15.26
		c0.021,1.612,0.472,2.841,1.353,3.684c0.861,0.889,1.967,1.332,3.319,1.332c1.354,0,2.472-0.443,3.352-1.332
		c0.86-0.843,1.301-2.071,1.321-3.684v-15.26h3.468v15.635c-0.042,2.486-0.822,4.461-2.341,5.92c-1.529,1.503-3.463,2.266-5.8,2.288
		c-2.293-0.022-4.211-0.783-5.75-2.285c-1.572-1.458-2.368-3.43-2.39-5.913V635.297z"/>
	<path display="inline" stroke="#FFFFFF" stroke-miterlimit="10" d="M508.073,652.338c-0.503,2.192-1.461,3.876-2.876,5.052
		c-1.456,1.167-3.18,1.75-5.17,1.75c-1.802-0.044-3.303-0.499-4.507-1.362c-1.225-0.834-2.115-1.796-2.67-2.889
		c-0.167-0.355-0.319-0.697-0.455-1.021c-0.126-0.336-0.23-0.757-0.314-1.265c-0.157-0.952-0.235-2.78-0.235-5.483
		c0-2.745,0.079-4.584,0.236-5.514c0.167-0.93,0.424-1.682,0.769-2.254c0.556-1.092,1.446-2.065,2.671-2.92
		c1.204-0.865,2.707-1.309,4.509-1.329c2.21,0.021,4.012,0.694,5.404,2.024c1.393,1.339,2.272,2.997,2.639,4.971h-3.682
		c-0.283-0.953-0.797-1.765-1.542-2.437c-0.776-0.64-1.72-0.972-2.831-0.992c-0.818,0.021-1.521,0.189-2.108,0.504
		c-0.599,0.324-1.081,0.731-1.448,1.219c-0.451,0.51-0.75,1.166-0.897,1.967c-0.167,0.845-0.251,2.434-0.251,4.761
		c0,2.331,0.084,3.906,0.252,4.73c0.146,0.824,0.445,1.49,0.896,1.999c0.368,0.487,0.851,0.883,1.449,1.188
		c0.587,0.356,1.29,0.535,2.108,0.535c1.952,0,3.411-1.078,4.376-3.234H508.073z"/>
	<path display="inline" stroke="#FFFFFF" stroke-miterlimit="10" d="M526.547,652.338c-0.504,2.192-1.462,3.876-2.877,5.052
		c-1.455,1.167-3.179,1.75-5.169,1.75c-1.802-0.044-3.304-0.499-4.508-1.362c-1.225-0.834-2.114-1.796-2.669-2.889
		c-0.168-0.355-0.32-0.697-0.455-1.021c-0.126-0.336-0.231-0.757-0.315-1.265c-0.157-0.952-0.235-2.78-0.235-5.483
		c0-2.745,0.079-4.584,0.236-5.514c0.168-0.93,0.424-1.682,0.77-2.254c0.555-1.092,1.445-2.065,2.671-2.92
		c1.203-0.865,2.707-1.309,4.508-1.329c2.21,0.021,4.012,0.694,5.404,2.024c1.394,1.339,2.273,2.997,2.64,4.971h-3.682
		c-0.284-0.953-0.798-1.765-1.543-2.437c-0.775-0.64-1.72-0.972-2.831-0.992c-0.818,0.021-1.521,0.189-2.108,0.504
		c-0.599,0.324-1.081,0.731-1.448,1.219c-0.451,0.51-0.749,1.166-0.896,1.967c-0.168,0.845-0.252,2.434-0.252,4.761
		c0,2.331,0.084,3.906,0.252,4.73c0.147,0.824,0.445,1.49,0.896,1.999c0.368,0.487,0.851,0.883,1.449,1.188
		c0.588,0.356,1.291,0.535,2.109,0.535c1.951,0,3.411-1.078,4.376-3.234H526.547z"/>
	<path display="inline" stroke="#FFFFFF" stroke-miterlimit="10" d="M529.57,635.297h14.632v3.373h-11.164v6.765h9.529v3.177h-9.529
		v6.961h11.164v3.372H529.57V635.297z"/>
	<path display="inline" stroke="#FFFFFF" stroke-miterlimit="10" d="M548.327,653.216c1.823,1.55,3.994,2.335,6.509,2.356
		c2.977-0.044,4.485-1.141,4.527-3.295c0.021-1.764-0.973-2.823-2.984-3.182c-0.923-0.13-1.934-0.276-3.032-0.438
		c-1.971-0.334-3.469-1.087-4.494-2.255c-1.059-1.202-1.589-2.662-1.589-4.384c0-2.067,0.666-3.734,1.994-4.999
		c1.287-1.256,3.112-1.896,5.478-1.916c2.847,0.064,5.321,0.879,7.425,2.442l-1.933,2.943c-1.72-1.17-3.611-1.776-5.676-1.819
		c-1.069,0-1.96,0.275-2.672,0.828c-0.743,0.573-1.127,1.429-1.147,2.563c0,0.684,0.257,1.3,0.771,1.851
		c0.514,0.564,1.335,0.952,2.467,1.169c0.628,0.109,1.487,0.233,2.577,0.373c2.147,0.304,3.734,1.1,4.76,2.387
		c1.017,1.268,1.524,2.739,1.524,4.416c-0.114,4.523-2.793,6.818-8.036,6.883c-3.391,0-6.306-1.076-8.744-3.228L548.327,653.216z"/>
	<path display="inline" stroke="#FFFFFF" stroke-miterlimit="10" d="M567.384,653.216c1.823,1.55,3.994,2.335,6.509,2.356
		c2.977-0.044,4.485-1.141,4.528-3.295c0.021-1.764-0.974-2.823-2.986-3.182c-0.922-0.13-1.933-0.276-3.031-0.438
		c-1.971-0.334-3.469-1.087-4.494-2.255c-1.059-1.202-1.588-2.662-1.588-4.384c0-2.067,0.665-3.734,1.993-4.999
		c1.287-1.256,3.113-1.896,5.479-1.916c2.847,0.064,5.32,0.879,7.424,2.442l-1.933,2.943c-1.719-1.17-3.611-1.776-5.675-1.819
		c-1.069,0-1.96,0.275-2.673,0.828c-0.743,0.573-1.127,1.429-1.147,2.563c0,0.684,0.257,1.3,0.771,1.851
		c0.514,0.564,1.335,0.952,2.467,1.169c0.628,0.109,1.486,0.233,2.577,0.373c2.148,0.304,3.734,1.1,4.761,2.387
		c1.016,1.268,1.524,2.739,1.524,4.416c-0.115,4.523-2.794,6.818-8.036,6.883c-3.392,0-6.307-1.076-8.745-3.228L567.384,653.216z"/>
</g>
<g id="ALASKA" display="none">
	<path display="inline" stroke="#FFFFFF" stroke-miterlimit="10" d="M488.125,663.009h4.295v25.35c0,1.008,0.537,1.512,1.612,1.512
		h1.488v4.17h-1.916c-1.566,0-2.857-0.402-3.873-1.208c-1.071-0.82-1.607-2.198-1.607-4.134V663.009z"/>
	<path display="inline" stroke="#FFFFFF" stroke-miterlimit="10" d="M509.601,691.827h-0.083c-0.398,0.752-1.017,1.305-1.854,1.659
		c-0.824,0.369-1.964,0.554-3.42,0.554c-2.39-0.029-4.231-0.682-5.522-1.958c-1.36-1.249-2.04-2.845-2.04-4.788
		c0-1.858,0.59-3.397,1.771-4.618c1.182-1.248,2.912-1.887,5.193-1.915h5.955v-2.331c0.028-1.953-1.436-2.901-4.391-2.845
		c-1.072,0-1.917,0.114-2.536,0.342c-0.646,0.271-1.155,0.728-1.525,1.369l-3.381-2.663c1.634-2.202,4.044-3.273,7.23-3.218
		c2.691-0.027,4.84,0.497,6.447,1.575c1.606,1.106,2.423,3.009,2.451,5.704v15.09h-4.295V691.827z M509.601,684.418h-5.163
		c-2.506,0.057-3.745,0.944-3.717,2.662c0,0.752,0.323,1.392,0.971,1.917c0.619,0.582,1.645,0.873,3.077,0.873
		c1.803,0.028,3.076-0.191,3.82-0.66c0.674-0.469,1.012-1.533,1.012-3.195V684.418z"/>
	<path display="inline" stroke="#FFFFFF" stroke-miterlimit="10" d="M518.281,687.037c1.75,1.889,4.01,2.833,6.78,2.833
		c1.24,0,2.253-0.248,3.039-0.745c0.786-0.496,1.178-1.191,1.178-2.086c0-0.795-0.234-1.348-0.702-1.66
		c-0.482-0.326-1.123-0.504-1.921-0.532l-3.801-0.341c-1.804-0.17-3.27-0.794-4.399-1.873c-1.157-1.05-1.749-2.519-1.776-4.406
		c0.027-2.271,0.805-3.973,2.331-5.108c1.486-1.135,3.37-1.703,5.653-1.703c0.99,0,1.877,0.064,2.661,0.192
		c0.784,0.142,1.52,0.34,2.208,0.595c1.32,0.554,2.503,1.298,3.549,2.234l-2.665,3.211c-0.827-0.615-1.702-1.124-2.624-1.525
		c-0.909-0.357-1.956-0.537-3.14-0.537c-1.35,0-2.293,0.249-2.831,0.746c-0.564,0.497-0.847,1.137-0.847,1.918
		c-0.029,0.497,0.185,0.931,0.64,1.3c0.413,0.412,1.143,0.675,2.189,0.788l3.553,0.277c2.23,0.171,3.842,0.866,4.833,2.088
		c0.922,1.194,1.384,2.707,1.384,4.539c-0.028,2.146-0.873,3.801-2.537,4.966c-1.65,1.193-3.76,1.804-6.331,1.833
		c-3.492,0-6.633-1.319-9.424-3.957L518.281,687.037z"/>
	<path display="inline" stroke="#FFFFFF" stroke-miterlimit="10" d="M535.661,663.009h4.295v19.303h0.09l8.229-10.363h5.156
		l-7.383,8.619l8.394,13.473h-5.406l-5.695-10.32l-3.384,3.958v6.362h-4.295V663.009z"/>
	<path display="inline" stroke="#FFFFFF" stroke-miterlimit="10" d="M565.565,691.827h-0.083c-0.398,0.752-1.017,1.305-1.854,1.659
		c-0.824,0.369-1.964,0.554-3.42,0.554c-2.39-0.029-4.231-0.682-5.522-1.958c-1.36-1.249-2.04-2.845-2.04-4.788
		c0-1.858,0.59-3.397,1.771-4.618c1.182-1.248,2.912-1.887,5.193-1.915h5.955v-2.331c0.028-1.953-1.436-2.901-4.391-2.845
		c-1.072,0-1.917,0.114-2.536,0.342c-0.646,0.271-1.155,0.728-1.525,1.369l-3.381-2.663c1.634-2.202,4.044-3.273,7.23-3.218
		c2.691-0.027,4.84,0.497,6.447,1.575c1.606,1.106,2.423,3.009,2.451,5.704v15.09h-4.295V691.827z M565.565,684.418h-5.163
		c-2.506,0.057-3.745,0.944-3.717,2.662c0,0.752,0.323,1.392,0.971,1.917c0.619,0.582,1.645,0.873,3.077,0.873
		c1.803,0.028,3.076-0.191,3.82-0.66c0.674-0.469,1.012-1.533,1.012-3.195V684.418z"/>
	<path display="inline" d="M479.204,685.843h-11.399l5.809-20.129l12.722,27.069h-4.803L479.204,685.843z M477.905,681.676
		l-4.35-13.576h-0.083l-4.349,13.576H477.905z"/>
</g>
</svg>
