<svg xmlns="http://www.w3.org/2000/svg" viewBox="0 0 472.19 79.64"><defs><style>.cls-1{fill:#fff;}.cls-2{fill:#f4c215;}</style></defs><title>Asset 2</title><g id="Layer_2" data-name="Layer 2"><g id="Layer_4" data-name="Layer 4"><path class="cls-1" d="M1.66,11.74H7l.18.19H7.4l.19-.19L8,12.3v3.14l-.18,2,.18.19v.18L7.77,18,8,20.25v1.29a2.56,2.56,0,0,1,2.22,2.59L8.69,25.24l-.19-.19L8,23.57H7.77l-.55.37.18.92v.37L7.21,26.9l.18.74-.18.18H7.4l-.18.55.37,1.11q0,.79-3,1.48l.37.37H6.29L6.84,31c.25,0,.37.18.37.55L7,32.45q.37,0,.37,1.48h.19c0-.74.12-1.11.37-1.11H9.06v-.37L8.14,31,8.32,30h.55a3.71,3.71,0,0,1,2,3.33h.18q1.85,0,1.85-1.48,0-1.25,1.66-2.22l-.18-.19v-.18q0-.37.74-.37v-.55q-1.85,0-2.59-3.14l.18-.92q0-.83-2-3.33l-.37-2.22.37-2.4-.37-2.77V12.48l-.19-.19.19-.55h1.11q1.29,0,1.29,2.22l1.29,4.81h.19l1.48-.55.19.18v.19q0,.55-1.29,1.48l.37.37-.37,1.11q.23,1.11.55,1.11l-.18.18V23q3.14,16.64,3.88,18.3.92.14.92.55l-.92.55v.37q1.06,6.29,2.4,7.21l-.74.74.37.92h.37a15.7,15.7,0,0,1,1.11-4.81L22,45.76A5.85,5.85,0,0,0,22.93,43l-.18-.74q.56-.74,3.33-16.64l.55-.74-.55-.37.18-.18v-.92L25.89,23H25.7l-.18.19h-.18q0-.32-1.66-.55v-.19l.55-.55q-1.11,0-1.11-1.29h.18a1.67,1.67,0,0,1,1.48,1.11l.55-.37.92.19h.19q.51,0,1.66-6.84l.18-.19v-.18l-.18-.92.18-.18h.18l.37.37h.37l.55-.37h.37v.37h.19l-.19.92.19.74h.37q.18-1.25.55-1.29l-.18-.18v-.19a2.37,2.37,0,0,1,2.4-1.85h1.29l.92.19-.18.92.18.19h.55q.37,0,.74-1.11h.18l.74.55h1.66l.55-.37h.19c.25,0,.37.25.37.74q.32,0,1.29,1.29h.18v.37h-.37c-.25,0-.37-.18-.37-.55h-.74v.37L41,15.81V16l-.18,1.66q.28,3.7.92,3.7c.25,0,.37-.25.37-.74h.18l.37,1.48-.18.18-.92-.18-.37.37V23l.19.19v.18l-.55.19v1.11q0,1.43,3.33,2.4l.18.18v.55l-1.29-.18h-.55L42,28.2l.92,1.11v.55h.37v-.37h.37l.18,1.29a2.14,2.14,0,0,1-1.66,1.11L42,31.71v-.18A1.22,1.22,0,0,0,41,32.82l.18.92h.19l1.29-1.29h.18A2.25,2.25,0,0,0,44,34.3l-.37.55v.92Q42,35.78,41,38.37l.55.37h.18l.55-.37-.18-.18v-.55l.74-.19.37,1.85q-2,.19-2,.74v2.22l.19.19-.19.19v.74l.74.19v.74q0,.93-.55.92v.19q.74,0,.74.92l-.55.19v.37c0,.25.25.37.74.37l-.18.92q0,1.34,2.4,1.66V50l-.55.92.19.18h.18l.55-.18.37.74Q45.07,53,44.56,53l-2-.55-.37.55.18.19-1.11.55.19.74-.19,2.4L41.42,62l-.19,2.59.19,2.4v.55l-.19.18.19.19V69.8q0,1.11-1.48,1.11H39l-3-.19-.18.19h-.19l-.74-.19h-.18l-.19.19L34,70.72l-1.11.19a1,1,0,0,1-.74-1.11V62.4L32,60.74l.18-.19L32,59.26V57.78l.18-.18L32,57.41V56.12l-.19-6.47-1.48-.74-.37.55v.37q0,.28,1.48.74v.19q-.19.55-1.11.55H28.84l-.37.74v1.29l.37.55q-.46,0-.55.92-.37,0-.37,1.66h-.18l.18.18V57q-.92,1.48-2.4,9.61L25,67l.18.55q0,3.14-1.85,3.14l-.18-.19h-2.4l-2.59.19q-.93,0-1.85-5.73l-2-7.77.18-.18V56.3l-.55-1.11.18-.19q-.46,0-2.4-9.24v-.19l1.11-.74c.49,0,.74-.12.74-.37s-.31-.52-.92-.55v-.55l.18-.18-.55-1.48v-.37a.49.49,0,0,0,.55-.55l-.18-.55q1.29-.23,1.29-.55V38.18q-.56-.46-1.11-4.62H11.65q-1.29.42-1.29,2.59l.18,1.66q-.37,0-.37.55H9.8q-.37-2.22-.74-2.22H8.88l.18,1.48-.18,1.85h.18l-.18.19v.74l.18.18-.18.19v1.48H8.14q-.74-.37-.74-.92H7.21L7,41.88l.18.74L7,45.39q.28,0,.55.74A6,6,0,0,0,7,48.9l.18.55h.37c0-.62.12-.92.37-.92l.74.92v.37q0,.37-1.29.55v.37L7.21,53H7.4l-.18.19v.18l.37,1.11V55q0,.37-.74.37v.18l.55.74v.37q0,.37-.55.37L7,58l-.37,1.11q1.66,1.8,1.66,2.22l.55,1.11a7.9,7.9,0,0,0-.37,3v.74l-.92,1.11v.55l.37.55q-.14,2-.55,2-.32-1.29-.74-1.29l-.37,1.11-2,.55H4.07a2.91,2.91,0,0,1-1.85-.92q.32-1.48,1.29-1.48v-.55q-1,0-1.29-1.66-.93,0-.92-.74H.92v.74l.37.37L1.11,67H.74Q.19,67,0,63.7L.18,62V60.74L0,59.63l.55-3.14C.49,55.38.37,54.82.18,54.82l.19-.19v-.19L.18,47.24l.37-.55V46.5L0,45.76l.18-.19V41.32L0,40.21l.37-.55L0,37.07V35l.18-1.66L0,31.52v-3l.37-.74L0,27.09.18,26v-.19L0,25.61l.37-.92L0,23.76l.18-.19L0,21.36V19.69L.18,19,0,18.77v-.19l.18-.19L0,16.55v-.37q0-.92.37-.92L0,14.7l.18-.19v-.18L0,12.3v-.37H.37l.18.19ZM.74,68.69H.92v.55l-.37.37H.37v-.55Zm2-16.83.18.55q1.48,0,1.48-.74l-.37-.55Q2.77,51.54,2.77,51.86Zm.74,3.51v.37h.55l.37-.37V55H3.88Zm.92-12.2v.92l.92.19h.18V43Zm1.48,3.51q0,.37-1.11.74v1.11H5q1.8-.69,1.85-1.11v-.55Zm-.19,7.4v.74h.19l.92-.92v-.55Q5.73,53.76,5.73,54.08Zm.19,13.13.37.37.37-.37v-.37H6.29Zm.74-40.12L6.29,28h.19l.74-.74Zm.74,8.69-.37,5,.18.19H7.4L8,38.74l-.37-3Zm.19-8.69.37.37v.19H7.58ZM8.69,42.62h.18v1.85a6.12,6.12,0,0,0,.37,2.4l-.37,1.29H8.32l-.18-.92.18-1.85L8,43.73ZM8.14,25.79l.55.55H8.14Zm2.4,0h.18V26l-.37.37h-.19v-.19Zm17.2-.37V26l.37.37-.19.92v.19h.37l.37-.37V26.9l-.37-1.48Zm3.7,11.83v.55l-.37,1.11.37.74q-.83,0-1.85,8.14l.55.37h1.48q.42,0,.37-.55l-.19-3.14L32,40.4l-.19-.74.19-.92-.19-1.48ZM30.14,16.55v.55h.37v-.55Zm.55,8.88V26l.37-.37v-.18Zm.55-9.8q0,1.11,1.29,1.11l.74-.37V16q-.74-1.62-1.11-1.66t-.74,1.29Zm2.4-3v.55h.18l.37-.37L34,12.67Zm2.22,53.8v.37l.37.37.19-.55Zm.18,3v.19l.37.37h.18V69.8l-.37-.37Zm5.73-18.86-.18.74h.55l.18-.74Zm.37-27.36h.55l.37.37v.19h-.55l-.37-.37ZM43.27,48h.37l.18.74h-.18l-.37-.37Zm.55-24H44l.92.19v.37l-.55.19-.55-.19Zm1.11-10.17,2.4.55v1.11l.55.74v.19l-.74.19q-2.59-.92-2.77-1.66V14Zm-.55,8.32.55.18v.37h-.55Z"/><path class="cls-1" d="M56.18,10.49a5.37,5.37,0,0,0,3.14.74l.55-.19q2,.46,2,1.11l-.18.55.18,2v.55q0,2.22-.55,2.22l.37,2.4v2.4q0,1.85-.37,1.85l.19.92v1.29l.18.18v.19l-.37.37v.74l.19.92-.37.37.92.92h.18c.25,0,.37-.19.37-.55l.18-.19H63l.55.55-.18.19v.19l-.18-.19h-.37l-.37.37v.37h1.29V31q-.14.65-1.11,1.11h-.19l-.37-.37h.18q-.42-1.11-.74-1.11L61,31l.18.92v.37L61,34l.37.92a1.82,1.82,0,0,1-1.48.55v.19l.55,1.66-.19,1.11q.6,0,.92,2.59h.18q0-1.11.37-1.11l1.29.19v-.19l-.92-2.77q2.08,0,2.59,3.33h.19q1.85,0,1.85-1.48a2.25,2.25,0,0,1,1.48-2l.37-.74L71,36l2.77.55.74-.18q1.11.19,1.11.55a1.73,1.73,0,0,1-1.11,1.48L73.93,38h-.18l-.37.37V39l.37.55v.37q-.56,0-.55,1.29-1.11,0-1.48,2.4-1.29,1.8-1.66,1.85l-.74-.55-.37.37h-.18q-2,0-2-3.33,0-1.29-.37-1.29h-.92q-1.29.42-1.29,2.59l.19,1.66a2.25,2.25,0,0,1-1.48.74q-1.29,0-1.29-1.66l-.19-1.11h-.18l-.37,2.22.19.55-.37.74L61,48.58l-.19.18V49l.19.74-.19,2q.14,1.11.37,1.11L61,53v.18l.18.92q-.14,1.11-.37,1.11L61.17,58,61,60l.18.19H61l.37,1.29-.18,2.4h.18l-.92,2.22q2.22,2.45,2.22,3.51t-2.59.92H54.33l-.55-.37H53.4l-.18.18H53l-.37-.55v-.55h.18l.92.19v-.74l-.55-2.22.55-.55q0-.92-1.11-1.29v-.19q.92,0,.92-.37v-.37q-.69,0-1.11-2.4l.19-.19V61L52.48,60l.19-1.66-.19-1.66.19-.19v-.18l-.19-.74v-.37H53v-.37l-.74-.18.18-.92-.18-3.51.37-1.66-.37-1.48L53,46v-.18l-.55-.92.37-4.44q-.37,0-.55-1.11l.55-2.59-.55-.19v-.37q0-.37.55-.37l.18-.19v-.37q0-.46-1.48-.74v-.37q.51,0,.74-4.07l-.18-.74.18-.55q-.74-.28-.74-.55l.55-.92v-.55q0-.46-.74-.55V26c.49,0,.74-.12.74-.37v-2.4l-.19-.18.19-.19V18.63l-.37-1.48.37-.55L51.92,16l.19-2.22-.19-.74.19-.74v-.19L51.92,12v-.19l.55-.37h1.85A3.05,3.05,0,0,0,56.18,10.49ZM52.85,31.76v.37a1,1,0,0,0,.74,1.11l.37-.37h.74q.37,0,.37.55l.37-.37V32.5q-.93-.14-.92-.55v-.37l.37-.55v-.37h-.74ZM53.4,15.3,53,16.78l.19.19H54l.37-1.11h-.19ZM53,38.41l.37,2.22h.37l.37-.37v-.19l-.55-.92.19-.74-.19-.19H53.4l-.18.19ZM54.33,26v.55h.55v-.18L54.51,26Zm.18-8.69v.74h.55V17.7l-.37-.37Zm.18,19.23v.19l1.11,1.11L54.7,38v.18a2.25,2.25,0,0,1,.74,1.48v.92l.74.37h.92l.74-.92-.55-1.85q-.37,0-.37-.74l-.18-.19h-.18l-.74.19Q55.81,36.56,54.7,36.56Zm.19-11.46h.18q0-.37.92-.37l.18-.19v-.37h-.74Q55.11,24.18,54.88,25.1Zm.92-6.29V19l.37.37h.18v-.55Zm.74,13.5-.19.19v.18l.19.55h.55v-.37Zm0-3.51V29q.18,1.48.55,1.48h.37l.74-.74A3.24,3.24,0,0,0,56.55,28.8Zm.18,7-.18.18v.37l.55.55h.37v-.37Zm.55-4.07-.18.19v.18q.14.56,1.48.55l.55,1.48q1.11-.14,1.11-.37a2,2,0,0,0-1.29-2h-.37l-.74.19Zm0,1.85v.55l.55-.55v-.19ZM57.66,24l-.19,1.11h.19l.92-.19.74.19v-.19Q59.32,24.36,57.66,24Zm.18-6.1v.74q.46,0,1.11-.92l-.18-.55h-.19ZM58,26.58l.19.19h.37v-.55H58.4Zm.19,20.34v.37q.55,0,.55.92h.37v-.92Zm.55-17.75v.18l.37.37.19-.19v-.37Zm.37,15.9v.37h.55v-.37ZM74.67,11l.74.37.55-.19.55.74.37-.74L78,11.6l.92-.18q1.29,0,1.29.92h.37l.55-.37h.18l.19.92a3.1,3.1,0,0,0-1.85.74l.37.74,1.29-.18h.37l.92.37v.37q-.09.56-1.48.55,0-.55-.37-.55v.19l.37.55v.55H80v.19l.18.74-.37.92q0,.51,1.29.92v.55H81L80.4,19q-.32,0-1.48,1.66l-1.11.19-2.4-.37-1.85.19-.18-.19-.92.19H70.78l-1.11.19-.92-.19-.37.37-.55-.37h-.37a3.12,3.12,0,0,1-1.85.55V21l-1.29.55V21.4l-.19-.74.19-.74q-.37-.46-.92-6.1l-.18-.18.18-.74v-.19l-.18-.18q.23-1.11.55-1.11h4.81L70,11.6l1.48-.18h.37l2.22.18ZM64.13,61.34h3.33l.74.55,1.11-.55.74.18.74-.18.55.18.74-.18h.37v.18l2.22-.18h2.77q.14,1.29.37,1.29l-.18.92v1.29l-.19.19.19.19V66l-.37.37q-.37,0-.37-.92h-.55v.74l-4.44-1.48V65q2.22.6,2.22,1.48L73,66.89a11.69,11.69,0,0,1,.74,3.51l-.19.19L73,70.4l-.92.19-.74-.19-1.11.19-.74-.19-2.22.19a2.93,2.93,0,0,1-2.22-.92q-.23.83-.74.92l-.37-.37.74-2-.74-4.81V62.26Zm.19-34h.55c0,.37.12.55.37.55l1.11-.37v.18l-.74.55-.18.19v.19Q64.73,28.43,64.31,27.32Zm1.11-14.05V14H66v-.37l-.37-.37Zm.92,14.79h.37l1.48.18v.37H66.53Zm0,.92h.19l.37.37h-.55Zm1.11,33.65V63h-.18q.18,2.22.74,2.22l.37-.37-.18-.92.37-.37-.92-.92Zm4.62-25.89v.19l.18,1.29q1.29-.69,1.29-1.29l-.18-.19Zm2.77,2.4q.79,0,.92,2.22l-.37.37v.37q0,.37.74.37l-.37.92h-.55a1.31,1.31,0,0,1-.92-1.29v-.18l.74-.19v-.19L74.48,41l-.18.19h-.19v-.37q1,0,1.11-.55,0-.37-.55-.37l-.18-.18v-.19ZM76,78.35l.74.19v.18q0,.37-2.59.74v-.19Q74.11,78.86,76,78.35ZM74.3,66.15q3.33,0,3.33,1.66V68l-.19,1.11.19.55q-.28.74-.55.74H75.59l-.18-.92.18-1.29q-.51,0-1.29-1.85Zm2.59-25.52h.19v.19l-.37.55v.18q0,.37.55.37l.18.18v.19h-.18q-.74,0-.74-.92h-.19ZM79.1,78l.74.18v.37l-.37.37q-.93-.23-.92-.55v-.19Zm.37-65.82v.37H80l-.37-.37Zm2.4,66.56h.55l.19.92h-.55Zm1.29-60.28.92.92-.55.19-.92-.19ZM83,78.53l.37.37-.18.19v.18l-.55-.18V78.9Zm1.11.37h.55l-.37.37H84.1Zm2.4-63.6.37.37v.19h-.74v-.19Zm-.37,2,1.29.19h.37l.18.55L86.69,19h-.37v-.37h-.18l.18-.19v-.19Zm3.51-2.77h.19l1.11.55.18-.55h.18l.55.55v.19q0,.74-3.14.74l-.19-.18v-.19Zm3-2.59H93v.55l-.37.37h-.19Zm.37,3V16H92.6l-.19-.74Zm5.18-.37h.37q0,1.11-2.22,1.66a4.06,4.06,0,0,0-2.4-.55l-.18-.19v-.55h.55v.37Q98.15,14.93,98.15,14.56Z"/><path class="cls-1" d="M91.14,10.49a5.37,5.37,0,0,0,3.14.74l.55-.19q2,.46,2,1.11l-.18.55.18,2v.55q0,2.22-.55,2.22l.37,2.4v2.4q0,1.85-.37,1.85l.19.92v1.29l.18.18v.19l-.37.37v.74l.19.92-.37.37.92.92h.18c.25,0,.37-.19.37-.55l.18-.19H98l.55.55-.18.19v.19l-.18-.19H97.8l-.37.37v.37h1.29V31q-.14.65-1.11,1.11h-.19l-.37-.37h.18q-.42-1.11-.74-1.11l-.55.37.18.92v.37L95.95,34l.37.92a1.82,1.82,0,0,1-1.48.55v.19l.55,1.66-.19,1.11q.6,0,.92,2.59h.18q0-1.11.37-1.11l1.29.19v-.19l-.92-2.77q2.08,0,2.59,3.33h.19q1.85,0,1.85-1.48a2.25,2.25,0,0,1,1.48-2l.37-.74,2.4-.19,2.77.55.74-.18q1.11.19,1.11.55a1.73,1.73,0,0,1-1.11,1.48l-.55-.37h-.18l-.37.37V39l.37.55v.37q-.56,0-.55,1.29-1.11,0-1.48,2.4-1.29,1.8-1.66,1.85l-.74-.55-.37.37h-.18q-2,0-2-3.33,0-1.29-.37-1.29h-.92q-1.29.42-1.29,2.59l.19,1.66a2.25,2.25,0,0,1-1.48.74q-1.29,0-1.29-1.66l-.19-1.11h-.18l-.37,2.22.19.55-.37.74.37,2.22-.19.18V49l.19.74-.19,2q.14,1.11.37,1.11l-.18.19v.18l.18.92q-.14,1.11-.37,1.11L96.13,58l-.18,2,.18.19h-.18l.37,1.29-.18,2.4h.18l-.92,2.22q2.22,2.45,2.22,3.51T95,70.58H89.29l-.55-.37h-.37l-.18.18H88l-.37-.55v-.55h.18l.92.19v-.74l-.55-2.22.55-.55q0-.92-1.11-1.29v-.19q.92,0,.92-.37v-.37q-.69,0-1.11-2.4l.19-.19V61L87.44,60l.19-1.66-.19-1.66.19-.19v-.18l-.19-.74v-.37H88v-.37l-.74-.18.18-.92-.18-3.51.37-1.66-.37-1.48L88,46v-.18l-.55-.92.37-4.44q-.37,0-.55-1.11l.55-2.59-.55-.19v-.37q0-.37.55-.37l.18-.19v-.37q0-.46-1.48-.74v-.37q.51,0,.74-4.07l-.18-.74.18-.55q-.74-.28-.74-.55l.55-.92v-.55q0-.46-.74-.55V26c.49,0,.74-.12.74-.37v-2.4l-.19-.18.19-.19V18.63l-.37-1.48.37-.55L86.89,16l.19-2.22-.19-.74.19-.74v-.19L86.89,12v-.19l.55-.37h1.85A3.05,3.05,0,0,0,91.14,10.49ZM87.81,31.76v.37a1,1,0,0,0,.74,1.11l.37-.37h.74q.37,0,.37.55l.37-.37V32.5q-.93-.14-.92-.55v-.37l.37-.55v-.37h-.74Zm.55-16.46L88,16.78l.19.19h.74l.37-1.11h-.19ZM88,38.41l.37,2.22h.37l.37-.37v-.19l-.55-.92.19-.74-.19-.19h-.18l-.18.19ZM89.29,26v.55h.55v-.18L89.48,26Zm.18-8.69v.74H90V17.7l-.37-.37Zm.18,19.23v.19l1.11,1.11L89.66,38v.18a2.25,2.25,0,0,1,.74,1.48v.92l.74.37h.92l.74-.92-.55-1.85q-.37,0-.37-.74l-.18-.19h-.18l-.74.19Q90.77,36.56,89.66,36.56Zm.19-11.46H90q0-.37.92-.37l.18-.19v-.37H90.4Q90.08,24.18,89.85,25.1Zm.92-6.29V19l.37.37h.18v-.55Zm.74,13.5-.19.19v.18l.19.55h.55v-.37Zm0-3.51V29q.18,1.48.55,1.48h.37l.74-.74A3.24,3.24,0,0,0,91.51,28.8Zm.18,7-.18.18v.37l.55.55h.37v-.37Zm.55-4.07-.18.19v.18q.14.56,1.48.55l.55,1.48q1.11-.14,1.11-.37a2,2,0,0,0-1.29-2h-.37l-.74.19Zm0,1.85v.55l.55-.55v-.19ZM92.62,24l-.19,1.11h.19l.92-.19.74.19v-.19Q94.28,24.36,92.62,24Zm.18-6.1v.74q.46,0,1.11-.92l-.18-.55h-.19ZM93,26.58l.19.19h.37v-.55h-.18Zm.19,20.34v.37q.55,0,.55.92h.37v-.92Zm.55-17.75v.18l.37.37.19-.19v-.37Zm.37,15.9v.37h.55v-.37Zm15.53-34,.74.37.55-.19.55.74.37-.74,1.11.37.92-.18q1.29,0,1.29.92h.37l.55-.37h.18l.19.92a3.1,3.1,0,0,0-1.85.74l.37.74,1.29-.18h.37l.92.37v.37q-.09.56-1.48.55,0-.55-.37-.55v.19l.37.55v.55H115v.19l.18.74-.37.92q0,.51,1.29.92v.55h-.18l-.55-.55q-.32,0-1.48,1.66l-1.11.19-2.4-.37-1.85.19-.18-.19-.92.19h-1.66l-1.11.19-.92-.19-.37.37-.55-.37h-.37a3.12,3.12,0,0,1-1.85.55V21l-1.29.55V21.4l-.19-.74.19-.74q-.37-.46-.92-6.1l-.18-.18.18-.74v-.19l-.18-.18q.23-1.11.55-1.11h4.81l1.48.18,1.48-.18h.37l2.22.18ZM99.09,61.34h3.33l.74.55,1.11-.55.74.18.74-.18.55.18.74-.18h.37v.18l2.22-.18h2.77q.14,1.29.37,1.29l-.18.92v1.29l-.19.19.19.19V66l-.37.37q-.37,0-.37-.92h-.55v.74l-4.44-1.48V65q2.22.6,2.22,1.48l-1.11.37a11.69,11.69,0,0,1,.74,3.51l-.19.19L108,70.4l-.92.19-.74-.19-1.11.19-.74-.19-2.22.19a2.93,2.93,0,0,1-2.22-.92q-.23.83-.74.92l-.37-.37.74-2-.74-4.81V62.26Zm.19-34h.55c0,.37.12.55.37.55l1.11-.37v.18l-.74.55-.18.19v.19Q99.69,28.43,99.28,27.32Zm1.11-14.05V14h.55v-.37l-.37-.37Zm.92,14.79h.37l1.48.18v.37h-1.66Zm0,.92h.19l.37.37h-.55Zm1.11,33.65V63h-.18q.18,2.22.74,2.22l.37-.37-.18-.92.37-.37-.92-.92ZM107,36.75v.19l.18,1.29q1.29-.69,1.29-1.29l-.18-.19Zm2.77,2.4q.79,0,.92,2.22l-.37.37v.37q0,.37.74.37l-.37.92h-.55a1.31,1.31,0,0,1-.92-1.29v-.18l.74-.19v-.19l-.55-.55-.18.19h-.19v-.37q1,0,1.11-.55,0-.37-.55-.37l-.18-.18v-.19Zm1.11,39.2.74.19v.18q0,.37-2.59.74v-.19Q109.07,78.86,110.92,78.35Zm-1.66-12.2q3.33,0,3.33,1.66V68l-.19,1.11.19.55q-.28.74-.55.74h-1.48l-.18-.92.18-1.29q-.51,0-1.29-1.85Zm2.59-25.52H112v.19l-.37.55v.18q0,.37.55.37l.18.18v.19h-.18q-.74,0-.74-.92h-.19ZM114.07,78l.74.18v.37l-.37.37q-.93-.23-.92-.55v-.19Zm.37-65.82v.37H115l-.37-.37Zm2.4,66.56h.55l.19.92H117Zm1.29-60.28.92.92-.55.19-.92-.19Zm-.19,60.09.37.37-.18.19v.18l-.55-.18V78.9Zm1.11.37h.55l-.37.37h-.19Zm2.4-63.6.37.37v.19h-.74v-.19Zm-.37,2,1.29.19h.37l.18.55-1.29.92h-.37v-.37h-.18l.18-.19v-.19Zm3.51-2.77h.19l1.11.55.18-.55h.18l.55.55v.19q0,.74-3.14.74l-.19-.18v-.19Zm3-2.59h.37v.55l-.37.37h-.19Zm.37,3V16h-.37l-.19-.74Zm5.18-.37h.37q0,1.11-2.22,1.66a4.06,4.06,0,0,0-2.4-.55l-.18-.19v-.55h.55v.37Q133.11,14.93,133.11,14.56Z"/><path class="cls-1" d="M130.12,9.71h.55q.18,2.22.74,2.22H132l2.59.19.55-.19.74.74,2.59-.55h1.11l3.88-.19,2.77.19,1.11-.19.92.19.18-.19h.18q1.66,0,1.66,1.48.32,0,.55,1.48.92.23.92.55t-1.29.74v.19l2,.74-.18.55q.74.32.74.74h.19l.92-.18.19.18-.37.74.18.19h.19q0-.6,2.22-1.48l1.48.74.74-.19a1.67,1.67,0,0,0,.92.92l.74-.19.18.19q-.37,1-.92,1.11l-3-.19-1.48.19v.18q0,.88,2.59,1.11l.37-.37h.18v.19l-.74,1.11.18.18V23l-.37.37v.19h.37v.19q1.29,0,1.29-1.48l-.18-.92.37-.37.55.18v.92a1.18,1.18,0,0,0,1.11.74,1.13,1.13,0,0,1,1.11-.74v-.37L161,19.88a1.92,1.92,0,0,1,1.85-.92q0-.37,1.11-.37l.74-1.11h.74l.18,1.29H166q.32,0,.55-.92l2.22-.37q1.66.42,1.66.74,0,1.11-2,1.11l-.74.74.92.37v.18a1,1,0,0,0-1.11.92h-.92q-1.66,0-1.66-.92h-.37L164,21l-.55-.55h-.18L163,21.73q0,.37,1.11.55v.92l.19,1.29-.74.37-.55-.19-.55.19-1.11-.19-.37.74v.37l.37.55v.19l-3.51.37L156.56,26h-.19q-2,.55-2,1.66l-.92.18-.74-.37q.37-.92,1.11-.92l.18-.92-.18-1.11,1.29-.92V22.46l-.55-.19-.18.19h-.19l-1.29-.74-1.11.37-1.29-.37-.92.37-1.66-.19-.92.19q0-.88-3.14-.92t-3.14.92v.37h.18l-.18,1.85v1.85l-.18.19.18.55.18,7H141l-.19.19v1.11l.19.55-.19.92v1.48l.19.18q-.23,3-.92,3v.55q.74.09.74.55V43l-.37.37h-.37l-.55-2h-.37l-2,.74v.18a2.13,2.13,0,0,0,1.29.55V43q-.23.37-4.07,1.29V44.1L132.9,45h-.74v-.18l.55-.74q-.93-.23-.92-.55v-.92l.18-.92a3,3,0,0,1,1.66.55l1.11-.18.55.55h.37l.37-.37A3.89,3.89,0,0,0,133.27,41l-1.11.37-.37-.55V38.55l.18-2.77-.18-.92.18-2.22h-.18l.18-.55-.18-.92.18-.92-.18-.92.18-.92-.18-2.22q-.14-1.85,1.11-1.85v-.74q-.74,0-1.29-2.22l.18-.55-.18-.19H131l-.55.37q-1.66,0-1.66-1.11l.74-.55L129.2,19v-.18q0-1.43,1.11-1.66l-.18-.19v-.37q0-.37.74-.37l.55-1.66h-.18l-.18.19-.55-.19v-.37l.18-.19v-.18l-.18-.19Q128,16,127.35,16v-.19l-.37-.37h-.18a.65.65,0,0,1-.74.74l-.55.74.55.55H127q.09-.74.55-.74h.55l.19.92-.74.74.19.92h.18c.25,0,.37-.25.37-.74q.32,0,.55,1.29h-.37l-.18-.19h-.19L127.53,21q-1.11-.18-1.11-.92h-.18l.18-.92V19q-1.11,0-1.11-.74v-.37h-.55l-.55.55,1.11.55a.49.49,0,0,1-.55.55v.19q.74,0,.74,1.11a7.91,7.91,0,0,1-3,.37l-.37-1.11q.37,0,.37-1.11l1.29-.37V17.29l.74-.74.55.18q0-.88,1.48-2l-.37-.37A1.53,1.53,0,0,0,125.13,16h-.18l-.37-.37v-.37l.37-.55-.19-.19.19-.18v-.55q-2.59-.28-2.59-.92t1.29-.74l1.11.37-.18.55.18.19h.37l1.66-.74.55.19v.55h-.92v.18l.37.37h1.48c0-.49.12-.74.37-.74a.49.49,0,0,0,.55.55l1.29-.74ZM131.6,18a1,1,0,0,0,1.11.74h.18q0-.37.55-.37l.18-.18V18l-.18-.19-.74.19-1.11-.19Zm8,25.33h.37q-1.62,1.25-1.66,2.22H139q0-1.29,1.11-1.29h.55l.18.55-.18.92.18.74a1.22,1.22,0,0,1-1.29.92h-1.29L136,46.87v.92l-2.59.37v.37l2.59.37v-.18l.74.37q0-1.16,3.88-1.66l.18,1.11-.55.19v.55c.34,0,.52.18.55.55l.19,3.88-.19,1.48.19,4.07v2.22l-.37.55.18,1.29-.55.55q.74.09.74.55v1.11L140.85,67,141,68.5l-.19.92.19.19v.19l-.19,1.11h-1.11l-.74.18-.18-.18h-.19l-2.59.18-1.48-.18v.18l-.18-.18-1.29.18h-.55q-.37,0-.37-1.85H132l.19-.19V67L132,65.92q0-2.22,1.29-2.22l.74.18.18-.18v-.37H134l-1.66.19L132,63V55.19l.19-1.66L132,52.23V52l.37-1.29-.37-.37V50.2l.37-1.11h-.18l.18-.19v-.37L132,48V46.5l1.29-.19h.18v.19l-.74.92v.19h1.85v-.19l-.18-.92.55-.19.55.19.18-.19v-.19L135.49,45v-.18H136Zm-6.84-21.63v.19l.37.37v-.55Zm.18-9.24v.37h.37l1.66.37.18-.19v-.19q0-.37-1.11-.37V12.3Zm.18,6.29V19l.37.37v-.55Zm.55,41.79-.55-.18v.37l1.11.19.55-.19v-.55Zm-.18-38.64A2.52,2.52,0,0,0,134.75,23,1.79,1.79,0,0,0,136,21.36a.49.49,0,0,1-.55-.55l.18-.55h-.55A3.13,3.13,0,0,0,133.45,21.91Zm.37,2.4v.55h.55v-.55Zm.74,9.06.18.55h.37v-.55Zm.55,29.21-.18.18v.37l.18.18q-.09.74-.55.74v.37l.37.74h.55l-.37-1.48h1.11Zm0-17.57h.18v.37l-.55.18v-.18Zm.74-5.92.19.55h.37l.37-.37v-.37h-.55l-.18.19Zm.19,6.66v.37l.18.19v.19l.92-.19Q137,45.76,136,45.76Zm1.29,17.56-.37.55.19.19v.19L137,65h.37l.55-.74q1.66,0,1.66-.55v-.19h-.37Zm.55-43.27-.18,1.11h.37l.19-1.11Zm0,25.7-.18.55h.55v-.19Zm12.94-22.93v.55h-.18l-.37-.37.19-.19Zm1.48-2.4.37.37H153v-.19l-.18-.18v-.19Zm3.14,6.66h1.48v.37H158v.19q0,1.11-2.4,1.11l-.37-.37.37-.55-.18-.18Zm.37-3v.37q1.29.23,1.29.92h.55v-.55a.49.49,0,0,1-.55-.55l-.74-.37Zm3.7,1.11-.18.19v.18q.18.56,1.11.55v-.37Q160.45,25.38,159.52,25.24ZM162.29,21v.37h.55V21Zm4.44,5.92h2.59l.74.37.55-.18,1.85.37a1.3,1.3,0,0,1-1.29,1.11l-1.11.19v-.19l.37-.55h-.55l-.37.37v.19a5.23,5.23,0,0,0-2.22-.74l-.18-.18-.74.18-.55-.18v-.55Z"/><path class="cls-2" d="M193.07,10.91a3.15,3.15,0,0,1,1.66.55l.74-.55h.18l.55.55-.55.74v.37h.55l.92.19-.18-.19V12.2l.37-.37h.19L201,13.31v.19l-.18.18v.19q1.89,0,5,4.81a7.13,7.13,0,0,1,1.11,2.77v.19q-.56,0-.55.37v.19l1.11.19-.19.92v1.11l.55.74v.18A1.48,1.48,0,0,1,206.56,27v.37q.92,0,.92.37v.74l-.19.18v.19h.19l-.37.74.37,3.88-.19.74h.55v-.55h.37l.18.19.19-.19h.74v.19l-.74.55-.19.19v.18l-.92-.18h-.19v.18l.55.74v.19l-.18.18.18.55h.55v-.74h.92L209,37.9l1.11,1.29-.18.19v.19l.18.18-.18.19-1.48-.37-.55.18v.92l-.37.55V54.17q0,.42-1.85.92v.18q1.85,0,1.85.55V56l-.19.19v.18a6.34,6.34,0,0,1-3.51-.92h-.18l-.37.37.92.92q-.23.93-.55.92h-.19l-.74-.55a.49.49,0,0,1,.55-.55v-.19a.49.49,0,0,1-.55-.55l.18-.55h-.18l-.18-.18-.19.18h-.55q0-1.66-1.85-1.85,0-.23-1.48-.37V52.7h-.18l.18-.19-.18-2.22v-2.4l.18-.74-.37-.92.18-2.59V42.53l-.18-1.66.18-.18-.18-1.85v-.55l.37-3.14-.55-1.48.37-.37a12.7,12.7,0,0,0-.55-4.07l.55-1.48-.18-.55.18-1.11V25.7q0-1.85-.37-1.85l.19-.19v-.18q-1.66-3.56-4.81-3.51a7.07,7.07,0,0,0-3.51,1.29v.37l.37.55-.18.19h-.18l-.19-.19h-.18v.37h.37v.37l-.19.18v.19l.19.19a2.19,2.19,0,0,0-1.48,2l.74.74v.18l-.55,1.11h.19l-.19.19v.74q.65,1.48,1.66,1.48a.49.49,0,0,0,.55.55l.19.19v.37q-.74.09-.74.55.56,0,.55.37v.37h-.18a4.22,4.22,0,0,1-2-.92l-.18.19h-.18q.28.74.55.74l-.19,1.29v.55l.19.74-.19.74.37,1.29-.55.74.18,1.11-.37,2,.74.92a5.65,5.65,0,0,0-.55,2.77l.18,1.11-.18.74.55.19-.18.92q.83.37.92.74v.19a1,1,0,0,0-1.11,1.11l.55.18v.19l-.74.19v3.33l.18.92-.18,1.11v1.66q0,3.74,4.07,5h1.29q2.82,0,4.62-3L199,59h2.22a14.7,14.7,0,0,1,4.25.37l1.11-.37.74.18v.74q-.55,3.51-1.85,3.51l-.18.18H206V64q-.6,1.8-4.44,5.18a8.76,8.76,0,0,1-3.14,1.48q0-.37-.55-.37a3,3,0,0,1-1.66.92l-.74-.19-.37.37h-.74l-.74-.74a5.53,5.53,0,0,1-2.4.74l-.18-.18.18-.19v-.19l-.18-.18v-.19a.49.49,0,0,0-.55.55h-.18l-2.77-.92a11.44,11.44,0,0,1-4.07-3v-.55l.37-.55q0-.92-.37-.92l-.92.18L182.16,63l.18-.74q-.18-1.29-.55-1.29l-.18,1.11.37.37v.74q0,1-.55,1.11a12.63,12.63,0,0,1-1.85-6.84l.19-.18v-.19l-.37-.74.18-.18V56l-.18-1.29h.18l-.18-.18V54l.18-1.11-.18-.19v-.55h.18L179.38,49V45.48l.18-.19-.18-.18v-10l.37-1.11-.37-1.11.18-.74-.18-.74q0-.32,1.66-1.11l.18-.92H181l.18-.19v-.37l-.92.19-.19-.19v-.92h.37l.18.18h.19l.18-.18v-.19a1.31,1.31,0,0,1-.92-1.29,2.33,2.33,0,0,1,1.48-.55V25.7q-2-.92-2-1.85v-.37q.56,0,.55-.37h.55v.37h.19q1.48-.79,1.48-1.66V20.71q1.11,0,1.11-.74c.25,0,.37-.19.37-.55l-.18-.92a2.33,2.33,0,0,1,1.85-1.11q0-.65,2.22-1.85l-.37-.37.55-.55.19.18h.18l1.11-.92v.37h.55v-.18l-.18-1.66.18-.74L191,12.76h.74V11.46Q191.77,11.14,193.07,10.91ZM182.34,27.36,182,29l.18.18-.74.55.18.19v.37l-.37.55q.74.09.74.55l1.29-.92a.49.49,0,0,0-.55-.55l-.18-.19v-.55l.18-1.11-.18-.74Zm-.74,14.79-.18.92V47.7l-.19.92.19,1.11v4.81l.37.37V48.44l.19-.19-.19-.19v-3.7l.19-1.66-.19-.55Zm0,13.31-.18.74.18.18v.19l-.18.19.37,3h-.18l.18.74H182V57.69l.18-.19-.37-2Zm0-18.86v.19l.37.37v-.92Zm.18.92-.18.92v.74l.37-.37V37.53Zm-.18,1.85V41.6l.37-.37-.19-.19v-.19l.19-1.11Zm.37-7.21v.74l.37-.37v-.37Zm.18-6.29.18.92.55-.19-.18-.92Zm.37-1.48V25l.37-.37v-.19Zm.18,19.6.18.18h.37l.37-.37-.19-.19h-.37Zm.18-22.93v1.11l.55-.19v-.37Zm.19,2.4.37.74.37-.37v-.37Zm.92,7.4v.37h-.18L184,32l.37-.37v-.37Zm.37-2-.18.74h.37v-.74Zm0-2V27h.37v-.55Zm.18,19.41V47h.19l.37-.37v-.37ZM187,65.64v.18h.55v-.55h-.19Zm5.73-.92v.37h.37l.37-.37Zm1.11-53.06-.18.19V12h.74v-.18Zm1.48,4.07v.37l.55.19v-.55Zm.55,53.06.18,1.11a1,1,0,0,0,1.11-1.11h.18c.25,0,.37.19.37.55h.74v-.19l-.18-.92.18-.19-.18-.18h-.74A2.69,2.69,0,0,0,195.84,68.78ZM196.4,39h.37q.28,0,.55.74H197Q196.67,39.75,196.4,39Zm1.66-26.26v.19l.37.37h.74v-.19l-.74-.37ZM199,25.15v.37l.37.37.18-.18v-.55Zm0,34.39.19.55.92-.19-.37-.37ZM207.86.74l.19.18v.19l-.74.55-.18-.19V1.29ZM208,38.27V39h.37v-.74ZM209.34,0h.18q1.39,0,1.48.55l.18-.19h.19l.37.37a4.65,4.65,0,0,1-2.77.55V.37ZM211,39.2l1.11.74a1.49,1.49,0,0,0,.55,1.11l-.37.37h-.18l-1.66-1.11Q210.63,39.2,211,39.2Zm2.4,1.29h.74q0,1.29.55,1.29v.37q-1.11-.14-1.11-.37l.18-.55-.37-.37Zm1.29.19h1.85c.25,0,.37.25.37.74l.18.19h.55q0-.55.37-.55h.37l.37.37v.37l-.37.74H218v-.74l-.19.18h-2ZM218.77,2l.18.19V2.4l-.55.37h-.92l-.37-.37ZM221,1.48l.37.37-.19.18h-.55V1.85Zm-.18,40.31h.55V42l-.37.37-.18-.19Z"/><path class="cls-2" d="M217.77,11.93l.92.19,2.4-.19.37.55V17.1l.37.37.18-.74-.18-1.29v-3l.55-.55h.55l2.22.19.18-.19.74,2.4-.37,1.29.18.19-.18.92v2.4l-.18.74.18,1.29V35.22l.18,4.44-.18,1.11.18,1.48-.18.74.18,3v3l-.18,2.77h-.18q-.6-3-.92-3v.37l.37,1.85q-.37.09-.74.92,1.2,0,1.66,3.88-.09,1.66-.37,1.66l-.74.19-.74-.19h-.18v.37h.18q1.34,0,2.73,2L229,63.14l-1.29,1.11.18.74h.18q.37,0,.37-.92l.92.19.55-.19.37.74-.55.55v.37q0,.55.74.55l1.11-.37q.09.74.55.74l.55-.18,1.11.18h.37l.19-.18h.18v.18l-.18.55.18.19h.18l.74-.74-.19-.74h.19l.92.18v-.74H235l-.55.37h-.74l-.37-.37,2-1.29v-.55a1.74,1.74,0,0,1-1.66-.74l-1.29.19H232v-.19q2.77-1.48,2.77-1.85.69,0,1.29-3.88v-.37l-.19-2.59.37-.92L235.89,52v-.19l.19-.19-.19-.18V46.87l-.18-.92.37-.37-.74-.37.19-.92q-.56,0-.55-.37l.92-2.22V36.33l.19-3.33-.19-1.11.19-1.66-.19-3.14.19-.19v-.19l-.19-.74.19-3.7-.92-.74.55-.37h.55l.55.92v.55l-.37.55.19.18h.18l.18-.74.19.18h.18l.18-.18v1.29h.19l.55-.55v-.55l-.74-.18.19-.19v-.19L237.55,21l.74-.55v-.19l-1.11-.74H237v-.18l.37-.55a.49.49,0,0,0-.55-.55l-.18-.19v-.19l-.19.19h-.18l-.37-.37.37-1.11-.18-.92.92-.37V14.7h-.55q.28-.74.55-.74h.55l1.11,1.11h.19q0-.42,1.29-1.85v-.55l-.18-.55h2.4l.18-.19q2.59,0,2.59,1.85v4.44l.37,1.85h-.19q.69,1.85,1.85,1.85l.18-.19.18.19v.37l-.18.19q-1.29.6-1.29.92.92.23.92.55,0,.51-1.66.74v.37h-.18l.18.55.92-.18q0,.93,1.48.92l.55.55q-1.48,0-1.48.92H245.5v-.37h-.19v1.29l.19.92-.19,1.11v3.14l.19.92L245.32,36v2.59a3.44,3.44,0,0,0,.55,2.22l-.55.19v3L245.5,45l-.19.92v.18l.37.55-.37,1.11v4.62l-.18.92.18,1.11v4.07a10.53,10.53,0,0,1-1.66,5.73l.19.55H244q1,0,1.11-.55l-.18-.19v-.19l1.85-.74v.37q-.6,0-.74,1.29l-.92.37h-.37l-.18-.19a5.26,5.26,0,0,0-2.77,1.85q-.37,0-.74.92-4.48,3.7-8.69,3.7l-.74.18h-.19a2.39,2.39,0,0,1-1.48-.74H229l-.55.37q-3.28-.32-7.58-3.88-1.66-1.94-1.66-2.77l.19-.19q-1.29,0-2.4-5.55l.19-1.11-.19-.55.19-.74L217,53.71l.55-.92a2.13,2.13,0,0,1-.55-1.29V48.9q0-.37.74-.37V48q-.74,0-.74-.55v-3l.37-.55v-.37L217,43v-.74l.92-2.4h-.18l-.55.18v-.18l-.19-.19.19-.19v-.92l-.19-.19.19-.18v-.74l-.19-.19q0-1.11,1.48-1.11l.55.19v-.19l-.18-.55q0-1.8,3-3.14a1.08,1.08,0,0,1,.74,1.11h.19l.55-.55h.18v-.55l-.55-.19.18-.55-.55-.18v-.37l.37-.55-.37-1.11.37-.55v-.18q-.56,0-.55-.37l.18-1.29-.37-.92.55-.92-.74-2,.55-.19v-.19a2.13,2.13,0,0,1-.55-1.29l.19-1.85L221.83,18h-.18v.37h-.19l.19.55-.19.92.19,1.29-.19.19h-.18l-.55-.37-.55.37h-.37l-.37-.37V20.8l.37-.55v-.37l-.74-.74-.55.92.55.74-.18.74.55,1.11a1.55,1.55,0,0,0-.92,1.48h1.11q0-.6.92-1.11h.37q0,1.11.74,1.11a2.13,2.13,0,0,0-.55,1.29V26l.18-.19h.55V26l-.18,1.29.55,1.11-.37.37.18.18v.55h-.55v.19l.55.74v.18l-.18.19V31l.55.18v.37l-.74.74-.19-.18h-.18l-.92.18-.18-.92h-.55v.19H220v.18a1.4,1.4,0,0,1-.55,1.11l-1.29-.74c-.25,0-.37.18-.37.55l-.19.18h-.18l-.37-.37v-.74l.19-.18v-.19H217l.19-.19V31l-.37-1.11.37-1.11L217,27.64v-.19l.55-.19L217,25.61l.19-.92,1.11.37v-.18L217,23.76l-.18-2,.18-.55-.18-.92.18-2-.18-.74.18-.19V17.1l-.18-1.29.18-.92L216.84,13v-.37Q216.93,12.3,217.77,11.93Zm.37,15.9v.37q0,.46,2,.92v.19h.55v-.37h.18a2.7,2.7,0,0,1-.55-1.66l-1.11-.37Zm.19,11.46.18.55h.74l-.55-.74-.18.19Zm.37,7.58v.55h.37v-.55ZM220,40l.18.55a1.91,1.91,0,0,1-1.29.37v.55l.37.55q.51,0,1.85-1.85v-.55h-.74Zm-.92,4.07.74,1.29q-.92.23-.92.55l.74.37q.74-.09.74-1.48v-.37L220,43.36Zm.55-17.56.18.18.55-.18-.37-.37Zm.55,7.77.18.18h.19l.55-.55-.19-.18Zm.37,16.09,1.29.37v-.19l.18-.18q-.28-.74-.55-.74Zm0,11.83.18.55.37-.37v-.19Zm.37-19v.37h.37l.37-.37-.37-.37Zm.19,21.08v.18l.37.37.55-.19v-.37h-.37v-.19Zm.18-42.34h.37v.55h-.37Zm.92,27.55v.19l.37.37.55-.18v-.55Zm0,4.25v.55h.55v-.55Zm0,5.73.18.55h.55v-.74h-.37l-.18.18Zm.55-25.7-.37.92.37,1.66v1.85l-.19.92.92.37V38.37l-.18-.18.18-.19v-.19L223.13,36l.19-.19h.18l.18.19q.74-.28.74-.55l-.37-1.66Zm.55,28.1.37.74h-.18l-.92-.19v1.11l.37.37h.37a2.85,2.85,0,0,1,.92-1.66V62l-.18-.19v-.19Zm0-22-.19.55q.32,2.22.74,2.22Q223.73,39.84,223.31,39.85Zm.37-10.91v.37h.55v-.37Zm0,14.24v.55l.19.18-.19.19v.74l.37.55v.92h.37Q224.19,43.17,223.68,43.17Zm0,20.89v.37l.37.37h.18v-.74ZM223.87,26l.18,1.29h.18l.37-.37V26l-.37-.37Zm0,33.84v.37a1.49,1.49,0,0,1,1.11.74l.18-.55-.37-.92h-.55Zm.55,6.1-.55.74v.19l.92-.19v-.37Zm.37,1.29.37.37h.18v-.37Zm.55,1.29v.19l.19.18-.19.19v.37q0,.42.92.55,0-.32,1.11-.74v-.19l-.55-.19-.18.19-.19-.19v-.18l.55-.19v-.55A2.71,2.71,0,0,1,225.35,68.5Zm3.14-.74h-.92A2.4,2.4,0,0,0,228.86,70H229l.37-.37v-.19l1.11.37q0-.32-1.85-1.11v-.37l.37-.55v-.37Zm-.18-1.66h.55q.28,0,.55-.74h-.19ZM230,68.32l.55.55a.87.87,0,0,0,.74-.92h-.55Zm2.77-.55v.19h.74l.37-.37v-.19h-.74Zm5-13.5v.18q2.68,7.9,3.33,8.32v-.18l-.92-3.14-1.66-4.07q0-1-.55-1.11ZM238.29,67v.18h.37v-.55Zm.55-54.91h.55v.37h-.55Zm.37,10.35V23h.55Zm.37,7.77V31h.55l.37-.37-.37-.37Zm.55-15.35v.37l.37.37h.18v-.74ZM243.47,43v.19l.37-.37v-.18Zm3.33-23.11-.18.55h-.55v-.37Zm1.29,1.85h.74l1.85.74q1.29,0,1.29.37v.37l-.37.37.37,1.66h-.55l-.55-.37h-.74v.37l-.18.19.18.18q.92.32.92.92l.92-.92.92,1.11-.18.92h-.55v-.37H252a4.52,4.52,0,0,1-1.85.92l-.18.18a2.13,2.13,0,0,0-1.29-.55h-.55v-.55q.83,0,1.29-1.29v-.92q0-.32-1.66-.55l.18-.18V22.83l-.18-.18ZM248.64,63l.19.19v.18l-.55.55h-.37Q248.27,63,248.64,63Zm-.18-34h.18l.74.74h-.55l-.37-.37Zm.37-5.73v.37l.37.37h.19l.37-.37Zm.92,6.84h.19l.55.19q0,1-.55,1.11h-.19Zm1.11,20.52h.74l.37.37v.18l-1.29.19-.18-.19v-.18Zm-.18,5h.92v.19l-.37.37q0-.37-.55-.37Zm2.4,5.73h.19q.42,0,.55.92l-1.29.55A2.63,2.63,0,0,0,251,62.4v-.55Zm-1.48-7.77.55.19v.37h-.92v-.37h.37Zm4.81-5.92.19.18v.37a4.05,4.05,0,0,1-3,.92l-2.22-.74v-.18l.37-.37a2.13,2.13,0,0,1,1.29.55h.74V47.8h1.29Zm-.92-20.71h.18v.37l-.37.37h-.55l-.37-.37Zm.74,32.54h.92v.37l-1.29.18v-.18Zm1.29,1.48h.37v.18l-.55.55H257l-.37-.37v-.19Zm-.37-35.87h.18l.37.37v.18Zm.92.92.37.92h.74l.19-.19q1.11.23,1.11.74h-1.11c0,.37-.12.55-.37.55h-1.11l-.74-1.29v-.55Zm3.14,15.72h.37q0,.93,1.11.92l-.55.55v.18a4.52,4.52,0,0,0,1.11,1.85q0,.37-1.29.55,0,.6-1.66,1.48l-.74-.18q0,.6-2.4,1.11v-.74q.18-.55,1.11-.55h.55c0-.49.12-.74.37-.74l1.11.37.19-.19q1.11-.37,1.11-1.29v-.18h-1.29q-.37,0-.55-1.48l-.37-.37V42.8h.18l.55.37Q260.11,42.34,261.22,41.69ZM257.7,27.09v.37h.18l.37-.37Zm.74-4.62.18.19v.55h-.55v-.37Zm1.48,0,.92.37v.37l-.37.37h-.19q-.37,0-.55-1.11ZM264,41.32l.55.19.18-.19q2,.19,2,.55l-.18.19h-.19v-.19l-.18.19-1.29-.19a3.74,3.74,0,0,0-1.85.55l-.92-.19v-.37Q262.14,41.46,264,41.32Zm-.18,1.11h.37l.37.37-.37.37-.37-.37Zm.74,3.14h.55v.19l-.37.37-.18-.18ZM266,26.9h.55v.19l-.37.37H266Zm.92-4.07-.18.92.37,1.85h-.37q-.42,0-.55-2.59l.18-.19Zm.19,18.3h.37q1.11,0,1.11.55v.37l-.74.18q-.74-.28-.74-.55Zm.18-14.05h.37l.18,1.11-.18.18.18.19-.18.19h-.19l-.18-.92Z"/><path class="cls-2" d="M263.68,10l.37.55q-2,1.53-2,1.85c.37,0,.55.12.55.37q-.46,0-.55.74l-.92.37.55.92q.56,0,.55-1.11h.18a1.72,1.72,0,0,0,1.11.55l-.37,1.11.74,1.11v.37h-.37l-.18.18-.55-.55h-.18q-1.06.69-1.11,1.11l.18,1.11h.74V18.3h.55l.74.55.18-.19.18.19-.18.19v.55h.55L265,19l-.55-.19V18.3l.18-.92-.37-.37v-.18l.55-.19q-.09-1.48-.74-1.48v-.74q0-.51.92-.55v-.55h-.92v-.19l.55-.92-.18-.55h.18l1.29-.55.74.19.18-.74,1.48.55,1.11-.19.55.55h.18v-.37l-.18-.19v-.18l.18-.19h1.11l3.88.92.19-.18h1.85l.92-.19q0,.55.74.55V12q-.56,0-.55.37a3.1,3.1,0,0,1,1.29,1.66l.19.18H280l.18-.18.19.18h.55v-.37c-.37,0-.55-.12-.55-.37v-.37l.74-.18.37.37h.18q.92,0,.92-.55h.18l.55.37.18-.18h.19l1.29.55-.37,1.11h.19l-.37.74.37.74-.19.55h.19q.37,0,.37-.55h.55l.37,1.29h-1.48l.55.55h.19l.18-.19h.18l.19.19v.18l-1.11,1.29.55.55q-.37,1.29-1.11,1.29l-.92.37v-.19l-.55.19v.19q1.85,1,2,1.66v.18l-.37.37h-.18c0-.37-.12-.55-.37-.55l-.18.18v.19l.18.19H284q-.28,1.85-.74,1.85l.18.19v.55l-.74,1.11h-.37a3.79,3.79,0,0,1-2.77-1.66h-.18l.37,1.29-1.48.37h-3.51l-.55-.55.18-.55a5.75,5.75,0,0,0-1.48-4.25q0-2-8.32-2l-.74.19.18,1.85-.18,1.29.18.74h-.18l.18.19v3.7l-.18.19v.18l-2.4-1.11q-2.41.14-2.4.37l-.92-.19H255l-.18-.92.55-1.11v-.19c-.37,0-.55-.12-.55-.37l.37-1.29q-.37-.32-.55-4.44l.19-2.22-.19-.19v-.18l.37-1.66-.37-2.59q.46-1.29.74-1.29h.92l1.85.18,3-.37v-.37l-.92-.19.37-.37q1.29.19,1.29.55A3.48,3.48,0,0,0,263.68,10Zm13.87,21.63h.37l1.29.74a5.53,5.53,0,0,1,2.59-.55q1.2,0,1.66,1.85l-.18.74.74.19.74-.19h.37q0,.55-1.66.55l-.37.55v.19l.18.18v.19l-.18.19.74.37v.19q-1.34,0-1.85,3.33a15.12,15.12,0,0,1-3.51,4.44q.88,4.62,1.48,4.62l-.18.19v.19q.18,1.85.55,1.85l-.19.19v.19l1.66,6.29,1.85,7.4-.19.19v.18a11.81,11.81,0,0,1,1.11,3.51l-.37.37.18.55-.18.19h-6.1l-.55-.37h-.19l-.55.37h-.92q-.65,0-1.66-5.18h.18q-1.11-3-4.07-15.35l.18-.55q-.37,0-.37-.74l-.74-.37-1.85.19-3.33-.19-.19.19V49l.19.74L264.05,51v3.7l.37,1.11-.55,1.66.18,1.66-.18,1.29.18,2v3l-.18,3,.18,1.29a1.82,1.82,0,0,1-1.48.55v.19l-.55-.19-5.73.19q-1.29,0-1.29-.74l.18-1.29L255,66.93l.18-5L255,61h.18l-.18-.55.18-1.29-.18-.92.37-1.66L255,55.1V52.51l.18-.74L255,51V49l.18-.19-.18-.19v-.74l.18-1.66L255,46v-.19l.18-.74-.18-.55q.69-2.4,2.77-2.4v.55h-.55v.19l.74,1.29q.42,0,1.66-1.48.42,1.66.74,1.66h.18A2.88,2.88,0,0,0,262,42.71q-.93,0-1.85-1.66l1.85-.19,1.11.37h.37l.19-.19,2.77.55q.28-2.22.74-2.22h.55l.18.19h.19v-.19l.55.19.18-.19H269l.74.19,2.77-1.29a1.56,1.56,0,0,1,1.29-.92l-.18-.55q.28-.74.55-.74h.18v.19l-.18,1.11.37,1.11v2.4L274.41,42l.18.92v.18L274,46.59l.19.19h1.11V45.3L275,43.82v-2l.18-1.85L275,38.83q.09-2.22.37-2.22l1.11-.19.18.19.37-.74V35.5q-.19-.55-1.11-.55l-.19.92q-.74-.18-.74-2c.25,0,.37-.19.37-.55h.18q0,1.11.37,1.11h.18Q276.9,31.94,277.55,31.62Zm-21.82,9.8h.37l-.37.37h-.37Zm0-17.56.19.19h.18l.37-.37V23.3Zm.55,34v.37h.55v-.37ZM263.5,32h.19l.37,1.29-.18.19h.18l-.18.18.18,1.11-.18.74.18,1.66-.18.92.18.19v.19l-.55,2.22q-2.59-.14-2.59-.92c.49,0,.74-.12.74-.37l-.37-.37q0,.32-1.29.55v.18l.18,1.29H260l-.92.37h-.18l-.18-.18-.19.18H258l-.74-.55-.74.55v-.18q.55-.92,1.11-.92l.55.19a2.72,2.72,0,0,0,1.11-1.85q.92,0,.92-.55V37.9h.37l.18.18h.19l.37-.37h.55l.74,1.48h.18l.18-.18v-.37l-.37-.37.55-1.48-.19-.19h-.37v.19l.18.55h-.18q-.93-.14-.92-.55v-.19l1.48-1.29v-.18l-.37-.37q-.37,0-.37.55l-.18.19H262v-.55q0-.55,1.29-.55l.37-.55-.74-.37-.55.18-.18-.18ZM258.32,57.5v.92l-.37.37-.55-.37-.37.37v.92l.18-.18h1.29l.19.18h.18l-.37.74h.55q0-.92.74-.92v-.19l-.55-.55.37-.74a1.72,1.72,0,0,1-1.11-.55Zm-.18-18.3h.18v.37h-.55Zm-.19,7.4-.18.19V47l.92.19v-.37Zm.19-3.51h.55l-.37.37-.18-.19Zm.92,2.22q0,.37,1.11.37V46l.37-.37-.55-.74h-.55Zm0,3.33V49h.55v-.37Zm.55,1.85V51l.37.37.37-.37-.37-.37.37-.37.74.55.37-.37v-.19l-.92-.18H260ZM259.8,47h.55v-.37h-.19Zm1.29,10.17-.18.19v.37l.37.37.37-.37Zm1.11-.55v.19h.18l.19-.19h.18l.74.19h.19V56h-.55Zm.37-35.69v.37h.18l.37-.37Zm.18,37.53v.18h.37l.37-.37-.18-.19h-.18Zm.37-29.4h.74v.18q0,1-.55,1.11l-.18-.18h-.19Zm.37,15-.18.55h.18l-.18.18v.19l.37.55q-.74,0-.74.55l1.29.55H265l.55-.55q0-.55-1.48-.55l.37-.55v-.37l-.55-.55Zm-.18-13.13h.18l.37.37-.18.55h-.19l-.37-.37Zm.55-28.1h.92v.37h-.55Zm1.29,36.79.19.18v.37q0,.32-1.11.55l-.19-.19v-.19A1,1,0,0,1,265.16,39.57Zm5.73-38.09q1.85.46,1.85.74l-.18.19v.18l-.92-.18-.55.37-1.29-.55-.74.37-.18-.18h-.18q-3,.32-3,.74L265,3V2.77l3.88-1.11,1.11.19Zm-3.7,42.9-.18.19v.18l.18.19h.37v-.19Zm1.11-4.25.92.92v.19h-.74l-.18-.19h-.18l-.19.19v.18l.37.37.18-.19.37,1.29a.87.87,0,0,0-.74.92l.18.19h.55l3.51-2.4v-.37l-.55-.19-1.66.92h-.55V41.6l-.18-.19.37-.37H270q-.46-1.2-.92-1.29h-.37Zm0-25.52v.55l.55.18.18-.18v-.55Zm.92-1.11-.37.55.55.37.37-.37v-.37Zm.55,4.07a1.91,1.91,0,0,1-.37,1.29V19h.74l.37-1.29-.18-.19Zm0-1.48v.37l.74,1.11h1.11q0-.55.74-.55l.37-.92h-.37q0,.51-1.11.74l-1.11-.74ZM273.11,52v.37h.55L273.3,52Zm2.4,11.65v.19l.37.37q.74-.28.74-.55Zm3.7-2.77v.55H280v-.55Zm.37,2.22-.18.19v.55l.55.55h.18V63.6Zm.19,2.22v.55l.37.37.19-.74-.19-.19ZM280,34.21v.37h.55l-.37-.37Zm3,14.05h.19v.55l-2.59.74v-.37ZM282,14.05a1.45,1.45,0,0,1,1.11,1.48h-.55v.19l.18.18v.19l.74-.37.19.18a4.61,4.61,0,0,0,.37-2v-.19l-1.11-.18Q282,13.73,282,14.05Zm1.29-11.28h.55l-.37.37h-.18ZM284.95,47q0,.69-1.66,1.11Q283.28,47.2,284.95,47ZM284,35.69h.37l.18.74-.55.37v-.37h-.18Zm1.48-4.25v.19l-.37.37-.18-.18v-.19l.18-.19Zm.37-17.2h.18l.37.37V15c0,.25-.19.37-.55.37l-.55-.18v-.37A.49.49,0,0,0,285.87,14.24Zm1.48,31.06a3.15,3.15,0,0,0-.55,1.66l-.74-.18-.74.18v-.37Q286.61,45.3,287.35,45.3Zm.55,30h.55v.19q-.92,0-1.85,2.4h-.37l-.18-.92q0-.93,1.11-.92ZM286.61,13.5h.74v.37H287Zm3.33,60.65.18.19q-.37.83-.74.92h-.92v-.18A1.54,1.54,0,0,1,289.94,74.14Zm0-59.17h.18a1.55,1.55,0,0,1,1.48.92v.19L291,17l.74,1.11v.37H291l-1.48-2.4Q289.94,16.09,289.94,15Zm.55,5.18q1.11.09,1.11.55v.18l-.92.37-.55-.19Zm.74-6.47h.37v.55l-.37-.37ZM294,43.08v.74q-.74,0-.74.37l-1.66-.37v-.55h1.11Zm1.11,0h.37v.19l-.18.19A5.3,5.3,0,0,0,297,45.3l.18-.18h.55c.25,0,.37.18.37.55h.37l.74-.19q1.11.23,1.11.55l-.19.74-1.66-.19-.74.19-.92-.74h-.18l-.55.55.55.19v.37h-.74l-.92.19v-.19l.37-.74q-.42-1.11-.74-1.11-.23,1.11-.55,1.11l-.55-.55.19-.55h-.92l-.18.19h-.19l-.18-.19v-.18q0-.46,2-.74l.37.37.37-.55V44l-.37-.55Zm-.74-24.22h.18v.55l-.37.37-.37-.55Zm.37-1.66.18.19q-.28.74-.55.74H294Q294.37,17.29,294.75,17.2Zm2-.55H297V17l-.37.37h-.37V17.2Z"/><path class="cls-1" d="M321.27,9.71h.55q.18,2.22.74,2.22h.55l2.59.19.55-.19.74.74,2.59-.55h1.11l3.88-.19,2.77.19,1.11-.19.92.19.19-.19h.18q1.66,0,1.66,1.48.32,0,.55,1.48.92.23.92.55t-1.29.74v.19l2,.74-.18.55q.74.32.74.74h.18l.92-.18.18.18-.37.74.18.19h.18q0-.6,2.22-1.48l1.48.74.74-.19a1.66,1.66,0,0,0,.92.92l.74-.19.19.19q-.37,1-.92,1.11l-3-.19-1.48.19v.18q0,.88,2.59,1.11l.37-.37h.19v.19l-.74,1.11.19.18V23l-.37.37v.19H349v.19q1.29,0,1.29-1.48l-.18-.92.37-.37.55.18v.92a1.18,1.18,0,0,0,1.11.74,1.13,1.13,0,0,1,1.11-.74v-.37l-1.11-1.85A1.92,1.92,0,0,1,354,19q0-.37,1.11-.37l.74-1.11h.74l.19,1.29h.37q.32,0,.55-.92l2.22-.37q1.66.42,1.66.74,0,1.11-2,1.11l-.74.74.92.37v.18a1,1,0,0,0-1.11.92h-.92q-1.66,0-1.66-.92h-.37l-.55.37-.55-.55h-.19l-.18,1.29q0,.37,1.11.55v.92l.18,1.29-.74.37-.55-.19-.55.19-1.11-.19-.37.74v.37l.37.55v.19L349,26.9,347.71,26h-.18q-2,.55-2,1.66l-.92.18-.74-.37q.37-.92,1.11-.92l.19-.92-.19-1.11,1.29-.92V22.46l-.55-.19-.19.19h-.18L344,21.73l-1.11.37-1.29-.37-.92.37L339,21.91l-.92.19q0-.88-3.14-.92t-3.14.92v.37H332l-.18,1.85v1.85l-.19.19.19.55.18,7h.18l-.18.19v1.11l.18.55-.18.92v1.48l.18.18q-.23,3-.92,3v.55q.74.09.74.55V43l-.37.37h-.37l-.55-2h-.37l-2,.74v.18a2.13,2.13,0,0,0,1.29.55V43q-.23.37-4.07,1.29V44.1L324,45h-.74v-.18l.55-.74q-.92-.23-.92-.55v-.92l.18-.92a3,3,0,0,1,1.66.55l1.11-.18.55.55h.37l.37-.37A3.89,3.89,0,0,0,324.41,41l-1.11.37-.37-.55V38.55l.18-2.77-.18-.92.18-2.22h-.18l.18-.55-.18-.92.18-.92-.18-.92.18-.92-.18-2.22q-.14-1.85,1.11-1.85v-.74q-.74,0-1.29-2.22l.19-.55-.19-.19h-.55l-.55.37Q320,21,320,19.88l.74-.55-.37-.37v-.18q0-1.43,1.11-1.66l-.18-.19v-.37q0-.37.74-.37l.55-1.66h-.18l-.19.19-.55-.19v-.37l.19-.19v-.18l-.19-.19q-2.54,2.4-3.14,2.4v-.19l-.37-.37h-.18a.65.65,0,0,1-.74.74l-.55.74.55.55h.92q.09-.74.55-.74h.55l.18.92-.74.74.18.92H319q.37,0,.37-.74.32,0,.55,1.29h-.37l-.19-.19h-.18L318.68,21q-1.11-.18-1.11-.92h-.18l.18-.92V19q-1.11,0-1.11-.74v-.37h-.55l-.55.55,1.11.55a.49.49,0,0,1-.55.55v.19q.74,0,.74,1.11a7.9,7.9,0,0,1-3,.37l-.37-1.11q.37,0,.37-1.11l1.29-.37V17.29l.74-.74.55.18q0-.88,1.48-2l-.37-.37A1.53,1.53,0,0,0,316.27,16h-.19l-.37-.37v-.37l.37-.55-.18-.19.18-.18v-.55q-2.59-.28-2.59-.92t1.29-.74l1.11.37-.18.55.18.19h.37l1.66-.74.55.19v.55h-.92v.18l.37.37h1.48q0-.74.37-.74a.49.49,0,0,0,.55.55l1.29-.74ZM322.74,18a1,1,0,0,0,1.11.74H324q0-.37.55-.37l.18-.18V18l-.18-.19-.74.19-1.11-.19Zm8,25.33h.37q-1.62,1.25-1.66,2.22h.74q0-1.29,1.11-1.29h.55l.18.55-.18.92.18.74a1.22,1.22,0,0,1-1.29.92H329.4l-2.22-.55v.92l-2.59.37v.37l2.59.37v-.18l.74.37q0-1.16,3.88-1.66l.18,1.11-.55.19v.55q.51,0,.55.55l.18,3.88L332,55.19l.18,4.07v2.22l-.37.55.18,1.29-.55.55q.74.09.74.55v1.11L332,67l.18,1.48-.18.92.18.19v.19L332,70.91h-1.11l-.74.18-.19-.18h-.18l-2.59.18-1.48-.18v.18l-.19-.18-1.29.18h-.55q-.37,0-.37-1.85h-.18l.18-.19V67l-.18-1.11q0-2.22,1.29-2.22l.74.18.18-.18v-.37h-.18l-1.66.19-.37-.55V55.19l.18-1.66-.18-1.29V52l.37-1.29-.37-.37V50.2l.37-1.11h-.19l.19-.19v-.37l-.37-.55V46.5l1.29-.19h.19v.19l-.74.92v.19h1.85v-.19l-.19-.92.55-.19.55.19.19-.19v-.19L326.63,45v-.18h.55Zm-6.84-21.63v.19l.37.37v-.55Zm.19-9.24v.37h.37l1.66.37.19-.19v-.19q0-.37-1.11-.37V12.3Zm.18,6.29V19l.37.37v-.55Zm.55,41.79-.55-.18v.37l1.11.19.55-.19v-.55Zm-.18-38.64A2.52,2.52,0,0,0,325.89,23a1.79,1.79,0,0,0,1.29-1.66.49.49,0,0,1-.55-.55l.19-.55h-.55A3.13,3.13,0,0,0,324.59,21.91Zm.37,2.4v.55h.55v-.55Zm.74,9.06.18.55h.37v-.55Zm.55,29.21-.19.18v.37l.19.18q-.09.74-.55.74v.37l.37.74h.55l-.37-1.48h1.11Zm0-17.57h.18v.37l-.55.18v-.18Zm.74-5.92.18.55h.37l.37-.37v-.37h-.55l-.19.19Zm.18,6.66v.37l.19.19v.19l.92-.19Q328.11,45.76,327.18,45.76Zm1.29,17.56-.37.55.18.19v.19l-.18.74h.37l.55-.74q1.66,0,1.66-.55v-.19h-.37ZM329,20.06l-.19,1.11h.37l.18-1.11Zm0,25.7-.19.55h.55v-.19ZM342,22.83v.55h-.18l-.37-.37.18-.19Zm1.48-2.4.37.37h.37v-.19l-.18-.18v-.19Zm3.14,6.66h1.48v.37h1.11v.19q0,1.11-2.4,1.11l-.37-.37.37-.55-.19-.18Zm.37-3v.37q1.29.23,1.29.92h.55v-.55a.49.49,0,0,1-.55-.55l-.74-.37Zm3.7,1.11-.19.19v.18q.18.56,1.11.55v-.37Q351.59,25.38,350.66,25.24ZM353.44,21v.37H354V21Zm4.44,5.92h2.59l.74.37.55-.18,1.85.37a1.3,1.3,0,0,1-1.29,1.11l-1.11.19v-.19l.37-.55H361l-.37.37v.19a5.23,5.23,0,0,0-2.22-.74l-.19-.18-.74.18-.55-.18v-.55Z"/><path class="cls-1" d="M355.21,10.49a5.37,5.37,0,0,0,3.14.74l.55-.19q2,.46,2,1.11l-.18.55.18,2v.55q0,2.22-.55,2.22l.37,2.4v2.4q0,1.85-.37,1.85l.19.92v1.29l.18.18v.19l-.37.37v.74l.19.92-.37.37.92.92h.18c.25,0,.37-.19.37-.55l.18-.19h.18l.55.55-.18.19v.19l-.18-.19h-.37l-.37.37v.37h1.29V31q-.14.65-1.11,1.11h-.19l-.37-.37h.18q-.42-1.11-.74-1.11L360,31l.18.92v.37L360,34l.37.92a1.82,1.82,0,0,1-1.48.55v.19l.55,1.66-.19,1.11q.6,0,.92,2.59h.18q0-1.11.37-1.11l1.29.19v-.19l-.92-2.77q2.08,0,2.59,3.33h.19q1.85,0,1.85-1.48a2.25,2.25,0,0,1,1.48-2l.37-.74L370,36l2.77.55.74-.18q1.11.19,1.11.55a1.73,1.73,0,0,1-1.11,1.48L373,38h-.18l-.37.37V39l.37.55v.37q-.56,0-.55,1.29-1.11,0-1.48,2.4-1.29,1.8-1.66,1.85l-.74-.55-.37.37h-.18q-2,0-2-3.33,0-1.29-.37-1.29h-.92q-1.29.42-1.29,2.59l.19,1.66a2.25,2.25,0,0,1-1.48.74q-1.29,0-1.29-1.66l-.19-1.11h-.18l-.37,2.22.19.55-.37.74.37,2.22-.19.18V49l.19.74-.19,2q.14,1.11.37,1.11L360,53v.18l.18.92q-.14,1.11-.37,1.11L360.2,58,360,60l.18.19H360l.37,1.29-.18,2.4h.18l-.92,2.22q2.22,2.45,2.22,3.51t-2.59.92h-5.73l-.55-.37h-.37l-.18.18h-.19l-.37-.55v-.55h.18l.92.19v-.74l-.55-2.22.55-.55q0-.92-1.11-1.29v-.19q.92,0,.92-.37v-.37q-.69,0-1.11-2.4l.19-.19V61l-.19-.92.19-1.66-.19-1.66.19-.19v-.18l-.19-.74v-.37h.55v-.37l-.74-.18.18-.92-.18-3.51.37-1.66-.37-1.48.74-1.11v-.18l-.55-.92.37-4.44q-.37,0-.55-1.11l.55-2.59-.55-.19v-.37q0-.37.55-.37l.18-.19v-.37q0-.46-1.48-.74v-.37q.51,0,.74-4.07l-.18-.74.18-.55q-.74-.28-.74-.55l.55-.92v-.55q0-.46-.74-.55V26c.49,0,.74-.12.74-.37v-2.4l-.19-.18.19-.19V18.63l-.37-1.48.37-.55L351,16l.19-2.22-.19-.74.19-.74v-.19L351,12v-.19l.55-.37h1.85A3.05,3.05,0,0,0,355.21,10.49Zm-3.33,21.26v.37a1,1,0,0,0,.74,1.11l.37-.37h.74q.37,0,.37.55l.37-.37V32.5q-.93-.14-.92-.55v-.37l.37-.55v-.37h-.74Zm.55-16.46-.37,1.48.19.19H353l.37-1.11h-.19Zm-.37,23.11.37,2.22h.37l.37-.37v-.19l-.55-.92.19-.74-.19-.19h-.18l-.18.19ZM353.36,26v.55h.55v-.18l-.37-.37Zm.18-8.69v.74h.55V17.7l-.37-.37Zm.18,19.23v.19l1.11,1.11-1.11.19v.18a2.25,2.25,0,0,1,.74,1.48v.92l.74.37h.92l.74-.92-.55-1.85q-.37,0-.37-.74l-.18-.19h-.18l-.74.19Q354.84,36.56,353.73,36.56Zm.19-11.46h.18q0-.37.92-.37l.18-.19v-.37h-.74Q354.15,24.18,353.92,25.1Zm.92-6.29V19l.37.37h.18v-.55Zm.74,13.5-.19.19v.18l.19.55h.55v-.37Zm0-3.51V29q.18,1.48.55,1.48h.37l.74-.74A3.24,3.24,0,0,0,355.58,28.8Zm.18,7-.18.18v.37l.55.55h.37v-.37Zm.55-4.07-.18.19v.18q.14.56,1.48.55l.55,1.48q1.11-.14,1.11-.37a2,2,0,0,0-1.29-2h-.37l-.74.19Zm0,1.85v.55l.55-.55v-.19Zm.37-9.61-.19,1.11h.19l.92-.19.74.19v-.19Q358.35,24.36,356.69,24Zm.18-6.1v.74q.46,0,1.11-.92l-.18-.55h-.19Zm.18,8.69.19.19h.37v-.55h-.18Zm.19,20.34v.37q.55,0,.55.92h.37v-.92Zm.55-17.75v.18l.37.37.19-.19v-.37Zm.37,15.9v.37h.55v-.37ZM373.7,11l.74.37.55-.19.55.74.37-.74,1.11.37.92-.18q1.29,0,1.29.92h.37l.55-.37h.18l.19.92a3.1,3.1,0,0,0-1.85.74l.37.74,1.29-.18h.37l.92.37v.37q-.09.56-1.48.55,0-.55-.37-.55v.19l.37.55v.55h-1.11v.19l.18.74-.37.92q0,.51,1.29.92v.55H380l-.55-.55q-.32,0-1.48,1.66l-1.11.19-2.4-.37-1.85.19-.18-.19-.92.19h-1.66l-1.11.19-.92-.19-.37.37-.55-.37h-.37a3.12,3.12,0,0,1-1.85.55V21l-1.29.55V21.4l-.19-.74.19-.74q-.37-.46-.92-6.1l-.18-.18.18-.74v-.19l-.18-.18q.23-1.11.55-1.11h4.81l1.48.18,1.48-.18h.37l2.22.18ZM363.16,61.34h3.33l.74.55,1.11-.55.74.18.74-.18.55.18.74-.18h.37v.18l2.22-.18h2.77q.14,1.29.37,1.29l-.18.92v1.29l-.19.19.19.19V66l-.37.37q-.37,0-.37-.92h-.55v.74l-4.44-1.48V65q2.22.6,2.22,1.48l-1.11.37a11.69,11.69,0,0,1,.74,3.51l-.19.19L372,70.4l-.92.19-.74-.19-1.11.19-.74-.19-2.22.19a2.93,2.93,0,0,1-2.22-.92q-.23.83-.74.92l-.37-.37.74-2L363,63.37V62.26Zm.19-34h.55c0,.37.12.55.37.55l1.11-.37v.18l-.74.55-.18.19v.19Q363.76,28.43,363.35,27.32Zm1.11-14.05V14H365v-.37l-.37-.37Zm.92,14.79h.37l1.48.18v.37h-1.66Zm0,.92h.19l.37.37h-.55Zm1.11,33.65V63h-.18q.18,2.22.74,2.22l.37-.37-.18-.92.37-.37-.92-.92Zm4.62-25.89v.19l.18,1.29q1.29-.69,1.29-1.29l-.18-.19Zm2.77,2.4q.79,0,.92,2.22l-.37.37v.37q0,.37.74.37l-.37.92h-.55a1.31,1.31,0,0,1-.92-1.29v-.18l.74-.19v-.19l-.55-.55-.18.19h-.19v-.37q1,0,1.11-.55,0-.37-.55-.37l-.18-.18v-.19ZM375,78.35l.74.19v.18q0,.37-2.59.74v-.19Q373.14,78.86,375,78.35Zm-1.66-12.2q3.33,0,3.33,1.66V68l-.19,1.11.19.55q-.28.74-.55.74h-1.48l-.18-.92.18-1.29q-.51,0-1.29-1.85Zm2.59-25.52h.19v.19l-.37.55v.18q0,.37.55.37l.18.18v.19h-.18q-.74,0-.74-.92h-.19ZM378.14,78l.74.18v.37l-.37.37q-.93-.23-.92-.55v-.19Zm.37-65.82v.37h.55l-.37-.37Zm2.4,66.56h.55l.19.92h-.55Zm1.29-60.28.92.92-.55.19-.92-.19ZM382,78.53l.37.37-.18.19v.18l-.55-.18V78.9Zm1.11.37h.55l-.37.37h-.19Zm2.4-63.6.37.37v.19h-.74v-.19Zm-.37,2,1.29.19h.37l.18.55-1.29.92h-.37v-.37h-.18l.18-.19v-.19Zm3.51-2.77h.19l1.11.55.18-.55h.18l.55.55v.19q0,.74-3.14.74l-.19-.18v-.19Zm3-2.59H392v.55l-.37.37h-.19Zm.37,3V16h-.37l-.19-.74Zm5.18-.37h.37q0,1.11-2.22,1.66a4.06,4.06,0,0,0-2.4-.55l-.18-.19v-.55h.55v.37Q397.18,14.93,397.18,14.56Z"/><path class="cls-1" d="M404.08,12h3.51l.74.74-.18.92q1.11.42,1.11.74-.37,0-.37.55l-.18.19h-.19l-.37-.37-.55.37h-.37v-.37h-.55v.37l.37.55-.37.55v.19l.55.55h.18l.37-.37v-.18l-.18-.19V16l1.11-.37q.46,3.38,1.11,4.07l-.19.55q1.11,10.91,2.77,10.91v.74l-.18,1.29.55.55v.37h-.37L413,36l-.18,1.66q.42,3.14.92,3.14.92,0,.92.37v.19q0,.37-.92.37l-.19.19v.18l.55.74-.37,1.48A7.22,7.22,0,0,0,415,47.1v.19l-.37.55.37.37-.18.92q.46,5.18.92,5.18l-.18.55.74,2.59-.18.18v.19a76.22,76.22,0,0,1,1.66,11.09l-.18.19v.18l.18.74a1.22,1.22,0,0,1-1.29.92h-.19l-2-.18-2.4.18h-2.59q-.79,0-1.29-5.73l-.18-.19.55-.55v-.37l-.55-.55.55-1.48-.55-.55-.18.19a5,5,0,0,1-.55-2.22l.37-1.66q-.32-.92-1.66-.92l-.37.37h-.19l-.55-.37-.55.37h-.92l-.19-.19h-.18l.37-2.22-.19-.18h-.37v.18l.18.92q0,1.66-1.11,1.66l-.92-.19-.18.19-.37-.37H400a5.94,5.94,0,0,0-3,1.66l.18.19v.19q-1,7.4-1.85,7.4l.55.55v.37l-.37.55V69.1q0,1.85-1.48,1.85h-.18l-.55-.18a28.84,28.84,0,0,1-5.36.37h-1.85l-.37-.37V70.4Q387,62,387.63,61.34l-.19-.55a6.26,6.26,0,0,1,.74-3l.18.19h.18a11.34,11.34,0,0,0,.74-3.7l-.37-1.11q.46,0,.92-2l-.37-.74.37-3.33H390l.55.37.37-.55v-.37l-.74-.37.55-2.22-.18-.55h.18l.92-.37.18.55h.55q.37,0,.37-.55h.37l.55.37.74-.74-.18-.18h1.48l1.11-.19,1.11.37h.19a1.79,1.79,0,0,0-.74-1.29v-.92c-.37,0-.55-.12-.55-.37L398,38.78l-.18-1.29h-.37a4.87,4.87,0,0,1-1.66,1.29l-.37-.37.18-1.11-.37-.37h-.37l-.19.92a.49.49,0,0,0,.55.55v.37a1.22,1.22,0,0,1-1.29.74V41h-.37l-.74-1.11h-.37l-.18.74h-.18q-.37-1.48-1.11-1.48l.18-.55h.18l.55.37.19-1.29h.18l.55.37h.55c.25,0,.37-.19.37-.55q-.37-2.4-1.11-2.4l.18-.74-.55-1.11v-.37c.37,0,.55-.12.55-.37l-.18-1.29H393l.55.37.55-.74q-.74-.18-.74-.74l-.18.19H393l-.37-.37v-.18a10.75,10.75,0,0,1,1.11-3.7l-.55-.92.55-.74-.19-1.29v-.74l.37-.37h.18v.92l.19.92h.55l.37-.37v-.37L395,22q.28-.74.55-.74l-.18-.92v-.19h.92l.37-.37q0-.46-1.66-.92l-.18-1.48,1.11.19h.18v-.19q-1.29-.18-1.29-.74l.18-.74-.18-.19v-.19q0-3.33,1.48-3.33h7l.18.19h.19Zm-15,52.14v.18l5.55,1.85v-.37Zm2.22-24.22.55.74v.19l-.37.37h-.74v-.37h-.18Q391,40,391.33,39.89ZM391,61.52v.55h.37v.19l.74-.55v-.55h-.74Zm.92-20h.19v.92h-.37l-.37-.37Zm-.55,4.07.19,1.85h.18l.55-1.66-.18-.19Zm1.11-1.11v.37h.19l.37-.37Zm.74,0,.18.92L393,46v.19h1.11v-.37h.19l-.19-.19v-.19l.19-1.11h-.74l-.18.19Zm.37-9.06.37.37h.18l.19-.74h-.37Zm0,27.36V63l.37.37h.18l.37-.37-.18-.19Zm2.22-10.72v.19l.74-.19a.49.49,0,0,1,.55.55l.18.19h.37l.37-.37v-.37q-1.11,0-1.11-.92h-.18ZM396,36.75v.37h.18l.55-.18,1.11.18H398v-.55l-.74-.18Zm1.48-4.25.19.18H398l.37-.37v-.19h-.55Zm3.33.55h-.18q0-.92-.74-.92l-.55.19v-.19l-.74.55v.37l1.11.74h.19l.92-.18.19.74-.74,1.85.19.92-.37,3,.37,1.29-1.66,6.1q.32,1.29,1.11,1.29l2-.18q1.85.09,1.85.55v.92q0,.55-1.29.55l-.18.55,1.11,1.29h.18v-.74l-.55-.19-.18.19v-.37l.37-.55q.55,0,.55.92h.55a.49.49,0,0,1,.55-.55L405,51V49.69l-.92.18v-.74q.18-.56,1.11-.55a2.37,2.37,0,0,0,1.29,1.85l.55-.18v-.19a4.72,4.72,0,0,1-1.11-3.33q-.37,0-.37-1.11c-.37,0-.55-.12-.55-.37v-.37a2.13,2.13,0,0,0,.55-1.29V43.4q-1.11,0-1.11-.92l-.37-1.85v-.19a2.65,2.65,0,0,0,1.66-.74h.55v-.19l-.18-.19v-.18l-2,.37a13.18,13.18,0,0,1-.74-4.07L403.9,34q-1.39,0-1.66-5.18l-.37-.37Q401.31,28.43,400.76,33.05Zm-2-1.66v.37h.55v-.37ZM403,53.76v.55h.37v-.55Zm.92-3.7h.55v.37l-.55-.18Zm.74-17.56v.18l.37.37.18-.19V32.5Zm.74-.92v.74h.18l.18-.55-.18-.19Zm.55,10.91v.18l.37.37h.55v-.19l-.37-.37Zm.74-1.29v.37h.18l2.22.19v-.55l-1.29-.37Zm.55,10-.18.19v.74h.55v-.55Zm.55-1.66v.19l.92.18h.37l.37-.37v-.37l-.18.18h-.55V49h-.37Zm.74-3v.37h.55l.19-.55-.19-.19h-.18Zm.37,17v.55h.18l.37-.37-.18-.18Zm.37-9.43v.18l.37.55-.55.74h1.48v-.55l-.74-.92Zm0-11.83v.55h.37v-.55Zm.18,5.55-.18.55.37.55.74-.55Q410.37,48,409.45,47.84Zm.18-1.48v.92h.19v-.92Zm0,14.05V61l.37.37h.55V61l-.55-.55Zm1.11-5.55v.74h.19l1.48-.19v-.55H411.3l-.18.19h-.18Zm2,.92q0,.55-.37.55l-.92-.19v.55c0,.25.18.37.55.37l.55-.18v.18l-.19.55,1.11.37.19-.19v-.37a3.44,3.44,0,0,1-.74-1.66Zm-1.29,5V61h1.11V60.6l-.37-.37Zm1.29-1.29-.18.55H413l.37-.37v-.19Zm.18-.92v.18l.37.37v-.55Z"/><path class="cls-1" d="M426,11.74h5.36l.18.19h.18l.19-.19.37.55v3.14l-.18,2,.18.19v.18l-.18.19.18,2.22v1.29a2.56,2.56,0,0,1,2.22,2.59L433,25.24l-.19-.19-.55-1.48h-.18l-.55.37.18.92v.37l-.18,1.66.18.74-.18.18h.18l-.18.55.37,1.11q0,.79-3,1.48l.37.37h1.29l.55-.37c.25,0,.37.18.37.55l-.18.92q.37,0,.37,1.48h.19c0-.74.12-1.11.37-1.11h1.11v-.37L432.44,31l.18-.92h.55a3.71,3.71,0,0,1,2,3.33h.18q1.85,0,1.85-1.48,0-1.25,1.66-2.22l-.18-.19v-.18q0-.37.74-.37v-.55q-1.85,0-2.59-3.14l.18-.92q0-.83-2-3.33l-.37-2.22.37-2.4-.37-2.77V12.48l-.19-.19.19-.55h1.11q1.29,0,1.29,2.22l1.29,4.81h.19l1.48-.55.19.18v.19q0,.55-1.29,1.48l.37.37-.37,1.11q.23,1.11.55,1.11l-.18.18V23q3.14,16.64,3.88,18.3.92.14.92.55l-.92.55v.37q1.06,6.29,2.4,7.21l-.74.74.37.92h.37a15.7,15.7,0,0,1,1.11-4.81l-.37-1.11a5.85,5.85,0,0,0,.92-2.77l-.18-.74q.56-.74,3.33-16.64l.55-.74-.55-.37.18-.18v-.92l-.37-.37H450l-.18.19h-.18q0-.32-1.66-.55v-.19l.55-.55q-1.11,0-1.11-1.29h.18a1.67,1.67,0,0,1,1.48,1.11l.55-.37.92.19h.19q.51,0,1.66-6.84l.18-.19v-.18l-.18-.92.18-.18h.18l.37.37h.37l.55-.37h.37v.37h.19l-.19.92.19.74H455q.18-1.25.55-1.29l-.18-.18v-.19a2.37,2.37,0,0,1,2.4-1.85h1.29l.92.19-.18.92L460,13h.55q.37,0,.74-1.11h.18l.74.55h1.66l.55-.37h.19c.25,0,.37.25.37.74q.32,0,1.29,1.29h.18v.37h-.37c-.25,0-.37-.18-.37-.55H465v.37l.37,1.48V16l-.18,1.66q.28,3.7.92,3.7c.25,0,.37-.25.37-.74h.18L467,22.1l-.18.18-.92-.18-.37.37V23l.19.19v.18l-.55.19v1.11q0,1.43,3.33,2.4l.18.18v.55l-1.29-.18h-.55l-.55.55.92,1.11v.55h.37v-.37h.37l.18,1.29a2.14,2.14,0,0,1-1.66,1.11l-.18-.19v-.18a1.22,1.22,0,0,0-.92,1.29l.18.92h.19L467,32.45h.18a2.25,2.25,0,0,0,1.11,1.85l-.37.55v.92q-1.62,0-2.59,2.59l.55.37h.18l.55-.37-.18-.18v-.55l.74-.19.37,1.85q-2,.19-2,.74v2.22l.19.19-.19.19v.74l.74.19v.74q0,.93-.55.92v.19q.74,0,.74.92l-.55.19v.37c0,.25.25.37.74.37l-.18.92q0,1.34,2.4,1.66V50l-.55.92.19.18h.18l.55-.18.37.74q-.23,1.29-.74,1.29l-2-.55-.37.55.18.19-1.11.55.19.74-.19,2.4.19,5.18-.19,2.59.19,2.4v.55l-.19.18.19.19V69.8q0,1.11-1.48,1.11h-.92l-3-.19-.18.19H460l-.74-.19h-.18l-.19.19-.55-.19-1.11.19a1,1,0,0,1-.74-1.11V62.4l-.18-1.66.18-.19-.18-1.29V57.78l.18-.18-.18-.19V56.12l-.19-6.47-1.48-.74-.37.55v.37q0,.28,1.48.74v.19q-.19.55-1.11.55h-1.48l-.37.74v1.29l.37.55q-.46,0-.55.92-.37,0-.37,1.66H452l.18.18V57q-.92,1.48-2.4,9.61l-.55.37.18.55q0,3.14-1.85,3.14l-.18-.19H445l-2.59.19q-.93,0-1.85-5.73l-2-7.77.18-.18V56.3l-.55-1.11.18-.19q-.46,0-2.4-9.24v-.19l1.11-.74c.49,0,.74-.12.74-.37s-.31-.52-.92-.55v-.55l.18-.18-.55-1.48v-.37a.49.49,0,0,0,.55-.55l-.18-.55q1.29-.23,1.29-.55V38.18q-.56-.46-1.11-4.62H436q-1.29.42-1.29,2.59l.18,1.66q-.37,0-.37.55h-.37q-.37-2.22-.74-2.22h-.18l.18,1.48-.18,1.85h.18l-.18.19v.74l.18.18-.18.19v1.48h-.74q-.74-.37-.74-.92h-.18l-.18.55.18.74-.18,2.77q.28,0,.55.74a6,6,0,0,0-.55,2.77l.18.55h.37c0-.62.12-.92.37-.92l.74.92v.37q0,.37-1.29.55v.37L431.51,53h.18l-.18.19v.18l.37,1.11V55q0,.37-.74.37v.18l.55.74v.37q0,.37-.55.37l.19.92L431,59.07q1.66,1.8,1.66,2.22l.55,1.11a7.9,7.9,0,0,0-.37,3v.74l-.92,1.11v.55l.37.55q-.14,2-.55,2-.32-1.29-.74-1.29l-.37,1.11-2,.55h-.19a2.91,2.91,0,0,1-1.85-.92q.32-1.48,1.29-1.48v-.55q-1,0-1.29-1.66-.93,0-.92-.74h-.37v.74l.37.37-.18.55H425q-.55,0-.74-3.33l.18-1.66V60.74l-.18-1.11.55-3.14c-.06-1.11-.18-1.66-.37-1.66l.19-.19v-.19l-.19-7.21.37-.55V46.5l-.55-.74.18-.19V41.32l-.18-1.11.37-.55-.37-2.59V35l.18-1.66-.18-1.85v-3l.37-.74-.37-.74.18-1.11v-.19l-.18-.19.37-.92-.37-.92.18-.19-.18-2.22V19.69l.18-.74-.18-.18v-.19l.18-.19-.18-1.85v-.37q0-.92.37-.92l-.37-.55.18-.19v-.18l-.18-2v-.37h.37l.18.19ZM425,68.69h.19v.55l-.37.37h-.18v-.55Zm2-16.83.18.55q1.48,0,1.48-.74l-.37-.55Q427.07,51.54,427.08,51.86Zm.74,3.51v.37h.55l.37-.37V55h-.55Zm.92-12.2v.92l.92.19h.18V43Zm1.48,3.51q0,.37-1.11.74v1.11h.18q1.8-.69,1.85-1.11v-.55Zm-.19,7.4v.74h.19l.92-.92v-.55Q430,53.76,430,54.08Zm.19,13.13.37.37.37-.37v-.37h-.37ZM431,27.09l-.37.92h.19l.74-.74Zm.74,8.69-.37,5,.18.19h.18l.55-2.22-.37-3Zm.19-8.69.37.37v.19h-.37ZM433,42.62h.18v1.85a6.12,6.12,0,0,0,.37,2.4l-.37,1.29h-.55l-.18-.92.18-1.85-.37-1.66Zm-.55-16.83.55.55h-.55Zm2.4,0H435V26l-.37.37h-.19v-.19Zm17.2-.37V26l.37.37-.19.92v.19h.37l.37-.37V26.9l-.37-1.48Zm3.7,11.83v.55l-.37,1.11.37.74q-.83,0-1.85,8.14l.55.37h1.48q.42,0,.37-.55l-.19-3.14.19-4.07-.19-.74.19-.92-.19-1.48Zm-1.29-20.71v.55h.37v-.55Zm.55,8.88V26l.37-.37v-.18Zm.55-9.8q0,1.11,1.29,1.11l.74-.37V16q-.74-1.62-1.11-1.66t-.74,1.29Zm2.4-3v.55h.18l.37-.37-.19-.18Zm2.22,53.8v.37l.37.37.19-.55Zm.18,3v.19l.37.37h.18V69.8l-.37-.37Zm5.73-18.86-.18.74h.55l.18-.74Zm.37-27.36H467l.37.37v.19h-.55l-.37-.37ZM467.57,48h.37l.18.74h-.18l-.37-.37Zm.55-24h.18l.92.19v.37l-.55.19-.55-.19Zm1.11-10.17,2.4.55v1.11l.55.74v.19l-.74.19q-2.59-.92-2.77-1.66V14Zm-.55,8.32.55.18v.37h-.55Z"/></g></g></svg>