<svg xmlns="http://www.w3.org/2000/svg" viewBox="0 0 665.5 39.94"><defs><style>.cls-1{fill:#fff;}.cls-2{fill:#f4c215;}</style></defs><title>Asset 2</title><g id="Layer_2" data-name="Layer 2"><g id="Layer_4" data-name="Layer 4"><path class="cls-1" d="M36.49,10.89,4.62,39.94,0,39.84,36.52,6.64Zm3.35,29H36.52V6.64h3.32Zm36.49-29-36.49,29,.07-3.92L76.37,6.64Zm3.35,29H76.37V6.64h3.32Z"/><path class="cls-1" d="M91.43,36.52H88.11V6.64h3.32ZM128,39.84H88.11V36.52H128ZM128,10H91.43V6.64H128Zm-24.8,26.63-5.08-.07L124.63,16.6,128,18.69ZM128,18.69l-3.32-2.09V10H128Z"/><path class="cls-1" d="M139.69,36.52h-3.32V6.64h3.32Zm36.52,3.32H136.37V36.52h39.84Zm0-29.88H139.69V6.64h36.52Zm-24.8,26.63-5.08-.07L172.9,16.6l3.32,2.09Zm24.8-17.9L172.9,16.6V10h3.32Z"/><path class="cls-1" d="M184.64,0H188V3.32h-3.32Zm0,3.32H188V6.64h-3.32Zm0,3.32H188v33.2h-3.32Zm3.32,0h36.52V10H188Zm0,29.88h36.52v3.32H188Z"/><path class="cls-2" d="M264.56,6.64h3.32v33.2h-3.32Zm3.32,0h36.52V10H267.88Zm0,29.88h33.2v3.32h-33.2ZM301.09,10h3.32V39.84h-3.32Z"/><path class="cls-2" d="M312.83,6.64h3.32v33.2h-3.32Zm3.32,29.88h36.52v3.32H316.15Zm33.2-29.88h3.32V36.52h-3.32Z"/><path class="cls-2" d="M361.09,6.64h3.32v33.2h-3.32Zm3.32,0h36.52V10H364.41Z"/><path class="cls-1" d="M441,0h3.32V3.32H441Zm0,3.32h3.32V6.64H441Zm0,3.32h3.32v33.2H441Zm3.32,0h36.52V10H444.34Zm0,29.88h36.52v3.32H444.34Z"/><path class="cls-1" d="M492.6,36.52h-3.32V6.64h3.32Zm36.52,3.32H489.28V36.52h39.84Zm0-29.88H492.6V6.64h36.52Zm-24.8,26.63-5.08-.07L525.8,16.6l3.32,2.09Zm24.8-17.9L525.8,16.6V10h3.32Z"/><path class="cls-1" d="M537.54,6.64h39.84V10H537.54Zm24.8,3.25,5.08.07L540.87,29.88l-3.32-2.09Zm-24.8,17.9,3.32,2.09v6.64h-3.32Zm0,8.73h36.52v3.32H537.54ZM574.07,10h3.32V39.84h-3.32Z"/><path class="cls-1" d="M622.3,10.89,590.42,39.94l-4.62-.1,36.52-33.2Zm3.35,29h-3.32V6.64h3.32Zm36.49-29-36.49,29,.07-3.92L662.18,6.64Zm3.35,29h-3.32V6.64h3.32Z"/></g></g></svg>