<svg xmlns="http://www.w3.org/2000/svg" viewBox="0 0 357.27 73.77"><defs><style>.cls-1{fill:#f4c215;}</style></defs><title>Asset 2</title><g id="Layer_2" data-name="Layer 2"><g id="Layer_4" data-name="Layer 4"><path class="cls-1" d="M8.13,13.31l1.48.19,5.55-.19Q18.3,13.22,24,15.9q.56,0,2,2.22,1.48,0,1.48.55v.19l-.37.55.18.55-.37.92h.19a1.14,1.14,0,0,1,1.29,1.29h.18l2-.74q0,.32,1.66.55v.19q0,.42-2,1.11l-1.66.92L28.47,24v-.19l.18-1.48h-.37v.18l-.19,1.85.19-.19h.37L29,25.7h.74l.19-.19h.18l.37.55v.74l-.74-.19-.92.37v.19l.74,1.11q0,.28-.74.55l-.19.19V30l.19,1.29H30l.92.18v.37l-1.29.37H29v.37l.18.19v.19l-.37.37v.37l.74.19.18-.19h.74l.55.55v.19q0,.32-2.22,1.11-.46,6.1-1.85,6.1h-.37l-.19-.19.37-4.25.37-.37L27,36.61v-.19l.19-.55L27,35.31l-.55.19.19.74-.19,3.51-.74.37.37.92q-.32,1.29-1.11,1.29v.37h.18l.74-.37.19.18.18-.18.18.18.37-.37h.55a1.56,1.56,0,0,1-1.29,1.66q0,3-7.21,5.73l-.74.18-.37-.37-.55.55h-.74q-1.11-.51-1.11-1.29H15l-.92.19V49q0,.42,1.29.55v.37l-1.11.19-.92-.37v-.37l.37-.55-2.4-.55h-.18l-.37,1.29.18.18v.19l.74-.37v.18q0,.37-1.29.55v-.18l-.55.18V55.1L9.61,56H7.21l-.37.37q.92,0,.92.37v.18H6.84l-.92.19-.18-.19v-.18l.37-.37c0-.25-.19-.37-.55-.37l-.19.19q-3-.18-3-.55A3.47,3.47,0,0,0,.74,56.76l-.18-.19H.37A.49.49,0,0,1,.92,56v-.19q-.55,0-.55-.92V53.25L.18,51.77l.18-1.48L.18,47.7.37,47H.18l.37-.55L.18,44.19q0-.55.74-.55l1.29-.74.18-.19v-.37H2L.37,42.9l-.18-.19v-2l.18-.19-.18-.55.18-1.11-.18-2V34l.18-.19L0,31.06.18,30,0,29l.18-4.44v-7l.18-.18V17.2H.18L.37,17v-.74l-.18-.19Q.32,15,.92,15L.55,13.68l.18-.18L2,13.68l1.85-.18.55.18L5,13.5l.37.37.74-.37.18.18h.37ZM.92,60.65h.37l.18.18.19-.18H9.24q.56,0,.55.74l-.18,1.48H9.8L9.43,64l.37,1.29v6.66l-.55.55H5.18l-.55-.37-.74.37q-2.4-.42-2.4-1.29A3,3,0,0,1,2,69.52Q.55,68.83.55,66.19L.74,66l-.18-.19v-.18l.18-1.29h.55l.37.37-.19.19h.19l.18-.19H2q-.23-.92-.55-.92L1.29,64q-.88,0-1.11-2L0,61.76Zm0,5.18.37.37h.18l-.37-.37ZM2,45.85l.19.55L2,46.59,3.51,47l.18-.18v-.55q-.92,0-.92-.55v-.19ZM2.22,19.6V20l.92.55h.19l.37-.37q-.92-.42-.92-.92H2.59Zm0,36.79h.55l.55.37L5,56.39l.18.19v.19l-2.59.74.19-.18v-.19l-.55-.55Zm.92-14.24L3,42.34v.18l.37.37.37-.37.19.19h.55v-.37Zm.55,3.33.19.19h.37l.55-.55v-.19l-.37-.37H4.25Q3.84,44.56,3.7,45.48ZM4.81,47.7v.55h.74v-.37ZM5,14.79v.74h.55v-.37l-.37-.37Zm.37,1.85V17l.37.37H6.1Zm0,33.84.19.19.74-.37v.55h.37L7,49.55l-.18.18H6.66l-.55-.37Q5.78,49.37,5.36,50.48Zm.55-29.77-.37.74V22h.74l.55-.55-.55-.74ZM5.73,39.2l-.18.55,1.29.74L7,40.31v.37h.55v-.19c-.37,0-.55-.12-.55-.37v-.19l.37-.55-.18-.19Zm0,5.36v.37l.74-.19v-.18Zm.55-29v.19l.92.37H7.4v-.37q0-.37-.55-.37ZM9.43,46H9.24l-.18-.19H8.88v.74H8.13l-.55-.37H7.4l-1.11.37V47q.92,0,.92.55l-.55.55v.74h.18l.92-.37v.18l.37.37q.56-.18.55-1.11L8,47.15l.37-.37.55.18v-.37H10l-.19.19v.55h.74l.37-.37c0-.25-.25-.37-.74-.37v-.19q1.66-.09,1.66-.74l-.18-.19h-.37ZM8.13,17.75,8,17.94v.55l.18.55H8l-.74.55.18.18V20c0,.25-.18.37-.55.37v.37H8.5q.92,0,.92.55h.18v-.92l-.92-.18L8.88,20Q8.78,19,8.32,19v-.55l.37-.37.19.74h.55v-.74l-.37-.37H8.69l-.18.19H8.32Zm4.62,3v.92l-.19-.19h-.18a5.3,5.3,0,0,1-3.14,1.29v.37l.37.55L9.43,25v.19l.18,3.7-.18.92.18.74L9.43,32h.18l-.18.19v.37l.18,2.22-.18.92.18,3.7v1.85l.92.18h2v.37a4.12,4.12,0,0,0-1.85,1.11L7,44.19v.19c0,.25.19.37.55.37,0,.25-.25.37-.74.37v.37H7l.55-.37h.19v.37H8c.25,0,.37-.19.37-.55l-.19-.55.19-.19H8.5l.18.55h.55q.28-1.29,1.29-1.29l.37.37h.19a2.24,2.24,0,0,0,1.66-1.11q0,.55.74.55v.37h.37q0-.74.55-.74v-.37L14.05,42l.37-.55,1.11.55.37-.74h.37q0,.55.37.55l1.66-.37V41H17q3.33-2.68,3.33-4.81l-.18-.92.18-.74-.18-.19v-.19l.18-.18L20,29.4l.18-.74a10.63,10.63,0,0,0-.74-3.7h.37l.19.19.55-.19v-.19a8.22,8.22,0,0,0-5.36-2.4q-1.85,0-1.85-.37l.18-1.29ZM8,50.48l-.55.74v.18h.92v-.55ZM7.77,31.8V32a1.91,1.91,0,0,1,.37,1.29h.19v-.74l-.19-1.11ZM8,64.34h.92L8.5,64H8.32ZM10.72,19l.18.18h.19l.37-.37-.18-.19h-.18Zm2.22,2.59.18.19V22l-.18.19h-.18L12.57,22v-.18l.19-.19ZM13.87,47l.37.37.37-.37-.37-.37ZM15.53,1.48l.18.19v.19l-.92.37L14.61,2V1.66ZM16.46,42l-.18.19v.19l.18.18h.19l.18-.18v-.19L16.64,42Zm-.18,6.47v.37l.37.37.37-.37v-.37ZM18.86,42l.18.92h-.37q-1.85.23-1.85.74l.55.19,1.48-.74.18.19H20q.42,0,.55-.92l-1.66-.55ZM20.15,41v.19h.18l.37-.37v-.18h-.18Zm.92-.92-.19.18v.19l.19.19h.18l.18-.19v-.19l-.18-.18Zm0-15.72V25h.37l.19-.55Zm.74-22.19q1.11.42,1.11.74h-.37l-1.29-.19V2.59Q21.26,2.22,21.82,2.22Zm-.55,31.62v.55h.92l.74.19h.18v-.19L22,33.84Zm.18,4.44h.74l.55-.55v-.37h-.55Q21.82,37.44,21.45,38.27Zm.74,1.85v.74l2.22-.37v-.19h-.92l-.18.19h-.19l-.37-.55Zm.18,3.33v.18h.37l.74-.55h-.37Zm.18-10.72v.37h.19l.37-.37v-.37h-.18Zm.74,1.85v.18l1.11.55H25v-.37l-1.48-.37Zm0,7.58v.37h.55l.37-.37V42Zm2-39.57.19.19.18-.19h.18l.37.37-.18.18v.19q-1.48-.18-1.48-.55l.18-.19ZM25,40.31v.19h.37l.19-.19v-.18ZM26.81,34v.92H27l.19-.92Zm.37-3.33v.74l.37-.37v-.37Zm0,21.63.92.18h.55v.37q-.09.46-1.29.92Zm.18-22.56q.42,0,.55-1.85Q27.36,27.92,27.36,29.77Zm.55-4.62v.74l.37-.37Zm7.21,27.73.18.18-.37,1.11.18.55a23,23,0,0,1-4.81-1.11l-.18.19H30L29,53.62v-.18l2-.37q1.48.14,1.48.37A6.4,6.4,0,0,1,35.13,52.88Zm-4.25-.74v.37l-1.11.19v-.37ZM30.14,61h.74v.55l-1.11.19v-.37ZM35.68,2.4h.55V3l-.55-.19ZM41,2.59h.37l.37.37-.18.18v.19L41,3.14Zm1.48,0h.19l.74.55-.18.19h-.19Z"/><path class="cls-1" d="M31.73,12.85l.37.37L30.8,14.33h-.37L30.06,14l.19-.18q.55,0,.55-.74ZM33,14.14l.55.19v.92l-1.29-.37Zm.92-2.4h.19L34.5,13l-.18.19h-.74Q33,13,33,12.11v-.19Zm.19,5.55h.37v.55h-.37Zm32.54-4.07,1.85.18-.19.55q.32.93.92.92v.92q0,.93,2,.92l.18.19v.37l-.92,1.11.37.37-.37.37a2.12,2.12,0,0,0-2-1.11v.37q.18.65,1.66,1.66v.37c.37,0,.55.12.55.37q-.93.14-.92.55v.74h.55l.92.18v.55q-1.29.23-1.29.74v.37h1.11l.74.37v1.29q-.74,0-1.48,1.85v.37q.56,0,.55.37l-.37.37L70,28.2l-.18.18v.37q.46,0,1.48,1.11V30l-.19.19v.19l-.18-.19h-.55l-.18,1.29v.37H70q-1.48-1.48-2.22-1.48a1,1,0,0,1-.74.74V30l.55-.74v-.37q0-.37-1.85-.74l-1.85.18H59.46v.37q0,.69,2,1.11v.37a2.12,2.12,0,0,0-1.48.92h-.18q-.83-.42-1.48-2.77a4.39,4.39,0,0,0-2.22-.55l-.74.37L55.21,28,55,28.2V28l-.18.19h-.18L53.54,28l-3,.37-1.11-.18-.18.18h-.18l-1.48-.18-2.22.55-.92-.19-1.66,1.66v.55L43,31h.18q.65,0,1.66-1.85h.37V30h-.37l.37,2h-.74l-.55-.37-.18.19v.92h.37V33l.18-.19H45l.19,1.29q-.19,1-1.66,1.48a4.59,4.59,0,0,1-1.11,2.22l.37.74q-.92,0-.92.37a2.91,2.91,0,0,0,.92,1.85V41l-1.11-.37v.55a4.43,4.43,0,0,0,4.07,2.22q.23.56,4.07,1.85.09.74.55.74H51l.18-.19.19.19h.55l.55-.37,1.85.74.55-.55H55l-.37-1.11v-.37l1.66.55,1.48-.92h.37l1.11.55v.19l-.18.92q1.29,0,1.29,1.66h.18l.19-.18h.18l-.18-.19v-.55l.74-.55-.37-1.11,1.11-1.29q-.23-.74-1.66-.74l.92-.92.74.19a3.73,3.73,0,0,1,2-.55l.92.19.18-.19V41L65.19,40q1.66-.23,1.66-1.29H67l.74.55.74-.55v-.37q-.74,0-.74-.92.74-.37.74-.92l.74.18.74-.18.19.18v.19l.74-.55v-.19q-.18-.55-1.11-.55v-.18l.37-.55-.37-.37-.74.19q-.74-.18-.74-.74T69.44,33a1,1,0,0,1,1.11,1.11h.37l.74-.55h.19v.55q-.93.65-.92,1.11a3.7,3.7,0,0,0,1.29,1.66l.19,1.85q-.56,0-.55.37v.37a1.27,1.27,0,0,0,1.29.74h.55v.37a4.07,4.07,0,0,0-.55,1.85h-.37L72.4,43l.37.55-.92,1.11.18.19h.18l.92-.37.18.19v.19q-.18.55-1.11.55h-.55L71.11,45h-.55l.19.92h-.19l-.92.18-.74-.18q-.74,0-.74,1.29h-.37l-.37,4.07.37.92-.18.19v.19l.18.92-.18.92H68v.19l.18-.19h.37l.37.37q-1.11.42-1.11.74v.37c.25,0,.37.25.37.74l.55.19q-.32.93-.92.92v.55h.92v.37l-.18.18q0,.74,1.11.74l.18.74-.18.18-.74-.37-.74.19v.55l1.48.18a2.25,2.25,0,0,0-.74,1.48q.74,0,.74.37l-.37.55.18.19q-.18,1.66-.55,1.66l.55,1.29-.74.37-.55-.19a2.13,2.13,0,0,0-.55,1.29v3l.18,1.85h-5q-.37,0-.55-1.85l.19-.74-.19-.19h-.37l-.55.55.18.19v.18l-.18.19h.18l-.18.19v.74l.18.19v.19l-.37.37-.74-.37-1.11.37q-.6,0-.55-3,0-1.29.37-1.29l-.19-.19V66.84a2.69,2.69,0,0,1,.92-1.66V65c-.37,0-.55-.12-.55-.37v-.19q1.11-.18,1.11-.55L60,63.51v-.19h.37V63H60l-.37.37.18.19-.18.19h-.55l-.37-.37v-.74l.18-.74-.18-.74h.37l.18.19h.18v-.55h-.74V59.26h.18l.19.18h.18l-.18.19V60l.37.37.55-.92v-.18h-.55v-.19l.19-.92L58.54,57l.18-.19h.18l.37.37.18-1.85h-.55l.19-.92-.37-.37V52.6l-.18-.74q.23-2.77,1.11-2.77v-.55l-2.22-.74-.37.92h-.37v-.55l-3-.19-5.18.19-.37,1.66.18.92v.55l-.18,4.07.37.37v.37h-.37v.55h.18V56.3h.37q.46,0,.74,1.48,0,.51-1.48,2v.55l.55.74-.55.55.18.19h3.51v.55l-.37.37-.19-.18-.55,1.48v.19l.37.55v.37q-1.29.37-1.29.74v.37l1.11.55.74-.19V67q0,.55-2.59.92v.74l.55.18,1.11-.18v.37l-1.85.37v-.18q-.74.28-.74.55l.18.18-.18.19v2.22l-.55.55H46.33v-.19l.18-.55H46L45.41,72v.18q0,.74-.37.74H44.3q-.93,0-.92-.37l-.18.18h-.55l.18-.18V72l-.55-.19.19-.74q-.28-.74-.55-.74h-.37q0,.74-.92.74v.37l.55.74v.37H41A2.21,2.21,0,0,0,39.49,72l-.55-3.14.55-.37c0,.25.19.37.55.37l1.29-.18V68.5a2.69,2.69,0,0,1-1.66-.92h-.55V63.51l-.19-.74.37-1.29-.37-.37v-.18h.37L39.12,60l.37-.37-.55-.19.19-.18v-.74l-.19-.19.37-1.66-.37-.55q0-1.06,1.48-2v-.37h-.18l-.55.37h-.55V52.42q0-1.29-.37-1.29l.37-.74-.19-.19q0-2.4,1.29-2.4l.37-.37a4,4,0,0,1-1.85-.92v-.74l.37-1.29-.19-2.22h.37l-.37-1.48V38.55l.19-1.11-.19-.55.37-.92-.55-.55L40,35l-.55-2-.18.19h-.55V31.52h.18l.55.37v-.74c-.37,0-.55-.12-.55-.37v-.55l.19-.19-.37-.55.18-.55-.37-1.48.18-.55-.37-.74.19-2.22-.37-.55.37-.37-.19-.92.74-.19v-.55l-.55-.19.18-.92-.37-2L38.94,16l-.55-.74.19-.19h.37v.37h.37v-.55l-.37-.55.19-.19h.55l.18.19.18-.19h1.11l.92.19,1.11-.19h.37l.92.19,1.11-.19H46.7l2.4.74v.55H48V16q1.29.19,1.29.55a3.34,3.34,0,0,0-1.66,2.59q0,.55,1.66,2.4L49.11,23h-.19L48,22.83l-.19.92.19.18h1.11v.37q-.56,0-.55.92,0,.55,1.48.55v.74h-.37v.18q0,.51,2.59,1.11c0-.25.19-.37.55-.37l1.66.19.37-.37,1.48.19a1,1,0,0,1,.74-.74l1.11.19V21.36l.18-1.66-.18-.19v-.18l.18-.92-.18-.18.37-3.14-.19-.92L59.65,14H62l.74-.18L63,14h.18Zm-27,48.26V62l1.29.18v-.55L40,61.48Zm1.11,2.59q0,.51-.92.92v.19l.92.19.18-.19.18.19h.74v-.19l-.74-1.11Zm.74-47.7v.55h.37v-.19Zm0,50.85v.55h.37l.37-.37v-.55H41.9Zm.55-38.64.37.37h.18l-.37-.37Zm.74-11.09v.92h.37l.18-.18h.19l-.19-1.11h-.18ZM43,71.83h.74q.37,0,.37-.92H45v-.19H43.56Q43.24,70.72,43,71.83Zm2.4-4.07v.92l.74,1.48h.19l.37-.37a2.51,2.51,0,0,1-.37-1.66l-.55-.37Zm1.11-40.31v.37h.18l.37-.37Zm3.33,34.76v.37h.55v-.37Zm1.29-15.53.37.37h.37l-.37-.37Zm1.11.37.19.18h.18l.37-.37v-.19h-.37Zm1.29-25.33.92.19v.19l-.37.37h-.19l-.74-.37Zm.37,20.71h.19l.37.37v.37h-.55ZM59.46,26l-.18.18v.19l.18.19h.19l.18-.19v-.19L59.65,26Zm1.11,22.74v.55l.74.18.92-.18v-.19l-.37-.37Zm.92-1.85q.14,1.48.55,1.48h.37q0-1.39-.55-1.48Zm0,21.26.18.55-.18.92.18.19h.19l.74-.92A1,1,0,0,0,61.49,68.13Zm.18-38.27h.19q2.4.42,2.4.92l-.55.55h-.37q0-.79-1.48-.92l-.19-.19ZM63,45.76l-.37.55.18.19v.18l.74-.37v.37h.92V46.5Zm-.37,3.33v.19h.55V48.9Zm6.29-21.63-.18.19v.18l.37.37h.18v-.37Zm0,1.85v.18h.19l.37-.37v-.19h-.18Zm1.11,10v.55l.92.18v-.18l-.18-.92h-.37Zm1.11-25a3.09,3.09,0,0,0,2,.55l.18.18v.37H71.85q-1,0-1.11-.55Zm.19-1.48.37.37v.18h-.37L70.92,13l.18-.19ZM70.92,44.1v.19l.37.37h.18V44.1ZM75.18,40a6.79,6.79,0,0,0,3.14.74l.37.55v.19l-.18-.19-1.29.19h-.74v.55l.18.18v.19l-.18.19h-.18L75,40.21Zm2.59,2.22.19.19v.19l-.37.37H77.4v-.37Zm.37,27h.55v.18l-.37.37-.18-.19Z"/><path class="cls-1" d="M69.88,69.43h.37l.55.55v.37h-.37l-.55-.55Zm2.4-55.84q.32,0,2.4,5.36-.23,2.59-.92,2.59h-.55v-.37l-1.29-7.4.19-.19Zm-.18,56,.18.19h.18l.92-.19.37.37.18-.18h.18l1.11.37.92-.19.37.74.74-.37.18.18v.37l-.37.37-.74-.19-1.48.37q-.09-.42-1.48-.92L72.83,70l-.18.19h-.19l-.37-.37Zm6.84-55.84h3.14a2.58,2.58,0,0,1,1.66.55L86,13.77q1.34,0,1.48,1.85a5.59,5.59,0,0,0-.55,2.22l.55.92q0,.93-.37.92l.18.19v.18l-.18,1.29.55.55-.37.37v.55l.37,1.11q.37,0,.37.92.56,0,.55.37v.19q-1.48,0-1.48,1.85a2.27,2.27,0,0,0-1.48.92h-.18q-.42,0-.92-2.4h-.92L83,25.42q0,.93-1.66.92,0-.46-.74-.55a4.14,4.14,0,0,0-2,1.11H78l-.18-.55L78,24.87l-.18-3,.18-.55h-.18q.23-1.29.55-1.29a3.15,3.15,0,0,0-.55-1.66V14.88A1,1,0,0,1,78.94,13.77ZM87.26,35q1.34,3.19,1.66,3.33l-.37,1.11a1,1,0,0,1,.74,1.11q-.56,0-.55.74h-.19c-.25,0-.37-.19-.37-.55L88,40.58h-.18l-1.11.55L86,40.21h-.19a.82.82,0,0,0-.92.92q-1.11,0-1.11.37v.37l.55.92,1.29-.18h.74q0,.55.92.55.32,1.29.74,1.29v.37q-.74,0-.74,1.48A1,1,0,0,1,88,47.43l.55.19V48l-.55.55a2.83,2.83,0,0,0,.74,1.85v.18l-.55.74.37.37.55-.18.37.92-.55.37-.74-.18v.18l.37.37.19-.19h.18l.18.19v.55h-.18L88,53.53v.55q.51,0,1.11,1.29L88,56.12v.19l.19.19v.18l-1.11.19q1.29.88,1.29,1.66h.55q.09-.74.55-.74l.37.37-.19.55.55.55-.18.18h.18l-.55.92.19.18v.37L89.11,62l-.74-.19H88V62a1.49,1.49,0,0,1,1.29.92v.19h-.55L88,62.59l-.37.37v.37l.18.19-.74,2.77-.92-.37H86v.18q1.48.37,1.48,1.11l-.37.55.37,1.11v.55h.92v.19a1.4,1.4,0,0,0-1.11.55l.18.92v1.29q0,.6-.74.55l-2.59-.19-.18.19h-.18l-1.11-.37-.19.18h-.18l-.18-.18-1.85.18h-.92a1,1,0,0,1-1.11-1.11V67.39L78,65.73l.37-1.11-.18-.74.37-.37L82.82,65v-.37q-3.88-1-4.44-1.66v-.74l.37-.37-.37-1.48A3.07,3.07,0,0,1,79.49,58l.55.37.55-1.48h.18V56.3h-.55l-.55.37h-.55q0-.92-1.11-.92l.37-.92-.18-1.66.18-1.48-.18-.74.18-.74L78.2,50v-.18l.18-.19v-.19l-.55-1.66h.37L78,46.5v-.37c0-.25.19-.37.55-.37s.55.31.55.92H80.6l1.85-.55v.55a2.83,2.83,0,0,0-.74,1.85l.74.37,1.11-.55.55.55h.19v-.55l-.92-1.66.37-.92H82.63q0-.88-1.66-1.48l-.19-.92v-.18a.49.49,0,0,0,.55-.55h.37l.18.18h.19v-.55l-.37-.55v-.55a.65.65,0,0,0,.74-.74h.19l-.19-.19V40l.19-.55-.19-.55h.19l1.29.37H85v-.37q-.93-.14-.92-.55t1.11-1.48v-.37q.92,0,.92-1.29h.18l.55.19Zm-4.07-3.88h.18v.37q0,1-1.85,2.77l.18.74-.37,1.11h.55v-.37h.55v.37q0,.42-2.59.74-1.29-.28-1.29-.74v-.55c.37,0,.55-.12.55-.37v-.37q-.74,0-.74-.55,0-1.34,3.51-2.22v.18ZM79.12,48.54v.92h.19l.74-.74-.18-.19Zm1.11,10.35v.37l1.11.18v-.37L81,58.7Zm.19-24.41v.92l.37-.37v-.18Zm1.48,5.73V41h-.37v-.37Zm.37-24.78v.18l.18.19V16l-.18.74A1.91,1.91,0,0,1,82.63,18H83c.25,0,.37-.19.37-.55A2.54,2.54,0,0,0,82.63,16l.18-.19v-.19l-.18-.18Zm.18,27.73v.92a1.31,1.31,0,0,0,1.29.92l.55-.55Q84,43,83,43Zm.19,11.28V55H83v-.55Zm.18.74q.14,1.48.55,1.48l.18-.18V56.3l-.18-1.11ZM83.74,18v.37l.37.37.19-.19v-.37Zm.18,47.15v.37l1.66.37h.18v-.19l-1.66-.55Zm.55-48.44v.19h.92l.18-.55-.18-.19H85Zm0,.92v.74l.74.37V18.4q-.28-.74-.55-.74Zm.55,8.5v.55h.55l-.18-.55Zm1.11,15,.18.19v.55h-.74L85,41.32Zm-.55,2-.37.55.37.37.37-.37v-.19Zm.18,2.77v.37l.37.37.37-.37L86,45.95Zm1.11-20.89.19.19h.18l.37-.37v-.19h-.37Zm.19,14.61V40h.18l.37-.37Zm3,31.43h.18l.37.37-.18.18h-.19L90,71.46Zm.55-11.28H91l.18.18,2.59,1.66V62l-1.11-.55v.18l-.92-.55-.92.37-.37-.55.37-.55-.18-.19ZM95,58.15l.37.55v.18l-.92-.18Z"/><path class="cls-1" d="M111.73,35.41h.37l.18.92v1.29l-.37,1.48.37.92.18-.18H113l.19.74H113l-.92-.18-1.66,1.66v.18q2.82,1.9,3,2.4V45q-.93,0-.92.55v.19l.92.92v.74l-.18-.19h-.37q-.37,0-.37.55H111l-.19.55a2.15,2.15,0,0,1,1.11,1.11l-.18.55h-.37q-.28,0-.92-1.66l-.19-.18h-.55l-.55.37L109,48a3.57,3.57,0,0,0,.74-1.66H108.4q-.42,0-.55.92l.74,1.48-.74,1.11v.37q0,.37,1.48.55.6-1.66.92-1.66h.19l.18,1.66q0,.42-.92,1.29a3.75,3.75,0,0,0,.55,1.85l.92-.18,1.11.37v1.48l.37.37,1.85-.19a4.82,4.82,0,0,1,2,.74v.74q-1.11,0-1.66,1.85l-.92-.19h-.18a2.41,2.41,0,0,1-1.85.74q0,.74-.55.74a2,2,0,0,1-.74,1.29v.19q.32.69,2.22,1.48l.55.55,10.82-1.11q3.33.42,3.33.92v.18q-1.66.09-1.66,1.11,0,.56.92.55,1.29,1.39,1.29,2v.55q-1.16,0-1.48,1.66a46.12,46.12,0,0,0-5.55.92v.37l2,.19v.19l-9.52.55-.74-.37a32.72,32.72,0,0,1-7,.74l-1.48-.19h-2.22q-1.11,0-1.11-.92h-.37q0,.93-1.11.92h-.18l.18-1.29-.37-.37H99l-1.29,1.29-.19-.19.19-.55-.37-1.48a3.72,3.72,0,0,0,.55-2l-.55-2,.37-1.11L97.3,62l.18-.74v-.55q0-1.85-.37-1.85l.18-1.29V56.12l1.29-1.29v-.37l-.37-.37h-.37l-.18.19h-.19l-.18-.19.18-1.29-.37-2,.18-3-.37-2q.46-1.48,1.66-1.48,0,1,2.22,1.85,0,.93.37.92,1.11,0,4.44-2.4,0-.55.92-.55,5.18-5.32,5.18-8.32ZM103.41,13l3.51.74v.92a1.54,1.54,0,0,0,1.48.92l1.11-.18.37.74L111,16l1.11.37v.55l-.19,1.29h-.37l-.74-.55h-.55l-.92,1.11a4.09,4.09,0,0,0-1.85-.92l.19-.18v-.19h-.37l-.37,1.11v.19h.92v.55h-.37v.55l.19.55h-.19q-.79,0-1.29,1.48l-.18.19.37.55V23q-.74,0-.74.55c0,.25-.25.37-.74.37l-.19.19v.19l.19.92h.37l.55-.37H106a2.21,2.21,0,0,0,.55,1.48l-.19.92-.18-.18-.55.55h-.18l.18.55h.18l.55-.37.37.55L106,29.68V30l.18.74q0,.55-.92.55,0,.93-.55.92-.18,1.66-.55,1.66H104l-.37-1.85v-.55q-2-.37-2-1.29H101q0,1.48-1.85,1.48l-.92-.18-.55.55h-.19v-.55l-.18-1.66L97.49,28V26.53q.79,0,.74-.74L98,21.91c.25,0,.37-.19.37-.55q-.32-.92-.92-.92V19.14c0-.25.19-.37.55-.37q2.26,1.66,3.33,1.66h.19l1.11-.37.55.19,1.29-.37v-.19a1.49,1.49,0,0,1-.55-1.11h-.55l-.92.19q0-.37-.92-.37l-.19-.18V18l.19-.74h-.92q-.37,0-.37-.55h-.74L99,17.1H98.6l-.37-.37.37-.37v-.19L98.41,16v-.19q1.29-1,1.29-1.85v-.18h-.37V13.4l.55-.18,2.59.37Zm-5.92,1.29h.19l.37.37v.19h-.18l-.37-.37Zm0,18.12h.19l.37.37-.18.92-.37-.37Zm0,1.85h.37l.37,1.29h-.55l-.19-.92Zm.74,3.33q.69,2,1.11,2l1.29-.92.18.18q0,1.34-3,4.25l-.37-.37v-2a1.92,1.92,0,0,1,.74-1.48l-.37-1.48.18-.18Zm.55-23.11v.55l-.55-.18V14.7Zm-.55,41.23v.19l.74.74h.37v-.55L99,55.75Zm.55-1.48.37.37h.19l.18-.55-.18-.19h-.19Zm.37,14.61v.55q0,.56.74.55l1.11-.37v-.37l-1.29-.55Zm.74-48.26-.19.19V21l.37.37h.18V21Zm.55,5.73.92,2.4h.37l.37-.37v-.92l-.19-1.85h-.55Zm1.85-1.11v.37l.37.37h.18l.55-.55v-.19Zm.74,3.7.55.55H104l.37-.37V28.2h-.55Zm.74-3.51v.37L104,26v.18l.55-.18v-.55Zm.92.55-.37.92v.37l.92.19h.19a2.62,2.62,0,0,1-.37-1.48Zm-.18-8.87v.55l.37-.37-.19-.18Zm2.77,15h.37l.37.37q0,1-2,2.4l-.19-.19v-.19Q107.29,32.77,107.29,32.08Zm1.85-10.54.37.37-.37.37-.37-.37Zm1.11,24.22.19.55h.18l.37-.37v-.37h-.37l-.18.19Zm17.84,23.85h.55v.74l-.37.37h-.18Zm.74-2q.92.23.92.55l-.37.37h-.74l-.37-.37v-.19C128.64,67.95,128.83,67.83,128.83,67.58Zm2-2.4.18.19v.37h-.74Z"/><path class="cls-1" d="M148.07,12.57a3.14,3.14,0,0,1,1.66.55l.74-.55h.19l.55.55-.55.74v.37h.55l.92.19-.18-.19v-.37l.37-.37h.18L156,15v.19l-.18.18v.19q1.9,0,5,4.81a7.12,7.12,0,0,1,1.11,2.77v.19q-.56,0-.55.37v.19l1.11.19-.18.92v1.11l.55.74V27a1.48,1.48,0,0,1-1.29,1.66V29q.92,0,.92.37v.74l-.18.18v.19h.18l-.37.74.37,3.88-.18.74h.55v-.55h.37l.19.19.18-.19h.74v.19l-.74.55-.18.19v.18l-.92-.18h-.18v.18l.55.74v.19l-.19.18.19.55h.55v-.74h.92L164,39.57l1.11,1.29-.19.19v.19l.19.18-.19.19-1.48-.37-.55.18v.92l-.37.55V55.84q0,.42-1.85.92v.18q1.85,0,1.85.55v.19l-.18.19v.18a6.35,6.35,0,0,1-3.51-.92h-.18l-.37.37.92.92q-.23.93-.55.92h-.18l-.74-.55a.49.49,0,0,1,.55-.55v-.19a.49.49,0,0,1-.55-.55l.19-.55h-.19l-.18-.18-.18.18h-.55q0-1.66-1.85-1.85,0-.23-1.48-.37v-.37h-.19l.19-.19L153.25,52v-2.4l.19-.74-.37-.92.18-2.59V44.19l-.18-1.66.18-.18-.18-1.85v-.55l.37-3.14-.55-1.48.37-.37a12.7,12.7,0,0,0-.55-4.07l.55-1.48-.18-.55.18-1.11v-.37q0-1.85-.37-1.85l.18-.19v-.18q-1.66-3.56-4.81-3.51a7.07,7.07,0,0,0-3.51,1.29v.37l.37.55-.19.19h-.18l-.18-.19h-.19v.37h.37v.37l-.18.18V25l.18.19a2.19,2.19,0,0,0-1.48,2l.74.74v.18l-.55,1.11h.18l-.18.19v.74q.65,1.48,1.66,1.48a.49.49,0,0,0,.55.55l.18.19v.37q-.74.09-.74.55c.37,0,.55.12.55.37V34h-.19a4.21,4.21,0,0,1-2-.92l-.19.19h-.18q.28.74.55.74l-.18,1.29v.55l.18.74-.18.74.37,1.29-.55.74.19,1.11-.37,2,.74.92a5.67,5.67,0,0,0-.55,2.77l.19,1.11-.19.74.55.19-.18.92q.83.37.92.74v.19a1,1,0,0,0-1.11,1.11l.55.18v.19l-.74.19V55.1l.19.92-.19,1.11V58.8q0,3.74,4.07,5h1.29a5.31,5.31,0,0,0,4.62-3l.74-.18h2.22a14.69,14.69,0,0,1,4.25.37l1.11-.37.74.18v.74q-.56,3.51-1.85,3.51l-.18.18H161v.37q-.6,1.8-4.44,5.18a8.77,8.77,0,0,1-3.14,1.48c0-.25-.19-.37-.55-.37a3,3,0,0,1-1.66.92l-.74-.19-.37.37h-.74l-.74-.74a5.52,5.52,0,0,1-2.4.74l-.19-.18.19-.19v-.19l-.19-.18v-.19a.49.49,0,0,0-.55.55h-.18l-2.77-.92a11.43,11.43,0,0,1-4.07-3v-.55l.37-.55q0-.92-.37-.92l-.92.18-.37-2.22.19-.74q-.19-1.29-.55-1.29l-.19,1.11.37.37v.74q0,1-.55,1.11a12.64,12.64,0,0,1-1.85-6.84l.18-.18V58.8l-.37-.74.19-.18v-.19l-.19-1.29h.19l-.19-.18v-.55l.19-1.11-.19-.19V53.8h.19l-.19-3.14V47.15l.19-.19-.19-.18v-10l.37-1.11-.37-1.11.19-.74-.19-.74q0-.32,1.66-1.11l.19-.92h-.19l.19-.19v-.37l-.92.19-.18-.19v-.92h.37l.19.18h.18l.18-.18V29.4a1.31,1.31,0,0,1-.92-1.29,2.33,2.33,0,0,1,1.48-.55v-.18q-2-.92-2-1.85v-.37c.37,0,.55-.12.55-.37h.55v.37h.18q1.48-.79,1.48-1.66V22.37q1.11,0,1.11-.74.37,0,.37-.55l-.18-.92A2.33,2.33,0,0,1,140.49,19q0-.65,2.22-1.85l-.37-.37.55-.55.18.18h.18l1.11-.92v.37h.55v-.18l-.18-1.66.18-.74L146,14.42h.74V13.13Q146.78,12.81,148.07,12.57ZM137.35,29,137,30.69l.18.18-.74.55.18.19V32l-.37.55q.74.09.74.55l1.29-.92a.49.49,0,0,0-.55-.55l-.18-.19v-.55l.18-1.11-.18-.74Zm-.74,14.79-.18.92v4.62l-.18.92.18,1.11v4.81l.37.37V50.11l.18-.19-.18-.19V46l.18-1.66-.18-.55Zm0,13.31-.18.74.18.18v.19l-.18.19.37,3h-.19l.19.74H137V59.35l.18-.19-.37-2Zm0-18.86v.19l.37.37V37.9Zm.19.92-.19.92v.74l.37-.37V39.2ZM136.61,41v2.22l.37-.37-.18-.19v-.19l.18-1.11Zm.37-7.21v.74l.37-.37v-.37Zm.18-6.29.19.92.55-.19-.19-.92Zm.37-1.48v.55l.37-.37v-.19Zm.18,19.6.19.18h.37l.37-.37-.18-.19h-.37Zm.19-22.93v1.11l.55-.19V23.3Zm.18,2.4.37.74.37-.37v-.37Zm.92,7.4v.37h-.19l.19.74.37-.37v-.37Zm.37-2-.18.74h.37v-.74Zm0-2v.18h.37V28.1Zm.19,19.41v.74h.18l.37-.37v-.37ZM142,67.3v.18h.55v-.55h-.18Zm5.73-.92v.37h.37l.37-.37Zm1.11-53.06-.18.19v.18h.74V13.5Zm1.48,4.07v.37l.55.19v-.55Zm.55,53.06.18,1.11a1,1,0,0,0,1.11-1.11h.19q.37,0,.37.55h.74v-.19l-.19-.92.19-.19-.19-.18h-.74A2.69,2.69,0,0,0,150.85,70.45Zm.55-29.77h.37q.28,0,.55.74H152Q151.68,41.42,151.4,40.68Zm1.66-26.26v.19l.37.37h.74v-.19l-.74-.37ZM154,26.81v.37l.37.37.19-.18v-.55Zm0,34.39.18.55.92-.19-.37-.37Zm8.88-58.8.18.18v.19l-.74.55-.19-.19V3ZM163,39.94v.74h.37v-.74Zm1.29-38.27h.19q1.39,0,1.48.55l.19-.19h.18l.37.37A4.65,4.65,0,0,1,164,3V2ZM166,40.86l1.11.74a1.49,1.49,0,0,0,.55,1.11l-.37.37h-.19L165.45,42Q165.64,40.86,166,40.86Zm2.4,1.29h.74q0,1.29.55,1.29v.37q-1.11-.14-1.11-.37l.18-.55-.37-.37Zm1.29.19h1.85c.25,0,.37.25.37.74l.18.19h.55q0-.55.37-.55h.37l.37.37v.37l-.37.74H173v-.74l-.18.18h-2ZM173.77,3.7l.19.19v.19l-.55.37h-.92l-.37-.37ZM176,3.14l.37.37-.18.18h-.55V3.51Zm-.18,40.31h.55v.18L176,44l-.18-.19Z"/><path class="cls-1" d="M165.33.37l.74.19V.74q0,.37-2.59.74V1.29Q163.48.88,165.33.37ZM168.1,37.9v.55h-.37v-.19ZM168.47,0l.74.19V.55l-.37.37q-.93-.23-.92-.55V.19Zm2.77.74h.55l.19.92h-.55Zm8.32,54.36q.56,0,.55.92l.74.55-.55.19a11.24,11.24,0,0,0,2,6.1v.37l-.18,1.11.37,1.66-.37,2.59.18.55L181.6,71h-.18l-1.11-.55-.19.55h-.18a7.44,7.44,0,0,1-4.25-3.33l.19-1.11-.37-.37h.18l.55.37.19-.19h.18a2.53,2.53,0,0,0-1.11-1.29h-.18q-.37,0-.37,1.11h-.37q-1.57-1.62-2.77-6.1l.37-.37a1,1,0,0,1-.74-1.11v-.18q0-2,1.11-2,.92,0,.92-.74l.19.18h.18l2-.37.74.19A6.59,6.59,0,0,1,179.57,55.1Zm2-42.34H182l.92,1.11a4.53,4.53,0,0,1-.55,2.4l.55.74-.18.19v.19l.37,1.11-.19.55.19.92A10.88,10.88,0,0,1,181.6,24a5.72,5.72,0,0,0-.37,2.4v.37q0,2.22,2,7l-.37.37c-.25,0-.37-.18-.37-.55h-.37l-.18.19h-.19q-.14-.92-.55-.92-.6,0-.92,1.85l.55.19v-.19l.18.19h1.11l.18.74-.18.18.18.92v1.48l.55.19.19-.19v.92l-.55.55v-.37h-.19v.55l.19,1.11q-.23,3-.74,3a34.57,34.57,0,0,1-7.21-7.77,8.22,8.22,0,0,1-.92-4.25v-.55l-.37-.37v1.48h-.18q-.93,0-1.11-4.81l1.11-.37-.19.18v.37l.19.18v.19l-.37.37v.19h.37v.92l.37.37V30l-.18-1.66.37-.37q-.37-.32-.37-1.85l-.18-.19h-.19L172.73,27a1.86,1.86,0,0,1-.92-1.85,7,7,0,0,0,.55-2.77h.37l-.18.55.37,2.4h.19l.37-2.22-.37-.74A5.22,5.22,0,0,1,174,19l.19.18h.55l-.19-1.29a12.53,12.53,0,0,1,6.29-5ZM172.36.55l.37.37-.18.19v.19L172,1.11V.92Zm1.11.37H174l-.37.37h-.19Zm.37,56.95v.55h.37v-.55Zm.74,1.48v.55h.37v-.55Zm.37-27.18v.55h.37l.37-.37v-.19Zm1.29-13.5v.19q0,.42,2,.92l-.18-.18V19l.18-.19v-.19l-.37-.37v-.55l.19-.19v-.18h-.37A3.92,3.92,0,0,0,176.24,18.67ZM176.61,56v.92H177v-.55Zm3.88-53.44.18.19V3l-1.48.74L179,3.51h-.18l-1.11.18-.92-.37V3.14L177,3V2.77l.18.19h.55l1.11-.19.55.19Zm-3,57.69.18,1.29h.18l.19-.92-.37-.37Zm1.11-44.74v.19h.74v-.19l-.37-.37ZM179.2,22v.55h.37V22Zm.74-6.66v.55l.55.55.37-.55-.19-.92h-.37Zm1.66,56.21h.18l.37.37H182Zm0,1.66.37.37v.19h-.37ZM184,34.39l1.11,1.48-1.48,1.29q-.42,0-.74-1.85ZM183.45,42h.37a3.71,3.71,0,0,1,2,3.33l.18.19v.37q-.37,0-.37.55l-.18.74-.18.19h-.19l-2.22-2.22v-.37H184v-.37a2.73,2.73,0,0,1-.92-2Zm1.85-30a23,23,0,0,1,9.8,2.59l.55-.19a2,2,0,0,0,2,1.11l.18.19v.18l-.92.74q1.62,1.66,2.22,1.66,0,1.29,1.85,1.29a1.31,1.31,0,0,0,1.29.92l.37-.37h.55l-.74,1.11.55.18v.37h-.37q0,.55-1.29,1.11l-.19-.19h-1.29v.55a2.71,2.71,0,0,0,.74,1.48V25a2,2,0,0,1-2,.92q-.37,0-.37.55l-.18.19h-2.77q-.93,0-.92.37l-.18-.18H194l-1.11.37V27l-.18.19h-1.11v-.37l.18-.92q-.46,0-1.29-3-.6-1.43-4.07-3v-.19l-.92.19a1.61,1.61,0,0,1-1.11-1.48l.18-1.66-.18-.92.37-.37v-.37a2.13,2.13,0,0,1-.55-1.29V12.57Q184.19,12.25,185.3,12Zm.18,25.7h.18v.19l-.37.37h-.19v-.19Zm2.4.55h.37a41.21,41.21,0,0,1,9.25,9.43,9.5,9.5,0,0,0,1.66,2.77l.18,1.11q0,.93-1.29.92v.19l.92.55h.55v-.37q1.06,0,1.29,5.18.18,4.25-3.14,9.8a.87.87,0,0,0-.92.74l-.18-.18H196l.18.92q-3.79,2.77-5.36,2.77l-.19-.19h-.18l-.74.19h-.19v-.55l-.74.92h-1.29l-.55-.37-1.11.37-.37-1.29.37-.55a4.62,4.62,0,0,1-.74-2.77q0-3.51,1.11-3.51a6.88,6.88,0,0,0,4.44-2,7.87,7.87,0,0,0,1.48,2.77v-.37a11.16,11.16,0,0,1-.92-3.88q.56-.79.55-4.07h-.18l.18-.19v-.19a12.83,12.83,0,0,0-3-5.55l.18-.92v-.37q-.74,0-.74-1.48l-.18-.55h-.19l.37-2-.37-.37V44a2.27,2.27,0,0,1,1.66-2.22l.19-.19v-.19l-.19-.55h.55v-.55Q188.58,40.31,187.89,38.27Zm.37-21.45-.18-.19h-.37Q186,17,186,17.38v.37l1.29.19,1.85-1.11,1.11.18h.18L189,16.27h-.18ZM187.33,66v.19l.37.37.18-.19v-.18L187.7,66Zm1.11,3.7-.18.92v.74h.18l.37-.37V69.71Zm.37-22-.37.74.55.18.19-.18v-.37Zm1.29,1.11-.37.55v.37l.37.37h.55l.74-.37A1.22,1.22,0,0,0,190.11,48.81ZM191.77,22v.55H192l.37-.37V22Zm.92,41.6V64h.18l.37-.37Zm.37-14.24v.19l.74.74h.37v-.74Zm0,13.13v.37h.55v-.37Zm.92-5.92v.37l.37.37,1.11-.92L195.1,56h-.55Zm.19-10.17v.19h.37l.19-.19h.18l-.18-.55Zm1.29.74v.19l.37.37v-.55Zm1.11,12.76v.55h.55v-.19l-.37-.37Zm1.48-9.24-.19.55h.19l.37-.37v-.18Zm0,9.06v.37h.55v-.37ZM198.8,54v.55l.37-.37V54Zm0,1.48v.19l.18.55h.55V56Zm14.05-22q0,.79,2,1.85l.37-.37,1.48.19v-.74l1.11.19.55-.19.19.19v.18l-2,1.11h-.92l-.18.55-.55-.37-.18.19-1.11-.19-2,.19-.37-.37H211v.92l-1.48-.37-.37.37-.19-.19h-.18l-.74.19-2-.92v.19l.18.74V37l-.18.19.18.55,3-.37.55.18v.37q-2.59.23-2.59.74l-.92-.18-1.11.37-.92-.19v.92l-.92-.19H203a3.09,3.09,0,0,0-1.29,2l-.92-.18.37,1.11-.92.18q-.56-.18-.55-1.11l.92-.74.55.18.55-2.59-.18-.19V37.9l.18-.74,1.29.19V37l.92.19q0-.74.55-.74l.92-.74-.37-.37v-.18l.55-.19.55.19.37-.74h.18l.19.92-.19.55.19.19h.18l.18-.19.37.37h.74l2.22-1.29v-.37l-.18-.19v-.19Zm-12.2-15.53h.55v.18l-.37.37-.19-.19Zm.74,17.93v.55H201v-.18Zm1.85-14.42h.55l.37.37-.92.18Zm.92-1.11,1.11.19.18-.19h.18l.19.74h.55c0-.37.12-.55.37-.55v.19l-.18.18.37.74-.37,1.11v.92h-.18q-.88-.18-2-2l.55-.19v-.18l-.37-.37-.18.19-.55-.19v-.18Zm.18,17.38.92.55.18-.19v-.37l-.37-.37h-.37Zm3-17.75h.19l1.29.37v.37h-.55Zm2.59.37-.37.37H209v-.19Zm2.77,16.27.18.19H213l1.11-.19q0,.42.55.37l2.4-.18q0,1.06-2.4,1.48l-.55-.19-1.48.55h-.74q-1.2,0-1.48-.74h-.37v-.19l1.29-.74h.37q0,.56.37.55h.18Q212.29,36.61,212.66,36.61Zm-1.29-16.46,1.85.37v.37h-1.29v.37h-.37l-1.11-.92Zm2.22,9.06H214V30l-.37.37H213V30l-1.29.37-.18-.18V30l1.85-.55Zm.37,4.25h.19a1,1,0,0,1,1.11,1.11v.18h-.55l-.74-.92Zm.74-12.94h.37l.37.37-.18.19h-.19l-.74-.19Zm3.33,8h.74v.37l-2.22.19H216l-.37,1.29h-.18l-1.11-1.11Q214.88,28.48,218,28.47Zm-1.85,1.29.55.19v.37H216v-.18l.18-.19Zm1.29,6.84H218l.18.19V37H218l-.55-.18Zm.55-10q1.11.19,1.11.55l-.19.19h-.37l-.55-.55Zm2.4-3.33.55.55v.37l-.92-.18v-.37Z"/><path class="cls-1" d="M224.51,12.57a3.14,3.14,0,0,1,1.66.55l.74-.55h.19l.55.55-.55.74v.37h.55l.92.19-.18-.19v-.37l.37-.37H229L232.46,15v.19l-.18.18v.19q1.9,0,5,4.81a7.12,7.12,0,0,1,1.11,2.77v.19q-.56,0-.55.37v.19l1.11.19-.18.92v1.11l.55.74V27A1.48,1.48,0,0,1,238,28.66V29q.92,0,.92.37v.74l-.18.18v.19h.18l-.37.74.37,3.88-.18.74h.55v-.55h.37l.19.19.18-.19h.74v.19l-.74.55-.18.19v.18l-.92-.18h-.18v.18l.55.74v.19l-.19.18.19.55h.55v-.74h.92l-.37,2.22,1.11,1.29-.19.19v.19l.19.18-.19.19-1.48-.37-.55.18v.92l-.37.55V55.84q0,.42-1.85.92v.18q1.85,0,1.85.55v.19l-.18.19v.18a6.35,6.35,0,0,1-3.51-.92h-.18l-.37.37.92.92q-.23.93-.55.92h-.18l-.74-.55a.49.49,0,0,1,.55-.55v-.19a.49.49,0,0,1-.55-.55l.19-.55h-.19l-.18-.18-.18.18h-.55q0-1.66-1.85-1.85,0-.23-1.48-.37v-.37h-.19l.19-.19L229.69,52v-2.4l.19-.74-.37-.92.18-2.59V44.19l-.18-1.66.18-.18-.18-1.85v-.55l.37-3.14-.55-1.48.37-.37a12.7,12.7,0,0,0-.55-4.07l.55-1.48-.18-.55.18-1.11v-.37q0-1.85-.37-1.85l.18-.19v-.18q-1.66-3.56-4.81-3.51a7.07,7.07,0,0,0-3.51,1.29v.37l.37.55-.19.19h-.18l-.18-.19h-.19v.37h.37v.37l-.18.18V25l.18.19a2.19,2.19,0,0,0-1.48,2l.74.74v.18l-.55,1.11h.18l-.18.19v.74q.65,1.48,1.66,1.48a.49.49,0,0,0,.55.55l.18.19v.37q-.74.09-.74.55c.37,0,.55.12.55.37V34h-.19a4.21,4.21,0,0,1-2-.92l-.19.19h-.18q.28.74.55.74l-.18,1.29v.55l.18.74-.18.74.37,1.29-.55.74.19,1.11-.37,2,.74.92a5.67,5.67,0,0,0-.55,2.77l.19,1.11-.19.74.55.19-.18.92q.83.37.92.74v.19a1,1,0,0,0-1.11,1.11l.55.18v.19l-.74.19V55.1l.19.92-.19,1.11V58.8q0,3.74,4.07,5h1.29a5.31,5.31,0,0,0,4.62-3l.74-.18h2.22a14.69,14.69,0,0,1,4.25.37l1.11-.37.74.18v.74q-.56,3.51-1.85,3.51l-.18.18h.74v.37q-.6,1.8-4.44,5.18a8.77,8.77,0,0,1-3.14,1.48c0-.25-.19-.37-.55-.37a3,3,0,0,1-1.66.92l-.74-.19-.37.37h-.74l-.74-.74a5.52,5.52,0,0,1-2.4.74l-.19-.18.19-.19v-.19l-.19-.18v-.19a.49.49,0,0,0-.55.55h-.18L219,71.74a11.43,11.43,0,0,1-4.07-3v-.55l.37-.55q0-.92-.37-.92l-.92.18-.37-2.22.19-.74q-.19-1.29-.55-1.29L213,63.79l.37.37v.74q0,1-.55,1.11A12.64,12.64,0,0,1,211,59.17l.18-.18V58.8l-.37-.74.19-.18v-.19l-.19-1.29H211l-.19-.18v-.55l.19-1.11-.19-.19V53.8H211l-.19-3.14V47.15L211,47l-.19-.18v-10l.37-1.11-.37-1.11.19-.74-.19-.74q0-.32,1.66-1.11l.19-.92h-.19l.19-.19v-.37l-.92.19-.18-.19v-.92h.37l.19.18h.18l.18-.18V29.4a1.31,1.31,0,0,1-.92-1.29,2.33,2.33,0,0,1,1.48-.55v-.18q-2-.92-2-1.85v-.37c.37,0,.55-.12.55-.37h.55v.37h.18q1.48-.79,1.48-1.66V22.37q1.11,0,1.11-.74.37,0,.37-.55l-.18-.92A2.33,2.33,0,0,1,216.93,19q0-.65,2.22-1.85l-.37-.37.55-.55.18.18h.18l1.11-.92v.37h.55v-.18l-.18-1.66.18-.74,1.11,1.11h.74V13.13Q223.22,12.81,224.51,12.57ZM213.79,29l-.37,1.66.18.18-.74.55.18.19V32l-.37.55q.74.09.74.55l1.29-.92a.49.49,0,0,0-.55-.55l-.18-.19v-.55l.18-1.11L214,29ZM213,43.82l-.18.92v4.62l-.18.92.18,1.11v4.81l.37.37V50.11l.18-.19-.18-.19V46l.18-1.66-.18-.55Zm0,13.31-.18.74.18.18v.19l-.18.19.37,3H213l.19.74h.18V59.35l.18-.19-.37-2Zm0-18.86v.19l.37.37V37.9Zm.19.92-.19.92v.74l.37-.37V39.2ZM213,41v2.22l.37-.37-.18-.19v-.19l.18-1.11Zm.37-7.21v.74l.37-.37v-.37Zm.18-6.29.19.92.55-.19-.19-.92Zm.37-1.48v.55l.37-.37v-.19Zm.18,19.6.19.18h.37l.37-.37-.18-.19h-.37Zm.19-22.93v1.11l.55-.19V23.3Zm.18,2.4.37.74.37-.37v-.37Zm.92,7.4v.37h-.19l.19.74.37-.37v-.37Zm.37-2-.18.74H216v-.74Zm0-2v.18h.37V28.1ZM216,47.89v.74h.18l.37-.37v-.37Zm2.4,19.41v.18H219v-.55h-.18Zm5.73-.92v.37h.37l.37-.37Zm1.11-53.06-.18.19v.18h.74V13.5Zm1.48,4.07v.37l.55.19v-.55Zm.55,53.06.18,1.11a1,1,0,0,0,1.11-1.11h.19q.37,0,.37.55h.74v-.19l-.19-.92.19-.19-.19-.18H229A2.69,2.69,0,0,0,227.29,70.45Zm.55-29.77h.37q.28,0,.55.74h-.37Q228.12,41.42,227.84,40.68Zm1.66-26.26v.19l.37.37h.74v-.19l-.74-.37Zm.92,12.39v.37l.37.37.19-.18v-.55Zm0,34.39.18.55.92-.19-.37-.37Zm8.88-58.8.18.18v.19l-.74.55-.19-.19V3Zm.18,37.53v.74h.37v-.74Zm1.29-38.27H241q1.39,0,1.48.55l.19-.19h.18l.37.37a4.65,4.65,0,0,1-2.77.55V2Zm1.66,39.2,1.11.74a1.49,1.49,0,0,0,.55,1.11l-.37.37h-.19L241.89,42Q242.08,40.86,242.45,40.86Zm2.4,1.29h.74q0,1.29.55,1.29v.37q-1.11-.14-1.11-.37l.18-.55-.37-.37Zm1.29.19H248c.25,0,.37.25.37.74l.18.19h.55q0-.55.37-.55h.37l.37.37v.37l-.37.74h-.37v-.74l-.18.18h-2ZM250.21,3.7l.19.19v.19l-.55.37h-.92l-.37-.37Zm2.22-.55.37.37-.18.18h-.55V3.51Zm-.18,40.31h.55v.18l-.37.37-.18-.19Z"/><path class="cls-1" d="M256.1,13.31l1.48.19,5.55-.19q3.14-.09,8.88,2.59.55,0,2,2.22,1.48,0,1.48.55v.19l-.37.55.19.55-.37.92h.18a1.14,1.14,0,0,1,1.29,1.29h.18l2-.74q0,.32,1.66.55v.19q0,.42-2,1.11l-1.66.92-.18-.18v-.19l.18-1.48h-.37v.18l-.18,1.85.18-.19h.37L277,25.7h.74l.18-.19h.19l.37.55v.74l-.74-.19-.92.37v.19l.74,1.11q0,.28-.74.55l-.18.19V30l.18,1.29h1.11l.92.18v.37l-1.29.37H277v.37l.18.19v.19l-.37.37v.37l.74.19.18-.19h.74l.55.55v.19q0,.32-2.22,1.11-.46,6.1-1.85,6.1h-.37l-.18-.19.37-4.25.37-.37-.18-.19v-.19l.18-.55-.18-.55-.55.19.18.74-.18,3.51-.74.37L274,41q-.32,1.29-1.11,1.29v.37h.19l.74-.37.18.18.19-.18.18.18.37-.37h.55A1.56,1.56,0,0,1,274,43.82q0,3-7.21,5.73l-.74.18-.37-.37-.55.55h-.74q-1.11-.51-1.11-1.29h-.37l-.92.19V49q0,.42,1.29.55v.37l-1.11.19-.92-.37v-.37l.37-.55-2.4-.55h-.19l-.37,1.29.18.18v.19l.74-.37v.18q0,.37-1.29.55v-.18l-.55.18V55.1l-.18.92h-2.4l-.37.37q.92,0,.92.37v.18h-.92l-.92.19-.18-.19v-.18l.37-.37q0-.37-.55-.37l-.18.19q-3-.18-3-.55a3.46,3.46,0,0,0-1.66,1.11l-.19-.19h-.18a.49.49,0,0,1,.55-.55v-.19q-.56,0-.55-.92V53.25l-.18-1.48.18-1.48-.18-2.59.18-.74h-.18l.37-.55-.37-2.22q0-.55.74-.55l1.29-.74.19-.19v-.37H250l-1.66.55-.18-.19v-2l.18-.19-.18-.55.18-1.11-.18-2V34l.18-.19L248,31.06l.19-1.11L248,29l.19-4.44v-7l.18-.18V17.2h-.18l.18-.19v-.74l-.18-.19q.14-1.11.74-1.11l-.37-1.29.19-.18,1.29.18,1.85-.18.55.18.55-.18.37.37.74-.37.19.18h.37Zm-7.21,47.33h.37l.18.18.18-.18h7.58q.56,0,.55.74l-.18,1.48h.18L257.39,64l.37,1.29v6.66l-.55.55h-4.07l-.55-.37-.74.37q-2.4-.42-2.4-1.29a3,3,0,0,1,.55-1.66q-1.48-.69-1.48-3.33l.19-.19-.19-.19v-.18l.19-1.29h.55l.37.37-.18.19h.18l.19-.19H250q-.23-.92-.55-.92l-.18.19q-.88,0-1.11-2l-.19-.18Zm0,5.18.37.37h.18l-.37-.37Zm1.11-20,.18.55-.18.19,1.48.37.18-.18v-.55q-.93,0-.92-.55v-.19Zm.18-26.25V20l.92.55h.18l.37-.37q-.93-.42-.92-.92h-.18Zm0,36.79h.55l.55.37,1.66-.37.19.19v.19l-2.59.74.18-.18v-.19l-.55-.55Zm.92-14.24-.18.19v.18l.37.37.37-.37.18.19h.55v-.37Zm.55,3.33.18.19h.37l.55-.55v-.19l-.37-.37h-.18Q251.8,44.56,251.66,45.48Zm1.11,2.22v.55h.74v-.37ZM253,14.79v.74h.55v-.37l-.37-.37Zm.37,1.85V17l.37.37h.37Zm0,33.84.18.19.74-.37v.55h.37l.37-1.29-.18.18h-.19l-.55-.37Q253.74,49.37,253.33,50.48Zm.55-29.77-.37.74V22h.74l.55-.55-.55-.74ZM253.7,39.2l-.19.55,1.29.74.18-.19v.37h.55v-.19c-.37,0-.55-.12-.55-.37v-.19l.37-.55-.19-.19Zm0,5.36v.37l.74-.19v-.18Zm.55-29v.19l.92.37h.19v-.37c0-.25-.19-.37-.55-.37ZM257.39,46h-.18l-.18-.19h-.19v.74h-.74l-.55-.37h-.18l-1.11.37V47q.92,0,.92.55l-.55.55v.74h.19l.92-.37v.18l.37.37q.56-.18.55-1.11l-.74-.74.37-.37.55.18v-.37h1.11l-.18.19v.55h.74l.37-.37c0-.25-.25-.37-.74-.37v-.19q1.66-.09,1.66-.74l-.19-.19h-.37ZM256.1,17.75l-.18.19v.55l.18.55h-.18l-.74.55.19.18V20c0,.25-.19.37-.55.37v.37h1.66q.92,0,.92.55h.19v-.92l-.92-.18.18-.19q-.09-.92-.55-.92v-.55l.37-.37.18.74h.55v-.74l-.37-.37h-.37l-.18.19h-.19Zm4.62,3v.92l-.18-.19h-.18a5.31,5.31,0,0,1-3.14,1.29v.37l.37.55L257.39,25v.19l.19,3.7-.19.92.19.74L257.39,32h.19l-.19.19v.37l.19,2.22-.19.92.19,3.7v1.85l.92.18h2v.37a4.12,4.12,0,0,0-1.85,1.11L255,44.19v.19c0,.25.18.37.55.37,0,.25-.25.37-.74.37v.37H255l.55-.37h.18v.37h.19q.37,0,.37-.55l-.18-.55.18-.19h.19l.18.55h.55q.28-1.29,1.29-1.29l.37.37h.18a2.24,2.24,0,0,0,1.66-1.11q0,.55.74.55v.37h.37q0-.74.55-.74v-.37L262,42l.37-.55,1.11.55.37-.74h.37c0,.37.12.55.37.55l1.66-.37V41H265q3.33-2.68,3.33-4.81l-.18-.92.18-.74-.18-.19v-.19l.18-.18-.37-4.62.19-.74a10.63,10.63,0,0,0-.74-3.7h.37l.18.19.55-.19v-.19a8.22,8.22,0,0,0-5.36-2.4q-1.85,0-1.85-.37l.19-1.29Zm-4.81,29.77-.55.74v.18h.92v-.55Zm-.19-18.67V32a1.91,1.91,0,0,1,.37,1.29h.18v-.74l-.18-1.11Zm.19,32.54h.92l-.37-.37h-.19ZM258.69,19l.18.18h.18l.37-.37-.18-.19h-.19Zm2.22,2.59.18.19V22l-.18.19h-.19l-.18-.19v-.18l.18-.19ZM261.83,47l.37.37.37-.37-.37-.37ZM263.5,1.48l.19.19v.19l-.92.37L262.57,2V1.66ZM264.42,42l-.18.19v.19l.18.18h.18l.19-.18v-.19l-.19-.19Zm-.18,6.47v.37l.37.37.37-.37v-.37ZM266.82,42l.19.92h-.37q-1.85.23-1.85.74l.55.19,1.48-.74.19.19h.92q.42,0,.55-.92l-1.66-.55Zm1.29-.92v.19h.18l.37-.37v-.18h-.19Zm.92-.92-.18.18v.19l.18.19h.19l.18-.19v-.19l-.18-.18Zm0-15.72V25h.37l.18-.55Zm.74-22.19q1.11.42,1.11.74h-.37l-1.29-.19V2.59Q269.23,2.22,269.78,2.22Zm-.55,31.62v.55h.92l.74.19h.18v-.19L270,33.84Zm.18,4.44h.74l.55-.55v-.37h-.55Q269.78,37.44,269.41,38.27Zm.74,1.85v.74l2.22-.37v-.19h-.92l-.19.19h-.18l-.37-.55Zm.19,3.33v.18h.37l.74-.55h-.37Zm.18-10.72v.37h.18l.37-.37v-.37h-.18Zm.74,1.85v.18l1.11.55h.55v-.37l-1.48-.37Zm0,7.58v.37h.55l.37-.37V42Zm2-39.57.18.19.19-.19h.18l.37.37-.19.18v.19q-1.48-.18-1.48-.55l.18-.19Zm-.37,37.72v.19h.37l.18-.19v-.18ZM274.78,34v.92H275l.18-.92Zm.37-3.33v.74l.37-.37v-.37Zm0,21.63.92.18h.55v.37q-.09.46-1.29.92Zm.19-22.56q.42,0,.55-1.85Q275.33,27.92,275.33,29.77Zm.55-4.62v.74l.37-.37Zm7.21,27.73.18.18-.37,1.11.19.55a23,23,0,0,1-4.81-1.11l-.18.19h-.19l-.92-.19v-.18l2-.37q1.48.14,1.48.37A6.4,6.4,0,0,1,283.1,52.88Zm-4.25-.74v.37l-1.11.19v-.37ZM278.1,61h.74v.55l-1.11.19v-.37ZM283.65,2.4h.55V3l-.55-.19Zm5.36.18h.37l.37.37-.19.18v.19L289,3.14Zm1.48,0h.18l.74.55-.19.19H291Z"/><path class="cls-1" d="M279.69,12.85l.37.37-1.29,1.11h-.37L278,14l.18-.18q.56,0,.55-.74ZM281,14.14l.55.19v.92l-1.29-.37Zm.92-2.4h.18l.37,1.29-.18.19h-.74Q281,13,281,12.11v-.19Zm.18,5.55h.37v.55h-.37Zm32.54-4.07,1.85.18-.18.55q.32.93.92.92v.92q0,.93,2,.92l.19.19v.37l-.92,1.11.37.37-.37.37a2.13,2.13,0,0,0-2-1.11v.37q.18.65,1.66,1.66v.37q.56,0,.55.37-.92.14-.92.55v.74h.55l.92.18v.55q-1.29.23-1.29.74v.37h1.11l.74.37v1.29q-.74,0-1.48,1.85v.37c.37,0,.55.12.55.37l-.37.37L318,28.2l-.18.18v.37q.46,0,1.48,1.11V30l-.18.19v.19l-.18-.19h-.55l-.19,1.29v.37H318q-1.48-1.48-2.22-1.48a1,1,0,0,1-.74.74V30l.55-.74v-.37q0-.37-1.85-.74l-1.85.18h-4.44v.37q0,.69,2,1.11v.37a2.11,2.11,0,0,0-1.48.92h-.18q-.83-.42-1.48-2.77a4.39,4.39,0,0,0-2.22-.55l-.74.37-.19-.19-.18.19V28l-.18.19h-.19L301.51,28l-3,.37-1.11-.18-.18.18h-.19l-1.48-.18-2.22.55-.92-.19-1.66,1.66v.55L291,31h.19q.65,0,1.66-1.85h.37V30h-.37l.37,2h-.74l-.55-.37-.18.19v.92h.37V33l.19-.19H293l.18,1.29q-.18,1-1.66,1.48a4.58,4.58,0,0,1-1.11,2.22l.37.74q-.93,0-.92.37a2.91,2.91,0,0,0,.92,1.85V41l-1.11-.37v.55a4.43,4.43,0,0,0,4.07,2.22q.23.56,4.07,1.85.09.74.55.74h.55l.18-.19.18.19h.55l.55-.37,1.85.74.55-.55H303l-.37-1.11v-.37l1.66.55,1.48-.92h.37l1.11.55v.19l-.19.92q1.29,0,1.29,1.66h.18l.18-.18h.19l-.19-.19v-.55l.74-.55-.37-1.11,1.11-1.29q-.23-.74-1.66-.74l.92-.92.74.19a3.73,3.73,0,0,1,2-.55l.92.19.19-.19V41l-.19-.92q1.66-.23,1.66-1.29H315l.74.55.74-.55v-.37q-.74,0-.74-.92.74-.37.74-.92l.74.18.74-.18.18.18v.19l.74-.55v-.19q-.19-.55-1.11-.55v-.18l.37-.55-.37-.37-.74.19q-.74-.18-.74-.74t1.11-.92a1,1,0,0,1,1.11,1.11h.37l.74-.55h.18v.55q-.92.65-.92,1.11a3.7,3.7,0,0,0,1.29,1.66l.18,1.85c-.37,0-.55.12-.55.37v.37a1.27,1.27,0,0,0,1.29.74h.55v.37a4.05,4.05,0,0,0-.55,1.85h-.37l-.37.55.37.55-.92,1.11.19.19h.18l.92-.37.18.19v.19q-.19.55-1.11.55h-.55l-.55-.37h-.55l.18.92h-.18l-.92.18-.74-.18q-.74,0-.74,1.29h-.37l-.37,4.07.37.92-.18.19v.19l.18.92-.18.92h.37v.19l.19-.19h.37l.37.37q-1.11.42-1.11.74v.37c.25,0,.37.25.37.74l.55.19q-.33.93-.92.92v.55h.92v.37l-.19.18q0,.74,1.11.74l.19.74-.19.18-.74-.37-.74.19v.55l1.48.18a2.25,2.25,0,0,0-.74,1.48c.49,0,.74.12.74.37l-.37.55.18.19q-.19,1.66-.55,1.66l.55,1.29-.74.37-.55-.19a2.13,2.13,0,0,0-.55,1.29v3l.18,1.85h-5q-.37,0-.55-1.85l.18-.74-.18-.19h-.37l-.55.55.19.19v.18l-.19.19h.19l-.19.19v.74l.19.19v.19l-.37.37-.74-.37-1.11.37q-.6,0-.55-3c0-.86.12-1.29.37-1.29l-.18-.19V66.84a2.69,2.69,0,0,1,.92-1.66V65c-.37,0-.55-.12-.55-.37v-.19q1.11-.18,1.11-.55l-.37-.37v-.19h.37V63H308l-.37.37.19.19-.19.19h-.55l-.37-.37v-.74l.18-.74-.18-.74h.37l.19.19h.18v-.55h-.74V59.26h.18l.18.18h.19l-.19.19V60l.37.37.55-.92v-.18h-.55v-.19l.18-.92L306.5,57l.19-.19h.18l.37.37.18-1.85h-.55l.18-.92-.37-.37V52.6l-.19-.74q.23-2.77,1.11-2.77v-.55l-2.22-.74-.37.92h-.37v-.55l-3-.19-5.18.19-.37,1.66.18.92v.55l-.18,4.07.37.37v.37h-.37v.55h.18V56.3h.37q.46,0,.74,1.48,0,.51-1.48,2v.55l.55.74-.55.55.19.19h3.51v.55l-.37.37-.18-.18-.55,1.48v.19l.37.55v.37q-1.29.37-1.29.74v.37l1.11.55.74-.19V67q0,.55-2.59.92v.74l.55.18,1.11-.18v.37l-1.85.37v-.18q-.74.28-.74.55l.19.18-.19.19v2.22l-.55.55H294.3v-.19l.19-.55h-.55l-.55-.18v.18c0,.49-.12.74-.37.74h-.74q-.93,0-.92-.37l-.18.18h-.55l.18-.18V72l-.55-.19.18-.74q-.28-.74-.55-.74h-.37q0,.74-.92.74v.37l.55.74v.37h-.18a2.21,2.21,0,0,0-1.48-.55l-.55-3.14.55-.37c0,.25.18.37.55.37l1.29-.18V68.5a2.69,2.69,0,0,1-1.66-.92h-.55V63.51l-.18-.74.37-1.29-.37-.37v-.18h.37l-.19-.92.37-.37-.55-.19.18-.18v-.74l-.18-.19.37-1.66-.37-.55q0-1.06,1.48-2v-.37h-.19l-.55.37h-.55V52.42q0-1.29-.37-1.29l.37-.74-.18-.19q0-2.4,1.29-2.4l.37-.37a4,4,0,0,1-1.85-.92v-.74l.37-1.29-.18-2.22h.37l-.37-1.48V38.55l.18-1.11-.18-.55.37-.92-.55-.55L288,35l-.55-2-.18.19h-.55V31.52h.18l.55.37v-.74c-.37,0-.55-.12-.55-.37v-.55l.18-.19-.37-.55.18-.55-.37-1.48.19-.55-.37-.74.18-2.22-.37-.55.37-.37-.18-.92.74-.19v-.55l-.55-.19.19-.92-.37-2L286.9,16l-.55-.74.18-.19h.37v.37h.37v-.55l-.37-.55.18-.19h.55l.19.19.18-.19h1.11l.92.19,1.11-.19h.37l.92.19,1.11-.19h1.11l2.4.74v.55H296V16q1.29.19,1.29.55a3.34,3.34,0,0,0-1.66,2.59q0,.55,1.66,2.4L297.07,23h-.18l-.92-.19-.18.92.18.18h1.11v.37q-.55,0-.55.92,0,.55,1.48.55v.74h-.37v.18q0,.51,2.59,1.11,0-.37.55-.37l1.66.19.37-.37,1.48.19a1,1,0,0,1,.74-.74l1.11.19V21.36l.18-1.66-.18-.19v-.18l.18-.92-.18-.18.37-3.14-.18-.92,1.29-.19H310l.74-.18.18.18h.19Zm-27,48.26V62l1.29.18v-.55l-.92-.18Zm1.11,2.59q0,.51-.92.92v.19l.92.19.19-.19.18.19h.74v-.19l-.74-1.11Zm.74-47.7v.55h.37v-.19Zm0,50.85v.55h.37l.37-.37v-.55h-.37ZM290,28.57l.37.37h.19l-.37-.37Zm.74-11.09v.92h.37l.18-.18h.18l-.18-1.11h-.18ZM291,71.83h.74q.37,0,.37-.92H293v-.19h-1.48Q291.2,70.72,291,71.83Zm2.4-4.07v.92l.74,1.48h.18l.37-.37a2.51,2.51,0,0,1-.37-1.66l-.55-.37Zm1.11-40.31v.37h.18l.37-.37Zm3.33,34.76v.37h.55v-.37Zm1.29-15.53.37.37h.37l-.37-.37Zm1.11.37.18.18h.19l.37-.37v-.19h-.37Zm1.29-25.33.92.19v.19l-.37.37h-.18l-.74-.37Zm.37,20.71h.18l.37.37v.37h-.55ZM307.43,26l-.18.18v.19l.18.19h.18l.19-.19v-.19l-.19-.18Zm1.11,22.74v.55l.74.18.92-.18v-.19l-.37-.37Zm.92-1.85q.14,1.48.55,1.48h.37q0-1.39-.55-1.48Zm0,21.26.18.55-.18.92.18.19h.18l.74-.92A1,1,0,0,0,309.46,68.13Zm.18-38.27h.18q2.4.42,2.4.92l-.55.55h-.37q0-.79-1.48-.92l-.18-.19Zm1.29,15.9-.37.55.18.19v.18l.74-.37v.37h.92V46.5Zm-.37,3.33v.19h.55V48.9Zm6.29-21.63-.18.19v.18l.37.37h.19v-.37Zm0,1.85v.18H317l.37-.37v-.19h-.18Zm1.11,10v.55l.92.18v-.18l-.19-.92h-.37Zm1.11-25a3.08,3.08,0,0,0,2,.55l.18.18v.37h-1.48q-1,0-1.11-.55Zm.18-1.48.37.37v.18h-.37l-.37-.37.18-.19Zm-.37,31.25v.19l.37.37h.19V44.1ZM323.14,40a6.8,6.8,0,0,0,3.14.74l.37.55v.19l-.19-.19-1.29.19h-.74v.55l.18.18v.19l-.18.19h-.19L323,40.21Zm2.59,2.22.18.19v.19l-.37.37h-.19v-.37Zm.37,27h.55v.18l-.37.37-.18-.19Z"/><path class="cls-1" d="M331,12.67q4.44,0,4.44,1.29l6.29,18.86h.37a3.5,3.5,0,0,1,1.11-2.22L343,29.49q1.76-5.82,2.22-6.29a77,77,0,0,1,3.14-10l1.48-.37,1.11.37,2.59-.19h1.29l2,.37h.37q-.55,3.05-4.62,14.24l-1.29,6.29.18.74-.18.55.18.92h-1.29l-2,5.92.18.18q0,.56,1.11.55l.19.55-.19.19-.18-.19H348l-.37.37v.18l1.11,1.66v.19h-.18l-1.29-.19v.55h.37v.37l-.55.55c0,.25-.18.37-.55.37v3l.37,1.11-.37.37v3.51l-.37.55.37.92h-.18l.18.19v3.88l-.18.55.18.92v5.73l.18,1.11-.18.92v1.48h-.37v.19l-.74-.19-.74.19L343,71.65l-.92.19-3-.37v.18l-1.66-.37.18-.74-.37-1.66.19-.18V68.5l-.19-2.22.19-1.11-.19-1.85V62.4l.19-.19-.19-.55q0-.55.74-.55a1.14,1.14,0,0,1,1.29-1.29l.18-.19v-.37l-.37-.37H339q0,.56-.37.55h-1.11q-.42,0-.55-2,.32,0,.55-1.66l-.19-.19V55h.19l-.19-2.22V48.17l-.18-.19q.18-1.48.55-1.48l.55.18,1.29-.55.55.19v-.19l.19-.92h-.37v.37h-.18q-1.29-.42-1.29-1.29H338q-.28,0-.74,1.29h-.37v-.92l-1.11-2.59.18-.19h.18l1.11.74a1.44,1.44,0,0,0,.92-1.48V41l-.37-.37-.37,1.11-1.29-.37.37-1.11-.18-.19v-.18q0-.42.92-.55l.55.18.19-.18v-.19q-.28,0-.55-.74l1.66-.37q-.74-1.48-3.7-1.48l-.18.18v.19l.37.74h-.18q.32,1.29,1.11,1.29v.19q-.32,0-.92,1.48h-.37L333,33.93l.55-.18v-.19q-.56,0-1.29-1.11l.19-.19L331.94,31h-.19a2.76,2.76,0,0,0-2.22,1.11l-.92-.19-.37.37-.92-.18q0,.74-1.11.74l-.37.37q-.74-.28-.74-.55v-.19l6.1-2.22.19-.55-3.51-9.61-2-6.66q0-.42,2.22-.55l1.11.19Zm1.66,4.25v.19l.37.37h.37v-.19l-.37-.37Zm2.4,12.94-.18.18v.37h.18l.37-.37-.18-.18Zm.19-1.29v.19l.18.18v.19l.92-.37V28.2H336Zm.55.92v.92l.55.18.18-.92Zm1.29,2.59a2.13,2.13,0,0,0-.55,1.29v.37h.55q0-.69,1.48-1.11v.18l.74-.18v-.19q0-.37-.55-.37l-.55.37Zm-.18,2.59h.55V34.3h-.19Zm.74,8.69.37.37.55-.55V43H338ZM338,50.2h.18l.55-.55v-.37h-.18Q338.18,49.27,338,50.2Zm.18-16.09v.37l1.11.19V34.3Zm.18,8,.19.18H339l.37-.37-.18-.19h-.37Zm3.51,12q-.46,1.66-.92,1.66,0-.42-1.29-.74v-.18l.18-.19h-.55q-.37,0-.37.55.28.74.55.74l.92-.19v.19q0,.74-1.48.74V57l.37.37h.18l.55-.37h.19q0,.55-1.29.55v.55l1.29.55v-.19q0-.28,2.22-.74L344,56.12v-.37Q342.71,54.08,341.92,54.08Zm-3,6.66v.19h1.11l-.18-.19v-.19Zm.37,2.22,2,1.11a3,3,0,0,0,.74-1.66l-.37-.37A6,6,0,0,1,339.34,63Zm.74-29.21.19.18h.37l.19-.18H341l-.18-.55h-.19ZM341,61.29v.19l.37.37.18-.19v-.37Zm.18,4.25v.55h.37l.37-.37-.19-.19v-.18Zm.92-36.05.18.19v.19l-.18.55-.37-.37v-.18Zm.37,35.32V65h.18l.92-.18-.37-.37h-.37Zm1.11-8-.19.19v.37l.92-.19V57Zm1.11-7,.37.37.19-.19v-.18Zm1.48-24.78q1.11.74,1.11,1.29h.37q1.48-1.25,1.48-1.66L347.84,23h-.18Q346.18,24.13,346.18,25.05Zm5.92,15.72q.09.74.55.74v.55h-.37q-.55-.18-.55-1.11l.19-.19Zm0-6.1,1.29.19v.37h-1.29Zm2-18.49.18.19h.55l.18-.55-.18-.55h-.18Q354.27,15.25,354.13,16.18Z"/></g></g></svg>