<svg xmlns="http://www.w3.org/2000/svg" viewBox="0 0 429.46 81.86"><defs><style>.cls-1{fill:#f4c215;}.cls-2{fill:#fff;}</style></defs><title>Asset 2</title><g id="Layer_2" data-name="Layer 2"><g id="Layer_4" data-name="Layer 4"><path class="cls-1" d="M13.68,12.57a3.15,3.15,0,0,1,1.66.55l.74-.55h.18l.55.55-.55.74v.37h.55l.92.19-.18-.19v-.37l.37-.37h.19L21.63,15v.19l-.18.18v.19q1.89,0,5,4.81a7.13,7.13,0,0,1,1.11,2.77v.19q-.56,0-.55.37v.19L28.1,24l-.19.92v1.11l.55.74V27a1.48,1.48,0,0,1-1.29,1.66V29q.92,0,.92.37v.74l-.19.18v.19h.19l-.37.74.37,3.88-.19.74h.55v-.55h.37l.18.19.19-.19H30v.19l-.74.55-.19.19v.18l-.92-.18h-.19v.18l.55.74v.19l-.18.18.18.55H29v-.74H30l-.37,2.22,1.11,1.29-.18.19v.19l.18.18-.18.19L29,41.23l-.55.18v.92l-.37.55V55.84q0,.42-1.85.92v.18q1.85,0,1.85.55v.19l-.19.19v.18a6.34,6.34,0,0,1-3.51-.92h-.18l-.37.37.92.92q-.23.93-.55.92H24l-.74-.55a.49.49,0,0,1,.55-.55v-.19a.49.49,0,0,1-.55-.55l.18-.55H23.3l-.18-.18-.19.18h-.55q0-1.66-1.85-1.85,0-.23-1.48-.37v-.37h-.18l.18-.19L18.86,52v-2.4l.18-.74-.37-.92.18-2.59V44.19l-.18-1.66.18-.18-.18-1.85v-.55L19,36.79l-.55-1.48.37-.37a12.7,12.7,0,0,0-.55-4.07l.55-1.48-.18-.55.18-1.11v-.37q0-1.85-.37-1.85l.19-.19v-.18Q17,21.59,13.87,21.63a7.07,7.07,0,0,0-3.51,1.29v.37l.37.55-.18.19h-.18l-.19-.19H10v.37h.37v.37l-.19.18V25l.19.19a2.19,2.19,0,0,0-1.48,2l.74.74v.18l-.55,1.11h.19l-.19.19v.74q.65,1.48,1.66,1.48a.49.49,0,0,0,.55.55l.19.19v.37q-.74.09-.74.55.56,0,.55.37V34h-.18a4.22,4.22,0,0,1-2-.92l-.18.19H8.69Q9,34,9.25,34l-.19,1.29v.55l.19.74-.19.74.37,1.29-.55.74.18,1.11-.37,2,.74.92a5.65,5.65,0,0,0-.55,2.77l.18,1.11-.18.74.55.19-.18.92q.83.37.92.74v.19a1,1,0,0,0-1.11,1.11l.55.18v.19l-.74.19V55.1l.18.92-.18,1.11V58.8q0,3.74,4.07,5h1.29q2.82,0,4.62-3l.74-.18h2.22a14.7,14.7,0,0,1,4.25.37l1.11-.37.74.18v.74q-.55,3.51-1.85,3.51l-.18.18h.74v.37q-.6,1.8-4.44,5.18A8.76,8.76,0,0,1,19,72.29q0-.37-.55-.37a3,3,0,0,1-1.66.92l-.74-.19-.37.37H15l-.74-.74a5.53,5.53,0,0,1-2.4.74l-.18-.18.18-.19v-.19l-.18-.18v-.19a.49.49,0,0,0-.55.55h-.18l-2.77-.92a11.44,11.44,0,0,1-4.07-3v-.55l.37-.55q0-.92-.37-.92l-.92.18-.37-2.22L3,64q-.18-1.29-.55-1.29l-.18,1.11.37.37v.74q0,1-.55,1.11A12.63,12.63,0,0,1,.18,59.17L.37,59V58.8L0,58.06l.18-.18v-.19L0,56.39H.18L0,56.21v-.55l.18-1.11L0,54.36V53.8H.18L0,50.66V47.15L.18,47,0,46.78v-10l.37-1.11L0,34.58l.18-.74L0,33.1Q0,32.77,1.66,32l.18-.92H1.66l.18-.19v-.37l-.92.19-.19-.19v-.92h.37l.18.18h.19l.18-.18V29.4A1.31,1.31,0,0,1,.74,28.1a2.33,2.33,0,0,1,1.48-.55v-.18q-2-.92-2-1.85v-.37q.56,0,.55-.37h.55v.37h.19Q3,24.36,3,23.48V22.37q1.11,0,1.11-.74c.25,0,.37-.19.37-.55l-.18-.92A2.33,2.33,0,0,1,6.1,19q0-.65,2.22-1.85L8,16.83l.55-.55.19.18h.18L10,15.53v.37h.55v-.18l-.18-1.66.18-.74,1.11,1.11h.74V13.13Q12.39,12.81,13.68,12.57ZM3,29l-.37,1.66.18.18L2,31.43l.18.19V32l-.37.55q.74.09.74.55l1.29-.92a.49.49,0,0,0-.55-.55l-.18-.19v-.55l.18-1.11L3.14,29ZM2.22,43.82,2,44.74v4.62l-.19.92L2,51.4v4.81l.37.37V50.11l.19-.19-.19-.19V46l.19-1.66-.19-.55Zm0,13.31L2,57.87l.18.18v.19L2,58.43l.37,3H2.22l.18.74h.19V59.35l.18-.19-.37-2Zm0-18.86v.19l.37.37V37.9Zm.18.92-.18.92v.74l.37-.37V39.2ZM2.22,41v2.22l.37-.37-.19-.19v-.19l.19-1.11Zm.37-7.21v.74L3,34.21v-.37Zm.18-6.29.18.92.55-.19-.18-.92Zm.37-1.48v.55l.37-.37v-.19Zm.18,19.6.18.18h.37l.37-.37-.19-.19H3.7Zm.18-22.93v1.11l.55-.19V23.3Zm.19,2.4.37.74.37-.37v-.37Zm.92,7.4v.37H4.44l.18.74L5,33.28v-.37Zm.37-2-.18.74h.37v-.74Zm0-2v.18h.37V28.1Zm.18,19.41v.74h.19l.37-.37v-.37ZM7.58,67.3v.18h.55v-.55H8Zm5.73-.92v.37h.37l.37-.37Zm1.11-53.06-.18.19v.18H15V13.5Zm1.48,4.07v.37l.55.19v-.55Zm.55,53.06.18,1.11a1,1,0,0,0,1.11-1.11h.18c.25,0,.37.19.37.55H19v-.19l-.18-.92.18-.19-.18-.18h-.74A2.69,2.69,0,0,0,16.46,70.45ZM17,40.68h.37q.28,0,.55.74h-.37Q17.29,41.42,17,40.68Zm1.66-26.26v.19L19,15h.74v-.19L19,14.42Zm.92,12.39v.37l.37.37.18-.18v-.55Zm0,34.39.19.55.92-.19-.37-.37ZM28.47,2.4l.19.18v.19l-.74.55-.18-.19V3Zm.19,37.53v.74H29v-.74ZM30,1.66h.18q1.39,0,1.48.55L31.8,2H32l.37.37A4.65,4.65,0,0,1,29.58,3V2Zm1.66,39.2,1.11.74a1.49,1.49,0,0,0,.55,1.11l-.37.37h-.18L31.06,42Q31.25,40.86,31.62,40.86ZM34,42.16h.74q0,1.29.55,1.29v.37q-1.11-.14-1.11-.37l.18-.55L34,42.53Zm1.29.19h1.85c.25,0,.37.25.37.74l.18.19h.55q0-.55.37-.55H39l.37.37v.37l-.37.74h-.37v-.74l-.19.18h-2ZM39.38,3.7l.18.19v.19L39,4.44h-.92l-.37-.37Zm2.22-.55.37.37-.19.18h-.55V3.51Zm-.18,40.31H42v.18L41.6,44l-.18-.19Z"/><path class="cls-1" d="M38.38,13.59l.92.19,2.4-.19.37.55v4.62l.37.37.18-.74-.18-1.29v-3l.55-.55h.55l2.22.19.18-.19L46.7,16l-.37,1.29.18.19-.18.92v2.4l-.18.74.18,1.29V36.89l.18,4.44-.18,1.11.18,1.48-.18.74.18,3v3l-.18,2.77h-.18q-.6-3-.92-3v.37l.37,1.85q-.37.09-.74.92,1.2,0,1.66,3.88-.09,1.66-.37,1.66l-.74.19-.74-.19h-.18v.37h.18q1.34,0,2.73,2l2.26,3.33-1.29,1.11.18.74h.18q.37,0,.37-.92l.92.19.55-.19.37.74L50.4,67v.37q0,.55.74.55l1.11-.37q.09.74.55.74l.55-.18,1.11.18h.37l.19-.18h.18v.18l-.18.55.18.19h.18l.74-.74-.19-.74h.19l.92.18V67H55.58l-.55.37h-.74L53.91,67l2-1.29v-.55a1.74,1.74,0,0,1-1.66-.74L53,64.62h-.37v-.19q2.77-1.48,2.77-1.85.69,0,1.29-3.88v-.37l-.19-2.59.37-.92-.37-1.11v-.19l.19-.19-.19-.18V48.54l-.18-.92.37-.37-.74-.37.19-.92q-.56,0-.55-.37l.92-2.22V38l.19-3.33-.19-1.11.19-1.66-.19-3.14.19-.19v-.19l-.19-.74.19-3.7-.92-.74.55-.37h.55l.55.92v.55l-.37.55.19.18h.18l.18-.74.19.18H58l.18-.18v1.29h.19l.55-.55V24.5l-.74-.18.19-.19v-.19l-.19-1.29.74-.55v-.19l-1.11-.74h-.19V21l.37-.55a.49.49,0,0,0-.55-.55l-.18-.19v-.19l-.19.19h-.18l-.37-.37.37-1.11-.18-.92.92-.37v-.55h-.55q.28-.74.55-.74h.55l1.11,1.11h.19q0-.42,1.29-1.85v-.55l-.18-.55H63l.18-.19q2.59,0,2.59,1.85v4.44l.37,1.85h-.19q.69,1.85,1.85,1.85l.18-.19.18.19v.37l-.18.19q-1.29.6-1.29.92.92.23.92.55,0,.51-1.66.74v.37h-.18l.18.55.92-.18q0,.93,1.48.92l.55.55q-1.48,0-1.48.92H66.12v-.37h-.19v1.29l.19.92-.19,1.11v3.14l.19.92-.19,1.11v2.59a3.44,3.44,0,0,0,.55,2.22l-.55.19v3l.19,1.11-.19.92v.18l.37.55-.37,1.11v4.62l-.18.92.18,1.11v4.07a10.53,10.53,0,0,1-1.66,5.73l.19.55h.18q1,0,1.11-.55l-.18-.19v-.19l1.85-.74v.37q-.6,0-.74,1.29l-.92.37h-.37l-.18-.19a5.26,5.26,0,0,0-2.77,1.85q-.37,0-.74.92-4.48,3.7-8.69,3.7l-.74.18h-.19a2.39,2.39,0,0,1-1.48-.74h-.92l-.55.37q-3.28-.32-7.58-3.88-1.66-1.94-1.66-2.77L40,66.1q-1.29,0-2.4-5.55l.19-1.11-.19-.55.19-.74-.19-2.77.55-.92a2.13,2.13,0,0,1-.55-1.29V50.57q0-.37.74-.37v-.55q-.74,0-.74-.55v-3l.37-.55v-.37l-.37-.55v-.74l.92-2.4h-.18l-.55.18v-.18l-.19-.19.19-.19v-.92L37.64,40l.19-.18v-.74l-.19-.19q0-1.11,1.48-1.11l.55.19v-.19l-.18-.55q0-1.8,3-3.14a1.08,1.08,0,0,1,.74,1.11h.19l.55-.55h.18v-.55l-.55-.19.18-.55-.55-.18v-.37l.37-.55-.37-1.11.37-.55v-.18Q43,30.42,43,30l.18-1.29-.37-.92.55-.92-.74-2,.55-.19V24.5a2.13,2.13,0,0,1-.55-1.29l.19-1.85-.37-1.66h-.18v.37h-.19l.19.55-.19.92.19,1.29-.19.19h-.18l-.55-.37-.55.37h-.37L40,22.65v-.19l.37-.55v-.37l-.74-.74-.55.92.55.74-.18.74L40,24.31a1.55,1.55,0,0,0-.92,1.48h1.11q0-.6.92-1.11h.37q0,1.11.74,1.11a2.13,2.13,0,0,0-.55,1.29v.55l.18-.19h.55v.19l-.18,1.29L42.82,30l-.37.37.18.18v.55h-.55v.19l.55.74v.18l-.18.19v.19l.55.18v.37l-.74.74-.19-.18h-.18l-.92.18L40.79,33h-.55v.19h.37v.18A1.4,1.4,0,0,1,40,34.48l-1.29-.74c-.25,0-.37.18-.37.55l-.19.18H38l-.37-.37v-.74l.19-.18V33h-.19l.19-.19v-.18l-.37-1.11.37-1.11-.19-1.11v-.19l.55-.19-.55-1.66.19-.92,1.11.37v-.18l-1.29-1.11-.18-2,.18-.55-.18-.92.18-2-.18-.74.18-.19v-.18l-.18-1.29.18-.92-.18-1.85v-.37Q37.55,14,38.38,13.59Zm.37,15.9v.37q0,.46,2,.92V31h.55V30.6h.18A2.7,2.7,0,0,1,41,28.94l-1.11-.37ZM38.94,41l.18.55h.74l-.55-.74-.18.19Zm.37,7.58v.55h.37v-.55Zm1.29-6.84.18.55a1.91,1.91,0,0,1-1.29.37v.55l.37.55q.51,0,1.85-1.85v-.55H41Zm-.92,4.07.74,1.29q-.92.23-.92.55l.74.37q.74-.09.74-1.48v-.37L40.6,45Zm.55-17.56.18.18L41,28.2l-.37-.37ZM40.79,36l.18.18h.19l.55-.55-.19-.18ZM41.16,52l1.29.37v-.19l.18-.18q-.28-.74-.55-.74Zm0,11.83.18.55.37-.37v-.19Zm.37-19v.37h.37l.37-.37-.37-.37Zm.19,21.08v.18l.37.37.55-.19v-.37h-.37v-.19Zm.18-42.34h.37v.55h-.37Zm.92,27.55v.19l.37.37.55-.18v-.55Zm0,4.25v.55h.55v-.55Zm0,5.73.18.55h.55v-.74h-.37l-.18.18Zm.55-25.7-.37.92L43.37,38v1.85l-.19.92.92.37V40l-.18-.18.18-.19v-.19l-.37-1.85.19-.19h.18l.18.19q.74-.28.74-.55l-.37-1.66Zm.55,28.1.37.74h-.18l-.92-.19v1.11l.37.37h.37a2.85,2.85,0,0,1,.92-1.66V63.7l-.18-.19v-.19Zm0-22-.19.55q.32,2.22.74,2.22Q44.34,41.51,43.93,41.51ZM44.3,30.6V31h.55V30.6Zm0,14.24v.55l.19.18-.19.19v.74l.37.55V48H45Q44.81,44.84,44.3,44.84Zm0,20.89v.37l.37.37h.18v-.74Zm.19-38.09.18,1.29h.18l.37-.37v-.92l-.37-.37Zm0,33.84v.37a1.49,1.49,0,0,1,1.11.74l.18-.55-.37-.92h-.55Zm.55,6.1-.55.74v.19l.92-.19v-.37Zm.37,1.29.37.37H46v-.37ZM46,70.17v.19l.19.18-.19.19v.37q0,.42.92.55,0-.32,1.11-.74v-.19l-.55-.19-.18.19-.19-.19v-.18l.55-.19v-.55A2.71,2.71,0,0,1,46,70.17Zm3.14-.74h-.92a2.4,2.4,0,0,0,1.29,2.22h.18l.37-.37v-.19l1.11.37q0-.32-1.85-1.11V70l.37-.55v-.37Zm-.18-1.66h.55q.28,0,.55-.74h-.19ZM50.58,70l.55.55a.87.87,0,0,0,.74-.92h-.55Zm2.77-.55v.19h.74l.37-.37v-.19h-.74Zm5-13.5v.18Q61,64,61.68,64.44v-.18l-.92-3.14L59.09,57q0-1-.55-1.11Zm.55,12.76v.18h.37v-.55Zm.55-54.91H60v.37h-.55Zm.37,10.35v.55h.55Zm.37,7.77v.74h.55l.37-.37-.37-.37Zm.55-15.35v.37l.37.37h.18v-.74Zm3.33,28.1v.19l.37-.37v-.18Zm3.33-23.11-.18.55h-.55v-.37Zm1.29,1.85h.74l1.85.74q1.29,0,1.29.37v.37l-.37.37.37,1.66H72l-.55-.37h-.74v.37l-.18.19.18.18q.92.32.92.92l.92-.92.92,1.11-.18.92h-.55v-.37h-.19a4.52,4.52,0,0,1-1.85.92l-.18.18a2.13,2.13,0,0,0-1.29-.55H68.7v-.55q.83,0,1.29-1.29v-.92q0-.32-1.66-.55l.18-.18V24.5l-.18-.18Zm.55,41.23.19.19V65l-.55.55h-.37Q68.89,64.71,69.26,64.62Zm-.18-34h.18l.74.74h-.55L69.07,31Zm.37-5.73v.37l.37.37H70l.37-.37Zm.92,6.84h.19l.55.19q0,1-.55,1.11h-.19Zm1.11,20.52h.74l.37.37v.18L71.29,53l-.18-.19V52.6Zm-.18,5h.92v.19l-.37.37q0-.37-.55-.37ZM73.7,63h.19q.42,0,.55.92l-1.29.55a2.63,2.63,0,0,0-1.48-.37v-.55Zm-1.48-7.77.55.19v.37h-.92v-.37h.37ZM77,49.27l.19.18v.37a4.05,4.05,0,0,1-3,.92L72,50v-.18l.37-.37A2.13,2.13,0,0,1,73.7,50h.74v-.55h1.29ZM76.1,28.57h.18v.37l-.37.37h-.55L75,28.94Zm.74,32.54h.92v.37l-1.29.18v-.18Zm1.29,1.48h.37v.18l-.55.55h-.37L77.21,63v-.19Zm-.37-35.87h.18l.37.37v.18Zm.92.92.37.92h.74l.19-.19q1.11.23,1.11.74H80c0,.37-.12.55-.37.55H78.5l-.74-1.29v-.55Zm3.14,15.72h.37q0,.93,1.11.92l-.55.55V45a4.52,4.52,0,0,0,1.11,1.85q0,.37-1.29.55,0,.6-1.66,1.48l-.74-.18q0,.6-2.4,1.11v-.74q.18-.55,1.11-.55h.55c0-.49.12-.74.37-.74l1.11.37.19-.19q1.11-.37,1.11-1.29V46.5H80.91q-.37,0-.55-1.48L80,44.65v-.19h.18l.55.37Q80.72,44,81.83,43.36ZM78.32,28.75v.37h.18l.37-.37Zm.74-4.62.18.19v.55h-.55V24.5Zm1.48,0,.92.37v.37l-.37.37h-.19q-.37,0-.55-1.11ZM84.61,43l.55.19.18-.19q2,.19,2,.55l-.18.19H87v-.19l-.18.19-1.29-.19a3.74,3.74,0,0,0-1.85.55l-.92-.19v-.37Q82.76,43.13,84.61,43Zm-.18,1.11h.37l.37.37-.37.37-.37-.37Zm.74,3.14h.55v.19l-.37.37-.18-.18Zm1.48-18.67h.55v.19l-.37.37h-.18Zm.92-4.07-.18.92.37,1.85h-.37q-.42,0-.55-2.59L87,24.5Zm.19,18.3h.37q1.11,0,1.11.55v.37l-.74.18q-.74-.28-.74-.55Zm.18-14.05h.37l.18,1.11L88.3,30l.18.19-.18.19h-.19l-.18-.92Z"/><path class="cls-1" d="M84.3,11.65l.37.55q-2,1.53-2,1.85c.37,0,.55.12.55.37q-.46,0-.55.74l-.92.37.55.92q.56,0,.55-1.11H83a1.72,1.72,0,0,0,1.11.55L83.74,17l.74,1.11v.37h-.37l-.18.18-.55-.55h-.18q-1.06.69-1.11,1.11l.18,1.11H83V20h.55l.74.55.18-.19.18.19-.18.19v.55H85l.55-.55L85,20.52V20l.18-.92-.37-.37v-.18l.55-.19q-.09-1.48-.74-1.48v-.74q0-.51.92-.55V15h-.92v-.19l.55-.92L85,13.31h.18l1.29-.55.74.19.18-.74,1.48.55L90,12.57l.55.55h.18v-.37l-.18-.19v-.18l.18-.19h1.11l3.88.92.19-.18H97.8l.92-.19q0,.55.74.55v.37q-.56,0-.55.37a3.1,3.1,0,0,1,1.29,1.66l.19.18h.18l.18-.18.19.18h.55v-.37c-.37,0-.55-.12-.55-.37v-.37l.74-.18L102,15h.18q.92,0,.92-.55h.18l.55.37.18-.18h.19l1.29.55-.37,1.11h.19L105,17l.37.74-.19.55h.19q.37,0,.37-.55h.55l.37,1.29h-1.48l.55.55h.19l.18-.19h.18l.19.19v.18l-1.11,1.29.55.55q-.37,1.29-1.11,1.29l-.92.37v-.19l-.55.19v.19q1.85,1,2,1.66v.18l-.37.37h-.18c0-.37-.12-.55-.37-.55l-.18.18v.19l.18.19h.18q-.28,1.85-.74,1.85l.18.19v.55l-.74,1.11H103a3.79,3.79,0,0,1-2.77-1.66H100l.37,1.29-1.48.37H95.39l-.55-.55.18-.55A5.75,5.75,0,0,0,93.54,24q0-2-8.32-2l-.74.19L84.67,24l-.18,1.29.18.74h-.18l.18.19V30l-.18.19v.18l-2.4-1.11q-2.41.14-2.4.37l-.92-.19H75.61l-.18-.92L76,27.36v-.19c-.37,0-.55-.12-.55-.37l.37-1.29q-.37-.32-.55-4.44l.19-2.22-.19-.19v-.18l.37-1.66-.37-2.59q.46-1.29.74-1.29h.92l1.85.18,3-.37v-.37l-.92-.19.37-.37q1.29.19,1.29.55A3.48,3.48,0,0,0,84.3,11.65ZM98.17,33.28h.37l1.29.74a5.53,5.53,0,0,1,2.59-.55q1.2,0,1.66,1.85l-.18.74.74.19.74-.19h.37q0,.55-1.66.55l-.37.55v.19l.18.18v.19l-.18.19.74.37v.19q-1.34,0-1.85,3.33a15.12,15.12,0,0,1-3.51,4.44q.88,4.62,1.48,4.62l-.18.19v.19q.18,1.85.55,1.85l-.19.19v.19l1.66,6.29,1.85,7.4-.19.19v.18A11.81,11.81,0,0,1,105.19,71l-.37.37.18.55-.18.19h-6.1l-.55-.37H98l-.55.37H96.5q-.65,0-1.66-5.18H95q-1.11-3-4.07-15.35l.18-.55q-.37,0-.37-.74L90,49.92l-1.85.19-3.33-.19-.19.19v.55l.19.74-.19,1.29v3.7L85,57.5l-.55,1.66.18,1.66-.18,1.29.18,2v3l-.18,3,.18,1.29a1.82,1.82,0,0,1-1.48.55v.19l-.55-.19-5.73.19q-1.29,0-1.29-.74l.18-1.29-.18-1.48.18-5-.18-.92h.18l-.18-.55.18-1.29-.18-.92L76,58.24l-.37-1.48V54.17l.18-.74-.18-.74v-2l.18-.19-.18-.19v-.74l.18-1.66-.18-.19v-.19l.18-.74-.18-.55q.69-2.4,2.77-2.4v.55h-.55v.19l.74,1.29q.42,0,1.66-1.48Q80.65,46,81,46h.18a2.88,2.88,0,0,0,1.48-1.66q-.93,0-1.85-1.66l1.85-.19,1.11.37h.37l.19-.19,2.77.55q.28-2.22.74-2.22h.55l.18.19h.19V41l.55.19.18-.19h.18l.74.19,2.77-1.29A1.56,1.56,0,0,1,94.47,39l-.18-.55q.28-.74.55-.74H95v.19L94.84,39l.37,1.11v2.4L95,43.64l.18.92v.18l-.55,3.51.19.19h1.11V47l-.37-1.48v-2l.18-1.85-.18-1.11q.09-2.22.37-2.22l1.11-.19.18.19.37-.74v-.37q-.19-.55-1.11-.55l-.19.92q-.74-.18-.74-2c.25,0,.37-.19.37-.55h.18q0,1.11.37,1.11h.18Q97.52,33.61,98.17,33.28Zm-21.82,9.8h.37l-.37.37H76Zm0-17.56.19.19h.18l.37-.37V25Zm.55,34v.37h.55v-.37Zm7.21-25.89h.19l.37,1.29-.18.19h.18l-.18.18.18,1.11-.18.74.18,1.66-.18.92.18.19v.19l-.55,2.22q-2.59-.14-2.59-.92c.49,0,.74-.12.74-.37l-.37-.37q0,.32-1.29.55v.18l.18,1.29H80.6l-.92.37h-.18l-.18-.18-.19.18h-.55l-.74-.55-.74.55V42.9Q77.64,42,78.2,42l.55.19a2.72,2.72,0,0,0,1.11-1.85q.92,0,.92-.55v-.18h.37l.18.18h.19l.37-.37h.55l.74,1.48h.18l.18-.18v-.37l-.37-.37.55-1.48-.19-.19h-.37v.19l.18.55h-.18q-.93-.14-.92-.55v-.19L83.74,37v-.18l-.37-.37q-.37,0-.37.55l-.18.19h-.18v-.55q0-.55,1.29-.55l.37-.55-.74-.37-.55.18-.18-.18ZM78.94,59.17v.92l-.37.37L78,60.09l-.37.37v.92l.18-.18h1.29l.19.18h.18l-.37.74h.55q0-.92.74-.92V61l-.55-.55.37-.74a1.72,1.72,0,0,1-1.11-.55Zm-.18-18.3h.18v.37h-.55Zm-.19,7.4-.18.19v.18l.92.19v-.37Zm.19-3.51h.55l-.37.37-.18-.19ZM79.68,47q0,.37,1.11.37v.37l.37-.37-.55-.74H80Zm0,3.33v.37h.55v-.37Zm.55,1.85v.55l.37.37L81,52.7l-.37-.37L81,52l.74.55.37-.37V52l-.92-.18H80.6Zm.19-3.51H81v-.37h-.19ZM81.71,58.8l-.18.19v.37l.37.37.37-.37Zm1.11-.55v.19H83l.19-.19h.18l.74.19h.19v-.74h-.55Zm.37-35.69v.37h.18l.37-.37Zm.18,37.53v.18h.37l.37-.37-.18-.19h-.18Zm.37-29.4h.74v.18q0,1-.55,1.11l-.18-.18h-.19Zm.37,15-.18.55h.18l-.18.18v.19l.37.55q-.74,0-.74.55l1.29.55h.74l.55-.55q0-.55-1.48-.55l.37-.55v-.37l-.55-.55Zm-.18-13.13h.18l.37.37-.18.55h-.19l-.37-.37Zm.55-28.1h.92v.37h-.55Zm1.29,36.79.19.18v.37q0,.32-1.11.55l-.19-.19V42A1,1,0,0,1,85.78,41.23ZM91.51,3.14q1.85.46,1.85.74l-.18.19v.18l-.92-.18-.55.37L90.4,3.88l-.74.37-.18-.18h-.18q-3,.32-3,.74l-.74-.18V4.44l3.88-1.11,1.11.19ZM87.81,46l-.18.19v.18l.18.19h.37v-.19Zm1.11-4.25.92.92v.19h-.74l-.18-.19h-.18l-.19.19v.18l.37.37.18-.19.37,1.29a.87.87,0,0,0-.74.92l.18.19h.55L93,43.27V42.9l-.55-.19-1.66.92h-.55v-.37L90,43.08l.37-.37h.18q-.46-1.2-.92-1.29h-.37Zm0-25.52v.55l.55.18.18-.18v-.55Zm.92-1.11-.37.55.55.37.37-.37v-.37Zm.55,4.07A1.91,1.91,0,0,1,90,20.52v.19h.74l.37-1.29L91,19.23Zm0-1.48v.37l.74,1.11h1.11q0-.55.74-.55l.37-.92H93q0,.51-1.11.74l-1.11-.74Zm3.33,35.87V54h.55l-.37-.37Zm2.4,11.65v.19l.37.37q.74-.28.74-.55Zm3.7-2.77V63h.74v-.55Zm.37,2.22-.18.19v.55l.55.55h.18v-.74Zm.19,2.22v.55l.37.37.19-.74-.19-.19Zm.18-31.06v.37h.55l-.37-.37Zm3,14.05h.19v.55l-2.59.74v-.37Zm-.92-34.21a1.45,1.45,0,0,1,1.11,1.48h-.55v.19l.18.18v.19l.74-.37.19.18a4.61,4.61,0,0,0,.37-2v-.19l-1.11-.18Q102.6,15.39,102.6,15.72ZM103.9,4.44h.55l-.37.37h-.18Zm1.66,44.19q0,.69-1.66,1.11Q103.9,48.86,105.56,48.63Zm-.92-11.28H105l.18.74-.55.37v-.37h-.18Zm1.48-4.25v.19l-.37.37-.18-.18v-.19l.18-.19Zm.37-17.2h.18l.37.37v.37c0,.25-.19.37-.55.37l-.55-.18v-.37A.49.49,0,0,0,106.49,15.9ZM108,47a3.15,3.15,0,0,0-.55,1.66l-.74-.18-.74.18v-.37Q107.23,47,108,47Zm.55,30h.55v.19q-.92,0-1.85,2.4h-.37l-.18-.92q0-.93,1.11-.92Zm-1.29-61.75H108v.37h-.37Zm3.33,60.65.18.19q-.37.83-.74.92h-.92v-.18A1.54,1.54,0,0,1,110.55,75.81Zm0-59.17h.18a1.55,1.55,0,0,1,1.48.92v.19l-.55.92.74,1.11v.37h-.74l-1.48-2.4Q110.55,17.75,110.55,16.64Zm.55,5.18q1.11.09,1.11.55v.18l-.92.37-.55-.19Zm.74-6.47h.37v.55l-.37-.37Zm2.77,29.4v.74q-.74,0-.74.37l-1.66-.37v-.55h1.11Zm1.11,0h.37v.19l-.18.19A5.3,5.3,0,0,0,117.58,47l.18-.18h.55c.25,0,.37.18.37.55h.37l.74-.19q1.11.23,1.11.55l-.19.74-1.66-.19-.74.19-.92-.74h-.18l-.55.55.55.19v.37h-.74l-.92.19v-.19l.37-.74Q115.5,47,115.18,47q-.23,1.11-.55,1.11l-.55-.55.19-.55h-.92l-.18.19H113l-.18-.19v-.18q0-.46,2-.74l.37.37.37-.55v-.18l-.37-.55ZM115,20.52h.18v.55l-.37.37-.37-.55Zm.37-1.66.18.19q-.28.74-.55.74h-.37Q115,19,115.36,18.86Zm2-.55h.19v.37l-.37.37h-.37v-.19Z"/><path class="cls-2" d="M127.18.37l.74.19V.74q0,.37-2.59.74V1.29Q125.33.88,127.18.37ZM130,37.9v.55h-.37v-.19ZM130.32,0l.74.19V.55l-.37.37q-.93-.23-.92-.55V.19Zm2.77.74h.55l.19.92h-.55Zm8.32,54.36q.56,0,.55.92l.74.55-.55.19a11.24,11.24,0,0,0,2,6.1v.37L144,64.34l.37,1.66L144,68.6l.18.55L143.45,71h-.18l-1.11-.55L142,71h-.18a7.44,7.44,0,0,1-4.25-3.33l.19-1.11-.37-.37h.18l.55.37.19-.19h.18a2.53,2.53,0,0,0-1.11-1.29h-.18q-.37,0-.37,1.11h-.37q-1.57-1.62-2.77-6.1l.37-.37a1,1,0,0,1-.74-1.11v-.18q0-2,1.11-2,.92,0,.92-.74l.19.18h.18l2-.37.74.19A6.59,6.59,0,0,1,141.42,55.1Zm2-42.34h.37l.92,1.11a4.53,4.53,0,0,1-.55,2.4l.55.74-.18.19v.19l.37,1.11-.19.55.19.92A10.88,10.88,0,0,1,143.45,24a5.72,5.72,0,0,0-.37,2.4v.37q0,2.22,2,7l-.37.37c-.25,0-.37-.18-.37-.55H144l-.18.19h-.19q-.14-.92-.55-.92-.6,0-.92,1.85l.55.19v-.19l.18.19H144l.18.74-.18.18.18.92v1.48l.55.19.19-.19v.92l-.55.55v-.37h-.19v.55l.19,1.11q-.23,3-.74,3a34.57,34.57,0,0,1-7.21-7.77A8.22,8.22,0,0,1,135.5,32v-.55l-.37-.37v1.48h-.18q-.93,0-1.11-4.81l1.11-.37-.19.18v.37l.19.18v.19l-.37.37v.19h.37v.92l.37.37V30l-.18-1.66.37-.37q-.37-.32-.37-1.85l-.18-.19h-.19L134.58,27a1.86,1.86,0,0,1-.92-1.85,7,7,0,0,0,.55-2.77h.37l-.18.55.37,2.4h.19l.37-2.22-.37-.74a5.22,5.22,0,0,1,.92-3.33l.19.18h.55l-.19-1.29a12.53,12.53,0,0,1,6.29-5ZM134.21.55l.37.37-.18.19v.19l-.55-.19V.92Zm1.11.37h.55l-.37.37h-.19Zm.37,56.95v.55h.37v-.55Zm.74,1.48v.55h.37v-.55Zm.37-27.18v.55h.37l.37-.37v-.19Zm1.29-13.5v.19q0,.42,2,.92l-.18-.18V19l.18-.19v-.19l-.37-.37v-.55l.19-.19v-.18h-.37A3.92,3.92,0,0,0,138.09,18.67ZM138.46,56v.92h.37v-.55Zm3.88-53.44.18.19V3L141,3.7l-.19-.18h-.18l-1.11.18-.92-.37V3.14l.19-.18V2.77L139,3h.55l1.11-.19.55.19Zm-3,57.69.18,1.29h.18l.19-.92-.37-.37Zm1.11-44.74v.19h.74v-.19l-.37-.37ZM141,22v.55h.37V22Zm.74-6.66v.55l.55.55.37-.55-.19-.92h-.37Zm1.66,56.21h.18l.37.37h-.18Zm0,1.66.37.37v.19h-.37Zm2.4-38.83L147,35.87l-1.48,1.29q-.42,0-.74-1.85ZM145.3,42h.37a3.71,3.71,0,0,1,2,3.33l.18.19v.37q-.37,0-.37.55l-.18.74-.18.19H147l-2.22-2.22v-.37h1.11v-.37a2.73,2.73,0,0,1-.92-2Zm1.85-30a23,23,0,0,1,9.8,2.59l.55-.19a2,2,0,0,0,2,1.11l.18.19v.18l-.92.74q1.62,1.66,2.22,1.66,0,1.29,1.85,1.29a1.31,1.31,0,0,0,1.29.92l.37-.37h.55l-.74,1.11.55.18v.37h-.37q0,.55-1.29,1.11l-.19-.19h-1.29v.55a2.71,2.71,0,0,0,.74,1.48V25a2,2,0,0,1-2,.92q-.37,0-.37.55l-.18.19h-2.77q-.93,0-.92.37l-.18-.18h-.19l-1.11.37V27l-.18.19h-1.11v-.37l.18-.92q-.46,0-1.29-3-.6-1.43-4.07-3v-.19l-.92.19a1.61,1.61,0,0,1-1.11-1.48l.18-1.66-.18-.92.37-.37v-.37a2.13,2.13,0,0,1-.55-1.29V12.57Q146,12.25,147.15,12Zm.18,25.7h.18v.19l-.37.37H147v-.19Zm2.4.55h.37a41.21,41.21,0,0,1,9.25,9.43A9.5,9.5,0,0,0,161,50.48l.18,1.11q0,.93-1.29.92v.19l.92.55h.55v-.37q1.06,0,1.29,5.18.18,4.25-3.14,9.8a.87.87,0,0,0-.92.74l-.18-.18h-.55l.18.92q-3.79,2.77-5.36,2.77l-.19-.19h-.18l-.74.19h-.19v-.55l-.74.92h-1.29l-.55-.37-1.11.37-.37-1.29.37-.55a4.62,4.62,0,0,1-.74-2.77q0-3.51,1.11-3.51a6.88,6.88,0,0,0,4.44-2A7.87,7.87,0,0,0,154,65.08v-.37a11.16,11.16,0,0,1-.92-3.88q.56-.79.55-4.07h-.18l.18-.19v-.19a12.83,12.83,0,0,0-3-5.55l.18-.92v-.37q-.74,0-.74-1.48l-.18-.55h-.19l.37-2-.37-.37V44a2.27,2.27,0,0,1,1.66-2.22l.19-.19v-.19l-.19-.55H152v-.55Q150.43,40.31,149.74,38.27Zm.37-21.45-.18-.19h-.37q-1.66.32-1.66.74v.37l1.29.19L151,16.83l1.11.18h.18l-1.48-.74h-.18ZM149.18,66v.19l.37.37.18-.19v-.18l-.18-.19Zm1.11,3.7-.18.92v.74h.18l.37-.37V69.71Zm.37-22-.37.74.55.18.19-.18v-.37ZM152,48.81l-.37.55v.37l.37.37h.55l.74-.37A1.22,1.22,0,0,0,152,48.81ZM153.62,22v.55h.19l.37-.37V22Zm.92,41.6V64h.18l.37-.37Zm.37-14.24v.19l.74.74H156v-.74Zm0,13.13v.37h.55v-.37Zm.92-5.92v.37l.37.37,1.11-.92-.37-.37h-.55ZM156,46.41v.19h.37l.19-.19h.18l-.18-.55Zm1.29.74v.19l.37.37v-.55Zm1.11,12.76v.55H159v-.19l-.37-.37Zm1.48-9.24-.19.55h.19l.37-.37v-.18Zm0,9.06v.37h.55v-.37Zm.74-5.73v.55l.37-.37V54Zm0,1.48v.19l.18.55h.55V56Zm14.05-22q0,.79,2,1.85l.37-.37,1.48.19v-.74l1.11.19.55-.19.19.19v.18l-2,1.11h-.92l-.18.55-.55-.37-.18.19-1.11-.19-2,.19-.37-.37h-.18v.92l-1.48-.37-.37.37-.19-.19h-.18l-.74.19-2-.92v.19l.18.74V37l-.18.19.18.55,3-.37.55.18v.37q-2.59.23-2.59.74l-.92-.18-1.11.37-.92-.19v.92l-.92-.19h-.18a3.09,3.09,0,0,0-1.29,2l-.92-.18.37,1.11-.92.18q-.56-.18-.55-1.11l.92-.74.55.18.55-2.59-.18-.19V37.9l.18-.74,1.29.19V37l.92.19q0-.74.55-.74l.92-.74-.37-.37v-.18l.55-.19.55.19.37-.74h.18l.19.92-.19.55.19.19H169l.18-.19.37.37h.74l2.22-1.29v-.37l-.18-.19v-.19ZM162.5,17.94h.55v.18l-.37.37-.19-.19Zm.74,17.93v.55h-.37v-.18Zm1.85-14.42h.55l.37.37-.92.18Zm.92-1.11,1.11.19.18-.19h.18l.19.74h.55c0-.37.12-.55.37-.55v.19l-.18.18.37.74-.37,1.11v.92h-.18q-.88-.18-2-2l.55-.19v-.18l-.37-.37-.18.19-.55-.19v-.18Zm.18,17.38.92.55.18-.19v-.37l-.37-.37h-.37Zm3-17.75h.19l1.29.37v.37h-.55Zm2.59.37-.37.37h-.55v-.19Zm2.77,16.27.18.19h.19l1.11-.19q0,.42.55.37l2.4-.18q0,1.06-2.4,1.48l-.55-.19-1.48.55h-.74q-1.2,0-1.48-.74h-.37v-.19l1.29-.74h.37q0,.56.37.55h.18Q174.14,36.61,174.51,36.61Zm-1.29-16.46,1.85.37v.37h-1.29v.37h-.37l-1.11-.92Zm2.22,9.06h.37V30l-.37.37h-.55V30l-1.29.37-.18-.18V30l1.85-.55Zm.37,4.25H176a1,1,0,0,1,1.11,1.11v.18h-.55l-.74-.92Zm.74-12.94h.37l.37.37-.18.19h-.19l-.74-.19Zm3.33,8h.74v.37L178.4,29h-.55l-.37,1.29h-.18l-1.11-1.11Q176.73,28.48,179.88,28.47ZM178,29.77l.55.19v.37h-.74v-.18L178,30Zm1.29,6.84h.55l.18.19V37h-.18l-.55-.18Zm.55-10q1.11.19,1.11.55l-.19.19h-.37l-.55-.55Zm2.4-3.33.55.55v.37l-.92-.18v-.37Z"/><path class="cls-2" d="M176.66,12.16a5.37,5.37,0,0,0,3.14.74l.55-.19q2,.46,2,1.11l-.18.55.18,2V17q0,2.22-.55,2.22l.37,2.4V24q0,1.85-.37,1.85l.19.92v1.29l.18.18v.19l-.37.37v.74l.19.92-.37.37.92.92h.18c.25,0,.37-.19.37-.55l.18-.19h.18l.55.55-.18.19v.19l-.18-.19h-.37l-.37.37v.37h1.29v.18q-.14.65-1.11,1.11h-.19l-.37-.37h.18q-.42-1.11-.74-1.11l-.55.37.18.92V34l-.18,1.66.37.92a1.82,1.82,0,0,1-1.48.55v.19l.55,1.66-.19,1.11q.6,0,.92,2.59h.18q0-1.11.37-1.11l1.29.19v-.19l-.92-2.77q2.08,0,2.59,3.33h.19q1.85,0,1.85-1.48a2.25,2.25,0,0,1,1.48-2l.37-.74,2.4-.19,2.77.55L195,38q1.11.19,1.11.55A1.73,1.73,0,0,1,195,40.08l-.55-.37h-.18l-.37.37v.55l.37.55v.37q-.56,0-.55,1.29-1.11,0-1.48,2.4-1.29,1.8-1.66,1.85l-.74-.55-.37.37h-.18q-2,0-2-3.33,0-1.29-.37-1.29h-.92q-1.29.42-1.29,2.59l.19,1.66a2.25,2.25,0,0,1-1.48.74q-1.29,0-1.29-1.66l-.19-1.11h-.18l-.37,2.22.19.55-.37.74.37,2.22-.19.18v.19l.19.74-.19,2q.14,1.11.37,1.11l-.18.19v.18l.18.92q-.14,1.11-.37,1.11l.37,2.77-.18,2,.18.19h-.18l.37,1.29-.18,2.4h.18l-.92,2.22q2.22,2.45,2.22,3.51t-2.59.92h-5.73l-.55-.37h-.37l-.18.18h-.19l-.37-.55V71h.18l.92.19V70.4l-.55-2.22.55-.55q0-.92-1.11-1.29v-.19q.92,0,.92-.37v-.37q-.69,0-1.11-2.4l.19-.19v-.19l-.19-.92.19-1.66L173,58.38l.19-.19V58l-.19-.74V56.9h.55v-.37l-.74-.18.18-.92-.18-3.51.37-1.66-.37-1.48.74-1.11v-.18l-.55-.92.37-4.44q-.37,0-.55-1.11l.55-2.59-.55-.19v-.37q0-.37.55-.37l.18-.19v-.37q0-.46-1.48-.74v-.37q.51,0,.74-4.07l-.18-.74.18-.55q-.74-.28-.74-.55l.55-.92v-.55q0-.46-.74-.55v-.19c.49,0,.74-.12.74-.37v-2.4l-.19-.18.19-.19V20.29l-.37-1.48.37-.55-.19-.55.19-2.22-.19-.74.19-.74v-.19l-.19-.18v-.19l.55-.37h1.85A3.05,3.05,0,0,0,176.66,12.16Zm-3.33,21.26v.37a1,1,0,0,0,.74,1.11l.37-.37h.74q.37,0,.37.55l.37-.37v-.55Q175,34,175,33.6v-.37l.37-.55v-.37h-.74ZM173.88,17l-.37,1.48.19.19h.74l.37-1.11h-.19Zm-.37,23.11.37,2.22h.37l.37-.37v-.19l-.55-.92.19-.74-.19-.19h-.18l-.18.19Zm1.29-12.39v.55h.55v-.18l-.37-.37ZM175,19v.74h.55v-.37l-.37-.37Zm.18,19.23v.19l1.11,1.11-1.11.19v.18a2.25,2.25,0,0,1,.74,1.48v.92l.74.37h.92l.74-.92-.55-1.85q-.37,0-.37-.74l-.18-.19H177l-.74.19Q176.29,38.23,175.18,38.23Zm.19-11.46h.18q0-.37.92-.37l.18-.19v-.37h-.74Q175.59,25.84,175.36,26.76Zm.92-6.29v.19l.37.37h.18v-.55ZM177,34l-.19.19v.18l.19.55h.55v-.37Zm0-3.51v.19q.18,1.48.55,1.48H178l.74-.74A3.24,3.24,0,0,0,177,30.46Zm.18,7-.18.18V38l.55.55H178v-.37Zm.55-4.07-.18.19v.18q.14.56,1.48.55l.55,1.48q1.11-.14,1.11-.37a2,2,0,0,0-1.29-2h-.37l-.74.19Zm0,1.85v.55l.55-.55v-.19Zm.37-9.61L178,26.76h.19l.92-.19.74.19v-.19Q179.8,26,178.14,25.65Zm.18-6.1v.74q.46,0,1.11-.92l-.18-.55h-.19Zm.18,8.69.19.19h.37v-.55h-.18Zm.19,20.34V49q.55,0,.55.92h.37V49Zm.55-17.75V31l.37.37.19-.19v-.37Zm.37,15.9v.37h.55v-.37Zm15.53-34,.74.37.55-.19.55.74.37-.74,1.11.37.92-.18q1.29,0,1.29.92h.37l.55-.37h.18l.19.92a3.1,3.1,0,0,0-1.85.74l.37.74,1.29-.18h.37l.92.37v.37q-.09.56-1.48.55,0-.55-.37-.55v.19l.37.55v.55h-1.11v.19l.18.74-.37.92q0,.51,1.29.92v.55h-.18l-.55-.55q-.32,0-1.48,1.66l-1.11.19-2.4-.37-1.85.19-.18-.19-.92.19h-1.66l-1.11.19-.92-.19-.37.37-.55-.37h-.37a3.12,3.12,0,0,1-1.85.55V22.7l-1.29.55v-.18l-.19-.74.19-.74q-.37-.46-.92-6.1l-.18-.18.18-.74v-.19l-.18-.18q.23-1.11.55-1.11H189l1.48.18,1.48-.18h.37l2.22.18ZM184.61,63h3.33l.74.55,1.11-.55.74.18.74-.18.55.18.74-.18h.37v.18l2.22-.18h2.77q.14,1.29.37,1.29l-.18.92v1.29l-.19.19.19.19v.74l-.37.37q-.37,0-.37-.92h-.55v.74l-4.44-1.48v.37q2.22.6,2.22,1.48l-1.11.37a11.69,11.69,0,0,1,.74,3.51l-.19.19-.55-.19-.92.19-.74-.19-1.11.19-.74-.19-2.22.19a2.93,2.93,0,0,1-2.22-.92q-.23.83-.74.92l-.37-.37.74-2L184.42,65V63.93Zm.19-34h.55c0,.37.12.55.37.55l1.11-.37v.18l-.74.55-.18.19v.19Q185.21,30.09,184.79,29Zm1.11-14.05v.74h.55V15.3l-.37-.37Zm.92,14.79h.37l1.48.18v.37H187Zm0,.92H187l.37.37h-.55Zm1.11,33.65v.37h-.18q.18,2.22.74,2.22l.37-.37-.18-.92.37-.37-.92-.92Zm4.62-25.89v.19l.18,1.29Q194,39.2,194,38.6l-.18-.19Zm2.77,2.4q.79,0,.92,2.22l-.37.37v.37q0,.37.74.37l-.37.92h-.55a1.31,1.31,0,0,1-.92-1.29v-.18l.74-.19v-.19l-.55-.55-.18.19h-.19v-.37q1,0,1.11-.55,0-.37-.55-.37l-.18-.18v-.19ZM196.44,80l.74.19v.18q0,.37-2.59.74v-.19Q194.59,80.52,196.44,80Zm-1.66-12.2q3.33,0,3.33,1.66v.19l-.19,1.11.19.55q-.28.74-.55.74h-1.48l-.18-.92.18-1.29q-.51,0-1.29-1.85Zm2.59-25.52h.19v.19l-.37.55v.18q0,.37.55.37l.18.18V44h-.18Q197,44,197,43h-.19Zm2.22,37.35.74.18v.37l-.37.37Q199,80.34,199,80v-.19ZM200,13.82v.37h.55l-.37-.37Zm2.4,66.56h.55l.19.92h-.55Zm1.29-60.28.92.92-.55.19L203.1,21Zm-.19,60.09.37.37-.18.19v.18l-.55-.18v-.19Zm1.11.37h.55l-.37.37h-.19ZM207,17l.37.37v.19h-.74v-.19Zm-.37,2,1.29.19h.37l.18.55-1.29.92h-.37v-.37h-.18l.18-.19v-.19Zm3.51-2.77h.19l1.11.55.18-.55h.18l.55.55V17q0,.74-3.14.74l-.19-.18v-.19Zm3-2.59h.37v.55l-.37.37h-.19Zm.37,3V17.7h-.37L212.9,17Zm5.18-.37H219q0,1.11-2.22,1.66a4.06,4.06,0,0,0-2.4-.55l-.18-.19v-.55h.55V17Q218.63,16.59,218.63,16.22Z"/><path class="cls-2" d="M216.33,11.65l.37.55q-2,1.53-2,1.85.56,0,.55.37-.46,0-.55.74l-.92.37.55.92q.56,0,.55-1.11H215a1.71,1.71,0,0,0,1.11.55L215.78,17l.74,1.11v.37h-.37l-.19.18-.55-.55h-.18q-1.06.69-1.11,1.11l.18,1.11H215V20h.55l.74.55.18-.19.19.19-.19.19v.55h.55l.55-.55-.55-.19V20l.19-.92-.37-.37v-.18l.55-.19q-.09-1.48-.74-1.48v-.74q0-.51.92-.55V15h-.92v-.19l.55-.92-.19-.55h.19l1.29-.55.74.19.19-.74,1.48.55,1.11-.19.55.55h.19v-.37l-.19-.19v-.18l.19-.19h1.11l3.88.92.18-.18h1.85l.92-.19q0,.55.74.55v.37c-.37,0-.55.12-.55.37a3.11,3.11,0,0,1,1.29,1.66l.18.18h.18l.19-.18.18.18h.55v-.37c-.37,0-.55-.12-.55-.37v-.37l.74-.18.37.37h.18q.92,0,.92-.55h.18l.55.37.19-.18h.18l1.29.55-.37,1.11h.18L237,17l.37.74-.18.55h.18c.25,0,.37-.19.37-.55h.55l.37,1.29h-1.48l.55.55H238l.18-.19h.19l.18.19v.18l-1.11,1.29.55.55q-.37,1.29-1.11,1.29l-.92.37v-.19l-.55.19v.19q1.85,1,2,1.66v.18l-.37.37h-.18q0-.56-.37-.55l-.18.18v.19l.18.19h.19q-.28,1.85-.74,1.85l.19.19v.55l-.74,1.11H235a3.78,3.78,0,0,1-2.77-1.66H232l.37,1.29-1.48.37h-3.51l-.55-.55.18-.55A5.76,5.76,0,0,0,225.58,24q0-2-8.32-2l-.74.19L216.7,24l-.19,1.29.19.74h-.19l.19.19V30l-.19.19v.18l-2.4-1.11q-2.4.14-2.4.37l-.92-.19h-3.14l-.18-.92.55-1.11v-.19c-.37,0-.55-.12-.55-.37l.37-1.29q-.37-.32-.55-4.44l.18-2.22-.18-.19v-.18l.37-1.66-.37-2.59q.46-1.29.74-1.29h.92l1.85.18,3-.37v-.37l-.92-.19.37-.37q1.29.19,1.29.55A3.47,3.47,0,0,0,216.33,11.65ZM230.2,33.28h.37l1.29.74a5.54,5.54,0,0,1,2.59-.55q1.2,0,1.66,1.85l-.19.74.74.19.74-.19h.37q0,.55-1.66.55l-.37.55v.19l.18.18v.19l-.18.19.74.37v.19q-1.34,0-1.85,3.33a15.13,15.13,0,0,1-3.51,4.44q.88,4.62,1.48,4.62l-.18.19v.19q.18,1.85.55,1.85l-.18.19v.19l1.66,6.29,1.85,7.4-.18.19v.18A11.84,11.84,0,0,1,237.23,71l-.37.37.18.55-.18.19h-6.1l-.55-.37H230l-.55.37h-.92q-.65,0-1.66-5.18h.18q-1.11-3-4.07-15.35l.18-.55c-.25,0-.37-.25-.37-.74l-.74-.37-1.85.19-3.33-.19-.18.19v.55l.18.74-.18,1.29v3.7l.37,1.11-.55,1.66.19,1.66-.19,1.29.19,2v3l-.19,3,.19,1.29a1.82,1.82,0,0,1-1.48.55v.19l-.55-.19-5.73.19q-1.29,0-1.29-.74l.19-1.29-.19-1.48.19-5-.19-.92h.19l-.19-.55.19-1.29-.19-.92.37-1.66-.37-1.48V54.17l.19-.74-.19-.74v-2l.19-.19-.19-.19v-.74l.19-1.66-.19-.19v-.19l.19-.74-.19-.55q.69-2.4,2.77-2.4v.55h-.55v.19l.74,1.29q.42,0,1.66-1.48Q212.68,46,213,46h.18a2.88,2.88,0,0,0,1.48-1.66q-.93,0-1.85-1.66l1.85-.19,1.11.37h.37l.18-.19,2.77.55q.28-2.22.74-2.22h.55l.19.19h.18V41l.55.19.18-.19h.19l.74.19,2.77-1.29A1.56,1.56,0,0,1,226.5,39l-.18-.55q.28-.74.55-.74h.18v.19L226.87,39l.37,1.11v2.4l-.19,1.11.19.92v.18l-.55,3.51.18.19H228V47l-.37-1.48v-2l.19-1.85-.19-1.11q.09-2.22.37-2.22l1.11-.19.18.19.37-.74v-.37q-.18-.55-1.11-.55l-.18.92q-.74-.18-.74-2,.37,0,.37-.55h.18q0,1.11.37,1.11h.18Q229.55,33.61,230.2,33.28Zm-21.82,9.8h.37l-.37.37H208Zm0-17.56.18.19h.18l.37-.37V25Zm.55,34v.37h.55v-.37Zm7.21-25.89h.18l.37,1.29-.19.19h.19l-.19.18.19,1.11-.19.74.19,1.66-.19.92.19.19v.19l-.55,2.22q-2.59-.14-2.59-.92c.49,0,.74-.12.74-.37l-.37-.37q0,.32-1.29.55v.18l.19,1.29h-.19l-.92.37h-.19l-.18-.18-.18.18h-.55l-.74-.55-.74.55V42.9q.56-.92,1.11-.92l.55.19a2.72,2.72,0,0,0,1.11-1.85q.92,0,.92-.55v-.18h.37l.19.18h.18l.37-.37h.55l.74,1.48h.18l.19-.18v-.37l-.37-.37.55-1.48-.18-.19h-.37v.19l.18.55h-.18q-.93-.14-.92-.55v-.19L215.78,37v-.18l-.37-.37c-.25,0-.37.19-.37.55l-.19.19h-.18v-.55q0-.55,1.29-.55l.37-.55-.74-.37-.55.18-.19-.18ZM211,59.17v.92l-.37.37-.55-.37-.37.37v.92l.18-.18h1.29l.18.18h.18l-.37.74h.55q0-.92.74-.92V61l-.55-.55.37-.74a1.71,1.71,0,0,1-1.11-.55Zm-.18-18.3H211v.37h-.55Zm-.18,7.4-.19.19v.18l.92.19v-.37Zm.18-3.51h.55l-.37.37-.18-.19Zm.92,2.22q0,.37,1.11.37v.37l.37-.37-.55-.74h-.55Zm0,3.33v.37h.55v-.37Zm.55,1.85v.55l.37.37.37-.37-.37-.37L213,52l.74.55.37-.37V52l-.92-.18h-.55Zm.18-3.51H213v-.37h-.18Zm1.29,10.17-.18.19v.37l.37.37.37-.37Zm1.11-.55v.19H215l.18-.19h.18l.74.19h.18v-.74h-.55Zm.37-35.69v.37h.18l.37-.37Zm.18,37.53v.18h.37l.37-.37-.19-.19h-.18Zm.37-29.4h.74v.18q0,1-.55,1.11l-.18-.18h-.18Zm.37,15-.19.55h.19l-.19.18v.19l.37.55q-.74,0-.74.55l1.29.55h.74l.55-.55q0-.55-1.48-.55l.37-.55v-.37l-.55-.55ZM216,32.54h.19l.37.37-.18.55h-.18l-.37-.37Zm.55-28.1h.92v.37h-.55Zm1.29,36.79.18.18v.37q0,.32-1.11.55l-.18-.19V42A1,1,0,0,1,217.81,41.23Zm5.73-38.09q1.85.46,1.85.74l-.18.19v.18l-.92-.18-.55.37-1.29-.55-.74.37-.19-.18h-.18q-3,.32-3,.74l-.74-.18V4.44l3.88-1.11,1.11.19ZM219.85,46l-.18.19v.18l.18.19h.37v-.19ZM221,41.79l.92.92v.19h-.74l-.19-.19h-.18l-.18.19v.18l.37.37.19-.19.37,1.29a.87.87,0,0,0-.74.92l.18.19h.55l3.51-2.4V42.9l-.55-.19-1.66.92h-.55v-.37l-.19-.19.37-.37h.18q-.46-1.2-.92-1.29h-.37Zm0-25.52v.55l.55.18.19-.18v-.55Zm.92-1.11-.37.55.55.37.37-.37v-.37Zm.55,4.07a1.91,1.91,0,0,1-.37,1.29v.19h.74l.37-1.29-.18-.19Zm0-1.48v.37l.74,1.11h1.11q0-.55.74-.55l.37-.92H225q0,.51-1.11.74l-1.11-.74Zm3.33,35.87V54h.55l-.37-.37Zm2.4,11.65v.19l.37.37q.74-.28.74-.55Zm3.7-2.77V63h.74v-.55Zm.37,2.22-.19.19v.55l.55.55h.19v-.74Zm.18,2.22v.55l.37.37.18-.74-.18-.19Zm.18-31.06v.37h.55l-.37-.37Zm3,14.05h.18v.55l-2.59.74v-.37Zm-.92-34.21a1.45,1.45,0,0,1,1.11,1.48h-.55v.19l.18.18v.19l.74-.37.18.18a4.61,4.61,0,0,0,.37-2v-.19l-1.11-.18Q234.64,15.39,234.64,15.72Zm1.29-11.28h.55l-.37.37h-.19Zm1.66,44.19q0,.69-1.66,1.11Q235.93,48.86,237.6,48.63Zm-.92-11.28H237l.19.74-.55.37v-.37h-.19Zm1.48-4.25v.19l-.37.37-.19-.18v-.19l.19-.19Zm.37-17.2h.18l.37.37v.37c0,.25-.18.37-.55.37l-.55-.18v-.37A.49.49,0,0,0,238.52,15.9ZM240,47a3.14,3.14,0,0,0-.55,1.66l-.74-.18-.74.18v-.37Q239.26,47,240,47Zm.55,30h.55v.19q-.93,0-1.85,2.4h-.37l-.19-.92q0-.93,1.11-.92Zm-1.29-61.75H240v.37h-.37Zm3.33,60.65.19.19q-.37.83-.74.92h-.92v-.18A1.54,1.54,0,0,1,242.59,75.81Zm0-59.17h.19a1.55,1.55,0,0,1,1.48.92v.19l-.55.92.74,1.11v.37h-.74l-1.48-2.4Q242.59,17.75,242.59,16.64Zm.55,5.18q1.11.09,1.11.55v.18l-.92.37-.55-.19Zm.74-6.47h.37v.55l-.37-.37Zm2.77,29.4v.74q-.74,0-.74.37l-1.66-.37v-.55h1.11Zm1.11,0h.37v.19l-.18.19A5.3,5.3,0,0,0,249.62,47l.18-.18h.55q.37,0,.37.55h.37l.74-.19q1.11.23,1.11.55l-.18.74-1.66-.19-.74.19-.92-.74h-.19l-.55.55.55.19v.37h-.74l-.92.19v-.19l.37-.74q-.42-1.11-.74-1.11-.23,1.11-.55,1.11l-.55-.55.18-.55h-.92l-.18.19H245l-.19-.19v-.18q0-.46,2-.74l.37.37.37-.55v-.18l-.37-.55ZM247,20.52h.19v.55l-.37.37-.37-.55Zm.37-1.66.18.19q-.28.74-.55.74h-.37Q247,19,247.4,18.86Zm2-.55h.18v.37l-.37.37h-.37v-.19Z"/><path class="cls-2" d="M251.06,13.4l1.66.19.19-.19h.18l.18.19h.19l1.85-.19q.65,0,1.66,5l1.11,1.11-.92,1.11q.42,2.77,1.11,2.77v.19l-.74.92v.55l1.29.37-.37.55q0,.37,1.11.37v.19c0,.25-.25.37-.74.37l-.18.19v.37L259,28v.37h-.37v.37l.37.55-.19.55,1.48,7.21-.18,1.11q.55,0,.55.74l-.19.55h-.37l-.19-.18h-.18v.55q.74,0,.74,2.22h-.37l-.19-.19h-.18l-1.29,1.29H259l.55-.37a.49.49,0,0,0,.55.55v.19q0,.32-2,.92v.19l.18.19V45l1.48-.55h.37v.37q0,.37-2.77.92h-.19l-.18-.19-3.14,1.11h-1.11l-.55-3h.19l-.19-.19V42.8h.19q.37,0,.37.74h.55v-.19a1.72,1.72,0,0,1-.55-1.11l-.74.19q-1.9-.65-2-1.29l.19-.18h1.11l.18-.92v-.37l-.37-.55v-.37l.19-.19-2.4-12.76h-.37l-.19-1.11.19.19.18-.55q-.28-1.29-.92-1.29l.37-.55v-.19q-1-4-1.29-4.07L247,18v-.55l-.37-3V14l.37-.37h2.22Zm1.85,23.85v.37a2.2,2.2,0,0,1,.92,1.85l-.18.92.18.18v.19l-.55.92v.37l.19.18v.19l.18-.19h.55q0,.56.37.55h.55l.55-1.66h.55q0,1.11.55,1.11H257a1,1,0,0,1,1.11-1.11l.18.19v-.19L257.17,40q1.62-1.85,2.4-1.85v-.37h-.19l-2,.74-.55-.19q-.37.32-.37,1.85-1-.32-3.14-3ZM271.4,13.59a6.25,6.25,0,0,1,3.14,1.11q.55,0,.55,1.66l.92-.19v.19a3.56,3.56,0,0,1,.74,1.66l-.74.37a1,1,0,0,0,.92,1.11q-.09.93-.55.92v1.11l.74,1.11-.18.18V23q.32,3.33.74,3.33V26l-.18-.92q1,0,1.11-1.66L277.5,23v-.37l.18-.19-.18-.19V22.1l.74-1.29q-.32-1.66-.74-1.66l.18-.19v-.18l-.18-1.29.18-.55q-.37,0-.55-1.85.23-1.29.55-1.29h.37l1.85.55v-.19a.87.87,0,0,1,.74.92l-.74.37-.55-.19a1.91,1.91,0,0,0-.37,1.29h-.55v.55H279q0-.74.92-.74l.19.19v.18l-1.48,7.77L278.43,30a4,4,0,0,1-.55-2.59l-.19-.19h-.18l-.18.92.37,1.85v2.59l-.18,1.11.55,1.48q-1.71,0-2.4,7l-.37.55.55,2.59-1.11.37v.19h.92v.37l-1.11.37.55.92q-.74,0-1.29,5.92l-.74,3.88.18,1.11h-.18l-.18.19-.19.55h-.18l.18.55Q272,63.7,271,63.7l-1.29-.19-.92.19q-.55,0-1.11-1.48h-.18v.55l.37.55-.55.55v.19l.74.19.55-.19,3,.55q-1.16,7.77-1.85,7.77l-1.29.19-.92-.19h-7.21L258.83,72l-.74.18h-.18q-.69,0-2.59-11.65l.18-.55-.18-.74h.55v-.19q-1.66,0-1.66-4.25a21.14,21.14,0,0,1-.74-5.36l.18-1.29-.37-.37v-.18l.92-.37.74.37q0-.88,4.62-1.48,1.11.37,1.11.74v.74l-.37,1.11.37.37v5.18l.37-.37V53l-.18-2,.37-1.48L261,48.9l.37-.37v-.19q0-.37-.55-.37.14-1.66.55-1.66.37.23.37,2.22.28,0,.74,2.22h-.18q.6,4.81,1.66,4.81.74-1.15,1.29-6.84l.18-.55q1.11-.18,1.11-.55l-.92-.19.37-1.11L265.67,45h.18a2,2,0,0,1,1.66-.74v-.37l-.37-.37-.74.19q0-.37.55-.37V42.8h-.37v-.55l1.11-8V32.82l-.18-.92a4.47,4.47,0,0,0,.92-3l-.55-.37-.55.55-.37-.55v-.19l.55-.18.92.18.37-1.48-1.29-.19v-.18q0-.37.92-.37.74,0,2-9.24A8.06,8.06,0,0,1,271.4,13.59ZM253.28,44.84v.55h.37v-.55Zm.55-30.51v.37l1.48.19v-.37l-.55-.18-.18.18h-.19Zm0,31.25v.19l.37.37v-.55Zm.55-12.76v.55l.37.37.18-.19v-.37l-.37-.37Zm0,11.28v.74h.19q1.29-.79,1.29-1.11l-.18-.19v-.19Q254.39,43.77,254.39,44.1Zm.19-14.42v.19l.37.37h.19v-.55Zm.37-5q0,.37,1.48.92h.37v-.37a2.6,2.6,0,0,1-1.48-.55Zm.92,4.44-.37.37q0,.51.92.92l.18-.19Q256.24,29.12,255.87,29.12Zm0,21.82-.37.92v.37l.55.55.37-.74-.18-.19v-.19l.18-.74Zm0-5.73.18.19h.19q1.11-.18,1.11-.55h-1.11Zm.92-11.28-.19.19v.19l.55.18v.74q-.92,0-.92.55l.37.37.19-.18q.37,0,.37-.74h.74V35Zm1.29,14.61-.18.19v.18l.18.19q1.11-.23,1.11-.55l-1.11-.19Zm.37,5.55-.19.55.19.19h.18l.37-.55v-.19Zm1.85,9.24-.37,2.77.19.19h.18q.56-.18.55-1.11V65l-.18-.92.37-.37-.37-.37Zm-.18-2,.18,1.29.37-.37V60.92h-.19Zm.55-19h.18l.37.37-.19.18h-.74v-.18ZM261.42,26l.18.18v.55h-.74l-.37-.37Zm-.74,29.4-.19.18.19,1.29v.37h.18L261,57h.19Q261,55.38,260.68,55.38ZM260.49,60l.19.19h.18l.37-.37-.19-.19h-.18Zm1.11-14.61v.18l-.37.37-.37-.37.18-.18Zm-.55,22v.55h.19l.37-.37-.18-.55Zm1.29-3.7v.18h.74V63.7Zm1.11-8c0,.25-.19.37-.55.37l-.19.55.37.37-.18.55q.55,0,.55.74h.37l1.29.19V57.6l1.29.18.37-.55V57l-.19.18h-.37A8.91,8.91,0,0,0,263.45,55.75Zm.37-19.23.37.37-.55.37-.18-.18v-.19Zm.37,27-.37.55v.19l.55.18q2-.18,2-.55V63.7H266Zm2.4-3.33.19.92h.55l-.37-.92Zm.55-11.28v.55h.19l.37-.37-.18-.19Zm.55,9.25v.37h.19l.37-.37Zm.92-17.38v.37h.55v-.37Zm.37,6.1v.37h.18q2.4,0,2.4-.55V46.5h-1.29A1.91,1.91,0,0,1,269,46.87Zm1.66-6.29V41h.55v-.37Zm.92,3.14.19.18H272q3.14-.46,3.14-1.29v-.19h-.37Q271.68,43.45,271.59,43.73Zm.55,2.59v.37h.37l.37-.37Zm.19-26.81v.37l.37.37h.19v-.37l-.37-.37Zm1.48,26.44v.37l.55-.19v-.18Zm1.29-32.17h.74c0,.25.25.37.74.37v.74l-.55.18-.92-.18Zm.37,7.77v.55l.37.37.18-.19v-.37l-.37-.37Zm2.59.74v.19h.18l.37-.37v-.19h-.18Z"/><path class="cls-2" d="M282.33,69.43h.37l.55.55v.37h-.37l-.55-.55Zm2.4-55.84q.32,0,2.4,5.36-.23,2.59-.92,2.59h-.55v-.37l-1.29-7.4.19-.19Zm-.18,56,.18.19h.18l.92-.19.37.37.18-.18h.18l1.11.37.92-.19.37.74.74-.37.18.18v.37l-.37.37-.74-.19-1.48.37q-.09-.42-1.48-.92l-.55-.55-.18.19h-.19l-.37-.37Zm6.84-55.84h3.14a2.58,2.58,0,0,1,1.66.55l2.22-.55q1.34,0,1.48,1.85a5.59,5.59,0,0,0-.55,2.22l.55.92q0,.93-.37.92l.18.19v.18l-.18,1.29.55.55-.37.37v.55l.37,1.11q.37,0,.37.92.56,0,.55.37v.19q-1.48,0-1.48,1.85a2.27,2.27,0,0,0-1.48.92h-.18q-.42,0-.92-2.4H296l-.55-.37q0,.93-1.66.92,0-.46-.74-.55a4.14,4.14,0,0,0-2,1.11h-.55l-.18-.55.18-1.48-.18-3,.18-.55h-.18q.23-1.29.55-1.29a3.15,3.15,0,0,0-.55-1.66V14.88A1,1,0,0,1,291.39,13.77ZM299.71,35q1.34,3.19,1.66,3.33L301,39.48a1,1,0,0,1,.74,1.11q-.56,0-.55.74H301c-.25,0-.37-.19-.37-.55l-.19-.19h-.18l-1.11.55-.74-.92h-.19a.82.82,0,0,0-.92.92q-1.11,0-1.11.37v.37l.55.92,1.29-.18h.74q0,.55.92.55.32,1.29.74,1.29v.37q-.74,0-.74,1.48a1,1,0,0,1,.74,1.11l.55.19V48l-.55.55a2.83,2.83,0,0,0,.74,1.85v.18l-.55.74.37.37.55-.18.37.92-.55.37-.74-.18v.18l.37.37.19-.19h.18l.18.19v.55h-.18l-.92-.19v.55q.51,0,1.11,1.29l-1.11.74v.19l.19.19v.18l-1.11.19q1.29.88,1.29,1.66h.55q.09-.74.55-.74l.37.37-.19.55.55.55-.18.18h.18l-.55.92.19.18v.37L301.56,62l-.74-.19h-.37V62a1.49,1.49,0,0,1,1.29.92v.19h-.55l-.74-.55-.37.37v.37l.18.19-.74,2.77-.92-.37h-.18v.18q1.48.37,1.48,1.11l-.37.55.37,1.11v.55h.92v.19a1.4,1.4,0,0,0-1.11.55l.18.92v1.29q0,.6-.74.55l-2.59-.19-.18.19h-.18l-1.11-.37-.19.18h-.18l-.18-.18-1.85.18h-.92a1,1,0,0,1-1.11-1.11V67.39l-.19-1.66.37-1.11-.18-.74.37-.37L295.27,65v-.37q-3.88-1-4.44-1.66v-.74l.37-.37-.37-1.48a3.07,3.07,0,0,1,1.11-2.4l.55.37.55-1.48h.18V56.3h-.55l-.55.37h-.55q0-.92-1.11-.92l.37-.92-.18-1.66.18-1.48-.18-.74.18-.74-.18-.19v-.18l.18-.19v-.19l-.55-1.66h.37l-.19-1.29v-.37c0-.25.19-.37.55-.37s.55.31.55.92h1.48l1.85-.55v.55a2.83,2.83,0,0,0-.74,1.85l.74.37,1.11-.55.55.55h.19v-.55l-.92-1.66.37-.92h-1.11q0-.88-1.66-1.48l-.19-.92v-.18a.49.49,0,0,0,.55-.55h.37l.18.18h.19v-.55l-.37-.55v-.55a.65.65,0,0,0,.74-.74h.19l-.19-.19V40l.19-.55-.19-.55h.19l1.29.37h1.11v-.37q-.93-.14-.92-.55t1.11-1.48v-.37q.92,0,.92-1.29h.18l.55.19Zm-4.07-3.88h.18v.37q0,1-1.85,2.77l.18.74-.37,1.11h.55v-.37h.55v.37q0,.42-2.59.74-1.29-.28-1.29-.74v-.55c.37,0,.55-.12.55-.37v-.37q-.74,0-.74-.55,0-1.34,3.51-2.22v.18Zm-4.07,17.38v.92h.19l.74-.74-.18-.19Zm1.11,10.35v.37l1.11.18v-.37l-.37-.37Zm.19-24.41v.92l.37-.37v-.18Zm1.48,5.73V41H294v-.37Zm.37-24.78v.18l.18.19V16l-.18.74a1.91,1.91,0,0,1,.37,1.29h.37c.25,0,.37-.19.37-.55a2.54,2.54,0,0,0-.74-1.48l.18-.19v-.19l-.18-.18Zm.18,27.73v.92a1.31,1.31,0,0,0,1.29.92l.55-.55Q296.47,43,295.46,43Zm.19,11.28V55h.37v-.55Zm.18.74q.14,1.48.55,1.48l.18-.18V56.3l-.18-1.11ZM296.2,18v.37l.37.37.19-.19v-.37Zm.18,47.15v.37l1.66.37h.18v-.19l-1.66-.55Zm.55-48.44v.19h.92l.18-.55-.18-.19h-.37Zm0,.92v.74l.74.37V18.4q-.28-.74-.55-.74Zm.55,8.5v.55H298l-.18-.55Zm1.11,15,.18.19v.55H298l-.55-.55Zm-.55,2-.37.55.37.37.37-.37v-.19Zm.18,2.77v.37l.37.37.37-.37-.55-.37Zm1.11-20.89.19.19h.18l.37-.37v-.19h-.37Zm.19,14.61V40h.18l.37-.37Zm3,31.43h.18l.37.37-.18.18h-.19l-.18-.18ZM303,59.81h.37l.18.18,2.59,1.66V62l-1.11-.55v.18l-.92-.55-.92.37-.37-.55.37-.55-.18-.19Zm4.44-1.66.37.55v.18l-.92-.18Z"/><path class="cls-2" d="M299.4,81.12l.18.19v.18l-.92.37-.18-.19v-.37ZM322,12.9l.19.19,2.22-.19q2.22-.18,2.22.74V14q-.93,0-.92,1.66l.18.19H326q1.71-2,2-2a12.5,12.5,0,0,1,5.73,3l.92.37.37-.37,2.22.74v.37h-.37a1.4,1.4,0,0,0,.55,1.11l.55-.37q.92.23.92.55-1.48.14-1.48,1.48v.19l1.11.18v.37q-2,.46-2,.74l.74.74v.74h-.18l-.55-.19q-2.22.28-2.22,1.11v.74q0,.42.92.55,0-.56,2-.92l.37.37h.18l.55-.37.37.37-1.48,1.11a3.52,3.52,0,0,0,1.11,1.48l-.18.74.92-.19.19.19v1.66h.74V31h-1.29l-.37.37v.18l.74.19q0,1.57-2.22,2l-.37-.74h-.19q0,.74-.92.74h-1.66l-.92-.18-1.11.18h-2.22l-.92-.18V32.13l.37-1.29-.37-.37v-.37h.55q.37,0,.37.55l.55.19v-.55q0-.37-1.48-1.29l.19-.19v-.37l-.55-1.85h.18L327.88,24q-.51,0-.92-.92-.69,0-1.29-1.11l-3-.19a1.84,1.84,0,0,0-1.11.92l-.19-.18h-.18q-1.66.79-1.66,1.29h.37v.37q-.56,0-.92.74l.37.37-.19.92v.19l.19.18-.55.92.18.18-.18.55h-.19l-.18-.18h-.18l-.19.18v.55l.55-.37q.37,0,.37.55l.18.19h.19l.92-.19v.55a5.39,5.39,0,0,0-1.48,1.85v.55l.37.74L319,34.9l.55.37-.18.92v.19l.18,1.29-.74.37v.37c.37,0,.55.12.55.37l-.55.19v.74q0,.37,1.11.74v.19l-.74.37.19,1.11h.18l.92-.18,2.59.37.55-.55,1.11.55-.55,1.48v.37h.55v.37h-.37q-.56,0-.55-1.29h-.55l-.19.19h-.18l.55,1.48-.92-.18-.74.55q-1.48-.18-1.48-.55v-.37c0-.25.19-.37.55-.37V43.4h-.37l-.74.55h-.18l-.55-.37-.37.37a1,1,0,0,1,.74.74l-.19.18v.19l.19.74-.37.37q0,.37,1.11.37l-.74,1.29.74.19v.18q-.18.56-1.11.55v.55h.92l-.19.19v.19l-.92-.19h-.19q0,.55-.37.55h-.19l-.92-.55.18-.92V47.47q-.74,0-.74-.55l-.55-.19-1.66.55V47.1q0-.74-.92-.74l-.92.18-.18-.55h-.55l-.74.19q-1.11,0-1.11-.92l-.19-.55h.19c.37,0,.55-.12.55-.37s-.31-.37-.92-.37v-.37l.18-.19-.18-.19V43l.18-1.48-.18-.74.18-.19v-.19l-.18-1.11a2,2,0,0,1,1.11-1.66v-.55l-1.11-.37.55-1.29v-.37l-.74-.37q0-1.66,1.29-1.66v-.74h-.18l-.92.19v-.19l.37-.37-.37-2a2.53,2.53,0,0,0,1.11-1.29l-.37-1.11v-.19a2.6,2.6,0,0,0,.55-1.48l-.74-.55.18-.55-.18-1.11v-.19a4.39,4.39,0,0,0,1.85-.92h.19V22A2.63,2.63,0,0,1,311,20.11q.37,0,.37-.55l-.18-.55q.42,0,3.7-3.14Q317,13.87,322,12.9Zm-12.2,14.05h.19v.37h-.55Zm.74,27h.37l.37.37-.37.74.55,1.85q-.28,0-.74,1.29l-.92.19-.18-1.29v-.37l.55-.55-.18-1.11Zm18.67-3.14.74.18v1.11q0,.56.74.55.56,0,.55-.74h.18l-.18-.19v-.19q0-1,2.77-.74l2.4.18.55-.18,1.66.55h.19l.18-.19.18.19h1.29v.55h-.92l-1.11.74V53l.55.74q0,.37-.55.37v.55l.18.18-.74,1.85v.55l.37.55v.37q-.56,0-.55,1.29a1.37,1.37,0,0,1,1.11.74v.18q-.93,0-.92.37v.37c0,.25.18.37.55.37l.18.19v.19l-.74.74v.19q.74.09.74.55-.37,0-.74,1.11-1.11,0-1.11.37v.37l.18.55h-.18q-.88,0-2,2.4-3,3.1-4.07,3.51-2.36,1.48-8,1.48l-1.11-.37h-1.11v-.19l.37-.55v-.37h-.55l-.18.55.18.19-.18.18h-.74a6.18,6.18,0,0,1-2-1.48l-.18.19H317l-1.11-1.11q-.92,0-.92-1.29l-.19-.19h-.37l-.19.19q-2.77-1.94-2.77-3.7h.37v-.37q-1.25,0-1.66-2.59,1.48-.46,1.48-1.66H312V60l-.18-.19.55-2.22.18.19h.37l.37-.37v-.92l-.19-.18q.28-2,.74-2h.37q.14.93.55.92h.19l.37-.37c0-.25.19-.37.55-.37l.74-.19v-.55l.92.19.55-.19q0,1.11.74,1.11v.55l.18,1.29-.92.19q-.74,0-.74-1.29a3.26,3.26,0,0,1-1.85-.55l-.19.74h-.37v-.37l-.92.19v.19l.37.55-.37.55v.18a2.58,2.58,0,0,0,1.66-.55H316q.14.93.55.92h2l.19.74-.19.19v.19l.19.55-.19.74.74,2-.55.18v.55l.37.37h.19l.18-.74a7.56,7.56,0,0,0,3.51,1.48h2.77q0-.32,1.85-1.66l.37-.92h.37q.92,0,.92.37.83-.37.92-.74l-.37-.37-1.66.37.55-2.22-.19-.74h.19l-.19-.19V55.42l.37-1.11-.18-.55.37-.37L329,53.2V53l.18-.74-.55-.55v-.37ZM310.5,60.41H311V61h-.19l-.37-.37Zm1.29-28.29v.37l.74.18v-.37ZM314,17.33v.55h.55v-.55Zm.74,34.95.92.19h.55v.18l-.37.37h-.55l-.55-.55Zm.74-23.3v.55l.37.37.37-.37L316,29Zm0,9.8v.74H316l.37-.37v-.37Zm.55-8.14V31l.37.37.19-.19V31l-.37-.37Zm1.11,20.15.18.18v.74l-.55.55h-.55v-.37Zm-.74,18.86.19.18h.18q.18-.55,1.11-.55V69.1q0-.37-.55-.37T316.41,69.66ZM319.74,41l.92.19-.37.37h-.18l-.37-.37Zm.55,5.18h.55l.19.19.18-.19h1.29v.19q0,.37-1.85.55l-.37-.55ZM321,15.48v.74h.18l.37-.37-.37-.37ZM321,71l.37.37h.19V71Zm.37-27,.37.37H322l.19-.18h.18l-.18-.55h-.37ZM322,19.55v.74l.37.37q.74-.28.74-.55v-.37ZM322.51,65l-.18.19v.18l.18.19h.19l.18-.19h.18l.92.19.18-.19v-.18Zm.92-46v.19H324l.37-.37v-.37H324Zm.92-4.62v.19l.37.37.37-.37v-.37h-.18Zm.37,50.48-.18.19v.37h.18l.37-.37-.18-.19Zm0,2v.55l.92.55h.18l.19-1.11-.19-.19h-.18Zm0,4.07v.55h.55V71Zm2-5.55v.19h.37V65Zm.55-43.27v.19l.37.55.55-.19v-.37l-.37-.37Zm.55,43.08v.37l.37.37h.55v-.37l-.37-.37Zm0,3.14v.37l.37.37h.37l-.55-.74Zm.37-52.7a4.49,4.49,0,0,1,1.29,2.22h.18l.55-.55v-.19q0-.37-.55-.37l.19-.92q0-1.11-.74-1.11Q328.24,15.07,328.25,15.67Zm1.29,6.1-.18,1.29v.37l.18.92h.18l.55-.37.37.55v.19l-.18.18v.19h.37l.19-.74h.37l.37.37v.18q0,.46-2.22,1.11l.18.55.92-.18,1.85.18.55-.18V26l-.37-.55.18-1.29q-.51,0-1.11-2c-.37,0-.55-.12-.55-.37l-.92.19Zm.18,7.21.19.19h.18l.18-.19v-.37h-.18Zm0,33.1v.19l.37.37.18-.18v-.37Zm.37,5.92-.37.55.55.37h.19l.37-.37v-.37Zm.18-14.24-.37.74v.19h.55l.37-.37v-.18l-.37-.37Zm-.18-26.44v.19l1.66.37.37-.55-.37-.55Q330.09,27,330.09,27.32Zm.18,3.51V31l.19.74-.19.74h.37L331,31l-.19-.18Zm0,33.84.19,1.85v.55H331l.18-.55H331a.65.65,0,0,1,.74-.74v-.55q-.93,0-.92-.55v-.19h-.18l-.18.19ZM330.65,29l.37.37h.37V29Zm.92,25,.18.92a1.11,1.11,0,0,0-.92,1.11h-.18l.18.19v.19l-.18.74.55.92q.74-.28.74-.55a2.13,2.13,0,0,1-.55-1.29l.19-.55h.74l.55.37h.18a.49.49,0,0,1,.55-.55v-.18q0-1-.55-1.11l-.18.18v.19l.37.37h-.55a.82.82,0,0,0-.92-.92Zm-.74-.74v.19l.55.19.19-.19V53.2l-.37-.37Zm.92-24.78V29q1.48.37,1.48.92h.18l.18-.18.19.18H334l.55-.55h.18q0-1.11-2-1.11v-.18Zm0,3v.37h.18l.37-.37Zm.37,27,.18.19.18-.19h.92v.37h.37l.74-.37q.74,0,.74,1.11l.92-.19v-.55l-.92-.18.19-.55-.37-.55h-.37l-.55.18v-.18l-.37-.37V56.9Zm.92-34.21h.55v-.37h-.18Zm.74,41.42v.74h.37v-.74ZM334,26.95l.37.37h.37v-.74h-.37Zm0,26.81v.55h.55l.37-.37v-.19Zm2.77-22.19.55.37h.37l.55-.55L338,31.2h-.92ZM339.89,19h.55v.37h-.19Zm.37,12.57h.92l.18.55h-.18l-.92-.37Z"/><path class="cls-2" d="M349.52,12.16a5.37,5.37,0,0,0,3.14.74l.55-.19q2,.46,2,1.11l-.18.55.18,2V17q0,2.22-.55,2.22l.37,2.4V24q0,1.85-.37,1.85l.19.92v1.29l.18.18v.19l-.37.37v.74l.19.92-.37.37.92.92h.18c.25,0,.37-.19.37-.55l.18-.19h.18l.55.55-.18.19v.19l-.18-.19h-.37l-.37.37v.37h1.29v.18q-.14.65-1.11,1.11h-.19l-.37-.37h.18q-.42-1.11-.74-1.11l-.55.37.18.92V34l-.18,1.66.37.92a1.82,1.82,0,0,1-1.48.55v.19l.55,1.66-.19,1.11q.6,0,.92,2.59h.18q0-1.11.37-1.11l1.29.19v-.19l-.92-2.77q2.08,0,2.59,3.33h.19q1.85,0,1.85-1.48a2.25,2.25,0,0,1,1.48-2l.37-.74,2.4-.19,2.77.55.74-.18q1.11.19,1.11.55a1.73,1.73,0,0,1-1.11,1.48l-.55-.37h-.18l-.37.37v.55l.37.55v.37q-.56,0-.55,1.29-1.11,0-1.48,2.4-1.29,1.8-1.66,1.85l-.74-.55-.37.37h-.18q-2,0-2-3.33,0-1.29-.37-1.29h-.92q-1.29.42-1.29,2.59l.19,1.66a2.25,2.25,0,0,1-1.48.74q-1.29,0-1.29-1.66l-.19-1.11h-.18l-.37,2.22.19.55L354,48l.37,2.22-.19.18v.19l.19.74-.19,2q.14,1.11.37,1.11l-.18.19v.18l.18.92q-.14,1.11-.37,1.11l.37,2.77-.18,2,.18.19h-.18l.37,1.29-.18,2.4h.18l-.92,2.22Q356,70.26,356,71.32t-2.59.92h-5.73l-.55-.37h-.37l-.18.18h-.19l-.37-.55V71h.18l.92.19V70.4l-.55-2.22.55-.55q0-.92-1.11-1.29v-.19q.92,0,.92-.37v-.37q-.69,0-1.11-2.4l.19-.19v-.19l-.19-.92L346,60l-.19-1.66.19-.19V58l-.19-.74V56.9h.55v-.37l-.74-.18.18-.92-.18-3.51.37-1.66-.37-1.48.74-1.11v-.18l-.55-.92.37-4.44q-.37,0-.55-1.11l.55-2.59-.55-.19v-.37q0-.37.55-.37l.18-.19v-.37q0-.46-1.48-.74v-.37q.51,0,.74-4.07l-.18-.74.18-.55q-.74-.28-.74-.55l.55-.92v-.55q0-.46-.74-.55v-.19c.49,0,.74-.12.74-.37v-2.4l-.19-.18.19-.19V20.29l-.37-1.48.37-.55-.19-.55.19-2.22-.19-.74.19-.74v-.19l-.19-.18v-.19l.55-.37h1.85A3.05,3.05,0,0,0,349.52,12.16ZM346.2,33.42v.37a1,1,0,0,0,.74,1.11l.37-.37H348q.37,0,.37.55l.37-.37v-.55q-.93-.14-.92-.55v-.37l.37-.55v-.37h-.74ZM346.75,17l-.37,1.48.19.19h.74l.37-1.11h-.19Zm-.37,23.11.37,2.22h.37l.37-.37v-.19l-.55-.92.19-.74-.19-.19h-.18l-.18.19Zm1.29-12.39v.55h.55v-.18l-.37-.37Zm.18-8.69v.74h.55v-.37L348,19ZM348,38.23v.19l1.11,1.11-1.11.19v.18a2.25,2.25,0,0,1,.74,1.48v.92l.74.37h.92l.74-.92-.55-1.85q-.37,0-.37-.74l-.18-.19h-.18l-.74.19Q349.15,38.23,348,38.23Zm.19-11.46h.18q0-.37.92-.37l.18-.19v-.37h-.74Q348.46,25.84,348.23,26.76Zm.92-6.29v.19l.37.37h.18v-.55Zm.74,13.5-.19.19v.18l.19.55h.55v-.37Zm0-3.51v.19q.18,1.48.55,1.48h.37l.74-.74A3.24,3.24,0,0,0,349.89,30.46Zm.18,7-.18.18V38l.55.55h.37v-.37Zm.55-4.07-.18.19v.18q.14.56,1.48.55l.55,1.48q1.11-.14,1.11-.37a2,2,0,0,0-1.29-2h-.37l-.74.19Zm0,1.85v.55l.55-.55v-.19Zm.37-9.61-.19,1.11H351l.92-.19.74.19v-.19Q352.67,26,351,25.65Zm.18-6.1v.74q.46,0,1.11-.92l-.18-.55h-.19Zm.18,8.69.19.19h.37v-.55h-.18Zm.19,20.34V49q.55,0,.55.92h.37V49Zm.55-17.75V31l.37.37.19-.19v-.37Zm.37,15.9v.37H353v-.37Zm15.53-34,.74.37.55-.19.55.74.37-.74,1.11.37.92-.18q1.29,0,1.29.92h.37l.55-.37h.18l.19.92a3.1,3.1,0,0,0-1.85.74l.37.74,1.29-.18H375l.92.37v.37q-.09.56-1.48.55,0-.55-.37-.55v.19l.37.55v.55h-1.11v.19l.18.74-.37.92q0,.51,1.29.92v.55h-.18l-.55-.55q-.32,0-1.48,1.66l-1.11.19-2.4-.37-1.85.19-.18-.19-.92.19h-1.66l-1.11.19-.92-.19-.37.37-.55-.37h-.37a3.12,3.12,0,0,1-1.85.55V22.7l-1.29.55v-.18l-.19-.74.19-.74q-.37-.46-.92-6.1l-.18-.18.18-.74v-.19l-.18-.18q.23-1.11.55-1.11h4.81l1.48.18,1.48-.18h.37l2.22.18ZM357.47,63h3.33l.74.55,1.11-.55.74.18.74-.18.55.18.74-.18h.37v.18L368,63h2.77q.14,1.29.37,1.29l-.18.92v1.29l-.19.19.19.19v.74l-.37.37q-.37,0-.37-.92h-.55v.74l-4.44-1.48v.37q2.22.6,2.22,1.48l-1.11.37a11.69,11.69,0,0,1,.74,3.51l-.19.19-.55-.19-.92.19-.74-.19-1.11.19-.74-.19-2.22.19a2.93,2.93,0,0,1-2.22-.92q-.23.83-.74.92l-.37-.37.74-2L357.29,65V63.93Zm.19-34h.55c0,.37.12.55.37.55l1.11-.37v.18l-.74.55-.18.19v.19Q358.08,30.09,357.66,29Zm1.11-14.05v.74h.55V15.3l-.37-.37Zm.92,14.79h.37l1.48.18v.37h-1.66Zm0,.92h.19l.37.37h-.55ZM360.8,64.3v.37h-.18q.18,2.22.74,2.22l.37-.37-.18-.92.37-.37L361,64.3Zm4.62-25.89v.19l.18,1.29q1.29-.69,1.29-1.29l-.18-.19Zm2.77,2.4q.79,0,.92,2.22l-.37.37v.37q0,.37.74.37l-.37.92h-.55a1.31,1.31,0,0,1-.92-1.29v-.18l.74-.19v-.19l-.55-.55-.18.19h-.19v-.37q1,0,1.11-.55,0-.37-.55-.37l-.18-.18v-.19ZM369.31,80l.74.19v.18q0,.37-2.59.74v-.19Q367.46,80.52,369.31,80Zm-1.66-12.2q3.33,0,3.33,1.66v.19l-.19,1.11.19.55q-.28.74-.55.74h-1.48l-.18-.92.18-1.29q-.51,0-1.29-1.85Zm2.59-25.52h.19v.19L370,43v.18q0,.37.55.37l.18.18V44h-.18q-.74,0-.74-.92h-.19Zm2.22,37.35.74.18v.37l-.37.37q-.93-.23-.92-.55v-.19Zm.37-65.82v.37h.55l-.37-.37Zm2.4,66.56h.55l.19.92h-.55Zm1.29-60.28.92.92-.55.19L376,21Zm-.19,60.09.37.37-.18.19v.18l-.55-.18v-.19Zm1.11.37H378l-.37.37h-.19Zm2.4-63.6.37.37v.19h-.74v-.19Zm-.37,2,1.29.19h.37l.18.55-1.29.92h-.37v-.37h-.18l.18-.19v-.19ZM383,16.22h.19l1.11.55.18-.55h.18l.55.55V17q0,.74-3.14.74l-.19-.18v-.19Zm3-2.59h.37v.55l-.37.37h-.19Zm.37,3V17.7h-.37l-.19-.74Zm5.18-.37h.37q0,1.11-2.22,1.66a4.06,4.06,0,0,0-2.4-.55l-.18-.19v-.55h.55V17Q391.5,16.59,391.5,16.22Z"/><path class="cls-2" d="M373.81.37l.74.19V.74q0,.37-2.59.74V1.29Q372,.88,373.81.37Zm2.77,37.53v.55h-.37v-.19ZM377,0l.74.19V.55l-.37.37q-.92-.23-.92-.55V.19Zm2.77.74h.55l.18.92h-.55ZM388,55.1q.55,0,.55.92l.74.55-.55.19a11.24,11.24,0,0,0,2,6.1v.37l-.19,1.11L391,66l-.37,2.59.19.55L390.08,71h-.18l-1.11-.55-.18.55h-.19a7.44,7.44,0,0,1-4.25-3.33l.18-1.11-.37-.37h.19l.55.37.18-.19h.18A2.53,2.53,0,0,0,384,65.08h-.18q-.37,0-.37,1.11h-.37q-1.57-1.62-2.77-6.1l.37-.37a1,1,0,0,1-.74-1.11v-.18q0-2,1.11-2,.92,0,.92-.74l.18.18h.18l2-.37.74.19A6.6,6.6,0,0,1,388,55.1Zm2-42.34h.37l.92,1.11a4.54,4.54,0,0,1-.55,2.4l.55.74-.19.19v.19l.37,1.11-.18.55.18.92A10.86,10.86,0,0,1,390.08,24a5.72,5.72,0,0,0-.37,2.4v.37q0,2.22,2,7l-.37.37q-.37,0-.37-.55h-.37l-.18.19h-.18q-.14-.92-.55-.92-.6,0-.92,1.85l.55.19v-.19l.18.19h1.11l.19.74-.19.18.19.92v1.48l.55.19.18-.19v.92l-.55.55v-.37h-.18v.55L391,41q-.23,3-.74,3a34.55,34.55,0,0,1-7.21-7.77,8.21,8.21,0,0,1-.92-4.25v-.55l-.37-.37v1.48h-.18q-.93,0-1.11-4.81l1.11-.37-.18.18v.37l.18.18v.19l-.37.37v.19h.37v.92l.37.37V30l-.19-1.66.37-.37q-.37-.32-.37-1.85l-.18-.19h-.18L381.2,27a1.86,1.86,0,0,1-.92-1.85,7,7,0,0,0,.55-2.77h.37l-.18.55.37,2.4h.18l.37-2.22-.37-.74A5.22,5.22,0,0,1,382.5,19l.18.18h.55l-.18-1.29a12.52,12.52,0,0,1,6.29-5ZM380.83.55l.37.37-.18.19v.19l-.55-.19V.92Zm1.11.37h.55l-.37.37h-.18Zm.37,56.95v.55h.37v-.55Zm.74,1.48v.55h.37v-.55Zm.37-27.18v.55h.37l.37-.37v-.19Zm1.29-13.5v.19q0,.42,2,.92l-.18-.18V19l.18-.19v-.19l-.37-.37v-.55l.18-.19v-.18h-.37A3.91,3.91,0,0,0,384.72,18.67ZM385.09,56v.92h.37v-.55ZM389,2.59l.19.19V3l-1.48.74-.18-.18h-.19l-1.11.18-.92-.37V3.14l.18-.18V2.77l.18.19h.55l1.11-.19.55.19Zm-3,57.69.18,1.29h.19l.18-.92-.37-.37Zm1.11-44.74v.19h.74v-.19l-.37-.37Zm.55,6.47v.55H388V22Zm.74-6.66v.55l.55.55.37-.55-.18-.92h-.37Zm1.66,56.21h.19l.37.37h-.18Zm0,1.66.37.37v.19h-.37Zm2.4-38.83,1.11,1.48-1.48,1.29q-.42,0-.74-1.85ZM391.93,42h.37a3.7,3.7,0,0,1,2,3.33l.18.19v.37c-.25,0-.37.19-.37.55l-.19.74-.18.19h-.18l-2.22-2.22v-.37h1.11v-.37a2.72,2.72,0,0,1-.92-2Zm1.85-30a23,23,0,0,1,9.8,2.59l.55-.19a2,2,0,0,0,2,1.11l.19.19v.18l-.92.74q1.62,1.66,2.22,1.66,0,1.29,1.85,1.29a1.31,1.31,0,0,0,1.29.92l.37-.37h.55L411,21.26l.55.18v.37h-.37q0,.55-1.29,1.11l-.18-.19h-1.29v.55a2.71,2.71,0,0,0,.74,1.48V25a2.05,2.05,0,0,1-2,.92q-.37,0-.37.55l-.18.19h-2.77q-.93,0-.92.37l-.18-.18h-.18l-1.11.37V27l-.19.19h-1.11v-.37l.19-.92q-.46,0-1.29-3-.6-1.43-4.07-3v-.19L394,20a1.61,1.61,0,0,1-1.11-1.48l.19-1.66-.19-.92.37-.37v-.37a2.13,2.13,0,0,1-.55-1.29V12.57Q392.67,12.25,393.78,12Zm.18,25.7h.19v.19l-.37.37h-.18v-.19Zm2.4.55h.37A41.19,41.19,0,0,1,406,47.7a9.5,9.5,0,0,0,1.66,2.77l.18,1.11q0,.93-1.29.92v.19l.92.55H408v-.37q1.06,0,1.29,5.18.18,4.25-3.14,9.8a.87.87,0,0,0-.92.74l-.19-.18h-.55l.19.92q-3.79,2.77-5.36,2.77l-.18-.19H399l-.74.19H398v-.55l-.74.92H396l-.55-.37-1.11.37L394,71.19l.37-.55a4.63,4.63,0,0,1-.74-2.77q0-3.51,1.11-3.51a6.88,6.88,0,0,0,4.44-2,7.88,7.88,0,0,0,1.48,2.77v-.37a11.18,11.18,0,0,1-.92-3.88q.55-.79.55-4.07h-.19l.19-.19v-.19a12.84,12.84,0,0,0-3-5.55l.19-.92v-.37q-.74,0-.74-1.48l-.18-.55h-.18l.37-2-.37-.37V44A2.27,2.27,0,0,1,398,41.79l.18-.19v-.19l-.18-.55h.55v-.55Q397.06,40.31,396.37,38.27Zm.37-21.45-.18-.19h-.37q-1.66.32-1.66.74v.37l1.29.19,1.85-1.11,1.11.18H399l-1.48-.74h-.19ZM395.81,66v.19l.37.37.19-.19v-.18l-.19-.19Zm1.11,3.7-.19.92v.74h.19l.37-.37V69.71Zm.37-22-.37.74.55.18.18-.18v-.37Zm1.29,1.11-.37.55v.37l.37.37h.55l.74-.37A1.22,1.22,0,0,0,398.58,48.81ZM400.25,22v.55h.18l.37-.37V22Zm.92,41.6V64h.19l.37-.37Zm.37-14.24v.19l.74.74h.37v-.74Zm0,13.13v.37h.55v-.37Zm.92-5.92v.37l.37.37,1.11-.92-.37-.37H403Zm.18-10.17v.19H403l.18-.19h.18l-.18-.55Zm1.29.74v.19l.37.37v-.55Zm1.11,12.76v.55h.55v-.19l-.37-.37Zm1.48-9.24-.18.55h.18l.37-.37v-.18Zm0,9.06v.37h.55v-.37Zm.74-5.73v.55l.37-.37V54Zm0,1.48v.19l.19.55H408V56Zm14.05-22q0,.79,2,1.85l.37-.37,1.48.19v-.74l1.11.19.55-.19.18.19v.18l-2,1.11h-.92l-.19.55-.55-.37-.18.19-1.11-.19-2,.19-.37-.37h-.19v.92L418,36.42l-.37.37-.18-.19h-.19l-.74.19-2-.92v.19l.19.74V37l-.19.19.19.55,3-.37.55.18v.37q-2.59.23-2.59.74l-.92-.18-1.11.37-.92-.19v.92l-.92-.19h-.18a3.09,3.09,0,0,0-1.29,2l-.92-.18.37,1.11-.92.18q-.56-.18-.55-1.11l.92-.74.55.18.55-2.59-.19-.19V37.9l.19-.74,1.29.19V37l.92.19q0-.74.55-.74l.92-.74-.37-.37v-.18l.55-.19.55.19.37-.74h.19l.18.92-.18.55.18.19h.18l.19-.19.37.37h.74l2.22-1.29v-.37l-.19-.19v-.19Zm-12.2-15.53h.55v.18l-.37.37-.18-.19Zm.74,17.93v.55h-.37v-.18Zm1.85-14.42h.55l.37.37-.92.18Zm.92-1.11,1.11.19.18-.19h.19l.18.74h.55q0-.55.37-.55v.19l-.19.18.37.74L415,22.74v.92h-.18q-.88-.18-2-2l.55-.19v-.18l-.37-.37-.19.19-.55-.19v-.18Zm.18,17.38.92.55.18-.19v-.37l-.37-.37h-.37Zm3-17.75H416l1.29.37v.37h-.55Zm2.59.37-.37.37h-.55v-.19Zm2.77,16.27.19.19h.18l1.11-.19q0,.42.55.37l2.4-.18q0,1.06-2.4,1.48l-.55-.19-1.48.55h-.74q-1.2,0-1.48-.74h-.37v-.19l1.29-.74h.37c0,.37.12.55.37.55h.19C420.77,36.92,420.89,36.61,421.14,36.61Zm-1.29-16.46,1.85.37v.37H420.4v.37H420l-1.11-.92Zm2.22,9.06h.37V30l-.37.37h-.55V30l-1.29.37-.19-.18V30l1.85-.55Zm.37,4.25h.18a1,1,0,0,1,1.11,1.11v.18h-.55l-.74-.92Zm.74-12.94h.37l.37.37-.18.19h-.18l-.74-.19Zm3.33,8h.74v.37L425,29h-.55l-.37,1.29h-.19l-1.11-1.11Q423.36,28.48,426.5,28.47Zm-1.85,1.29.55.19v.37h-.74v-.18l.19-.19Zm1.29,6.84h.55l.18.19V37h-.18l-.55-.18Zm.55-10q1.11.19,1.11.55l-.18.19h-.37l-.55-.55Zm2.4-3.33.55.55v.37l-.92-.18v-.37Z"/></g></g></svg>