<svg xmlns="http://www.w3.org/2000/svg" viewBox="0 0 438.62 87.07"><defs><style>.cls-1{fill:#f4c215;}.cls-2{fill:#fff;}</style></defs><title>Asset 3</title><g id="Layer_2" data-name="Layer 2"><g id="Layer_4" data-name="Layer 4"><path class="cls-1" d="M4.7,43.49H0V41.28H4.7Zm6.43,43.58H6.43V84.86h4.7ZM37,59A12.21,12.21,0,0,1,31.49,69.6a14.88,14.88,0,0,1-8.64,2.88q-13,0-15.36-12.38a6.9,6.9,0,0,1,5.09-1.73q1.44,0,4.42,2.5t4.61,2.5a7.32,7.32,0,0,0,5.09-2V56.16q0-3.46-5.57-3.46.19-.09,1.73-1.34a8.33,8.33,0,0,0-4.22-.86,14.53,14.53,0,0,1-4.32-.29q-2-.58-4.42-4.85t-2.4-7Q7.49,34.66,12,30,16.9,25,22.18,25q4.13,0,8.54,3.87,5,4.45,4.7,10.15H26.88q-.58-2.3-5.86-4.9L18.91,35.9a5.09,5.09,0,0,0-1.15,3.26q0,3.65,5,5.66Q31.3,48.29,32,48.77,37,52.13,37,59Zm4.9,20.26H38.4V77.09h3.46Z"/><path class="cls-1" d="M68.45,73H59.62q-1.15.09-1.15-.5a2,2,0,0,1,.24-.7,2,2,0,0,0,.24-.8c0-.33-.42-.5-1.25-.5a6.54,6.54,0,0,0-3.22,1.25A7.11,7.11,0,0,1,50.69,73q-3.55,0-8.54-2.78Q41.09,64.05,40,53.8q-.86-9.2-.86-12.07,0-1.05.72-7a81,81,0,0,0,.72-8.81h8.64a54.32,54.32,0,0,1,.48,7.47q0,3.06-.38,8.67T49,50.15q0,9,3.74,14h3.65q.38-.48,1.54-2.2.67-6.89.67-36h9.89Zm-23-56.54H49v1.34H45.41Zm4-1.44h6.62v.86H49.44Zm7.49,27.84H53.47V40.61h3.46Z"/><path class="cls-1" d="M100.13,64.57q.09,4.1-6.43,6.48a21.72,21.72,0,0,1-6.91,1.62q-9.79,0-13.06-10.54-1.63-5.36-1.63-15.62a30.88,30.88,0,0,1,2.5-12.93q3.74-8.14,12.19-8.14,2.4,0,6.72,2.3,5.09,2.69,6.62,5.86v7H91.39q.48-2.3-3.55-6.24l-9.41.86q.86.86,5.09.86l-1.34,1.63v24q.77.67,1.64,1.34a4.82,4.82,0,0,0,2.9.67,3.25,3.25,0,0,0,3-1.6q1-1.6,1.83-3.3h8.59Zm12.67-37.4h-8.54V25h8.54Z"/><path class="cls-1" d="M132,64.57q.09,4.1-6.43,6.48a21.72,21.72,0,0,1-6.91,1.62q-9.79,0-13.06-10.54Q104,56.77,104,46.52a30.88,30.88,0,0,1,2.5-12.93q3.74-8.14,12.19-8.14,2.4,0,6.72,2.3,5.09,2.69,6.62,5.86v7h-8.74q.48-2.3-3.55-6.24l-9.41.86q.86.86,5.09.86L114,37.72v24q.77.67,1.64,1.34a4.82,4.82,0,0,0,2.9.67,3.25,3.25,0,0,0,3-1.6q1-1.6,1.83-3.3H132Zm12.67-37.4h-8.54V25h8.54Z"/><path class="cls-1" d="M165.12,52.7H146v9.52a17.36,17.36,0,0,0,1.62,1.43,5,5,0,0,0,3,.67,3.56,3.56,0,0,0,3-1.51q.19-.19,1.81-3.29h8.5v5.76q.09,4-6.53,6.53a22.31,22.31,0,0,1-6.82,1.63,14.63,14.63,0,0,1-5.66-.77q-3.65-1.53-7.68-7.39V59.52q6,.29,7.58-.77-1.73-.86-8.83-.86V44.74a20.44,20.44,0,0,1,3.65-12.58Q144,26,152.44,26q3.07,0,5.18,3.26.48.77,3.07,6.24Q162.33,39,164,39.36Zm-10.27-6.34V38a30.64,30.64,0,0,1-4.32-2.86A30.9,30.9,0,0,0,146.21,38v8.38Z"/><path class="cls-1" d="M165.79,43.49h-4.7V41.28h4.7Zm6.43,43.58h-4.7V84.86h4.7ZM198,59a12.21,12.21,0,0,1-5.47,10.56,14.88,14.88,0,0,1-8.64,2.88q-13,0-15.36-12.38a6.9,6.9,0,0,1,5.09-1.73q1.44,0,4.42,2.5t4.61,2.5a7.32,7.32,0,0,0,5.09-2V56.16q0-3.46-5.57-3.46.19-.09,1.73-1.34a8.33,8.33,0,0,0-4.22-.86,14.53,14.53,0,0,1-4.32-.29q-2-.58-4.42-4.85t-2.4-7q0-3.74,4.51-8.35Q178,25,183.26,25q4.13,0,8.54,3.87,5,4.45,4.7,10.15H188q-.58-2.3-5.86-4.9L180,35.9a5.09,5.09,0,0,0-1.15,3.26q0,3.65,5,5.66,8.54,3.46,9.22,3.94Q198,52.13,198,59Zm4.9,20.26h-3.46V77.09h3.46Z"/><path class="cls-1" d="M198.43,43.49h-4.7V41.28h4.7Zm6.43,43.58h-4.7V84.86h4.7Zm25.82-28a12.21,12.21,0,0,1-5.47,10.56,14.88,14.88,0,0,1-8.64,2.88q-13,0-15.36-12.38a6.9,6.9,0,0,1,5.09-1.73q1.44,0,4.42,2.5t4.61,2.5a7.32,7.32,0,0,0,5.09-2V56.16q0-3.46-5.57-3.46.19-.09,1.73-1.34a8.33,8.33,0,0,0-4.22-.86,14.53,14.53,0,0,1-4.32-.29q-2-.58-4.42-4.85t-2.4-7q0-3.74,4.51-8.35Q210.62,25,215.9,25q4.13,0,8.54,3.87,5,4.45,4.7,10.15H220.6q-.58-2.3-5.86-4.9l-2.11,1.82a5.09,5.09,0,0,0-1.15,3.26q0,3.65,5,5.66,8.54,3.46,9.22,3.94Q230.68,52.13,230.68,59Zm4.9,20.26h-3.46V77.09h3.46Z"/><path class="cls-2" d="M253.34,59.52h-4.7V57.31h4.7ZM288,68.83a26.1,26.1,0,0,0-1.82,2.5,24.85,24.85,0,0,1-5.09.86q-1.44,0-1.73-.67a3.78,3.78,0,0,1-1.06-1.73A4.6,4.6,0,0,0,277.24,68q-3.55,3.84-7,3.84-11.52,0-11.52-12.77A16.86,16.86,0,0,1,262,48.58a12,12,0,0,1,10.18-4.9q3.84,0,5.18,1.25l.67-.86V36.67q-.77-1.05-1.69-2.16a3.62,3.62,0,0,0-2.94-1.1,4.23,4.23,0,0,0-3.33,1.49,5,5,0,0,0-1.3,3.41h-10a17.8,17.8,0,0,1,5.44-9.84,13.34,13.34,0,0,1,9.2-4q4.91,0,10.31,4a1.49,1.49,0,0,1,.19.58,2.12,2.12,0,0,1-.58,1.2,5.16,5.16,0,0,0-.77,1.2,1.36,1.36,0,0,0,1.34.86h2.78q0,4.51-.1,5.76a8.52,8.52,0,0,1-2.21,4.9q.77.86,3.65.86ZM277.72,51.55A11.85,11.85,0,0,0,271,54q-3.49,2.5-3.49,5.66a3.44,3.44,0,0,0,1,2.83l2,1.58h5.81Z"/><path class="cls-2" d="M279.83,43.2h-3.46V41h3.46Zm26.59,25.92a5.87,5.87,0,0,0-1,2.88H300q-8.74.09-8.74-25.44,0-3.26.38-11,0-.58.09-11.9T291.83,7h9.79q0,4.42-.58,14.11t-.58,10.66q0,21.41,1.63,29.38a13.81,13.81,0,0,0,2.69,4.22Q306.81,68,306.43,69.12Zm4.13-66.91H307.1V0h3.46Z"/><path class="cls-2" d="M301,59.52h-4.7V57.31H301Zm34.66,9.31a26.1,26.1,0,0,0-1.82,2.5,24.85,24.85,0,0,1-5.09.86q-1.44,0-1.73-.67a3.78,3.78,0,0,1-1.06-1.73A4.6,4.6,0,0,0,324.86,68q-3.55,3.84-7,3.84-11.52,0-11.52-12.77a16.86,16.86,0,0,1,3.26-10.46,12,12,0,0,1,10.18-4.9q3.84,0,5.18,1.25l.67-.86V36.67q-.77-1.05-1.69-2.16a3.62,3.62,0,0,0-2.94-1.1,4.23,4.23,0,0,0-3.33,1.49,5,5,0,0,0-1.3,3.41h-10a17.8,17.8,0,0,1,5.44-9.84,13.34,13.34,0,0,1,9.2-4q4.91,0,10.31,4a1.49,1.49,0,0,1,.19.58,2.12,2.12,0,0,1-.58,1.2,5.16,5.16,0,0,0-.77,1.2,1.36,1.36,0,0,0,1.34.86h2.78q0,4.51-.1,5.76A8.52,8.52,0,0,1,332,43q.77.86,3.65.86ZM325.34,51.55a11.85,11.85,0,0,0-6.69,2.4q-3.49,2.5-3.49,5.66a3.44,3.44,0,0,0,1,2.83l2,1.58H324Z"/><path class="cls-2" d="M337.34,43.49h-4.7V41.28h4.7Zm6.43,43.58h-4.7V84.86h4.7Zm25.82-28a12.21,12.21,0,0,1-5.47,10.56,14.88,14.88,0,0,1-8.64,2.88q-13,0-15.36-12.38a6.9,6.9,0,0,1,5.09-1.73q1.44,0,4.42,2.5t4.61,2.5a7.32,7.32,0,0,0,5.09-2V56.16q0-3.46-5.57-3.46.19-.09,1.73-1.34a8.33,8.33,0,0,0-4.22-.86,14.53,14.53,0,0,1-4.32-.29q-2-.58-4.42-4.85t-2.4-7q0-3.74,4.51-8.35Q349.53,25,354.81,25q4.13,0,8.54,3.87,5,4.45,4.7,10.15h-8.54q-.58-2.3-5.86-4.9l-2.11,1.82a5.09,5.09,0,0,0-1.15,3.26q0,3.65,5,5.66,8.54,3.46,9.22,3.94Q369.59,52.13,369.59,59Zm4.9,20.26H371V77.09h3.46Z"/><path class="cls-2" d="M404.15,72.19A11.17,11.17,0,0,1,399,73.82q-3.36,0-5.66-3.84a67.68,67.68,0,0,1-3.46-8.35,32.35,32.35,0,0,0-4.13-8.35,47.38,47.38,0,0,1-4.51,6v3.46h5.18l-5.18.58v9h-8.64q0-1.63-.58-6.72a74.92,74.92,0,0,1-.58-7.87A17.63,17.63,0,0,0,370.6,52q-.81-2.4-.82-2c0-1,.12-1.44.37-1.44a1.09,1.09,0,0,1,.5.19,1.21,1.21,0,0,0,.41.19c.12,0,.21-.1.28-.29A75.39,75.39,0,0,0,371.71,36q-.18-9.31.09-12.86.44-5.09.77-15.74h9.7a192.23,192.23,0,0,0-1.06,19.87q0,8.74.79,17.09,1.08-1.73,5.11-9.22a55.7,55.7,0,0,1,6.29-9.89h8.26q-.67,3.46-5.57,11-4.51,7.2-4.51,8.64,0,1.73,3.07,7.87,4.41,8.74,4.8,9.7a5.58,5.58,0,0,0,4.7,2.5ZM388.79,84.48h-6V82.27h6Zm4.61-8.06h7.1v1.15h-7.1Zm13.15-34.18h2v1.44h-2Z"/><path class="cls-2" d="M404,59.52h-4.7V57.31H404Zm34.66,9.31a26.1,26.1,0,0,0-1.82,2.5,24.85,24.85,0,0,1-5.09.86q-1.44,0-1.73-.67a3.78,3.78,0,0,1-1.06-1.73A4.6,4.6,0,0,0,427.86,68q-3.55,3.84-7,3.84-11.52,0-11.52-12.77a16.86,16.86,0,0,1,3.26-10.46,12,12,0,0,1,10.18-4.9q3.84,0,5.18,1.25l.67-.86V36.67q-.77-1.05-1.69-2.16a3.62,3.62,0,0,0-2.94-1.1,4.23,4.23,0,0,0-3.33,1.49,5,5,0,0,0-1.3,3.41h-10a17.8,17.8,0,0,1,5.44-9.84,13.34,13.34,0,0,1,9.2-4q4.91,0,10.31,4a1.49,1.49,0,0,1,.19.58,2.12,2.12,0,0,1-.58,1.2,5.16,5.16,0,0,0-.77,1.2,1.36,1.36,0,0,0,1.34.86h2.78q0,4.51-.1,5.76A8.52,8.52,0,0,1,435,43q.77.86,3.65.86ZM428.34,51.55a11.85,11.85,0,0,0-6.69,2.4q-3.49,2.5-3.49,5.66a3.44,3.44,0,0,0,1,2.83l2,1.58H427Z"/></g></g></svg>