<svg xmlns="http://www.w3.org/2000/svg" viewBox="0 0 614.15 39.84"><defs><style>.cls-1{fill:#f4c215;}.cls-2{fill:#fff;}</style></defs><title>Asset 2</title><g id="Layer_2" data-name="Layer 2"><g id="Layer_4" data-name="Layer 4"><path class="cls-1" d="M0,6.64H39.84V10H0ZM0,10H3.32l0,10.89L0,17.53ZM0,36.52H36.52v3.32H0Zm0,3.32H0ZM39.78,25.57v3.32L0,20.85V17.53Zm-3.32,0,3.32,3.32.07,11H36.52Z"/><path class="cls-1" d="M48.26,6.64h3.32v33.2H48.26Zm3.32,29.88H88.11v3.32H51.58ZM84.79,6.64h3.32V36.52H84.79Z"/><path class="cls-1" d="M96.53,6.64h39.84V10H96.53Zm0,3.32h3.32V39.84H96.53Zm3.32,26.56h36.52v3.32H99.85Z"/><path class="cls-1" d="M144.79,6.64h39.84V10H144.79Zm0,3.32h3.32V39.84h-3.32Zm3.32,26.56h36.52v3.32H148.11Z"/><path class="cls-1" d="M196.38,36.52h-3.32V6.64h3.32Zm36.52,3.32H193.06V36.52H232.9Zm0-29.88H196.38V6.64H232.9ZM208.1,36.59,203,36.52,229.58,16.6l3.32,2.09Zm24.8-17.9-3.32-2.09V10h3.32Z"/><path class="cls-1" d="M241.32,6.64h39.84V10H241.32Zm0,3.32h3.32l0,10.89-3.32-3.32Zm0,26.56h36.52v3.32H241.32Zm0,3.32h0ZM281.1,25.57v3.32l-39.74-8V17.53Zm-3.32,0,3.32,3.32.07,11h-3.32Z"/><path class="cls-1" d="M289.58,6.64h39.84V10H289.58Zm0,3.32h3.32l0,10.89-3.32-3.32Zm0,26.56h36.52v3.32H289.58Zm0,3.32h0Zm39.78-14.28v3.32l-39.74-8V17.53Zm-3.32,0,3.32,3.32.07,11h-3.32Z"/><path class="cls-2" d="M369.51,6.64h39.84V10H369.51Zm24.8,3.25,5.08.07L372.83,29.88l-3.32-2.09Zm-24.8,17.9,3.32,2.09v6.64h-3.32Zm0,8.73H406v3.32H369.51ZM406,10h3.32V39.84H406Z"/><path class="cls-2" d="M417.78,0h3.32V39.84h-3.32Z"/><path class="cls-2" d="M429.52,6.64h39.84V10H429.52Zm24.8,3.25,5.08.07L432.84,29.88l-3.32-2.09Zm-24.8,17.9,3.32,2.09v6.64h-3.32Zm0,8.73H466v3.32H429.52ZM466,10h3.32V39.84H466Z"/><path class="cls-2" d="M477.78,6.64h39.84V10H477.78Zm0,3.32h3.32l0,10.89-3.32-3.32Zm0,26.56H514.3v3.32H477.78Zm0,3.32h0Zm39.78-14.28v3.32l-39.74-8V17.53Zm-3.32,0,3.32,3.32.07,11H514.3Z"/><path class="cls-2" d="M526,0h3.32V39.84H526Zm2.89,10.56,37,29.29h-5L526,13.28Zm.43-3.92h36.52V10H529.36Z"/><path class="cls-2" d="M574.31,6.64h39.84V10H574.31Zm24.8,3.25,5.08.07L577.63,29.88l-3.32-2.09Zm-24.8,17.9,3.32,2.09v6.64h-3.32Zm0,8.73h36.52v3.32H574.31ZM610.83,10h3.32V39.84h-3.32Z"/></g></g></svg>