<svg xmlns="http://www.w3.org/2000/svg" viewBox="0 0 512.88 81.86"><defs><style>.cls-1{fill:#f4c215;}.cls-2{fill:#fff;}</style></defs><title>Asset 2</title><g id="Layer_2" data-name="Layer 2"><g id="Layer_4" data-name="Layer 4"><path class="cls-1" d="M1.85.37l.74.19V.74q0,.37-2.59.74V1.29Q0,.88,1.85.37ZM4.62,37.9v.55H4.25v-.19ZM5,0l.74.19V.55L5.36.92Q4.44.69,4.44.37V.19ZM7.77.74h.55l.19.92H8ZM16.09,55.1q.55,0,.55.92l.74.55-.55.19a11.24,11.24,0,0,0,2,6.1v.37l-.19,1.11L19,66l-.37,2.59.19.55L18.12,71h-.18l-1.11-.55-.19.55h-.19a7.44,7.44,0,0,1-4.25-3.33l.19-1.11L12,66.19h.19l.55.37.19-.19h.18A2.53,2.53,0,0,0,12,65.08h-.18q-.37,0-.37,1.11h-.37q-1.57-1.62-2.77-6.1l.37-.37A1,1,0,0,1,8,58.61v-.18q0-2,1.11-2,.92,0,.92-.74l.19.18h.18l2-.37.74.19A6.59,6.59,0,0,1,16.09,55.1Zm2-42.34h.37l.92,1.11a4.54,4.54,0,0,1-.55,2.4l.55.74-.19.19v.19l.37,1.11-.19.55.19.92A10.87,10.87,0,0,1,18.12,24a5.72,5.72,0,0,0-.37,2.4v.37q0,2.22,2,7l-.37.37c-.25,0-.37-.18-.37-.55h-.37l-.18.19H18.3q-.14-.92-.55-.92-.6,0-.92,1.85l.55.19v-.19l.18.19h1.11l.19.74-.19.18.19.92v1.48l.55.19.19-.19v.92l-.55.55v-.37h-.19v.55L19,41q-.23,3-.74,3a34.56,34.56,0,0,1-7.21-7.77A8.21,8.21,0,0,1,10.17,32v-.55l-.37-.37v1.48H9.61q-.93,0-1.11-4.81l1.11-.37-.19.18v.37l.19.18v.19l-.37.37v.19h.37v.92l.37.37V30L9.8,28.29l.37-.37q-.37-.32-.37-1.85l-.18-.19H9.43L9.24,27a1.86,1.86,0,0,1-.92-1.85,7,7,0,0,0,.55-2.77h.37l-.18.55.37,2.4h.19L10,23.11l-.37-.74A5.22,5.22,0,0,1,10.54,19l.19.18h.55l-.19-1.29a12.53,12.53,0,0,1,6.29-5ZM8.88.55l.37.37-.18.19v.19l-.55-.19V.92ZM10,.92h.55l-.37.37H10Zm.37,56.95v.55h.37v-.55Zm.74,1.48v.55h.37v-.55Zm.37-27.18v.55h.37l.37-.37v-.19Zm1.29-13.5v.19q0,.42,2,.92l-.18-.18V19l.18-.19v-.19l-.37-.37v-.55l.19-.19v-.18h-.37A3.92,3.92,0,0,0,12.76,18.67ZM13.13,56v.92h.37v-.55ZM17,2.59l.19.19V3l-1.48.74-.19-.18h-.19l-1.11.18-.92-.37V3.14L13.5,3V2.77l.18.19h.55l1.11-.19L15.9,3Zm-3,57.69.18,1.29h.19l.19-.92-.37-.37Zm1.11-44.74v.19h.74v-.19l-.37-.37ZM15.72,22v.55h.37V22Zm.74-6.66v.55l.55.55.37-.55L17.2,15h-.37Zm1.66,56.21h.19l.37.37h-.18Zm0,1.66.37.37v.19h-.37Zm2.4-38.83,1.11,1.48-1.48,1.29q-.42,0-.74-1.85ZM20,42h.37a3.71,3.71,0,0,1,2,3.33l.18.19v.37c-.25,0-.37.19-.37.55l-.19.74-.18.19h-.19l-2.22-2.22v-.37h1.11v-.37a2.72,2.72,0,0,1-.92-2Zm1.85-30a23,23,0,0,1,9.8,2.59l.55-.19a2,2,0,0,0,2,1.11l.19.19v.18l-.92.74q1.62,1.66,2.22,1.66,0,1.29,1.85,1.29a1.31,1.31,0,0,0,1.29.92l.37-.37h.55L39,21.26l.55.18v.37H39.2q0,.55-1.29,1.11l-.19-.19H36.42v.55a2.71,2.71,0,0,0,.74,1.48V25a2,2,0,0,1-2,.92q-.37,0-.37.55l-.18.19H31.8q-.93,0-.92.37l-.18-.18h-.19l-1.11.37V27l-.19.19H28.1v-.37l.19-.92q-.46,0-1.29-3-.6-1.43-4.07-3v-.19L22,20a1.61,1.61,0,0,1-1.11-1.48l.19-1.66-.19-.92.37-.37v-.37a2.13,2.13,0,0,1-.55-1.29V12.57Q20.71,12.25,21.82,12ZM22,37.72h.19v.19l-.37.37h-.19v-.19Zm2.4.55h.37A41.2,41.2,0,0,1,34,47.7a9.5,9.5,0,0,0,1.66,2.77l.18,1.11q0,.93-1.29.92v.19l.92.55h.55v-.37q1.06,0,1.29,5.18.18,4.25-3.14,9.8a.87.87,0,0,0-.92.74l-.19-.18h-.55l.19.92q-3.79,2.77-5.36,2.77l-.19-.19H27l-.74.19h-.19v-.55l-.74.92H24l-.55-.37-1.11.37L22,71.19l.37-.55a4.62,4.62,0,0,1-.74-2.77q0-3.51,1.11-3.51a6.88,6.88,0,0,0,4.44-2,7.88,7.88,0,0,0,1.48,2.77v-.37a11.17,11.17,0,0,1-.92-3.88q.55-.79.55-4.07H28.1l.19-.19v-.19a12.83,12.83,0,0,0-3-5.55l.19-.92v-.37q-.74,0-.74-1.48l-.18-.55h-.19l.37-2-.37-.37V44a2.27,2.27,0,0,1,1.66-2.22l.19-.19v-.19l-.19-.55h.55v-.55Q25.1,40.31,24.41,38.27Zm.37-21.45-.18-.19h-.37q-1.66.32-1.66.74v.37l1.29.19,1.85-1.11,1.11.18H27l-1.48-.74h-.19ZM23.85,66v.19l.37.37.19-.19v-.18L24.22,66ZM25,69.71l-.19.92v.74H25l.37-.37V69.71Zm.37-22-.37.74.55.18.19-.18v-.37Zm1.29,1.11-.37.55v.37l.37.37h.55l.74-.37A1.22,1.22,0,0,0,26.63,48.81ZM28.29,22v.55h.19l.37-.37V22Zm.92,41.6V64h.19l.37-.37Zm.37-14.24v.19l.74.74h.37v-.74Zm0,13.13v.37h.55v-.37Zm.92-5.92v.37l.37.37L32,56.39,31.62,56h-.55Zm.19-10.17v.19h.37l.19-.19h.18l-.18-.55Zm1.29.74v.19l.37.37v-.55ZM33.1,59.91v.55h.55v-.19l-.37-.37Zm1.48-9.24-.19.55h.19l.37-.37v-.18Zm0,9.06v.37h.55v-.37ZM35.31,54v.55l.37-.37V54Zm0,1.48v.19l.19.55h.55V56Zm14.05-22q0,.79,2,1.85l.37-.37,1.48.19v-.74l1.11.19.55-.19.19.19v.18l-2,1.11h-.92l-.19.55-.55-.37-.18.19-1.11-.19-2,.19-.37-.37h-.19v.92L46,36.42l-.37.37-.19-.19H45.3l-.74.19-2-.92v.19l.19.74V37l-.19.19.19.55,3-.37.55.18v.37q-2.59.23-2.59.74l-.92-.18-1.11.37-.92-.19v.92l-.92-.19h-.18a3.09,3.09,0,0,0-1.29,2l-.92-.18.37,1.11-.92.18q-.56-.18-.55-1.11l.92-.74.55.18.55-2.59-.19-.19V37.9l.19-.74,1.29.19V37l.92.19q0-.74.55-.74l.92-.74-.37-.37v-.18l.55-.19.55.19.37-.74h.19l.19.92-.19.55.19.19h.18l.19-.19.37.37h.74l2.22-1.29v-.37L47,34.39v-.19ZM37.16,17.94h.55v.18l-.37.37-.19-.19Zm.74,17.93v.55h-.37v-.18Zm1.85-14.42h.55l.37.37-.92.18Zm.92-1.11,1.11.19.18-.19h.19l.19.74h.55c0-.37.12-.55.37-.55v.19l-.19.18.37.74-.37,1.11v.92H42.9q-.88-.18-2-2l.55-.19v-.18L41,20.89l-.19.19-.55-.19v-.18Zm.18,17.38.92.55.18-.19v-.37l-.37-.37h-.37Zm3-17.75H44l1.29.37v.37h-.55Zm2.59.37-.37.37h-.55v-.19Zm2.77,16.27.19.19h.19l1.11-.19q0,.42.55.37l2.4-.18q0,1.06-2.4,1.48l-.55-.19-1.48.55h-.74q-1.2,0-1.48-.74h-.37v-.19L47.89,37h.37c0,.37.12.55.37.55h.19Q48.81,36.61,49.18,36.61ZM47.89,20.15l1.85.37v.37H48.44v.37h-.37L47,20.34Zm2.22,9.06h.37V30l-.37.37h-.55V30l-1.29.37-.19-.18V30l1.85-.55Zm.37,4.25h.19a1,1,0,0,1,1.11,1.11v.18h-.55l-.74-.92Zm.74-12.94h.37l.37.37-.18.19h-.19l-.74-.19Zm3.33,8h.74v.37L53.06,29h-.55l-.37,1.29H52l-1.11-1.11Q51.4,28.48,54.54,28.47ZM52.7,29.77l.55.19v.37h-.74v-.18L52.7,30ZM54,36.61h.55l.18.19V37h-.18L54,36.79Zm.55-10q1.11.19,1.11.55l-.19.19H55.1l-.55-.55Zm2.4-3.33.55.55v.37L56.58,24v-.37Z"/><path class="cls-1" d="M48.09,13.59l.92.19,2.4-.19.37.55v4.62l.37.37.18-.74-.18-1.29v-3l.55-.55h.55l2.22.19.18-.19.74,2.4L56,17.29l.18.19L56,18.4v2.4l-.19.74L56,22.83V36.89l.18,4.44L56,42.43l.18,1.48-.18.74.18,3v3L56,53.34h-.19q-.6-3-.92-3v.37l.37,1.85q-.37.09-.74.92,1.2,0,1.66,3.88-.09,1.66-.37,1.66l-.74.19-.74-.19h-.19v.37h.19q1.34,0,2.73,2l2.27,3.33-1.29,1.11.19.74h.18q.37,0,.37-.92l.92.19.55-.19.37.74-.55.55v.37q0,.55.74.55L62,67.58q.09.74.55.74l.55-.18,1.11.18h.37l.19-.18h.19v.18l-.19.55.19.19h.18l.74-.74-.19-.74h.19l.92.18V67H65.28l-.55.37H64L63.62,67l2-1.29v-.55A1.74,1.74,0,0,1,64,64.44l-1.29.19h-.37v-.19Q65.1,63,65.1,62.59q.69,0,1.29-3.88v-.37l-.19-2.59.37-.92-.37-1.11v-.19l.19-.19-.19-.18V48.54L66,47.61l.37-.37-.74-.37.19-.92q-.55,0-.55-.37l.92-2.22V38l.19-3.33-.19-1.11.19-1.66-.19-3.14.19-.19v-.19l-.19-.74.19-3.7-.92-.74.55-.37h.55l.55.92v.55l-.37.55.19.18h.19l.18-.74.19.18h.19l.18-.18v1.29h.19l.55-.55V24.5l-.74-.18.19-.19v-.19l-.19-1.29.74-.55v-.19l-1.11-.74h-.19V21l.37-.55a.49.49,0,0,0-.55-.55l-.19-.19v-.19l-.19.19h-.18l-.37-.37.37-1.11-.19-.92.92-.37v-.55h-.55q.28-.74.55-.74h.55L69,16.73h.19q0-.42,1.29-1.85v-.55l-.19-.55h2.4l.18-.19q2.59,0,2.59,1.85v4.44l.37,1.85h-.19q.69,1.85,1.85,1.85l.19-.19.18.19v.37l-.18.19q-1.29.6-1.29.92.92.23.92.55,0,.51-1.66.74v.37h-.18l.18.55.92-.18q0,.93,1.48.92l.55.55q-1.48,0-1.48.92H75.82v-.37h-.19v1.29l.19.92-.19,1.11v3.14l.19.92-.19,1.11v2.59a3.44,3.44,0,0,0,.55,2.22l-.55.19v3l.19,1.11-.19.92v.18l.37.55-.37,1.11v4.62l-.18.92.18,1.11v4.07A10.53,10.53,0,0,1,74,65.92l.19.55h.19q1,0,1.11-.55l-.19-.19v-.19l1.85-.74v.37q-.6,0-.74,1.29l-.92.37h-.37l-.18-.19a5.26,5.26,0,0,0-2.77,1.85q-.37,0-.74.92-4.48,3.7-8.69,3.7l-.74.18h-.19a2.39,2.39,0,0,1-1.48-.74h-.92l-.55.37q-3.28-.32-7.58-3.88-1.66-1.94-1.66-2.77l.19-.19q-1.29,0-2.4-5.55l.19-1.11-.19-.55.19-.74-.19-2.77.55-.92a2.13,2.13,0,0,1-.55-1.29V50.57q0-.37.74-.37v-.55q-.74,0-.74-.55v-3l.37-.55v-.37l-.37-.55v-.74l.92-2.4h-.19l-.55.18v-.18l-.19-.19.19-.19v-.92L47.35,40l.19-.18v-.74l-.19-.19q0-1.11,1.48-1.11l.55.19v-.19l-.19-.55q0-1.8,3-3.14a1.08,1.08,0,0,1,.74,1.11h.19l.55-.55h.19v-.55l-.55-.19.18-.55-.55-.18v-.37l.37-.55-.37-1.11.37-.55v-.18q-.56,0-.55-.37l.18-1.29-.37-.92.55-.92-.74-2,.55-.19V24.5a2.13,2.13,0,0,1-.55-1.29l.19-1.85-.37-1.66H52v.37h-.19l.19.55-.19.92L52,22.83l-.19.19H51.6L51,22.65l-.55.37h-.37l-.37-.37v-.19l.37-.55v-.37l-.74-.74-.55.92.55.74-.19.74.55,1.11a1.55,1.55,0,0,0-.92,1.48h1.11q0-.6.92-1.11h.37q0,1.11.74,1.11a2.13,2.13,0,0,0-.55,1.29v.55l.19-.19h.55v.19L52,28.94,52.53,30l-.37.37.18.18v.55h-.55v.19l.55.74v.18l-.18.19v.19l.55.18v.37l-.74.74-.19-.18H51.6l-.92.18L50.49,33h-.55v.19h.37v.18a1.4,1.4,0,0,1-.55,1.11l-1.29-.74c-.25,0-.37.18-.37.55l-.19.18h-.18l-.37-.37v-.74l.19-.18V33h-.19l.19-.19v-.18l-.37-1.11.37-1.11-.19-1.11v-.19l.55-.19-.55-1.66.19-.92,1.11.37v-.18l-1.29-1.11-.18-2,.18-.55-.18-.92.18-2-.18-.74.18-.19v-.18l-.18-1.29.18-.92-.18-1.85v-.37Q47.26,14,48.09,13.59Zm.37,15.9v.37q0,.46,2,.92V31H51V30.6h.18a2.7,2.7,0,0,1-.55-1.66l-1.11-.37ZM48.64,41l.19.55h.74L49,40.77l-.18.19ZM49,48.54v.55h.37v-.55Zm1.29-6.84.19.55a1.91,1.91,0,0,1-1.29.37v.55l.37.55q.51,0,1.85-1.85v-.55h-.74Zm-.92,4.07.74,1.29q-.93.23-.92.55l.74.37q.74-.09.74-1.48v-.37L50.31,45Zm.55-17.56.18.18.55-.18-.37-.37ZM50.49,36l.18.18h.19l.55-.55-.19-.18ZM50.86,52l1.29.37v-.19l.18-.18q-.28-.74-.55-.74Zm0,11.83.19.55.37-.37v-.19Zm.37-19v.37h.37l.37-.37-.37-.37Zm.19,21.08v.18l.37.37.55-.19v-.37H52v-.19Zm.19-42.34H52v.55H51.6Zm.92,27.55v.19l.37.37.55-.18v-.55Zm0,4.25v.55h.55v-.55Zm0,5.73.19.55h.55v-.74H52.9l-.18.18Zm.55-25.7-.37.92L53.08,38v1.85l-.19.92.92.37V40l-.19-.18.19-.19v-.19l-.37-1.85.19-.19h.19l.18.19q.74-.28.74-.55l-.37-1.66Zm.55,28.1.37.74h-.18l-.92-.19v1.11l.37.37h.37a2.85,2.85,0,0,1,.92-1.66V63.7l-.18-.19v-.19Zm0-22-.19.55q.32,2.22.74,2.22Q54.05,41.51,53.64,41.51ZM54,30.6V31h.55V30.6Zm0,14.24v.55l.19.18-.19.19v.74l.37.55V48h.37Q54.51,44.84,54,44.84Zm0,20.89v.37l.37.37h.18v-.74Zm.19-38.09.19,1.29h.18l.37-.37v-.92l-.37-.37Zm0,33.84v.37a1.49,1.49,0,0,1,1.11.74l.19-.55-.37-.92h-.55Zm.55,6.1-.55.74v.19l.92-.19v-.37Zm.37,1.29.37.37h.18v-.37Zm.55,1.29v.19l.19.18-.19.19v.37q0,.42.92.55,0-.32,1.11-.74v-.19l-.55-.19-.19.19-.19-.19v-.18l.55-.19v-.55A2.71,2.71,0,0,1,55.67,70.17Zm3.14-.74h-.92a2.4,2.4,0,0,0,1.29,2.22h.19l.37-.37v-.19l1.11.37q0-.32-1.85-1.11V70l.37-.55v-.37Zm-.19-1.66h.55q.28,0,.55-.74h-.19ZM60.29,70l.55.55a.87.87,0,0,0,.74-.92H61Zm2.77-.55v.19h.74l.37-.37v-.19h-.74Zm5-13.5v.18q2.68,7.9,3.33,8.32v-.18l-.92-3.14L68.8,57q0-1-.55-1.11Zm.55,12.76v.18H69v-.55Zm.55-54.91h.55v.37h-.55Zm.37,10.35v.55h.55Zm.37,7.77v.74h.55l.37-.37-.37-.37Zm.55-15.35v.37l.37.37H71v-.74Zm3.33,28.1v.19l.37-.37v-.18Zm3.33-23.11-.19.55h-.55v-.37Zm1.29,1.85h.74l1.85.74q1.29,0,1.29.37v.37l-.37.37.37,1.66h-.55l-.55-.37h-.74v.37l-.19.19.19.18q.92.32.92.92l.92-.92.92,1.11-.19.92h-.55v-.37h-.19a4.52,4.52,0,0,1-1.85.92l-.19.18A2.13,2.13,0,0,0,79,29.49h-.55v-.55q.83,0,1.29-1.29v-.92q0-.32-1.66-.55l.19-.18V24.5L78,24.31ZM79,64.62l.19.19V65l-.55.55h-.37Q78.6,64.71,79,64.62Zm-.18-34H79l.74.74h-.55L78.78,31Zm.37-5.73v.37l.37.37h.19l.37-.37Zm.92,6.84h.19l.55.19q0,1-.55,1.11h-.19Zm1.11,20.52h.74l.37.37v.18L81,53l-.19-.19V52.6Zm-.18,5h.92v.19l-.37.37q0-.37-.55-.37ZM83.4,63h.19q.42,0,.55.92l-1.29.55a2.63,2.63,0,0,0-1.48-.37v-.55Zm-1.48-7.77.55.19v.37h-.92v-.37h.37Zm4.81-5.92.19.18v.37a4.05,4.05,0,0,1-3,.92L81.74,50v-.18l.37-.37A2.13,2.13,0,0,1,83.4,50h.74v-.55h1.29Zm-.92-20.71H86v.37l-.37.37h-.55l-.37-.37Zm.74,32.54h.92v.37l-1.29.18v-.18Zm1.29,1.48h.37v.18l-.55.55h-.37L86.92,63v-.19Zm-.37-35.87h.19l.37.37v.18Zm.92.92.37.92h.74l.19-.19q1.11.23,1.11.74H89.69q0,.55-.37.55H88.21l-.74-1.29v-.55Zm3.14,15.72h.37q0,.93,1.11.92l-.55.55V45a4.53,4.53,0,0,0,1.11,1.85q0,.37-1.29.55,0,.6-1.66,1.48l-.74-.18q0,.6-2.4,1.11v-.74q.18-.55,1.11-.55h.55c0-.49.12-.74.37-.74l1.11.37L90.8,48q1.11-.37,1.11-1.29V46.5H90.62q-.37,0-.55-1.48l-.37-.37v-.19h.19l.55.37Q90.43,44,91.54,43.36ZM88,28.75v.37h.19l.37-.37Zm.74-4.62.18.19v.55H88.4V24.5Zm1.48,0,.92.37v.37l-.37.37h-.19q-.37,0-.55-1.11ZM94.31,43l.55.19.18-.19q2,.19,2,.55l-.19.19h-.19v-.19l-.18.19-1.29-.19a3.74,3.74,0,0,0-1.85.55l-.92-.19v-.37Q92.46,43.13,94.31,43Zm-.19,1.11h.37l.37.37-.37.37-.37-.37Zm.74,3.14h.55v.19l-.37.37-.18-.18Zm1.48-18.67h.55v.19l-.37.37h-.19Zm.92-4.07-.18.92.37,1.85h-.37q-.42,0-.55-2.59l.18-.19Zm.19,18.3h.37q1.11,0,1.11.55v.37l-.74.18q-.74-.28-.74-.55Zm.19-14.05H98l.19,1.11L98,30l.19.19-.19.19h-.19l-.18-.92Z"/><path class="cls-1" d="M74.82,81.12l.19.19v.18l-.92.37-.18-.19v-.37ZM97.38,12.9l.19.19,2.22-.19q2.22-.18,2.22.74V14q-.93,0-.92,1.66l.18.19h.19q1.71-2,2-2a12.5,12.5,0,0,1,5.73,3l.92.37.37-.37,2.22.74v.37h-.37a1.4,1.4,0,0,0,.55,1.11l.55-.37q.92.23.92.55-1.48.14-1.48,1.48v.19L114,21v.37q-2,.46-2,.74l.74.74v.74h-.19l-.55-.19q-2.22.28-2.22,1.11v.74q0,.42.92.55,0-.56,2-.92l.37.37h.19l.55-.37.37.37-1.48,1.11a3.51,3.51,0,0,0,1.11,1.48l-.19.74.92-.19.19.19v1.66h.74V31h-1.29l-.37.37v.18l.74.19q0,1.57-2.22,2l-.37-.74h-.19q0,.74-.92.74h-1.66l-.92-.18-1.11.18H105L104,33.6V32.13l.37-1.29-.37-.37v-.37h.55q.37,0,.37.55l.55.19v-.55q0-.37-1.48-1.29l.19-.19v-.37l-.55-1.85h.19L103.3,24q-.51,0-.92-.92-.69,0-1.29-1.11l-3-.19A1.84,1.84,0,0,0,97,22.7l-.19-.18h-.18Q95,23.3,95,23.81h.37v.37q-.55,0-.92.74l.37.37-.19.92v.19l.19.18-.55.92.19.18-.19.55h-.19l-.18-.18h-.19l-.19.18v.55l.55-.37q.37,0,.37.55l.18.19h.19l.92-.19v.55a5.39,5.39,0,0,0-1.48,1.85v.55l.37.74-.18,2.22.55.37-.19.92v.19L95,37.67l-.74.37v.37q.55,0,.55.37l-.55.19v.74q0,.37,1.11.74v.19l-.74.37.19,1.11H95l.92-.18,2.59.37.55-.55,1.11.55-.55,1.48v.37h.55v.37h-.37q-.55,0-.55-1.29h-.55l-.19.19H98.3l.55,1.48-.92-.18-.74.55q-1.48-.18-1.48-.55v-.37q0-.37.55-.37V43.4H95.9l-.74.55H95l-.55-.37-.37.37a1,1,0,0,1,.74.74l-.19.18v.19l.19.74-.37.37q0,.37,1.11.37l-.74,1.29.74.19v.18q-.19.56-1.11.55v.55h.92l-.19.19v.19l-.92-.19h-.19q0,.55-.37.55H93.5l-.92-.55.19-.92V47.47q-.74,0-.74-.55l-.55-.19-1.66.55V47.1q0-.74-.92-.74l-.92.18L87.77,46h-.55l-.74.19q-1.11,0-1.11-.92l-.19-.55h.19q.55,0,.55-.37T85,44v-.37l.18-.19L85,43.22V43l.18-1.48L85,40.82l.18-.19v-.19L85,39.34a2,2,0,0,1,1.11-1.66v-.55L85,36.75l.55-1.29v-.37l-.74-.37q0-1.66,1.29-1.66v-.74h-.19L85,32.5v-.19l.37-.37-.37-2a2.53,2.53,0,0,0,1.11-1.29l-.37-1.11v-.19a2.6,2.6,0,0,0,.55-1.48l-.74-.55.18-.55-.18-1.11v-.19a4.39,4.39,0,0,0,1.85-.92h.19V22a2.63,2.63,0,0,1-1.11-1.85q.37,0,.37-.55L86.66,19q.42,0,3.7-3.14Q92.43,13.87,97.38,12.9ZM85.18,26.95h.19v.37h-.55Zm.74,27h.37l.37.37-.37.74.55,1.85q-.28,0-.74,1.29l-.92.19L85,57.09v-.37l.55-.55-.19-1.11Zm18.67-3.14.74.18v1.11q0,.56.74.55.55,0,.55-.74h.18l-.18-.19v-.19q0-1,2.77-.74l2.4.18.55-.18,1.66.55h.19l.19-.19.18.19h1.29v.55h-.92l-1.11.74V53l.55.74q0,.37-.55.37v.55l.18.18-.74,1.85v.55l.37.55v.37q-.55,0-.55,1.29a1.37,1.37,0,0,1,1.11.74v.18q-.93,0-.92.37v.37c0,.25.18.37.55.37l.18.19v.19l-.74.74v.19q.74.09.74.55-.37,0-.74,1.11-1.11,0-1.11.37v.37l.18.55h-.18q-.88,0-2,2.4-3,3.1-4.07,3.51-2.36,1.48-8,1.48L97,72.8H95.9v-.19l.37-.55v-.37h-.55l-.18.55.18.19-.18.18h-.74a6.18,6.18,0,0,1-2-1.48l-.19.19h-.19l-1.11-1.11q-.93,0-.92-1.29l-.19-.19H89.8l-.19.19q-2.77-1.94-2.77-3.7h.37v-.37q-1.25,0-1.66-2.59Q87,61.8,87,60.6h.37V60l-.18-.19.55-2.22.18.19h.37l.37-.37v-.92l-.19-.18q.28-2,.74-2h.37q.14.93.55.92h.19l.37-.37q0-.37.55-.37l.74-.19v-.55l.92.19.55-.19q0,1.11.74,1.11v.55l.19,1.29-.92.19q-.74,0-.74-1.29a3.26,3.26,0,0,1-1.85-.55l-.19.74h-.37v-.37l-.92.19v.19l.37.55-.37.55v.18a2.58,2.58,0,0,0,1.66-.55h.37q.14.93.55.92h2l.19.74-.19.19v.19l.19.55-.19.74.74,2-.55.18v.55l.37.37h.19l.19-.74a7.56,7.56,0,0,0,3.51,1.48h2.77q0-.32,1.85-1.66l.37-.92h.37q.92,0,.92.37.83-.37.92-.74l-.37-.37-1.66.37.55-2.22-.19-.74h.19l-.19-.19V55.42l.37-1.11-.19-.55.37-.37-.18-.19V53l.18-.74-.55-.55v-.37ZM85.92,60.41h.55V61h-.19l-.37-.37Zm1.29-28.29v.37l.74.18v-.37Zm2.22-14.79v.55H90v-.55Zm.74,34.95.92.19h.55v.18l-.37.37h-.55l-.55-.55ZM90.91,29v.55l.37.37.37-.37L91.46,29Zm0,9.8v.74h.55l.37-.37v-.37Zm.55-8.14V31l.37.37L92,31.2V31l-.37-.37ZM92.57,50.8l.19.18v.74l-.55.55h-.55v-.37Zm-.74,18.86.19.18h.19q.18-.55,1.11-.55V69.1q0-.37-.55-.37T91.83,69.66ZM95.16,41l.92.19-.37.37h-.18l-.37-.37Zm.55,5.18h.55l.19.19.19-.19h1.29v.19q0,.37-1.85.55l-.37-.55Zm.74-30.69v.74h.19l.37-.37-.37-.37Zm0,55.47.37.37H97V71Zm.37-27,.37.37h.18l.19-.18h.19l-.19-.55H97.2Zm.55-24.41v.74l.37.37q.74-.28.74-.55v-.37ZM97.93,65l-.18.19v.18l.18.19h.19l.19-.19h.18l.92.19.18-.19v-.18Zm.92-46v.19h.55l.37-.37v-.37h-.37Zm.92-4.62v.19l.37.37.37-.37v-.37h-.19Zm.37,50.48L100,65v.37h.18l.37-.37-.19-.19Zm0,2v.55l.92.55h.18l.19-1.11-.19-.19h-.18Zm0,4.07v.55h.55V71Zm2-5.55v.19h.37V65Zm.55-43.27v.19l.37.55.55-.19v-.37L103.3,22Zm.55,43.08v.37l.37.37h.55v-.37l-.37-.37Zm0,3.14v.37l.37.37H104l-.55-.74Zm.37-52.7A4.49,4.49,0,0,1,105,17.89h.18l.55-.55v-.19q0-.37-.55-.37l.19-.92q0-1.11-.74-1.11Q103.67,15.07,103.67,15.67Zm1.29,6.1-.19,1.29v.37l.19.92h.18l.55-.37.37.55v.19l-.19.18v.19h.37l.19-.74h.37l.37.37v.18q0,.46-2.22,1.11l.18.55.92-.18,1.85.18.55-.18V26l-.37-.55.19-1.29q-.51,0-1.11-2c-.37,0-.55-.12-.55-.37l-.92.19Zm.18,7.21.19.19h.19l.18-.19v-.37h-.18Zm0,33.1v.19l.37.37.18-.18v-.37Zm.37,5.92-.37.55.55.37h.19l.37-.37v-.37Zm.18-14.24-.37.74v.19h.55l.37-.37v-.18l-.37-.37Zm-.18-26.44v.19l1.66.37.37-.55-.37-.55Q105.52,27,105.52,27.32Zm.18,3.51V31l.19.74-.19.74h.37l.37-1.48-.19-.18Zm0,33.84.19,1.85v.55h.55l.19-.55h-.19a.65.65,0,0,1,.74-.74v-.55q-.93,0-.92-.55v-.19h-.18l-.19.19ZM106.07,29l.37.37h.37V29Zm.92,25,.19.92a1.11,1.11,0,0,0-.92,1.11h-.18l.18.19v.19l-.18.74.55.92q.74-.28.74-.55a2.13,2.13,0,0,1-.55-1.29l.19-.55h.74l.55.37h.18a.49.49,0,0,1,.55-.55v-.18q0-1-.55-1.11l-.18.18v.19l.37.37h-.55a.82.82,0,0,0-.92-.92Zm-.74-.74v.19l.55.19.19-.19V53.2l-.37-.37Zm.92-24.78V29q1.48.37,1.48.92h.19l.18-.18.19.18h.19l.55-.55h.18q0-1.11-2-1.11v-.18Zm0,3v.37h.18l.37-.37Zm.37,27,.19.19.18-.19h.92v.37h.37l.74-.37q.74,0,.74,1.11l.92-.19v-.55l-.92-.18.19-.55-.37-.55h-.37l-.55.18v-.18l-.37-.37V56.9Zm.92-34.21H109v-.37h-.18Zm.74,41.42v.74h.37v-.74Zm.19-38.64.37.37h.37v-.74h-.37Zm0,26.81v.55H110l.37-.37v-.19Zm2.77-22.19.55.37h.37l.55-.55-.19-.19h-.92ZM115.31,19h.55v.37h-.19Zm.37,12.57h.92l.18.55h-.18l-.92-.37Z"/><path class="cls-1" d="M111,81.12l.19.19v.18l-.92.37-.18-.19v-.37ZM133.54,12.9l.19.19,2.22-.19q2.22-.18,2.22.74V14q-.93,0-.92,1.66l.18.19h.19q1.71-2,2-2a12.5,12.5,0,0,1,5.73,3l.92.37.37-.37,2.22.74v.37h-.37a1.4,1.4,0,0,0,.55,1.11l.55-.37q.92.23.92.55-1.48.14-1.48,1.48v.19l1.11.18v.37q-2,.46-2,.74l.74.74v.74h-.19l-.55-.19q-2.22.28-2.22,1.11v.74q0,.42.92.55,0-.56,2-.92l.37.37h.19l.55-.37.37.37-1.48,1.11A3.51,3.51,0,0,0,150,27.87l-.19.74.92-.19.19.19v1.66h.74V31h-1.29l-.37.37v.18l.74.19q0,1.57-2.22,2l-.37-.74H148q0,.74-.92.74h-1.66l-.92-.18-1.11.18h-2.22l-.92-.18V32.13l.37-1.29-.37-.37v-.37h.55q.37,0,.37.55l.55.19v-.55q0-.37-1.48-1.29l.19-.19v-.37l-.55-1.85H140L139.46,24q-.51,0-.92-.92-.69,0-1.29-1.11l-3-.19a1.84,1.84,0,0,0-1.11.92l-.19-.18h-.18q-1.66.79-1.66,1.29h.37v.37q-.55,0-.92.74l.37.37-.19.92v.19l.19.18-.55.92.19.18-.19.55h-.19l-.18-.18h-.19l-.19.18v.55l.55-.37q.37,0,.37.55l.18.19H131l.92-.19v.55a5.39,5.39,0,0,0-1.48,1.85v.55l.37.74-.18,2.22.55.37-.19.92v.19l.19,1.29-.74.37v.37q.55,0,.55.37l-.55.19v.74q0,.37,1.11.74v.19l-.74.37.19,1.11h.19l.92-.18,2.59.37.55-.55,1.11.55-.55,1.48v.37h.55v.37h-.37q-.55,0-.55-1.29h-.55l-.19.19h-.18l.55,1.48-.92-.18-.74.55q-1.48-.18-1.48-.55v-.37q0-.37.55-.37V43.4h-.37l-.74.55h-.18l-.55-.37-.37.37a1,1,0,0,1,.74.74l-.19.18v.19l.19.74-.37.37q0,.37,1.11.37L131,47.84l.74.19v.18q-.19.56-1.11.55v.55h.92l-.19.19v.19l-.92-.19h-.19q0,.55-.37.55h-.19l-.92-.55.19-.92V47.47q-.74,0-.74-.55l-.55-.19-1.66.55V47.1q0-.74-.92-.74l-.92.18-.18-.55h-.55l-.74.19q-1.11,0-1.11-.92l-.19-.55h.19q.55,0,.55-.37t-.92-.37v-.37l.18-.19-.18-.19V43l.18-1.48-.18-.74.18-.19v-.19l-.18-1.11a2,2,0,0,1,1.11-1.66v-.55l-1.11-.37.55-1.29v-.37l-.74-.37q0-1.66,1.29-1.66v-.74h-.19l-.92.19v-.19l.37-.37-.37-2a2.53,2.53,0,0,0,1.11-1.29l-.37-1.11v-.19a2.6,2.6,0,0,0,.55-1.48l-.74-.55.18-.55-.18-1.11v-.19a4.39,4.39,0,0,0,1.85-.92h.19V22a2.63,2.63,0,0,1-1.11-1.85q.37,0,.37-.55l-.18-.55q.42,0,3.7-3.14Q128.6,13.87,133.54,12.9Zm-12.2,14.05h.19v.37H121Zm.74,27h.37l.37.37-.37.74L123,56.9q-.28,0-.74,1.29l-.92.19-.18-1.29v-.37l.55-.55-.19-1.11Zm18.67-3.14.74.18v1.11q0,.56.74.55.55,0,.55-.74H143l-.18-.19v-.19q0-1,2.77-.74L148,51l.55-.18,1.66.55h.19l.19-.19.18.19H152v.55h-.92l-1.11.74V53l.55.74q0,.37-.55.37v.55l.18.18-.74,1.85v.55l.37.55v.37q-.55,0-.55,1.29a1.37,1.37,0,0,1,1.11.74v.18q-.93,0-.92.37v.37c0,.25.18.37.55.37l.18.19v.19l-.74.74v.19q.74.09.74.55-.37,0-.74,1.11-1.11,0-1.11.37v.37l.18.55h-.18q-.88,0-2,2.4-3,3.1-4.07,3.51-2.36,1.48-8,1.48l-1.11-.37h-1.11v-.19l.37-.55v-.37h-.55l-.18.55.18.19-.18.18H131a6.18,6.18,0,0,1-2-1.48l-.19.19h-.19l-1.11-1.11q-.93,0-.92-1.29l-.19-.19H126l-.19.19Q123,67,123,65.22h.37v-.37q-1.25,0-1.66-2.59,1.48-.46,1.48-1.66h.37V60l-.18-.19.55-2.22.18.19h.37l.37-.37v-.92l-.19-.18q.28-2,.74-2h.37q.14.93.55.92h.19l.37-.37q0-.37.55-.37l.74-.19v-.55l.92.19.55-.19q0,1.11.74,1.11v.55l.19,1.29-.92.19q-.74,0-.74-1.29a3.26,3.26,0,0,1-1.85-.55l-.19.74h-.37v-.37l-.92.19v.19l.37.55-.37.55v.18a2.58,2.58,0,0,0,1.66-.55h.37q.14.93.55.92h2l.19.74-.19.19v.19l.19.55-.19.74.74,2-.55.18v.55l.37.37H131l.19-.74a7.56,7.56,0,0,0,3.51,1.48h2.77q0-.32,1.85-1.66l.37-.92H140q.92,0,.92.37.83-.37.92-.74l-.37-.37-1.66.37.55-2.22-.19-.74h.19l-.19-.19V55.42l.37-1.11-.19-.55.37-.37-.18-.19V53l.18-.74-.55-.55v-.37Zm-18.67,9.61h.55V61h-.19l-.37-.37Zm1.29-28.29v.37l.74.18v-.37Zm2.22-14.79v.55h.55v-.55Zm.74,34.95.92.19h.55v.18l-.37.37h-.55l-.55-.55Zm.74-23.3v.55l.37.37.37-.37-.19-.55Zm0,9.8v.74h.55l.37-.37v-.37Zm.55-8.14V31l.37.37.19-.19V31l-.37-.37Zm1.11,20.15.19.18v.74l-.55.55h-.55v-.37ZM128,69.66l.19.18h.19q.18-.55,1.11-.55V69.1q0-.37-.55-.37T128,69.66ZM131.32,41l.92.19-.37.37h-.18l-.37-.37Zm.55,5.18h.55l.19.19.19-.19h1.29v.19q0,.37-1.85.55l-.37-.55Zm.74-30.69v.74h.19l.37-.37-.37-.37Zm0,55.47.37.37h.19V71ZM133,44l.37.37h.18l.19-.18h.19l-.19-.55h-.37Zm.55-24.41v.74l.37.37q.74-.28.74-.55v-.37ZM134.1,65l-.18.19v.18l.18.19h.19l.19-.19h.18l.92.19.18-.19v-.18ZM135,19v.19h.55l.37-.37v-.37h-.37Zm.92-4.62v.19l.37.37.37-.37v-.37h-.19Zm.37,50.48-.18.19v.37h.18l.37-.37-.19-.19Zm0,2v.55l.92.55h.18l.19-1.11-.19-.19h-.18Zm0,4.07v.55h.55V71Zm2-5.55v.19h.37V65Zm.55-43.27v.19l.37.55.55-.19v-.37l-.37-.37Zm.55,43.08v.37l.37.37h.55v-.37l-.37-.37Zm0,3.14v.37l.37.37h.37l-.55-.74Zm.37-52.7a4.49,4.49,0,0,1,1.29,2.22h.18l.55-.55v-.19q0-.37-.55-.37l.19-.92q0-1.11-.74-1.11Q139.83,15.07,139.83,15.67Zm1.29,6.1-.19,1.29v.37l.19.92h.18l.55-.37.37.55v.19l-.19.18v.19h.37l.19-.74H143l.37.37v.18q0,.46-2.22,1.11l.18.55.92-.18,1.85.18.55-.18V26l-.37-.55.19-1.29q-.51,0-1.11-2c-.37,0-.55-.12-.55-.37l-.92.19Zm.18,7.21.19.19h.19l.18-.19v-.37h-.18Zm0,33.1v.19l.37.37.18-.18v-.37Zm.37,5.92-.37.55.55.37H142l.37-.37v-.37Zm.18-14.24-.37.74v.19H142l.37-.37v-.18l-.37-.37Zm-.18-26.44v.19l1.66.37.37-.55-.37-.55Q141.68,27,141.68,27.32Zm.18,3.51V31l.19.74-.19.74h.37L142.6,31l-.19-.18Zm0,33.84.19,1.85v.55h.55l.19-.55h-.19a.65.65,0,0,1,.74-.74v-.55q-.93,0-.92-.55v-.19h-.18l-.19.19ZM142.23,29l.37.37H143V29Zm.92,25,.19.92a1.11,1.11,0,0,0-.92,1.11h-.18l.18.19v.19l-.18.74.55.92q.74-.28.74-.55a2.13,2.13,0,0,1-.55-1.29l.19-.55h.74l.55.37h.18a.49.49,0,0,1,.55-.55v-.18q0-1-.55-1.11l-.18.18v.19l.37.37h-.55a.82.82,0,0,0-.92-.92Zm-.74-.74v.19l.55.19.19-.19V53.2l-.37-.37Zm.92-24.78V29q1.48.37,1.48.92H145l.18-.18.19.18h.19l.55-.55h.18q0-1.11-2-1.11v-.18Zm0,3v.37h.18l.37-.37Zm.37,27,.19.19.18-.19H145v.37h.37l.74-.37q.74,0,.74,1.11l.92-.19v-.55l-.92-.18L147,58l-.37-.55h-.37l-.55.18v-.18l-.37-.37V56.9Zm.92-34.21h.55v-.37H145Zm.74,41.42v.74h.37v-.74Zm.19-38.64.37.37h.37v-.74h-.37Zm0,26.81v.55h.55l.37-.37v-.19Zm2.77-22.19.55.37h.37l.55-.55-.19-.19h-.92ZM151.48,19H152v.37h-.19Zm.37,12.57h.92l.18.55h-.18l-.92-.37Z"/><path class="cls-1" d="M161.11,12.16a5.37,5.37,0,0,0,3.14.74l.55-.19q2,.46,2,1.11l-.18.55.18,2V17q0,2.22-.55,2.22l.37,2.4V24q0,1.85-.37,1.85l.19.92v1.29l.19.18v.19l-.37.37v.74l.19.92-.37.37.92.92h.19q.37,0,.37-.55l.19-.19H168l.55.55-.18.19v.19l-.19-.19h-.37l-.37.37v.37h1.29v.18q-.14.65-1.11,1.11h-.19l-.37-.37h.19q-.42-1.11-.74-1.11l-.55.37.19.92V34l-.19,1.66.37.92a1.82,1.82,0,0,1-1.48.55v.19l.55,1.66-.19,1.11q.6,0,.92,2.59h.18q0-1.11.37-1.11l1.29.19v-.19L167,38.78q2.08,0,2.59,3.33h.19q1.85,0,1.85-1.48a2.25,2.25,0,0,1,1.48-2l.37-.74,2.4-.19,2.77.55.74-.18q1.11.19,1.11.55a1.73,1.73,0,0,1-1.11,1.48l-.55-.37h-.19l-.37.37v.55l.37.55v.37q-.55,0-.55,1.29-1.11,0-1.48,2.4-1.29,1.8-1.66,1.85l-.74-.55-.37.37h-.19q-2,0-2-3.33,0-1.29-.37-1.29h-.92q-1.29.42-1.29,2.59l.19,1.66a2.25,2.25,0,0,1-1.48.74q-1.29,0-1.29-1.66l-.19-1.11h-.18l-.37,2.22.19.55-.37.74.37,2.22-.19.18v.19l.19.74-.19,2q.14,1.11.37,1.11l-.19.19v.18l.19.92q-.14,1.11-.37,1.11l.37,2.77-.19,2,.19.19h-.19l.37,1.29-.18,2.4h.18l-.92,2.22q2.22,2.45,2.22,3.51t-2.59.92h-5.73l-.55-.37h-.37l-.19.18H158l-.37-.55V71h.19l.92.19V70.4l-.55-2.22.55-.55q0-.92-1.11-1.29v-.19q.92,0,.92-.37v-.37q-.69,0-1.11-2.4l.19-.19v-.19l-.19-.92L157.6,60l-.19-1.66.19-.19V58l-.19-.74V56.9H158v-.37l-.74-.18.18-.92-.18-3.51.37-1.66-.37-1.48.74-1.11v-.18l-.55-.92.37-4.44q-.37,0-.55-1.11l.55-2.59-.55-.19v-.37q0-.37.55-.37l.18-.19v-.37q0-.46-1.48-.74v-.37q.51,0,.74-4.07L157,31l.19-.55q-.74-.28-.74-.55L157,29v-.55q0-.46-.74-.55v-.19c.49,0,.74-.12.74-.37v-2.4l-.19-.18.19-.19V20.29l-.37-1.48.37-.55-.19-.55.19-2.22-.19-.74L157,14v-.19l-.19-.18v-.19l.55-.37h1.85A3.05,3.05,0,0,0,161.11,12.16Zm-3.33,21.26v.37a1,1,0,0,0,.74,1.11l.37-.37h.74q.37,0,.37.55l.37-.37v-.55q-.93-.14-.92-.55v-.37l.37-.55v-.37h-.74ZM158.34,17,158,18.44l.19.19h.74l.37-1.11h-.19ZM158,40.08l.37,2.22h.37l.37-.37v-.19l-.55-.92.19-.74-.19-.19h-.18l-.19.19Zm1.29-12.39v.55h.55v-.18l-.37-.37Zm.19-8.69v.74H160v-.37l-.37-.37Zm.18,19.23v.19l1.11,1.11-1.11.19v.18a2.25,2.25,0,0,1,.74,1.48v.92l.74.37H162l.74-.92-.55-1.85q-.37,0-.37-.74l-.18-.19h-.19l-.74.19Q160.74,38.23,159.63,38.23Zm.19-11.46H160q0-.37.92-.37l.19-.19v-.37h-.74Q160,25.84,159.82,26.76Zm.92-6.29v.19l.37.37h.18v-.55Zm.74,13.5-.19.19v.18l.19.55H162v-.37Zm0-3.51v.19q.18,1.48.55,1.48h.37l.74-.74A3.24,3.24,0,0,0,161.48,30.46Zm.19,7-.19.18V38l.55.55h.37v-.37Zm.55-4.07-.19.19v.18q.14.56,1.48.55l.55,1.48q1.11-.14,1.11-.37a2,2,0,0,0-1.29-2h-.37l-.74.19Zm0,1.85v.55l.55-.55v-.19Zm.37-9.61-.19,1.11h.19l.92-.19.74.19v-.19Q164.25,26,162.59,25.65Zm.19-6.1v.74q.46,0,1.11-.92l-.19-.55h-.19Zm.18,8.69.19.19h.37v-.55h-.18Zm.19,20.34V49q.55,0,.55.92h.37V49Zm.55-17.75V31l.37.37.19-.19v-.37Zm.37,15.9v.37h.55v-.37Zm15.53-34,.74.37.55-.19.55.74.37-.74,1.11.37.92-.18q1.29,0,1.29.92h.37l.55-.37h.18l.19.92a3.1,3.1,0,0,0-1.85.74L185,16l1.29-.18h.37l.92.37v.37q-.09.56-1.48.55,0-.55-.37-.55v.19l.37.55v.55H185v.19l.18.74-.37.92q0,.51,1.29.92v.55h-.19l-.55-.55q-.32,0-1.48,1.66l-1.11.19-2.4-.37-1.85.19-.18-.19-.92.19h-1.66l-1.11.19-.92-.19-.37.37-.55-.37h-.37a3.13,3.13,0,0,1-1.85.55V22.7l-1.29.55v-.18l-.19-.74.19-.74q-.37-.46-.92-6.1l-.19-.18.19-.74v-.19l-.19-.18q.23-1.11.55-1.11h4.81l1.48.18,1.48-.18h.37l2.22.18ZM169.06,63h3.33l.74.55,1.11-.55.74.18.74-.18.55.18L177,63h.37v.18L179.6,63h2.77q.14,1.29.37,1.29l-.19.92v1.29l-.19.19.19.19v.74l-.37.37q-.37,0-.37-.92h-.55v.74l-4.44-1.48v.37q2.22.6,2.22,1.48l-1.11.37a11.71,11.71,0,0,1,.74,3.51l-.19.19-.55-.19-.92.19-.74-.19-1.11.19-.74-.19-2.22.19a2.93,2.93,0,0,1-2.22-.92q-.23.83-.74.92l-.37-.37.74-2L168.88,65V63.93Zm.19-34h.55c0,.37.12.55.37.55l1.11-.37v.18l-.74.55-.19.19v.19Q169.66,30.09,169.25,29Zm1.11-14.05v.74h.55V15.3l-.37-.37Zm.92,14.79h.37l1.48.18v.37h-1.66Zm0,.92h.19l.37.37h-.55Zm1.11,33.65v.37h-.18q.18,2.22.74,2.22l.37-.37-.19-.92.37-.37-.92-.92ZM177,38.41v.19l.19,1.29q1.29-.69,1.29-1.29l-.18-.19Zm2.77,2.4q.79,0,.92,2.22l-.37.37v.37q0,.37.74.37l-.37.92h-.55a1.31,1.31,0,0,1-.92-1.29v-.18l.74-.19v-.19l-.55-.55-.19.19H179v-.37q1,0,1.11-.55,0-.37-.55-.37l-.18-.18v-.19ZM180.89,80l.74.19v.18q0,.37-2.59.74v-.19Q179,80.52,180.89,80Zm-1.66-12.2q3.33,0,3.33,1.66v.19l-.19,1.11.19.55q-.28.74-.55.74h-1.48l-.19-.92.19-1.29q-.51,0-1.29-1.85Zm2.59-25.52H182v.19l-.37.55v.18q0,.37.55.37l.18.18V44h-.18q-.74,0-.74-.92h-.19ZM184,79.64l.74.18v.37l-.37.37q-.93-.23-.92-.55v-.19Zm.37-65.82v.37H185l-.37-.37Zm2.4,66.56h.55l.19.92H187Zm1.29-60.28L189,21l-.55.19-.92-.19Zm-.19,60.09.37.37-.19.19v.18l-.55-.18v-.19Zm1.11.37h.55l-.37.37H189Zm2.4-63.6.37.37v.19h-.74v-.19Zm-.37,2,1.29.19h.37l.18.55-1.29.92h-.37v-.37h-.18l.18-.19v-.19Zm3.51-2.77h.19l1.11.55.19-.55h.18l.55.55V17q0,.74-3.14.74l-.19-.18v-.19Zm3-2.59h.37v.55l-.37.37h-.19Zm.37,3V17.7h-.37l-.19-.74Zm5.18-.37h.37q0,1.11-2.22,1.66a4.06,4.06,0,0,0-2.4-.55l-.19-.19v-.55h.55V17Q203.08,16.59,203.08,16.22Z"/><path class="cls-1" d="M185.39.37l.74.19V.74q0,.37-2.59.74V1.29Q183.54.88,185.39.37Zm2.77,37.53v.55h-.37v-.19ZM188.54,0l.74.19V.55l-.37.37Q188,.69,188,.37V.19Zm2.77.74h.55l.19.92h-.55Zm8.32,54.36q.55,0,.55.92l.74.55-.55.19a11.24,11.24,0,0,0,2,6.1v.37l-.19,1.11.37,1.66-.37,2.59.19.55L201.66,71h-.18l-1.11-.55-.19.55H200a7.44,7.44,0,0,1-4.25-3.33l.19-1.11-.37-.37h.19l.55.37.19-.19h.18a2.53,2.53,0,0,0-1.11-1.29h-.18q-.37,0-.37,1.11h-.37q-1.57-1.62-2.77-6.1l.37-.37a1,1,0,0,1-.74-1.11v-.18q0-2,1.11-2,.92,0,.92-.74l.19.18h.18l2-.37.74.19A6.59,6.59,0,0,1,199.63,55.1Zm2-42.34H202l.92,1.11a4.54,4.54,0,0,1-.55,2.4L203,17l-.19.19v.19l.37,1.11L203,19l.19.92A10.87,10.87,0,0,1,201.66,24a5.72,5.72,0,0,0-.37,2.4v.37q0,2.22,2,7l-.37.37c-.25,0-.37-.18-.37-.55h-.37l-.18.19h-.19q-.14-.92-.55-.92-.6,0-.92,1.85l.55.19v-.19l.18.19h1.11l.19.74-.19.18.19.92v1.48l.55.19.19-.19v.92l-.55.55v-.37h-.19v.55l.19,1.11q-.23,3-.74,3a34.56,34.56,0,0,1-7.21-7.77,8.21,8.21,0,0,1-.92-4.25v-.55l-.37-.37v1.48h-.18q-.93,0-1.11-4.81l1.11-.37-.19.18v.37l.19.18v.19l-.37.37v.19h.37v.92l.37.37V30l-.19-1.66.37-.37q-.37-.32-.37-1.85l-.18-.19H193L192.79,27a1.86,1.86,0,0,1-.92-1.85,7,7,0,0,0,.55-2.77h.37l-.18.55.37,2.4h.19l.37-2.22-.37-.74a5.22,5.22,0,0,1,.92-3.33l.19.18h.55l-.19-1.29a12.53,12.53,0,0,1,6.29-5ZM192.42.55l.37.37-.18.19v.19l-.55-.19V.92Zm1.11.37h.55l-.37.37h-.19Zm.37,56.95v.55h.37v-.55Zm.74,1.48v.55H195v-.55ZM195,32.17v.55h.37l.37-.37v-.19Zm1.29-13.5v.19q0,.42,2,.92l-.18-.18V19l.18-.19v-.19L198,18.3v-.55l.19-.19v-.18h-.37A3.92,3.92,0,0,0,196.3,18.67ZM196.67,56v.92H197v-.55Zm3.88-53.44.19.19V3l-1.48.74-.19-.18h-.19l-1.11.18-.92-.37V3.14L197,3V2.77l.18.19h.55l1.11-.19.55.19Zm-3,57.69.18,1.29H198l.19-.92-.37-.37Zm1.11-44.74v.19h.74v-.19l-.37-.37Zm.55,6.47v.55h.37V22Zm.74-6.66v.55l.55.55.37-.55-.19-.92h-.37Zm1.66,56.21h.19l.37.37H202Zm0,1.66.37.37v.19h-.37Zm2.4-38.83,1.11,1.48-1.48,1.29q-.42,0-.74-1.85ZM203.51,42h.37a3.71,3.71,0,0,1,2,3.33l.18.19v.37c-.25,0-.37.19-.37.55l-.19.74-.18.19h-.19L203,45.11v-.37h1.11v-.37a2.72,2.72,0,0,1-.92-2Zm1.85-30a23,23,0,0,1,9.8,2.59l.55-.19a2,2,0,0,0,2,1.11l.19.19v.18l-.92.74q1.62,1.66,2.22,1.66,0,1.29,1.85,1.29a1.31,1.31,0,0,0,1.29.92l.37-.37h.55l-.74,1.11.55.18v.37h-.37q0,.55-1.29,1.11l-.19-.19H220v.55a2.71,2.71,0,0,0,.74,1.48V25a2,2,0,0,1-2,.92q-.37,0-.37.55l-.18.19h-2.77q-.93,0-.92.37l-.18-.18h-.19l-1.11.37V27l-.19.19h-1.11v-.37l.19-.92q-.46,0-1.29-3-.6-1.43-4.07-3v-.19l-.92.19a1.61,1.61,0,0,1-1.11-1.48l.19-1.66-.19-.92.37-.37v-.37a2.13,2.13,0,0,1-.55-1.29V12.57Q204.25,12.25,205.36,12Zm.18,25.7h.19v.19l-.37.37h-.19v-.19Zm2.4.55h.37a41.2,41.2,0,0,1,9.25,9.43,9.5,9.5,0,0,0,1.66,2.77l.18,1.11q0,.93-1.29.92v.19l.92.55h.55v-.37q1.06,0,1.29,5.18.18,4.25-3.14,9.8a.87.87,0,0,0-.92.74l-.19-.18h-.55l.19.92q-3.79,2.77-5.36,2.77l-.19-.19h-.19l-.74.19h-.19v-.55l-.74.92h-1.29l-.55-.37-1.11.37-.37-1.29.37-.55a4.62,4.62,0,0,1-.74-2.77q0-3.51,1.11-3.51a6.88,6.88,0,0,0,4.44-2,7.88,7.88,0,0,0,1.48,2.77v-.37a11.17,11.17,0,0,1-.92-3.88q.55-.79.55-4.07h-.19l.19-.19v-.19a12.83,12.83,0,0,0-3-5.55l.19-.92v-.37q-.74,0-.74-1.48l-.18-.55H208l.37-2-.37-.37V44a2.27,2.27,0,0,1,1.66-2.22l.19-.19v-.19l-.19-.55h.55v-.55Q208.64,40.31,208,38.27Zm.37-21.45-.18-.19h-.37q-1.66.32-1.66.74v.37l1.29.19,1.85-1.11,1.11.18h.18l-1.48-.74h-.19ZM207.4,66v.19l.37.37.19-.19v-.18l-.19-.19Zm1.11,3.7-.19.92v.74h.19l.37-.37V69.71Zm.37-22-.37.74.55.18.19-.18v-.37Zm1.29,1.11-.37.55v.37l.37.37h.55l.74-.37A1.22,1.22,0,0,0,210.17,48.81ZM211.83,22v.55H212l.37-.37V22Zm.92,41.6V64h.19l.37-.37Zm.37-14.24v.19l.74.74h.37v-.74Zm0,13.13v.37h.55v-.37Zm.92-5.92v.37l.37.37,1.11-.92-.37-.37h-.55Zm.19-10.17v.19h.37l.19-.19H215l-.18-.55Zm1.29.74v.19l.37.37v-.55Zm1.11,12.76v.55h.55v-.19l-.37-.37Zm1.48-9.24-.19.55h.19l.37-.37v-.18Zm0,9.06v.37h.55v-.37Zm.74-5.73v.55l.37-.37V54Zm0,1.48v.19l.19.55h.55V56Zm14.05-22q0,.79,2,1.85l.37-.37,1.48.19v-.74l1.11.19.55-.19.19.19v.18l-2,1.11h-.92l-.19.55-.55-.37-.18.19-1.11-.19-2,.19-.37-.37h-.19v.92l-1.48-.37-.37.37-.19-.19h-.19l-.74.19-2-.92v.19l.19.74V37l-.19.19.19.55,3-.37.55.18v.37q-2.59.23-2.59.74l-.92-.18-1.11.37-.92-.19v.92l-.92-.19h-.18a3.09,3.09,0,0,0-1.29,2l-.92-.18.37,1.11-.92.18q-.56-.18-.55-1.11l.92-.74.55.18.55-2.59-.19-.19V37.9l.19-.74,1.29.19V37l.92.19q0-.74.55-.74l.92-.74-.37-.37v-.18l.55-.19.55.19.37-.74h.19l.19.92-.19.55.19.19h.18l.19-.19.37.37h.74l2.22-1.29v-.37l-.19-.19v-.19Zm-12.2-15.53h.55v.18l-.37.37-.19-.19Zm.74,17.93v.55h-.37v-.18Zm1.85-14.42h.55l.37.37-.92.18Zm.92-1.11,1.11.19.18-.19h.19l.19.74h.55c0-.37.12-.55.37-.55v.19l-.19.18.37.74-.37,1.11v.92h-.18q-.88-.18-2-2l.55-.19v-.18l-.37-.37-.19.19-.55-.19v-.18Zm.18,17.38.92.55.18-.19v-.37l-.37-.37h-.37Zm3-17.75h.19l1.29.37v.37h-.55Zm2.59.37-.37.37H229v-.19Zm2.77,16.27.19.19h.19l1.11-.19q0,.42.55.37l2.4-.18q0,1.06-2.4,1.48l-.55-.19-1.48.55H232q-1.2,0-1.48-.74h-.37v-.19l1.29-.74h.37c0,.37.12.55.37.55h.19Q232.36,36.61,232.73,36.61Zm-1.29-16.46,1.85.37v.37H232v.37h-.37l-1.11-.92Zm2.22,9.06H234V30l-.37.37h-.55V30l-1.29.37-.19-.18V30l1.85-.55Zm.37,4.25h.19a1,1,0,0,1,1.11,1.11v.18h-.55l-.74-.92Zm.74-12.94h.37l.37.37-.18.19h-.19l-.74-.19Zm3.33,8h.74v.37l-2.22.19h-.55l-.37,1.29h-.19l-1.11-1.11Q234.95,28.48,238.09,28.47Zm-1.85,1.29.55.19v.37h-.74v-.18l.19-.19Zm1.29,6.84h.55l.18.19V37h-.18l-.55-.18Zm.55-10q1.11.19,1.11.55l-.19.19h-.37l-.55-.55Zm2.4-3.33.55.55v.37l-.92-.18v-.37Z"/><path class="cls-1" d="M224.19.37l.74.19V.74q0,.37-2.59.74V1.29Q222.34.88,224.19.37ZM227,37.9v.55h-.37v-.19ZM227.34,0l.74.19V.55l-.37.37q-.93-.23-.92-.55V.19Zm2.77.74h.55l.19.92h-.55Zm8.32,54.36q.55,0,.55.92l.74.55-.55.19a11.24,11.24,0,0,0,2,6.1v.37L241,64.34l.37,1.66L241,68.6l.19.55L240.46,71h-.18l-1.11-.55L239,71h-.19a7.44,7.44,0,0,1-4.25-3.33l.19-1.11-.37-.37h.19l.55.37.19-.19h.18a2.53,2.53,0,0,0-1.11-1.29h-.18q-.37,0-.37,1.11h-.37q-1.57-1.62-2.77-6.1l.37-.37a1,1,0,0,1-.74-1.11v-.18q0-2,1.11-2,.92,0,.92-.74l.19.18h.18l2-.37.74.19A6.59,6.59,0,0,1,238.43,55.1Zm2-42.34h.37l.92,1.11a4.54,4.54,0,0,1-.55,2.4l.55.74-.19.19v.19l.37,1.11-.19.55.19.92A10.87,10.87,0,0,1,240.46,24a5.72,5.72,0,0,0-.37,2.4v.37q0,2.22,2,7l-.37.37c-.25,0-.37-.18-.37-.55H241l-.18.19h-.19q-.14-.92-.55-.92-.6,0-.92,1.85l.55.19v-.19l.18.19H241l.19.74-.19.18.19.92v1.48l.55.19.19-.19v.92l-.55.55v-.37h-.19v.55l.19,1.11q-.23,3-.74,3a34.56,34.56,0,0,1-7.21-7.77,8.21,8.21,0,0,1-.92-4.25v-.55l-.37-.37v1.48H232q-.93,0-1.11-4.81l1.11-.37-.19.18v.37l.19.18v.19l-.37.37v.19H232v.92l.37.37V30l-.19-1.66.37-.37q-.37-.32-.37-1.85l-.18-.19h-.19L231.59,27a1.86,1.86,0,0,1-.92-1.85,7,7,0,0,0,.55-2.77h.37l-.18.55.37,2.4H232l.37-2.22-.37-.74a5.22,5.22,0,0,1,.92-3.33l.19.18h.55l-.19-1.29a12.53,12.53,0,0,1,6.29-5ZM231.22.55l.37.37-.18.19v.19l-.55-.19V.92Zm1.11.37h.55l-.37.37h-.19Zm.37,56.95v.55h.37v-.55Zm.74,1.48v.55h.37v-.55Zm.37-27.18v.55h.37l.37-.37v-.19Zm1.29-13.5v.19q0,.42,2,.92L237,19.6V19l.18-.19v-.19l-.37-.37v-.55l.19-.19v-.18h-.37A3.92,3.92,0,0,0,235.1,18.67ZM235.47,56v.92h.37v-.55Zm3.88-53.44.19.19V3l-1.48.74-.19-.18h-.19l-1.11.18-.92-.37V3.14l.19-.18V2.77L236,3h.55l1.11-.19.55.19Zm-3,57.69.18,1.29h.19l.19-.92-.37-.37Zm1.11-44.74v.19h.74v-.19l-.37-.37Zm.55,6.47v.55h.37V22Zm.74-6.66v.55l.55.55.37-.55-.19-.92h-.37Zm1.66,56.21h.19l.37.37h-.18Zm0,1.66.37.37v.19h-.37Zm2.4-38.83L244,35.87l-1.48,1.29q-.42,0-.74-1.85ZM242.31,42h.37a3.71,3.71,0,0,1,2,3.33l.18.19v.37c-.25,0-.37.19-.37.55l-.19.74-.18.19H244l-2.22-2.22v-.37h1.11v-.37a2.72,2.72,0,0,1-.92-2Zm1.85-30a23,23,0,0,1,9.8,2.59l.55-.19a2,2,0,0,0,2,1.11l.19.19v.18l-.92.74q1.62,1.66,2.22,1.66,0,1.29,1.85,1.29a1.31,1.31,0,0,0,1.29.92l.37-.37h.55l-.74,1.11.55.18v.37h-.37q0,.55-1.29,1.11l-.19-.19h-1.29v.55a2.71,2.71,0,0,0,.74,1.48V25a2,2,0,0,1-2,.92q-.37,0-.37.55l-.18.19h-2.77q-.93,0-.92.37l-.18-.18h-.19l-1.11.37V27l-.19.19h-1.11v-.37l.19-.92q-.46,0-1.29-3-.6-1.43-4.07-3v-.19l-.92.19a1.61,1.61,0,0,1-1.11-1.48l.19-1.66-.19-.92.37-.37v-.37a2.13,2.13,0,0,1-.55-1.29V12.57Q243.05,12.25,244.16,12Zm.18,25.7h.19v.19l-.37.37H244v-.19Zm2.4.55h.37a41.2,41.2,0,0,1,9.25,9.43A9.5,9.5,0,0,0,258,50.48l.18,1.11q0,.93-1.29.92v.19l.92.55h.55v-.37q1.06,0,1.29,5.18.18,4.25-3.14,9.8a.87.87,0,0,0-.92.74l-.19-.18h-.55l.19.92q-3.79,2.77-5.36,2.77l-.19-.19h-.19l-.74.19h-.19v-.55l-.74.92h-1.29l-.55-.37-1.11.37-.37-1.29.37-.55a4.62,4.62,0,0,1-.74-2.77q0-3.51,1.11-3.51a6.88,6.88,0,0,0,4.44-2A7.88,7.88,0,0,0,251,65.08v-.37a11.17,11.17,0,0,1-.92-3.88q.55-.79.55-4.07h-.19l.19-.19v-.19a12.83,12.83,0,0,0-3-5.55l.19-.92v-.37q-.74,0-.74-1.48l-.18-.55h-.19l.37-2-.37-.37V44a2.27,2.27,0,0,1,1.66-2.22l.19-.19v-.19l-.19-.55H249v-.55Q247.44,40.31,246.75,38.27Zm.37-21.45-.18-.19h-.37q-1.66.32-1.66.74v.37l1.29.19L248,16.83l1.11.18h.18l-1.48-.74h-.19ZM246.19,66v.19l.37.37.19-.19v-.18l-.19-.19Zm1.11,3.7-.19.92v.74h.19l.37-.37V69.71Zm.37-22-.37.74.55.18.19-.18v-.37ZM249,48.81l-.37.55v.37l.37.37h.55l.74-.37A1.22,1.22,0,0,0,249,48.81ZM250.63,22v.55h.19l.37-.37V22Zm.92,41.6V64h.19l.37-.37Zm.37-14.24v.19l.74.74H253v-.74Zm0,13.13v.37h.55v-.37Zm.92-5.92v.37l.37.37,1.11-.92L254,56h-.55ZM253,46.41v.19h.37l.19-.19h.18l-.18-.55Zm1.29.74v.19l.37.37v-.55Zm1.11,12.76v.55H256v-.19l-.37-.37Zm1.48-9.24-.19.55h.19l.37-.37v-.18Zm0,9.06v.37h.55v-.37Zm.74-5.73v.55l.37-.37V54Zm0,1.48v.19l.19.55h.55V56Zm14.05-22q0,.79,2,1.85l.37-.37,1.48.19v-.74l1.11.19.55-.19.19.19v.18l-2,1.11h-.92l-.19.55-.55-.37-.18.19-1.11-.19-2,.19-.37-.37h-.19v.92l-1.48-.37-.37.37-.19-.19h-.19l-.74.19-2-.92v.19l.19.74V37l-.19.19.19.55,3-.37.55.18v.37q-2.59.23-2.59.74l-.92-.18-1.11.37-.92-.19v.92l-.92-.19h-.18a3.09,3.09,0,0,0-1.29,2l-.92-.18.37,1.11-.92.18q-.56-.18-.55-1.11l.92-.74.55.18.55-2.59-.19-.19V37.9l.19-.74,1.29.19V37l.92.19q0-.74.55-.74l.92-.74-.37-.37v-.18l.55-.19.55.19.37-.74h.19l.19.92-.19.55.19.19H266l.19-.19.37.37h.74l2.22-1.29v-.37l-.19-.19v-.19Zm-12.2-15.53h.55v.18l-.37.37-.19-.19Zm.74,17.93v.55h-.37v-.18Zm1.85-14.42h.55l.37.37-.92.18Zm.92-1.11,1.11.19.18-.19h.19l.19.74h.55c0-.37.12-.55.37-.55v.19l-.19.18.37.74-.37,1.11v.92h-.18q-.88-.18-2-2l.55-.19v-.18l-.37-.37-.19.19-.55-.19v-.18Zm.18,17.38.92.55.18-.19v-.37l-.37-.37h-.37Zm3-17.75h.19l1.29.37v.37h-.55Zm2.59.37-.37.37h-.55v-.19Zm2.77,16.27.19.19h.19l1.11-.19q0,.42.55.37l2.4-.18q0,1.06-2.4,1.48l-.55-.19-1.48.55h-.74q-1.2,0-1.48-.74h-.37v-.19l1.29-.74h.37c0,.37.12.55.37.55h.19Q271.16,36.61,271.53,36.61Zm-1.29-16.46,1.85.37v.37h-1.29v.37h-.37l-1.11-.92Zm2.22,9.06h.37V30l-.37.37h-.55V30l-1.29.37-.19-.18V30l1.85-.55Zm.37,4.25H273a1,1,0,0,1,1.11,1.11v.18h-.55l-.74-.92Zm.74-12.94h.37l.37.37-.18.19h-.19l-.74-.19Zm3.33,8h.74v.37l-2.22.19h-.55l-.37,1.29h-.19l-1.11-1.11Q273.74,28.48,276.89,28.47ZM275,29.77l.55.19v.37h-.74v-.18L275,30Zm1.29,6.84h.55l.18.19V37h-.18l-.55-.18Zm.55-10q1.11.19,1.11.55l-.19.19h-.37l-.55-.55Zm2.4-3.33.55.55v.37l-.92-.18v-.37Z"/><path class="cls-2" d="M306.87,13.64h3.51l.74.74-.19.92q1.11.42,1.11.74c-.25,0-.37.19-.37.55l-.19.19h-.19l-.37-.37-.55.37H310v-.37h-.55v.37l.37.55-.37.55v.19l.55.55h.18l.37-.37v-.18l-.19-.19V17.7l1.11-.37q.46,3.38,1.11,4.07l-.19.55q1.11,10.91,2.77,10.91v.74L315,34.9l.55.55v.37h-.37l.55,1.85-.18,1.66q.42,3.14.92,3.14.92,0,.92.37V43q0,.37-.92.37l-.19.19v.18l.55.74L316.49,46a7.22,7.22,0,0,0,1.29,2.77V49l-.37.55.37.37-.19.92q.46,5.18.92,5.18l-.18.55.74,2.59-.18.18v.19a76.22,76.22,0,0,1,1.66,11.09l-.19.19V71l.19.74a1.22,1.22,0,0,1-1.29.92h-.19l-2-.18-2.4.18h-2.59q-.79,0-1.29-5.73l-.18-.19.55-.55v-.37l-.55-.55.55-1.48-.55-.55-.19.19a5,5,0,0,1-.55-2.22l.37-1.66q-.32-.92-1.66-.92l-.37.37H308l-.55-.37-.55.37h-.92l-.19-.19h-.18l.37-2.22-.19-.18h-.37v.18l.19.92q0,1.66-1.11,1.66l-.92-.19-.18.19-.37-.37h-.18a5.94,5.94,0,0,0-3,1.66l.19.19v.19q-1,7.4-1.85,7.4l.55.55v.37l-.37.55v1.11q0,1.85-1.48,1.85h-.18l-.55-.18a28.84,28.84,0,0,1-5.36.37h-1.85l-.37-.37v-.37q1.25-8.37,1.85-9.06l-.19-.55a6.26,6.26,0,0,1,.74-3l.19.19h.18a11.33,11.33,0,0,0,.74-3.7l-.37-1.11q.46,0,.92-2l-.37-.74.37-3.33h.19l.55.37.37-.55v-.37l-.74-.37.55-2.22-.18-.55h.18l.92-.37.18.55h.55q.37,0,.37-.55H296l.55.37.74-.74-.19-.18h1.48l1.11-.19,1.11.37H301a1.79,1.79,0,0,0-.74-1.29v-.92c-.37,0-.55-.12-.55-.37l1.11-1.29-.18-1.29h-.37a4.88,4.88,0,0,1-1.66,1.29l-.37-.37.19-1.11L298,38.6h-.37l-.19.92a.49.49,0,0,0,.55.55v.37a1.22,1.22,0,0,1-1.29.74v1.48h-.37l-.74-1.11h-.37l-.18.74h-.19q-.37-1.48-1.11-1.48l.19-.55h.18l.55.37.19-1.29H295l.55.37h.55q.37,0,.37-.55-.37-2.4-1.11-2.4l.19-.74L295,34.9v-.37c.37,0,.55-.12.55-.37l-.19-1.29h.37l.55.37.55-.74q-.74-.18-.74-.74l-.19.19h-.19l-.37-.37v-.18a10.77,10.77,0,0,1,1.11-3.7l-.55-.92.55-.74-.19-1.29V24l.37-.37h.18v.92l.19.92h.55l.37-.37v-.37l-.18-1.11q.28-.74.55-.74l-.19-.92v-.19h.92l.37-.37q0-.46-1.66-.92L297.63,19l1.11.19h.19V19q-1.29-.18-1.29-.74l.19-.74-.19-.19v-.19q0-3.33,1.48-3.33h7l.18.19h.19Zm-15,52.14V66l5.55,1.85v-.37Zm2.22-24.22.55.74v.19l-.37.37h-.74v-.37h-.18Q293.75,41.65,294.12,41.56Zm-.37,21.63v.55h.37v.19l.74-.55v-.55h-.74Zm.92-20h.19v.92h-.37l-.37-.37Zm-.55,4.07.19,1.85h.19l.55-1.66-.19-.19Zm1.11-1.11v.37h.19l.37-.37Zm.74,0,.19.92-.37.55v.19h1.11v-.37h.19l-.19-.19V47.1l.19-1.11h-.74l-.18.19Zm.37-9.06.37.37h.18l.19-.74h-.37Zm0,27.36v.19l.37.37h.18l.37-.37-.19-.19Zm2.22-10.72v.19l.74-.19a.49.49,0,0,1,.55.55l.19.19h.37l.37-.37v-.37q-1.11,0-1.11-.92h-.18Zm.19-15.35v.37h.19l.55-.18,1.11.18h.18v-.55L300,38Zm1.48-4.25.19.18h.37l.37-.37v-.19h-.55Zm3.33.55h-.18q0-.92-.74-.92l-.55.19v-.19l-.74.55v.37l1.11.74h.19l.92-.18.19.74L303,37.86l.19.92-.37,3,.37,1.29-1.66,6.1q.32,1.29,1.11,1.29l2-.18q1.85.09,1.85.55v.92q0,.55-1.29.55l-.18.55,1.11,1.29h.18v-.74l-.55-.19-.18.19V53l.37-.55q.55,0,.55.92h.55a.49.49,0,0,1,.55-.55l.19-.19V51.35l-.92.18V50.8q.18-.56,1.11-.55a2.37,2.37,0,0,0,1.29,1.85l.55-.18v-.19a4.72,4.72,0,0,1-1.11-3.33q-.37,0-.37-1.11c-.37,0-.55-.12-.55-.37v-.37a2.13,2.13,0,0,0,.55-1.29v-.19q-1.11,0-1.11-.92l-.37-1.85v-.19a2.65,2.65,0,0,0,1.66-.74h.55v-.19l-.18-.19v-.18l-2,.37a13.15,13.15,0,0,1-.74-4.07l.55-1.48q-1.39,0-1.66-5.18l-.37-.37Q304.1,30.09,303.55,34.71Zm-2-1.66v.37h.55v-.37Zm4.25,22.37V56h.37v-.55Zm.92-3.7h.55v.37l-.55-.18Zm.74-17.56v.18l.37.37.18-.19v-.37Zm.74-.92V34h.19l.18-.55-.18-.19Zm.55,10.91v.18l.37.37h.55v-.19l-.37-.37Zm.74-1.29v.37h.18l2.22.19v-.55l-1.29-.37Zm.55,10-.19.19v.74h.55V53.2Zm.55-1.66v.19l.92.18h.37l.37-.37V50.8l-.19.18h-.55v-.37h-.37Zm.74-3v.37h.55l.19-.55-.19-.19h-.18Zm.37,17v.55h.18l.37-.37-.19-.18Zm.37-9.43V56l.37.55-.55.74h1.48v-.55l-.74-.92Zm0-11.83v.55h.37V44Zm.19,5.55-.19.55.37.55.74-.55Q313.16,49.64,312.24,49.51Zm.18-1.48V49h.19V48Zm0,14.05v.55l.37.37h.55v-.37l-.55-.55Zm1.11-5.55v.74h.19l1.48-.19v-.55h-1.11l-.18.19h-.19Zm2,.92q0,.55-.37.55l-.92-.19v.55c0,.25.19.37.55.37l.55-.18v.18l-.19.55,1.11.37.19-.19v-.37a3.45,3.45,0,0,1-.74-1.66Zm-1.29,5v.18h1.11v-.37l-.37-.37Zm1.29-1.29-.19.55h.37l.37-.37v-.19Zm.18-.92v.18l.37.37v-.55Z"/><path class="cls-2" d="M341.79,35.41h.37l.18.92v1.29L342,39.11l.37.92.19-.18h.55l.19.74h-.19l-.92-.18-1.66,1.66v.18q2.82,1.9,3,2.4V45q-.93,0-.92.55v.19l.92.92v.74l-.18-.19h-.37c-.25,0-.37.19-.37.55H341l-.19.55A2.15,2.15,0,0,1,342,49.46l-.19.55h-.37q-.28,0-.92-1.66l-.19-.18h-.55l-.55.37L339,48a3.57,3.57,0,0,0,.74-1.66h-1.29q-.42,0-.55.92l.74,1.48-.74,1.11v.37q0,.37,1.48.55.6-1.66.92-1.66h.19l.18,1.66q0,.42-.92,1.29a3.74,3.74,0,0,0,.55,1.85l.92-.18,1.11.37v1.48l.37.37,1.85-.19a4.82,4.82,0,0,1,2,.74v.74q-1.11,0-1.66,1.85l-.92-.19h-.18a2.41,2.41,0,0,1-1.85.74q0,.74-.55.74a2,2,0,0,1-.74,1.29v.19q.32.69,2.22,1.48l.55.55,10.82-1.11q3.33.42,3.33.92v.18q-1.66.09-1.66,1.11,0,.56.92.55,1.29,1.39,1.29,2v.55q-1.16,0-1.48,1.66a46.1,46.1,0,0,0-5.55.92v.37l2,.19v.19l-9.52.55-.74-.37a32.72,32.72,0,0,1-7,.74l-1.48-.19h-2.22q-1.11,0-1.11-.92h-.37q0,.93-1.11.92h-.18l.18-1.29-.37-.37H329l-1.29,1.29-.19-.19.19-.55-.37-1.48a3.72,3.72,0,0,0,.55-2l-.55-2,.37-1.11-.37-2.4.19-.74v-.55q0-1.85-.37-1.85l.18-1.29V56.12l1.29-1.29v-.37l-.37-.37h-.37l-.18.19h-.19l-.19-.19.19-1.29-.37-2,.18-3-.37-2q.46-1.48,1.66-1.48,0,1,2.22,1.85,0,.93.37.92,1.11,0,4.44-2.4,0-.55.92-.55,5.18-5.32,5.18-8.32ZM333.47,13l3.51.74v.92a1.54,1.54,0,0,0,1.48.92l1.11-.18.37.74L341,16l1.11.37v.55L342,18.21h-.37l-.74-.55h-.55l-.92,1.11a4.09,4.09,0,0,0-1.85-.92l.19-.18v-.19h-.37L337,18.58v.19h.92v.55h-.37v.55l.19.55h-.19q-.79,0-1.29,1.48l-.18.19.37.55V23q-.74,0-.74.55c0,.25-.25.37-.74.37l-.19.19v.19l.19.92h.37l.55-.37h.19a2.21,2.21,0,0,0,.55,1.48l-.19.92-.19-.18-.55.55h-.18l.18.55h.19l.55-.37.37.55-.74,1.29V30l.18.74q0,.55-.92.55,0,.93-.55.92-.19,1.66-.55,1.66H334l-.37-1.85v-.55q-2-.37-2-1.29h-.55q0,1.48-1.85,1.48l-.92-.18-.55.55h-.19v-.55l-.19-1.66.19-1.85V26.53q.79,0,.74-.74l-.19-3.88q.37,0,.37-.55-.32-.92-.92-.92V19.14q0-.37.55-.37,2.26,1.66,3.33,1.66h.19l1.11-.37.55.19,1.29-.37v-.19a1.49,1.49,0,0,1-.55-1.11h-.55l-.92.19q0-.37-.92-.37l-.19-.18V18l.19-.74h-.92c-.25,0-.37-.18-.37-.55h-.74l-.55.37h-.37l-.37-.37.37-.37v-.19l-.19-.18v-.19q1.29-1,1.29-1.85v-.18h-.37V13.4l.55-.18,2.59.37Zm-5.92,1.29h.19l.37.37v.19h-.19l-.37-.37Zm0,18.12h.19l.37.37-.19.92-.37-.37Zm0,1.85h.37l.37,1.29h-.55l-.19-.92Zm.74,3.33q.69,2,1.11,2l1.29-.92.19.18q0,1.34-3,4.25l-.37-.37v-2a1.92,1.92,0,0,1,.74-1.48l-.37-1.48.19-.18Zm.55-23.11v.55l-.55-.18V14.7Zm-.55,41.23v.19l.74.74h.37v-.55l-.37-.37Zm.55-1.48.37.37h.19l.18-.55-.18-.19h-.19Zm.37,14.61v.55q0,.56.74.55l1.11-.37v-.37l-1.29-.55ZM330,20.62l-.19.19V21l.37.37h.19V21Zm.55,5.73.92,2.4h.37l.37-.37v-.92L332,25.61h-.55Zm1.85-1.11v.37l.37.37h.18l.55-.55v-.19Zm.74,3.7.55.55H334l.37-.37V28.2h-.55Zm.74-3.51v.37L334,26v.18l.55-.18v-.55Zm.92.55-.37.92v.37l.92.19h.19a2.62,2.62,0,0,1-.37-1.48Zm-.19-8.87v.55l.37-.37-.19-.18Zm2.77,15h.37l.37.37q0,1-2,2.4l-.19-.19v-.19Q337.35,32.77,337.35,32.08Zm1.85-10.54.37.37-.37.37-.37-.37Zm1.11,24.22.19.55h.18l.37-.37v-.37h-.37l-.18.19Zm17.84,23.85h.55v.74l-.37.37h-.19Zm.74-2q.92.23.92.55l-.37.37h-.74l-.37-.37v-.19C358.71,67.95,358.89,67.83,358.89,67.58Zm2-2.4.19.19v.37h-.74Z"/><path class="cls-2" d="M382.34,13.64h3.51l.74.74-.19.92q1.11.42,1.11.74c-.25,0-.37.19-.37.55l-.19.19h-.19l-.37-.37-.55.37h-.37v-.37h-.55v.37l.37.55-.37.55v.19l.55.55h.18l.37-.37v-.18l-.19-.19V17.7l1.11-.37q.46,3.38,1.11,4.07l-.19.55q1.11,10.91,2.77,10.91v.74l-.18,1.29.55.55v.37h-.37l.55,1.85L391,39.34q.42,3.14.92,3.14.92,0,.92.37V43q0,.37-.92.37l-.19.19v.18l.55.74L392,46a7.22,7.22,0,0,0,1.29,2.77V49l-.37.55.37.37-.19.92Q393.53,56,394,56l-.18.55.74,2.59-.18.18v.19A76.22,76.22,0,0,1,396,70.58l-.19.19V71l.19.74a1.22,1.22,0,0,1-1.29.92h-.19l-2-.18-2.4.18h-2.59q-.79,0-1.29-5.73L386,66.7l.55-.55v-.37l-.55-.55.55-1.48-.55-.55-.19.19a5,5,0,0,1-.55-2.22l.37-1.66q-.32-.92-1.66-.92l-.37.37h-.19l-.55-.37-.55.37h-.92l-.19-.19H381l.37-2.22-.19-.18h-.37v.18l.19.92q0,1.66-1.11,1.66l-.92-.19-.18.19-.37-.37h-.18a5.94,5.94,0,0,0-3,1.66l.19.19v.19q-1,7.4-1.85,7.4l.55.55v.37l-.37.55v1.11q0,1.85-1.48,1.85h-.18l-.55-.18a28.84,28.84,0,0,1-5.36.37h-1.85l-.37-.37v-.37q1.25-8.37,1.85-9.06l-.19-.55a6.26,6.26,0,0,1,.74-3l.19.19h.18a11.33,11.33,0,0,0,.74-3.7l-.37-1.11q.46,0,.92-2l-.37-.74.37-3.33h.19l.55.37.37-.55v-.37l-.74-.37.55-2.22-.18-.55H369l.92-.37.18.55h.55q.37,0,.37-.55h.37l.55.37.74-.74-.19-.18H374l1.11-.19,1.11.37h.19a1.79,1.79,0,0,0-.74-1.29v-.92c-.37,0-.55-.12-.55-.37l1.11-1.29-.18-1.29h-.37A4.88,4.88,0,0,1,374,40.45l-.37-.37.19-1.11-.37-.37h-.37l-.19.92a.49.49,0,0,0,.55.55v.37a1.22,1.22,0,0,1-1.29.74v1.48h-.37l-.74-1.11h-.37l-.18.74h-.19q-.37-1.48-1.11-1.48l.19-.55h.18l.55.37.19-1.29h.19l.55.37h.55q.37,0,.37-.55-.37-2.4-1.11-2.4l.19-.74-.55-1.11v-.37c.37,0,.55-.12.55-.37l-.19-1.29h.37l.55.37.55-.74q-.74-.18-.74-.74l-.19.19h-.19l-.37-.37v-.18a10.77,10.77,0,0,1,1.11-3.7l-.55-.92L372,26l-.19-1.29V24l.37-.37h.18v.92l.19.92h.55l.37-.37v-.37l-.18-1.11q.28-.74.55-.74l-.19-.92v-.19h.92l.37-.37q0-.46-1.66-.92L373.1,19l1.11.19h.19V19q-1.29-.18-1.29-.74l.19-.74-.19-.19v-.19q0-3.33,1.48-3.33h7l.18.19H382Zm-15,52.14V66l5.55,1.85v-.37Zm2.22-24.22.55.74v.19l-.37.37H369v-.37h-.18Q369.22,41.65,369.59,41.56Zm-.37,21.63v.55h.37v.19l.74-.55v-.55h-.74Zm.92-20h.19v.92H370l-.37-.37Zm-.55,4.07.19,1.85H370l.55-1.66-.19-.19Zm1.11-1.11v.37h.19l.37-.37Zm.74,0,.19.92-.37.55v.19h1.11v-.37h.19l-.19-.19V47.1l.19-1.11h-.74l-.18.19Zm.37-9.06.37.37h.18l.19-.74h-.37Zm0,27.36v.19l.37.37h.18l.37-.37-.19-.19ZM374,53.76v.19l.74-.19a.49.49,0,0,1,.55.55l.19.19h.37l.37-.37v-.37q-1.11,0-1.11-.92h-.18Zm.19-15.35v.37h.19l.55-.18,1.11.18h.18v-.55L375.5,38Zm1.48-4.25.19.18h.37l.37-.37v-.19h-.55Zm3.33.55h-.18q0-.92-.74-.92l-.55.19v-.19l-.74.55v.37l1.11.74h.19l.92-.18.19.74-.74,1.85.19.92-.37,3,.37,1.29L377,49.14q.32,1.29,1.11,1.29l2-.18q1.85.09,1.85.55v.92q0,.55-1.29.55l-.18.55,1.11,1.29h.18v-.74l-.55-.19-.18.19V53l.37-.55q.55,0,.55.92h.55a.49.49,0,0,1,.55-.55l.19-.19V51.35l-.92.18V50.8q.18-.56,1.11-.55a2.37,2.37,0,0,0,1.29,1.85l.55-.18v-.19a4.72,4.72,0,0,1-1.11-3.33q-.37,0-.37-1.11c-.37,0-.55-.12-.55-.37v-.37a2.13,2.13,0,0,0,.55-1.29v-.19q-1.11,0-1.11-.92l-.37-1.85v-.19a2.65,2.65,0,0,0,1.66-.74h.55v-.19l-.18-.19v-.18l-2,.37a13.15,13.15,0,0,1-.74-4.07l.55-1.48q-1.39,0-1.66-5.18l-.37-.37Q379.57,30.09,379,34.71Zm-2-1.66v.37h.55v-.37Zm4.25,22.37V56h.37v-.55Zm.92-3.7h.55v.37l-.55-.18Zm.74-17.56v.18l.37.37.18-.19v-.37Zm.74-.92V34h.19l.18-.55-.18-.19Zm.55,10.91v.18l.37.37h.55v-.19l-.37-.37Zm.74-1.29v.37h.18l2.22.19v-.55L386,42.48Zm.55,10-.19.19v.74h.55V53.2Zm.55-1.66v.19l.92.18h.37l.37-.37V50.8l-.19.18H387v-.37h-.37Zm.74-3v.37h.55l.19-.55-.19-.19h-.18Zm.37,17v.55h.18l.37-.37-.19-.18Zm.37-9.43V56l.37.55-.55.74h1.48v-.55l-.74-.92Zm0-11.83v.55h.37V44Zm.19,5.55-.19.55.37.55.74-.55Q388.63,49.64,387.71,49.51Zm.18-1.48V49h.19V48Zm0,14.05v.55l.37.37h.55v-.37l-.55-.55ZM389,56.53v.74h.19l1.48-.19v-.55h-1.11l-.18.19h-.19Zm2,.92q0,.55-.37.55l-.92-.19v.55c0,.25.19.37.55.37l.55-.18v.18l-.19.55,1.11.37.19-.19v-.37a3.45,3.45,0,0,1-.74-1.66Zm-1.29,5v.18h1.11v-.37l-.37-.37ZM391,61.15l-.19.55h.37l.37-.37v-.19Zm.18-.92v.18l.37.37v-.55Z"/><path class="cls-2" d="M395,.37l.74.19V.74q0,.37-2.59.74V1.29Q393.13.88,395,.37Zm2.77,37.53v.55h-.37v-.19ZM398.12,0l.74.19V.55l-.37.37q-.93-.23-.92-.55V.19Zm2.77.74h.55l.19.92h-.55Zm8.32,54.36q.55,0,.55.92l.74.55-.55.19a11.24,11.24,0,0,0,2,6.1v.37l-.19,1.11.37,1.66-.37,2.59.19.55L411.25,71h-.18L410,70.45l-.19.55h-.19a7.44,7.44,0,0,1-4.25-3.33l.19-1.11-.37-.37h.19l.55.37.19-.19h.18a2.53,2.53,0,0,0-1.11-1.29H405q-.37,0-.37,1.11h-.37q-1.57-1.62-2.77-6.1l.37-.37a1,1,0,0,1-.74-1.11v-.18q0-2,1.11-2,.92,0,.92-.74l.19.18h.18l2-.37.74.19A6.59,6.59,0,0,1,409.22,55.1Zm2-42.34h.37l.92,1.11a4.54,4.54,0,0,1-.55,2.4l.55.74-.19.19v.19l.37,1.11-.19.55.19.92A10.87,10.87,0,0,1,411.25,24a5.72,5.72,0,0,0-.37,2.4v.37q0,2.22,2,7l-.37.37c-.25,0-.37-.18-.37-.55h-.37l-.18.19h-.19q-.14-.92-.55-.92-.6,0-.92,1.85l.55.19v-.19l.18.19h1.11l.19.74-.19.18.19.92v1.48l.55.19.19-.19v.92l-.55.55v-.37H412v.55l.19,1.11q-.23,3-.74,3a34.56,34.56,0,0,1-7.21-7.77A8.21,8.21,0,0,1,403.3,32v-.55l-.37-.37v1.48h-.18q-.93,0-1.11-4.81l1.11-.37-.19.18v.37l.19.18v.19l-.37.37v.19h.37v.92l.37.37V30l-.19-1.66.37-.37q-.37-.32-.37-1.85l-.18-.19h-.19L402.37,27a1.86,1.86,0,0,1-.92-1.85,7,7,0,0,0,.55-2.77h.37l-.18.55.37,2.4h.19l.37-2.22-.37-.74a5.22,5.22,0,0,1,.92-3.33l.19.18h.55l-.19-1.29a12.53,12.53,0,0,1,6.29-5ZM402,.55l.37.37-.18.19v.19l-.55-.19V.92Zm1.11.37h.55l-.37.37h-.19Zm.37,56.95v.55h.37v-.55Zm.74,1.48v.55h.37v-.55Zm.37-27.18v.55H405l.37-.37v-.19Zm1.29-13.5v.19q0,.42,2,.92l-.18-.18V19l.18-.19v-.19l-.37-.37v-.55l.19-.19v-.18h-.37A3.92,3.92,0,0,0,405.89,18.67ZM406.26,56v.92h.37v-.55Zm3.88-53.44.19.19V3l-1.48.74-.19-.18h-.19l-1.11.18-.92-.37V3.14l.19-.18V2.77l.18.19h.55l1.11-.19L409,3Zm-3,57.69.18,1.29h.19l.19-.92-.37-.37Zm1.11-44.74v.19H409v-.19l-.37-.37Zm.55,6.47v.55h.37V22Zm.74-6.66v.55l.55.55.37-.55-.19-.92H410Zm1.66,56.21h.19l.37.37h-.18Zm0,1.66.37.37v.19h-.37Zm2.4-38.83,1.11,1.48-1.48,1.29q-.42,0-.74-1.85ZM413.1,42h.37a3.71,3.71,0,0,1,2,3.33l.18.19v.37c-.25,0-.37.19-.37.55l-.19.74-.18.19h-.19l-2.22-2.22v-.37h1.11v-.37a2.72,2.72,0,0,1-.92-2Zm1.85-30a23,23,0,0,1,9.8,2.59l.55-.19a2,2,0,0,0,2,1.11l.19.19v.18l-.92.74q1.62,1.66,2.22,1.66,0,1.29,1.85,1.29a1.31,1.31,0,0,0,1.29.92l.37-.37h.55l-.74,1.11.55.18v.37h-.37q0,.55-1.29,1.11l-.19-.19h-1.29v.55a2.71,2.71,0,0,0,.74,1.48V25a2,2,0,0,1-2,.92q-.37,0-.37.55l-.18.19h-2.77q-.93,0-.92.37l-.18-.18h-.19l-1.11.37V27l-.19.19h-1.11v-.37l.19-.92q-.46,0-1.29-3-.6-1.43-4.07-3v-.19l-.92.19A1.61,1.61,0,0,1,414,18.49l.19-1.66L414,15.9l.37-.37v-.37a2.13,2.13,0,0,1-.55-1.29V12.57Q413.84,12.25,414.95,12Zm.18,25.7h.19v.19l-.37.37h-.19v-.19Zm2.4.55h.37a41.2,41.2,0,0,1,9.25,9.43,9.5,9.5,0,0,0,1.66,2.77l.18,1.11q0,.93-1.29.92v.19l.92.55h.55v-.37q1.06,0,1.29,5.18.18,4.25-3.14,9.8a.87.87,0,0,0-.92.74l-.19-.18h-.55l.19.92q-3.79,2.77-5.36,2.77l-.19-.19h-.19l-.74.19h-.19v-.55l-.74.92h-1.29l-.55-.37-1.11.37-.37-1.29.37-.55a4.62,4.62,0,0,1-.74-2.77q0-3.51,1.11-3.51a6.88,6.88,0,0,0,4.44-2,7.88,7.88,0,0,0,1.48,2.77v-.37a11.17,11.17,0,0,1-.92-3.88q.55-.79.55-4.07h-.19l.19-.19v-.19a12.83,12.83,0,0,0-3-5.55l.19-.92v-.37q-.74,0-.74-1.48l-.18-.55h-.19l.37-2-.37-.37V44a2.27,2.27,0,0,1,1.66-2.22l.19-.19v-.19l-.19-.55h.55v-.55Q418.23,40.31,417.54,38.27Zm.37-21.45-.18-.19h-.37q-1.66.32-1.66.74v.37l1.29.19,1.85-1.11,1.11.18h.18l-1.48-.74h-.19ZM417,66v.19l.37.37.19-.19v-.18l-.19-.19Zm1.11,3.7-.19.92v.74h.19l.37-.37V69.71Zm.37-22-.37.74.55.18.19-.18v-.37Zm1.29,1.11-.37.55v.37l.37.37h.55l.74-.37A1.22,1.22,0,0,0,419.75,48.81ZM421.42,22v.55h.19l.37-.37V22Zm.92,41.6V64h.19l.37-.37Zm.37-14.24v.19l.74.74h.37v-.74Zm0,13.13v.37h.55v-.37Zm.92-5.92v.37l.37.37,1.11-.92-.37-.37h-.55Zm.19-10.17v.19h.37l.19-.19h.18l-.18-.55Zm1.29.74v.19l.37.37v-.55Zm1.11,12.76v.55h.55v-.19l-.37-.37Zm1.48-9.24-.19.55h.19l.37-.37v-.18Zm0,9.06v.37h.55v-.37Zm.74-5.73v.55l.37-.37V54Zm0,1.48v.19l.19.55h.55V56Zm14.05-22q0,.79,2,1.85l.37-.37,1.48.19v-.74l1.11.19.55-.19.19.19v.18l-2,1.11h-.92l-.19.55-.55-.37-.18.19-1.11-.19-2,.19-.37-.37h-.19v.92l-1.48-.37-.37.37-.19-.19h-.19l-.74.19-2-.92v.19l.19.74V37l-.19.19.19.55,3-.37.55.18v.37q-2.59.23-2.59.74l-.92-.18-1.11.37-.92-.19v.92l-.92-.19h-.18a3.09,3.09,0,0,0-1.29,2l-.92-.18.37,1.11-.92.18q-.56-.18-.55-1.11l.92-.74.55.18.55-2.59-.19-.19V37.9l.19-.74,1.29.19V37l.92.19q0-.74.55-.74l.92-.74-.37-.37v-.18l.55-.19.55.19.37-.74h.19l.19.92-.19.55.19.19h.18l.19-.19.37.37h.74l2.22-1.29v-.37l-.19-.19v-.19Zm-12.2-15.53h.55v.18l-.37.37-.19-.19ZM431,35.87v.55h-.37v-.18Zm1.85-14.42h.55l.37.37-.92.18Zm.92-1.11,1.11.19.18-.19h.19l.19.74H436c0-.37.12-.55.37-.55v.19l-.19.18.37.74-.37,1.11v.92H436q-.88-.18-2-2l.55-.19v-.18l-.37-.37-.19.19-.55-.19v-.18ZM434,37.72l.92.55.18-.19v-.37l-.37-.37h-.37Zm3-17.75h.19l1.29.37v.37h-.55Zm2.59.37-.37.37h-.55v-.19Zm2.77,16.27.19.19h.19l1.11-.19q0,.42.55.37l2.4-.18q0,1.06-2.4,1.48l-.55-.19-1.48.55h-.74q-1.2,0-1.48-.74h-.37v-.19L441,37h.37c0,.37.12.55.37.55h.19Q441.94,36.61,442.31,36.61ZM441,20.15l1.85.37v.37h-1.29v.37h-.37l-1.11-.92Zm2.22,9.06h.37V30l-.37.37h-.55V30l-1.29.37-.19-.18V30l1.85-.55Zm.37,4.25h.19a1,1,0,0,1,1.11,1.11v.18h-.55l-.74-.92Zm.74-12.94h.37l.37.37-.18.19h-.19l-.74-.19Zm3.33,8h.74v.37l-2.22.19h-.55l-.37,1.29h-.19L444,29.21Q444.53,28.48,447.67,28.47Zm-1.85,1.29.55.19v.37h-.74v-.18l.19-.19Zm1.29,6.84h.55l.18.19V37h-.18l-.55-.18Zm.55-10q1.11.19,1.11.55l-.19.19h-.37l-.55-.55Zm2.4-3.33.55.55v.37l-.92-.18v-.37Z"/><path class="cls-2" d="M437.1,63.33h.74l-.37.37h-.37ZM466.87,13h.55l.55.37.55-.37q4.07.83,4.07,1.11l-.19.74q.32,0,.74,1.11l1.11-.37v-.37h.37l2.59-.55q0,2,2.22,2,1,.19,1.48,1.66l-.37.55.74.37v.55l-.74.18a4.48,4.48,0,0,0-2.4-.55h-.92l-.37.37q0,.42,1.29.55v.37H478a3.44,3.44,0,0,0-2.22.55l-4.62-1.48-.18.74h.37q-.19,1.29-.74,1.29t-1.85-1.29l-1.85-.18-.19.18v.19l.19.19-.37,1.85-.92-.18h-.18V23q-.93,0-1.66,2.4v.37q.42.93.92.92v.37q-.74,0-.74.37V28l.19.19v.18q-1.66,0-1.66,1.11l-.74,1.66.55.92a2.69,2.69,0,0,0-.92,1.66v.55H461q0-1.11-.37-1.11a11.82,11.82,0,0,0-1.29,3.33q-.51,0-.74,1.11.18.93.74.92v.19l-.55,1.11h.18q.74,0,1.66,1.11.42,0,.92,1.66l-.19,1.11v.18q.65,0,1.11,1.48l-.19,1.11.92,1.66h.55v.37l.74,3.7q.56,0,2,1.29l-.19.92.19.55-.37,1.11v.37l1.48-.37.18,1.11h-.92v.37q.69,1.29,1.48,1.29v.19l-.18.19v.18l.74,1.11q-.65,0-1.48,1.29l-1.11-.74h-.19l-.92,1.11v.19q0,.32,1.48,1.29l.19.92q0,.79-2,.92l-.37,1.11.74.55q-.74.28-.74.55v.55l.37.37.74-.55v.55h.55q.42,0,.74-1.48l-.37-.37v-.19l1.66-.37L467.8,65l.74-.37.92.74.37,1.11v.37l-.19.19a2.71,2.71,0,0,1,.55,1.66l.19,1.11q.65,0,.92,1.29a16.82,16.82,0,0,1,4.07.74,3.5,3.5,0,0,0,2.22-.74,4.48,4.48,0,0,0,3.14,1.29H482v-.55q-1.11,0-1.11-.37l1.48-.37h1.11l3,.92.18,1.11a3.64,3.64,0,0,1-2-.55l-.55.37h-2a2.58,2.58,0,0,0-1.66.55q-1.29-.55-7.4-.92v.18l-.19-.18h-.18l-3.14.18v-.18l-3,.55-2.22-.37-3.33.19q0-.46-3.51-.92,0-.28-3.88-.55l-.19-.19h-.18v-.55q.18-.55,1.11-.55h.55c0,.37.12.55.37.55h.19l.55-.37h.18a2.75,2.75,0,0,0,2,.74l.55-.18,1.11.18h.37v-.37q0-1.11-1.85-3.7a28,28,0,0,0-1.66-5.73,24,24,0,0,1-2.4-5.55l.18-.19V54.08l-.18.19h-.37q-.32,0-.55-1.11l.92-2.59h-.19q0-.83,3.33-1.66H458v-.18a6.93,6.93,0,0,0-2-2.59q0-1.29-.55-1.29-.88.19-1.48,1.48a.87.87,0,0,1-.74-.92l.55-.55a6.1,6.1,0,0,0-3.7-1.66v.18q-2.22,1.94-2.22,3a.65.65,0,0,1-.74.74v-.37h-.55v.19q0,1.06,1.29,1.48l1.85-.37.19.55q-1.66,2-2.59,2v.19l.19.19h.37l.19-.19h.19q.42.93.92.92l.92-.18.37,1.66v.37q-1.29.14-1.29.92l.19.55h-.19q-.93,0-.92.74h.18l.92-.19v.19l-.19.74q.23.93.55.92,1.11-.23,1.11-.74h.37l.19.55h-.19q.23,1.29,1.29,1.29a2.86,2.86,0,0,0,.74,1.66v.19l-.19.18v.19l.92.37v.55h-1.29a1.4,1.4,0,0,1-.55,1.11l-.74-.37-.55.92.19.19.18-.19h.37v.37a3.73,3.73,0,0,0-.74,2.4H451q1.11.23,1.11.55v.19q-.93,0-.92.37v.55l.19.19-.19.55h-.55q0-.55-.37-.55a4.39,4.39,0,0,0-.92,1.85V70l1.29.19-.37.55.37,1.11q.56,0,.55.37v.19h-.37v.37q0,1.34-.55,1.48-.88-1.29-1.29-1.29l-1.11.37-.37-.37-3.33.37h-1.29l-.37-.37.19-.19v-.18l-.19-.19h-.37v.55h-.55a3.06,3.06,0,0,0-.92-1.85v-.55l.55-.74v-.74a1,1,0,0,1-.92-.74l.37-2-.55-3.51q.32,0,.55-.92l-.18-2,.37-.55-.37-1.11V56.49l.37-.55-.37-.37q.09-1.48.74-1.48l-.18-.92.18-.19v-.19l-.55-.55v-.74q.6,0,1.11-.92V49.09q-.55,0-.92-3,.55-.18.55-1.11l-1.11-4.25.19-3.7-.19-2,.92-4.81a3,3,0,0,0-.92-1.48l.19-1.85v-.55l-.19-1.85h.19l-.19-.18V22.65l.37-1.11-.37-.37.19-1.48a3.64,3.64,0,0,0-.55-1.85l.37-.55V15.07l.19-.92h4.44l1.48-.37.37.37h2.22q.46,0,.55,1.48l-.18,2,.18.74-.18,1.66v2.4l-.19,1.11.19.92-.19.92.19,1.11V28.2q0,.55-.74.55v.37l.19.19v.18l-.19.19-1.85-.19h-.37l-.74,1.29h-.18l-.55-.19-.19.19V31c0,.25.19.37.55.37l.55-.19.19.19-.19.19v.37l.19.19v.18l-2.77.92-.19.92v.37l.55.55h.19l.55-.37.18.19V35l-.18,1.11v.19h.18l.74-.74V34.11H446l.74.74h.37l.55-.19V35h.55l.55-.55-.19-2,.19-.19h.18q.32,0,.55,1.66h.74v-.37q0-1.11,2-4.44l.55-.55-.18-.55q.55,0,2.22-4.25l.74-.19-.18-.92a61.82,61.82,0,0,1,4.81-9.25l1.85.37.74-.37.19.19.92-.19,1.11.19Zm-25.7,53.25v.37h.55l-.37-.37Zm2.22,5.36v.74h.19l.37-.37v-.37Zm.37-22.74v.37h.74l.92-1.11q0-.37-.55-.37T443.76,48.9Zm0,11.28v.37l.18.19v.19l.55-.19v-.19l-.37-.37Zm.92-38.83.37.37.19-.18v-.19Zm.37,7v.37h.55a1.19,1.19,0,0,0,.74-1.11h-.19Q445.06,28.06,445.05,28.38Zm.55,40.68-.18.19v.18l.18.19h.19l.19-.19v-.18l-.19-.19Zm0-11.65v.74l.37.37q.6,0,2.22-1.85v-.55h-.92ZM446,25.79l-.19.19v.18l.37.37h.37V26Zm0,15v.74l.92.18.55-.74-.37-.37h-.19Zm.55-16.27v.19l.55.74h.37v-.19l-.74-.74Zm.37,2.77v.55h.37v-.55Zm.92,11.28v.19l.37.37h.37l-.55-.55Zm2,19.41v.55H450l.37-.37Zm2-22.37h.74l.37-.74v-.19l-.55-1.11Q451.9,33.56,451.9,35.59Zm.55,1.11v.55l.74-.74v-.19h-.37ZM453.56,40l.19.19h.37v-.55h-.19Zm1.85,3.14v.37H456l.37-.37V42.8h-.55Zm2.22-21.63v.18h.55v-.55H458Zm3.7,2v.92h.74v-.37Q462.07,23.85,461.33,23.57Zm.92,45.11q.42,1.11.74,1.11,0-.37,1.11-.74v-.19q-.32,0-.55-.92h-.37Zm1.29-4.62v.37l.37.37q0-.37.55-.37l.19.19h.19q1.29-.23,1.29-.55V63.7l-.55-.19-.18.19q0-.37-.55-.37Zm.37-45.67v.37h.74l-.37-.37Zm.37,35.13-.19.55h.37v-.55Zm.18,15.35v.55h.37v-.55Zm2.22-52.14h.92v-.37h-.55Zm1.48,4.44q.37,0,.92,1.11v.37l-1.29-.37v-.37Zm5.73-4.81v.92l.92.19a1,1,0,0,0,.74-1.11Zm.19,2.59v.37q.18.55,1.11.55l.19-.19v-.55Zm8-3.7h.18v.37l-.37.37h-.19v-.37Zm1.48-.55a1,1,0,0,1,.92,1.11v.37l-1.11.37-.55-.74Q483.14,14.7,483.51,14.7Z"/><path class="cls-2" d="M499.2,13.64h3.51l.74.74-.18.92q1.11.42,1.11.74-.37,0-.37.55l-.18.19h-.19l-.37-.37-.55.37h-.37v-.37h-.55v.37l.37.55-.37.55v.19l.55.55h.18l.37-.37v-.18l-.18-.19V17.7l1.11-.37q.46,3.38,1.11,4.07l-.19.55q1.11,10.91,2.77,10.91v.74l-.18,1.29.55.55v.37h-.37l.55,1.85-.18,1.66q.42,3.14.92,3.14.92,0,.92.37V43q0,.37-.92.37l-.19.19v.18l.55.74L508.81,46a7.22,7.22,0,0,0,1.29,2.77V49l-.37.55.37.37-.18.92q.46,5.18.92,5.18l-.18.55.74,2.59-.18.18v.19a76.22,76.22,0,0,1,1.66,11.09l-.18.19V71l.18.74a1.22,1.22,0,0,1-1.29.92h-.19l-2-.18-2.4.18h-2.59q-.79,0-1.29-5.73l-.18-.19.55-.55v-.37l-.55-.55.55-1.48-.55-.55-.18.19a5,5,0,0,1-.55-2.22l.37-1.66q-.32-.92-1.66-.92l-.37.37h-.19l-.55-.37-.55.37h-.92l-.19-.19h-.18l.37-2.22-.19-.18h-.37v.18l.19.92q0,1.66-1.11,1.66l-.92-.19-.18.19-.37-.37h-.18a5.94,5.94,0,0,0-3,1.66l.19.19v.19q-1,7.4-1.85,7.4l.55.55v.37l-.37.55v1.11q0,1.85-1.48,1.85H489l-.55-.18a28.84,28.84,0,0,1-5.36.37h-1.85l-.37-.37v-.37q1.25-8.37,1.85-9.06l-.19-.55a6.26,6.26,0,0,1,.74-3l.19.19h.18a11.33,11.33,0,0,0,.74-3.7L484,54.87q.46,0,.92-2l-.37-.74.37-3.33h.19l.55.37.37-.55v-.37l-.74-.37.55-2.22-.18-.55h.18l.92-.37.18.55h.55q.37,0,.37-.55h.37l.55.37.74-.74-.19-.18h1.48L492,44l1.11.37h.19a1.79,1.79,0,0,0-.74-1.29v-.92c-.37,0-.55-.12-.55-.37l1.11-1.29-.18-1.29h-.37a4.88,4.88,0,0,1-1.66,1.29l-.37-.37.19-1.11-.37-.37H490l-.19.92a.49.49,0,0,0,.55.55v.37a1.22,1.22,0,0,1-1.29.74v1.48h-.37l-.74-1.11h-.37l-.18.74h-.19q-.37-1.48-1.11-1.48l.19-.55h.18l.55.37.19-1.29h.19l.55.37h.55q.37,0,.37-.55-.37-2.4-1.11-2.4l.19-.74-.55-1.11v-.37c.37,0,.55-.12.55-.37l-.19-1.29h.37l.55.37.55-.74q-.74-.18-.74-.74l-.19.19h-.19l-.37-.37v-.18a10.77,10.77,0,0,1,1.11-3.7l-.55-.92.55-.74-.19-1.29V24l.37-.37h.18v.92l.19.92H490l.37-.37v-.37l-.18-1.11q.28-.74.55-.74l-.19-.92v-.19h.92l.37-.37q0-.46-1.66-.92L490,19l1.11.19h.19V19q-1.29-.18-1.29-.74l.19-.74-.19-.19v-.19q0-3.33,1.48-3.33h7l.18.19h.19Zm-15,52.14V66l5.55,1.85v-.37Zm2.22-24.22.55.74v.19l-.37.37h-.74v-.37h-.18Q486.07,41.65,486.44,41.56Zm-.37,21.63v.55h.37v.19l.74-.55v-.55h-.74Zm.92-20h.19v.92h-.37l-.37-.37Zm-.55,4.07.19,1.85h.19l.55-1.66-.19-.19Zm1.11-1.11v.37h.19l.37-.37Zm.74,0,.19.92-.37.55v.19h1.11v-.37h.19l-.19-.19V47.1L489.4,46h-.74l-.18.19Zm.37-9.06.37.37h.18l.19-.74H489Zm0,27.36v.19L489,65h.18l.37-.37-.19-.19Zm2.22-10.72v.19l.74-.19a.49.49,0,0,1,.55.55l.19.19h.37l.37-.37v-.37q-1.11,0-1.11-.92h-.18Zm.19-15.35v.37h.19l.55-.18,1.11.18h.18v-.55l-.74-.18Zm1.48-4.25.19.18h.37l.37-.37v-.19h-.55Zm3.33.55h-.18q0-.92-.74-.92l-.55.19v-.19l-.74.55v.37l1.11.74h.19l.92-.18.19.74-.74,1.85.19.92-.37,3L495.5,43l-1.66,6.1q.32,1.29,1.11,1.29l2-.18q1.85.09,1.85.55v.92q0,.55-1.29.55l-.18.55,1.11,1.29h.18v-.74l-.55-.19-.18.19V53l.37-.55q.55,0,.55.92h.55a.49.49,0,0,1,.55-.55l.19-.19V51.35l-.92.18V50.8q.18-.56,1.11-.55a2.37,2.37,0,0,0,1.29,1.85l.55-.18v-.19A4.72,4.72,0,0,1,501,48.4q-.37,0-.37-1.11c-.37,0-.55-.12-.55-.37v-.37a2.13,2.13,0,0,0,.55-1.29v-.19q-1.11,0-1.11-.92l-.37-1.85v-.19a2.65,2.65,0,0,0,1.66-.74h.55v-.19l-.18-.19v-.18l-2,.37a13.15,13.15,0,0,1-.74-4.07l.55-1.48q-1.39,0-1.66-5.18l-.37-.37Q496.43,30.09,495.87,34.71Zm-2-1.66v.37h.55v-.37Zm4.25,22.37V56h.37v-.55Zm.92-3.7h.55v.37l-.55-.18Zm.74-17.56v.18l.37.37.18-.19v-.37Zm.74-.92V34h.19l.18-.55-.18-.19ZM501,44.14v.18l.37.37H502v-.19l-.37-.37Zm.74-1.29v.37H502l2.22.19v-.55l-1.29-.37Zm.55,10-.18.19v.74h.55V53.2Zm.55-1.66v.19l.92.18h.37l.37-.37V50.8l-.18.18h-.55v-.37h-.37Zm.74-3v.37h.55l.19-.55-.19-.19H504Zm.37,17v.55h.18l.37-.37-.18-.18Zm.37-9.43V56l.37.55-.55.74h1.48v-.55l-.74-.92Zm0-11.83v.55h.37V44Zm.18,5.55-.18.55.37.55.74-.55Q505.49,49.64,504.56,49.51Zm.18-1.48V49h.19V48Zm0,14.05v.55l.37.37h.55v-.37l-.55-.55Zm1.11-5.55v.74H506l1.48-.19v-.55h-1.11l-.18.19H506Zm2,.92q0,.55-.37.55l-.92-.19v.55c0,.25.18.37.55.37l.55-.18v.18l-.19.55,1.11.37.19-.19v-.37a3.44,3.44,0,0,1-.74-1.66Zm-1.29,5v.18h1.11v-.37l-.37-.37Zm1.29-1.29-.18.55h.37l.37-.37v-.19Zm.18-.92v.18l.37.37v-.55Z"/></g></g></svg>