<svg xmlns="http://www.w3.org/2000/svg" viewBox="0 0 520.94 39.84"><defs><style>.cls-1{fill:#f4c215;}.cls-2{fill:#fff;}</style></defs><title>Asset 2</title><g id="Layer_2" data-name="Layer 2"><g id="Layer_4" data-name="Layer 4"><path class="cls-1" d="M0,6.64H3.32v33.2H0Zm3.32,0H39.84V10H3.32Zm0,29.88h33.2v3.32H3.32ZM36.52,10h3.32V39.84H36.52Z"/><path class="cls-1" d="M48.26,6.64h3.32v33.2H48.26Zm3.32,29.88H88.11v3.32H51.58ZM84.79,6.64h3.32V36.52H84.79Z"/><path class="cls-1" d="M96.53,6.64h3.32v33.2H96.53Zm3.32,0h36.52V10H99.85Z"/><path class="cls-2" d="M176.46,6.64H216.3V10H176.46Zm0,3.32h3.32l0,10.89-3.32-3.32Zm0,26.56H213v3.32H176.46Zm0,3.32h0Zm39.78-14.28v3.32l-39.74-8V17.53Zm-3.32,0,3.32,3.32.07,11H213Z"/><path class="cls-2" d="M228,36.52h-3.32V6.64H228Zm36.52,3.32H224.72V36.52h39.84Zm0-29.88H228V6.64h36.52Zm-24.8,26.63-5.08-.07L261.24,16.6l3.32,2.09Zm24.8-17.9-3.32-2.09V10h3.32Z"/><path class="cls-2" d="M273,6.64h3.32v33.2H273Zm3.32,0h36.52V10H276.3Z"/><path class="cls-2" d="M321.25,6.64h3.32v33.2h-3.32Zm3.35,29L359.23,6.54h4.91l-39.58,33.3Z"/><path class="cls-2" d="M372.83,0h3.32V3.32h-3.32Zm0,6.64h3.32v33.2h-3.32Z"/><path class="cls-2" d="M384.57,6.64h39.84V10H384.57Zm0,3.32h3.32V39.84h-3.32Zm3.32,26.56h36.52v3.32H387.89Z"/><path class="cls-2" d="M436.16,36.52h-3.32V6.64h3.32Zm36.52,3.32H432.84V36.52h39.84Zm0-29.88H436.16V6.64h36.52Zm-24.8,26.63-5.08-.07L469.36,16.6l3.32,2.09Zm24.8-17.9-3.32-2.09V10h3.32Z"/><path class="cls-2" d="M481.1,6.64h39.84V10H481.1Zm0,3.32h3.32l0,10.89-3.32-3.32Zm0,26.56h36.52v3.32H481.1Zm0,3.32h0Zm39.78-14.28v3.32l-39.74-8V17.53Zm-3.32,0,3.32,3.32.07,11h-3.32Z"/></g></g></svg>